<?xml version="1.0" standalone="no"?>
<!DOCTYPE svg PUBLIC "-//W3C//DTD SVG 1.1//EN" "http://www.w3.org/Graphics/SVG/1.1/DTD/svg11.dtd" >
<svg>
<metadata>
Created by FontForge 20090914 at Mon Feb 26 22:31:22 2018
 By www-data
Typeface: Copyright &#194;&#169;1995 International Typeface Corporation. Data: Copyright &#194;&#169; 1995 Microsoft Corportation. All rights reserved.
</metadata>
<defs>
<font id="ErasITC-Medium" horiz-adv-x="1170" >
  <font-face 
    font-family="Eras Medium ITC"
    font-weight="400"
    font-stretch="normal"
    units-per-em="2048"
    panose-1="2 11 6 2 3 5 4 2 8 4"
    ascent="1638"
    descent="-410"
    x-height="1013"
    cap-height="1365"
    bbox="-347 -512 2321 1825"
    underline-thickness="120"
    underline-position="-94"
    unicode-range="U+0020-U+F002"
  />
<missing-glyph horiz-adv-x="2048" 
d="M256 0v1536h1536v-1536h-1536zM384 128h1280v1280h-1280v-1280z" />
    <glyph glyph-name=".notdef" horiz-adv-x="2048" 
d="M256 0v1536h1536v-1536h-1536zM384 128h1280v1280h-1280v-1280z" />
    <glyph glyph-name="space" unicode=" " horiz-adv-x="512" 
 />
    <glyph glyph-name="exclam" unicode="!" horiz-adv-x="562" 
d="M187 298l21 716l6 255l1 96c43.333 -0.666992 75.333 -1 96 -1l92 1c-7.33301 -88 -13.333 -180.667 -18 -278l-41 -789c-29.333 1.33301 -53.333 2 -72 2c-26 0 -54.333 -0.666992 -85 -2zM154 0l4 58c1.33301 15.333 2.33301 35.333 3 60l3 63
c47.333 -1.33301 82.333 -2 105 -2c18.667 0 52 0.666992 100 2c-2 -26 -5.33301 -86.333 -10 -181c-44 1.33301 -77.333 2 -100 2c-28.667 0 -63.667 -0.666992 -105 -2z" />
    <glyph glyph-name="quotedbl" unicode="&#x22;" horiz-adv-x="594" 
d="M142 1026c2 58.667 3 110.667 3 156l-1 183l72 -1l69 1c-12.667 -113.333 -22.667 -226.333 -30 -339c-21.333 1.33301 -39 2 -53 2c-18 0 -38 -0.666992 -60 -2zM370 1026c2 58.667 3 110.667 3 156l-1 183l71 -1l70 1c-12.667 -102.667 -22.667 -215.667 -30 -339
c-21.333 1.33301 -39 2 -53 2c-18 0 -38 -0.666992 -60 -2z" />
    <glyph glyph-name="numbersign" unicode="#" 
d="M314 487l-229.998 -3c8 30 15.667 69 23 117l228 -3l32 179l-230 -3c6 23.333 13.667 62.333 23 117l228 -3l82 477c16.667 -0.666992 38.667 -1 66 -1c28 0 49.667 0.333008 65 1l-87 -478h233l83 478c16.667 -0.666992 38.667 -1 66 -1s49 0.333008 65 1
c-6 -30.667 -35 -189.667 -87 -477l122 1c58.667 1.33301 93.667 2 105 2c-8.66699 -38 -16 -77 -22 -117l-226 3l-32 -179l228 3c-8.66699 -33.333 -16.334 -72.333 -23.001 -117l-226 3l-84 -487c-16.667 1.33301 -38.667 2 -66 2c-28 0 -49.667 -0.666992 -65 -2l89 488
h-233l-85 -488c-16.667 1.33301 -38.334 2 -65.001 2c-28 0 -50 -0.666992 -66 -2zM493.002 778l-32 -181h116h118l32 181h-234z" />
    <glyph glyph-name="dollar" unicode="$" 
d="M183 231c68 -35.333 126.001 -59.5 174.001 -72.5s94.333 -19.5 139 -19.5c43.333 0 83.5 7.83301 120.5 23.5s66.833 40.334 89.5 74.001s34 70.5 34 110.5c0 15.333 -1.66699 29.833 -5 43.5s-8.16602 26.834 -14.499 39.501s-15 26.167 -26 40.5s-20.333 25 -28 32
l-77.5 70.5l-121 110c-52 46.667 -89.667 81.5 -113 104.5s-45 49.833 -65 80.5s-34.833 61.5 -44.5 92.5s-14.5 62.5 -14.5 94.5c0 38 6.66699 74.167 20 108.5s33 65.5 59 93.5s55.333 50 88 66s81.667 30 147 42c1.33301 20 2 47.333 2 82s-0.333008 66 -1 94l84 -1
c18 0 45.667 0.333008 83 1c-5.33301 -61.333 -8.33301 -119.666 -9 -174.999c43.333 -4 79.166 -8.66699 107.499 -14s61.5 -13.666 99.5 -24.999c2 -45.333 6 -99 12 -161c-53.333 22.667 -100.166 38.334 -140.499 47.001s-78.5 13 -114.5 13
c-40.667 0 -77.5 -6.83301 -110.5 -20.5s-59.833 -35.834 -80.5 -66.501s-31 -64.334 -31 -101.001c0 -20 2.83301 -40.167 8.5 -60.5s16.667 -42 33 -65s33.333 -43.333 51 -61s58.667 -55.5 123 -113.5s112.666 -102.833 144.999 -134.5s58.166 -61.834 77.499 -90.501
s33.666 -57.667 42.999 -87s14 -60 14 -92c0 -30.667 -4.66699 -60.834 -14 -90.501s-22.833 -57.5 -40.5 -83.5s-38.167 -48.667 -61.5 -68s-48 -34.833 -74 -46.5s-62.667 -23.834 -110 -36.501c-1.33301 -38.667 -2 -70.334 -2 -95.001c0 -20.667 0.666992 -51 2 -91
c-35.333 1.33301 -62.666 2 -81.999 2c-18.667 0 -47.334 -0.666992 -86.001 -2c4.66699 58.667 7.33398 116.334 8.00098 173.001c-60.667 5.33301 -111 12.833 -151 22.5s-86.333 25.167 -139 46.5c-1.33301 66.667 -4 122 -8 166z" />
    <glyph glyph-name="percent" unicode="%" horiz-adv-x="1640" 
d="M383 1380c62.667 0 115 -16 157 -48s73.667 -78 95 -138s32 -130.333 32 -211c0 -93.333 -13.333 -179.833 -40 -259.5s-63.667 -136.667 -111 -171s-103.333 -51.5 -168 -51.5c-62 0 -114.833 15.667 -158.5 47s-76 76.833 -97 136.5s-31.5 126.167 -31.5 199.5
c0 96.667 13.5 186.167 40.5 268.5s65.333 140.833 115 175.5s105.167 52 166.5 52zM380 1285c-39.333 0 -74.666 -15.5 -105.999 -46.5s-55 -77.833 -71 -140.5s-24 -135 -24 -217c0 -63.333 6.66699 -115.5 20 -156.5s33.166 -72.833 59.499 -95.5s56.833 -34 91.5 -34
c64 0 112.833 36.667 146.5 110s50.5 169 50.5 287c0 68.667 -7 123.5 -21 164.5s-33.5 72.667 -58.5 95s-54.167 33.5 -87.5 33.5zM357 0l521 864l192 322l103 179c20 -0.666992 40.333 -1 61 -1s40.667 0.333008 60 1l-249 -409l-468 -786l-96 -170
c-19.333 1.33301 -39 2 -59 2c-19.333 0 -41 -0.666992 -65 -2zM1305 864c92 0 162 -34.835 210 -104.502s72 -165.167 72 -286.5c0 -63.333 -6.33301 -126.166 -19 -188.499s-32.334 -117.166 -59.001 -164.499s-60.667 -81.5 -102 -102.5s-87.666 -31.5 -138.999 -31.5
c-62.667 0 -115.167 15 -157.5 45s-74.333 74.167 -96 132.5s-32.5 126.833 -32.5 205.5c0 96.667 13.5 186 40.5 268s65.333 140.333 115 175s105.5 52 167.5 52zM1301 768.998c-40.667 0 -76.499 -16.001 -107.499 -48.001s-54.167 -78.833 -69.5 -140.5
s-23 -133.167 -23 -214.5c0 -66 6.66699 -119.167 20 -159.5s33.166 -71.666 59.499 -93.999s56.5 -33.5 90.5 -33.5c64 0 112.667 37 146 111s50 169.667 50 287c0 66.667 -6.66699 120.667 -20 162s-32.5 73.333 -57.5 96s-54.5 34 -88.5 34z" />
    <glyph glyph-name="ampersand" unicode="&#x26;" horiz-adv-x="1412" 
d="M1087 606c33.333 -1.33301 59.3369 -1.99609 78.0039 -1.99609c19.333 0 44.666 0.666992 75.999 2c-0.666992 -69.333 -9.5 -136.333 -26.5 -201s-41.833 -125 -74.5 -181l119.5 -115l115.5 -109c-47.333 1.33301 -83 2 -107 2c-30 0 -64 -0.666992 -102 -2l-145 136
c-23.333 -20 -43.5 -36.333 -60.5 -49s-38.167 -26 -63.5 -40s-53.333 -26 -84 -36s-65.667 -18 -105 -24s-79.666 -9 -120.999 -9c-94 0 -178 15.333 -252 46s-130.5 75.334 -169.5 134.001s-58.5 123.667 -58.5 195c0 35.333 5.16699 70.5 15.5 105.5
s28.666 70 54.999 105s60.333 68.167 102 99.5s99.167 67.666 172.5 108.999c-48 69.333 -80.667 127.166 -98 173.499s-26 90.166 -26 131.499c0 40 9.16699 80 27.5 120s45.5 75.167 81.5 105.5s77.5 52 124.5 65s96.167 19.5 147.5 19.5
c34.667 0 71.167 -3.16699 109.5 -9.5s83.833 -17.833 136.5 -34.5c0 -66.667 0.666992 -114.667 2 -144c-40.667 23.333 -77 39.5 -109 48.5s-64.333 13.5 -97 13.5c-48 0 -91.333 -8.83301 -130 -26.5s-68.334 -43.5 -89.001 -77.5s-31 -69.667 -31 -107
c0 -24.667 3.83301 -50 11.5 -76s22.5 -57.667 44.5 -95c31.333 -54 76.666 -116.667 135.999 -188c50 -60 105.333 -120.333 166 -181c23.333 -24 81 -80.333 173 -169c11.333 24 19.166 42.5 23.499 55.5s9 31.667 14 56s8.83301 48.666 11.5 72.999
s4.66699 51.166 6 80.499zM930.004 238.004c-83.333 79.333 -155.331 151.165 -215.998 215.498s-122.667 134.5 -186 210.5c-56 -34 -99.333 -62.667 -130 -86s-55.834 -48.333 -75.501 -75s-32.834 -51.834 -39.501 -75.501s-10 -47.5 -10 -71.5
c0 -48.667 14 -92.667 42 -132s67.667 -69.5 119 -90.5s109.666 -31.5 174.999 -31.5c38 0 74.833 3.83301 110.5 11.5s66.667 17.834 93 30.501s47.333 25.834 63 39.501s33.834 31.834 54.501 54.501z" />
    <glyph glyph-name="quotesingle" unicode="'" horiz-adv-x="367" 
d="M142 1026c2 58.667 3 110.667 3 156l-1 183l72 -1l69 1c-12.667 -113.333 -22.667 -226.333 -30 -339c-21.333 1.33301 -39 2 -53 2c-18 0 -38 -0.666992 -60 -2z" />
    <glyph glyph-name="parenleft" unicode="(" horiz-adv-x="656" 
d="M268 -451c-28.667 115.333 -51.999 233.998 -69.999 355.998s-27 250.333 -27 385c0 213.333 22.5 418.833 67.5 616.5s86.5 350.5 124.5 458.5c26.667 -0.666992 49.667 -1 69 -1c20.667 0 44.334 0.333008 71.001 1l-40 -143c-18 -64 -34.333 -129.333 -49 -196
s-27.167 -131.667 -37.5 -195s-18.833 -127 -25.5 -191s-11.667 -126.667 -15 -188s-5 -122.333 -5 -183c0 -73.333 1.5 -140.666 4.5 -201.999s7.66699 -120.666 14 -177.999s13.166 -106 20.499 -146s20.666 -104.667 39.999 -194c-22.667 1.33301 -45.667 2 -69 2
c-26 0 -50.333 -0.666992 -73 -2z" />
    <glyph glyph-name="parenright" unicode=")" horiz-adv-x="649" 
d="M195 1365c24.667 -0.666992 48.002 -0.998047 70.002 -0.998047c24 0 47.333 0.333008 70 1c32.667 -155.333 56.167 -293.333 70.5 -414s21.5 -239 21.5 -355c0 -196 -19.333 -386.833 -58 -572.5s-82.334 -343.834 -131.001 -474.501c-28.667 1.33301 -52.667 2 -72 2
c-20 0 -43 -0.666992 -69 -2c32 101.333 54 174 66 218c19.333 74 37 157.333 53 250s28.833 194.167 38.5 304.5s14.5 217.166 14.5 320.499c0 66.667 -2 134 -6 202s-9.83301 133.833 -17.5 197.5s-13.834 110.167 -18.501 139.5z" />
    <glyph glyph-name="asterisk" unicode="*" horiz-adv-x="1034" 
d="M247 799l195 219l-267 79c16.667 33.333 33 71 49 113l259 -109l-1 286c24 -1.33301 44.667 -2 62 -2c18.667 0 39 0.666992 61 2l-31 -286l270 104c10 -38 22 -75.333 36 -112l-278 -77l174 -217c-40.667 -28 -74.667 -53.333 -102 -76l-154 241l-182 -241
c-28.667 26 -59 51.333 -91 76z" />
    <glyph glyph-name="plus" unicode="+" 
d="M112 643c4.66699 38 7.33203 77.999 7.99902 119.999c178.667 -2.66699 316.334 -4 413.001 -4l12 422c12.667 -1.33301 34 -2 64 -2c31.333 0 52.666 0.666992 63.999 2c-2 -34 -4 -75 -6 -123l-15 -299l169 1c31.333 0 115.333 1 252 3c-4 -34 -6.66699 -74 -8 -120
c-173.333 3.33301 -312.666 5 -417.999 5l-12 -423c-14 1.33301 -35.333 2 -64 2c-29.333 0 -51 -0.666992 -65 -2c2 32.667 5 89.334 9 170.001l12 253l-157 -1c-38 0 -124 -1.33301 -258 -4z" />
    <glyph glyph-name="comma" unicode="," horiz-adv-x="461" 
d="M13 -219c50.667 138.667 92.666 261.667 125.999 369c44.667 -0.666992 81 -1 109 -1c26 0 61.333 0.333008 106 1l-64.5 -107.5c-19 -30.333 -48.833 -80.5 -89.5 -150.5l-66 -111c-24 0.666992 -44 1 -60 1c-17.333 0 -37.666 -0.333008 -60.999 -1z" />
    <glyph glyph-name="hyphen" unicode="-" horiz-adv-x="510" 
d="M-3 461c5.33301 49.333 8.00098 93.667 8.00098 133c92.667 -3.33301 175.667 -5 249 -5c71.333 0 154.333 1.66699 249 5c-4.66699 -46.667 -7.33398 -91 -8.00098 -133c-83.333 3.33301 -167 5 -251 5c-80 0 -162.333 -1.66699 -247 -5z" />
    <glyph glyph-name="period" unicode="." horiz-adv-x="461" 
d="M113 0l8.00098 185l102 -2c15.333 0 46 0.666992 92 2c-2.66699 -28.667 -4.33398 -54 -5.00098 -76l-5 -109c-43.333 1.33301 -74 2 -92 2c-16.667 0 -50 -0.666992 -100 -2z" />
    <glyph glyph-name="slash" unicode="/" horiz-adv-x="850" 
d="M-186 -451l222.001 446l574 1181l88 189l65 -1l64 1l-782 -1611l-95 -205c-28 1.33301 -49.667 2 -65 2c-14.667 0 -38.334 -0.666992 -71.001 -2z" />
    <glyph glyph-name="zero" unicode="0" 
d="M624 1387c49.333 0 95.833 -6.16602 139.5 -18.499s86.667 -35.333 129 -69s77.666 -78.834 105.999 -135.501s49 -119.167 62 -187.5s19.5 -140.833 19.5 -217.5c0 -102 -10.667 -203.333 -32 -304s-52.5 -187 -93.5 -259s-96.5 -126.333 -166.5 -163s-146 -55 -228 -55
c-96 0 -178.667 23.833 -248 71.5s-121.833 117.834 -157.5 210.501s-53.5 201 -53.5 325c0 104 10.167 207.167 30.5 309.5s52 191.666 95 267.999s99.833 132.833 170.5 169.5s146.334 55 227.001 55zM618 1259c-30 0 -59.501 -5.66602 -88.501 -16.999
s-56.833 -29 -83.5 -53s-49 -52 -67 -84s-35.167 -73.5 -51.5 -124.5s-28.666 -112.167 -36.999 -183.5s-12.5 -144 -12.5 -218c0 -69.333 4.66699 -131 14 -185c8 -46 22.667 -90.333 44 -133c15.333 -32.667 35.666 -61 60.999 -85s52 -41.667 80 -53s58.333 -17 91 -17
s64 6 94 18s59.833 33.667 89.5 65s56.667 77.5 81 138.5s42 129.833 53 206.5s16.5 154.667 16.5 234c0 65.333 -3.83301 122.666 -11.5 171.999s-20.167 95.666 -37.5 138.999s-39.666 78.833 -66.999 106.5s-54.5 46.834 -81.5 57.501s-55.833 16 -86.5 16z" />
    <glyph glyph-name="one" unicode="1" 
d="M514 0c8.66699 104 15.667 221.999 21 353.999l18 447c7.33301 167.333 12 299 14 395c-35.333 -21.333 -62.333 -38.333 -81 -51l-68 -46c5.33301 62.667 8 117.334 8 164.001c84.667 49.333 139.334 83.333 164.001 102c22 -0.666992 50 -1 84 -1
c35.333 0 65.666 0.333008 90.999 1l-25 -427l-26 -592l-4 -149c-0.666992 -38 -1 -76.333 -1 -115l1 -82c-33.333 1.33301 -64.333 2 -93 2c-32.667 0 -67 -0.666992 -103 -2z" />
    <glyph glyph-name="two" unicode="2" 
d="M115 0c2 22.667 3.66504 68.668 4.99805 138.001c110.667 107.333 212 210.333 304 309s176 195 252 289c64 78.667 109 141 135 187c16 28 26.833 52.5 32.5 73.5s8.5 41.833 8.5 62.5c0 46 -13.667 83.667 -41 113s-62.666 51.333 -105.999 66s-93.666 22 -150.999 22
c-95.333 0 -217.333 -19 -366 -57c9.33301 47.333 17.333 95.666 24 144.999c134 26 266.333 39 397 39c60 0 117.833 -5.83301 173.5 -17.5s104.667 -31.334 147 -59.001s73.666 -60.167 93.999 -97.5s30.5 -78 30.5 -122c0 -26 -2.5 -51 -7.5 -75
s-12.167 -46.667 -21.5 -68c-18 -40.667 -41.667 -83.334 -71 -128.001s-77.5 -107.667 -144.5 -189s-138.333 -162.666 -214 -243.999s-161.167 -168.666 -256.5 -261.999c46.667 -1.33301 126 -2 238 -2c62.667 0 133.5 0.666992 212.5 2s150.167 5 213.5 11
c-5.33301 -58 -8.66602 -103.333 -9.99902 -136c-118.667 1.33301 -261 2 -427 2l-183 -1z" />
    <glyph glyph-name="three" unicode="3" 
d="M115 30c-3.33301 57.333 -8 108.666 -14 153.999c75.333 -28.667 142.666 -48.334 201.999 -59.001s115 -16 167 -16c68 0 129.833 11.167 185.5 33.5s101.167 56 136.5 101s53 97.833 53 158.5c0 48.667 -13 92 -39 130s-65.167 67 -117.5 87s-123.166 30 -212.499 30
c-41.333 0 -87.666 -2.33301 -138.999 -7c4.66699 56.667 7.33398 102.667 8.00098 138c34.667 -6 66 -9 94 -9c70.667 0 136 8.83301 196 26.5s106.333 49.167 139 94.5s49 94 49 146c0 34.667 -7.33301 67.334 -22 98.001s-36 55.667 -64 75s-61.167 32.666 -99.5 39.999
s-77.166 11 -116.499 11c-51.333 0 -100.333 -3 -147 -9s-103 -17.333 -169 -34c8 30.667 16.333 77 25 139c77.333 11.333 139 19.166 185 23.499s90 6.5 132 6.5c70 0 135.833 -6.16699 197.5 -18.5s113.5 -32.666 155.5 -60.999s72.833 -64.166 92.5 -107.499
s29.5 -90 29.5 -140c0 -36.667 -5.66699 -73.334 -17 -110.001s-26.166 -68.334 -44.499 -95.001s-38.5 -48.667 -60.5 -66s-45.5 -31.666 -70.5 -42.999s-62.833 -24.666 -113.5 -39.999c53.333 -6 93.333 -13.333 120 -22s52.667 -22 78 -40s47.166 -39.833 65.499 -65.5
s32 -55 41 -88s13.5 -67.167 13.5 -102.5c0 -62.667 -14.333 -121.667 -43 -177s-69.334 -100.666 -122.001 -135.999s-112.334 -60.5 -179.001 -75.5s-136.334 -22.5 -209.001 -22.5c-52.667 0 -106.667 3.66699 -162 11s-123.333 21 -204 41z" />
    <glyph glyph-name="four" unicode="4" 
d="M649 0c10.667 122.667 19.332 279.665 25.999 470.998l-574 -5c2 18 3.66699 43.167 5 75.5s2 59.833 2 82.5l188 250l195 266c54.667 74 107 149 157 225c44 -0.666992 86.333 -1 127 -1c39.333 0 77.666 0.333008 114.999 1c-16 -250.667 -28 -505.667 -36 -765l31 -1
c98.667 0 153.334 0.333008 164.001 1s21.334 2 32.001 4c-2 -34 -3 -72.333 -3 -115v-22c-53.333 2.66699 -130 4 -230 4l-8 -295c-1.33301 -49.333 -2 -81.666 -2 -96.999c0 -17.333 0.666992 -43.666 2 -78.999c-36.667 1.33301 -67.667 2 -93 2
c-23.333 0 -56 -0.666992 -98 -2zM693.998 594.998c2 42 3 66.667 3 74l20 570l-468 -644h445z" />
    <glyph glyph-name="five" unicode="5" 
d="M161 17c-3.33301 55.333 -7.99805 103.997 -13.998 145.997c68 -19.333 124.167 -32.5 168.5 -39.5s86.833 -10.5 127.5 -10.5c55.333 0 108.5 7.16699 159.5 21.5s95.167 36.833 132.5 67.5s66 67.167 86 109.5s30 86.5 30 132.5c0 51.333 -13.333 96.333 -40 135
s-65.834 67.5 -117.501 86.5s-118.167 28.5 -199.5 28.5c-86 0 -186.333 -10 -301 -30l63 701c166.667 -0.666992 300.667 -1 402 -1h147l230 1c-4 -40 -6.33301 -86 -7 -138l-123 7l-75 1l-133 3c-65.333 0.666992 -125.333 1 -180 1l-89 -1l-42 -452
c70.667 10.667 133.667 16 189 16c62.667 0 119.834 -5 171.501 -15s95.167 -23.667 130.5 -41s66.666 -41 93.999 -71s48.166 -64.833 62.499 -104.5s21.5 -80.5 21.5 -122.5c0 -69.333 -16 -135.166 -48 -197.499s-76 -113.666 -132 -153.999
s-120.667 -70.166 -194 -89.499s-148.333 -29 -225 -29c-25.333 0 -58 1.83301 -98 5.5s-72.833 7.66699 -98.5 12s-58.5 11.5 -98.5 21.5z" />
    <glyph glyph-name="six" unicode="6" 
d="M515 790c39.333 7.33301 69.6689 12.1689 91.002 14.502s42.333 3.5 63 3.5c72 0 136.833 -11.667 194.5 -35s105.167 -65.166 142.5 -125.499s56 -130.5 56 -210.5c0 -58 -10 -114.833 -30 -170.5s-52 -107 -96 -154s-97.833 -81.167 -161.5 -102.5
s-132.167 -32 -205.5 -32c-64 0 -126 9.16699 -186 27.5s-111.5 46.833 -154.5 85.5s-74.333 84.667 -94 138s-29.5 107.666 -29.5 162.999c0 46.667 5.16699 98.834 15.5 156.501s34.166 129.167 71.499 214.5s86 176.166 146 272.499s136.667 206.166 230 329.499
c47.333 -0.666992 84.666 -1 111.999 -1c33.333 0 72 0.333008 116 1c-78.667 -95.333 -134 -164 -166 -206c-54.667 -71.333 -106.167 -147.333 -154.5 -228s-87.333 -155.667 -117 -225s-49.667 -126.5 -60 -171.5s-15.5 -89.833 -15.5 -134.5
c0 -60 11 -110.833 33 -152.5s54.667 -75.667 98 -102s94.666 -39.5 153.999 -39.5c60.667 0 115.334 13.5 164.001 40.5s85 65.167 109 114.5s36 103 36 161c0 50 -9.33301 95.167 -28 135.5s-49.167 71.166 -91.5 92.499s-93.166 32 -152.499 32
c-46.667 0 -101 -7.66699 -163 -23c39.333 67.333 63.666 111 72.999 131z" />
    <glyph glyph-name="seven" unicode="7" 
d="M226 0l324.001 658l278 578c-74.667 0.666992 -155 1 -241 1c-143.333 0 -285.333 -3.66699 -426 -11c4 48 6.66699 94.333 8 139c132 -0.666992 281.667 -1 449 -1l409 1l-8 -151l-21 -40l-117 -244l-313 -660l-118 -270c-48.667 0.666992 -84.334 1 -107.001 1z" />
    <glyph glyph-name="eight" unicode="8" 
d="M385 696c-42 16.667 -73.6689 32.165 -95.002 46.498s-42.5 34.5 -63.5 60.5s-36.833 55.667 -47.5 89s-16 69 -16 107c0 60.667 12.667 116.834 38 168.501s61.5 94.334 108.5 128.001s97.833 57.334 152.5 71.001s111.667 20.5 171 20.5
c74 0 142.833 -12.167 206.5 -36.5s114.5 -63.333 152.5 -117s57 -117.834 57 -192.501c0 -28.667 -2.66699 -57 -8 -85s-15 -55.333 -29 -82s-31.167 -50.667 -51.5 -72s-40.833 -38.833 -61.5 -52.5s-53 -30.167 -97 -49.5c46.667 -12 81.167 -23.167 103.5 -33.5
s44 -24.333 65 -42s38.667 -38.167 53 -61.5s25.333 -49.666 33 -78.999s11.5 -60.333 11.5 -93c0 -60.667 -12.167 -117.5 -36.5 -170.5s-58.666 -97.667 -102.999 -134s-99.166 -63.5 -164.499 -81.5s-133 -27 -203 -27c-97.333 0 -182.5 15.667 -255.5 47
s-127.167 74.5 -162.5 129.5s-53 118.167 -53 189.5c0 32 3.83301 63.833 11.5 95.5s20.167 62 37.5 91s37.666 53.667 60.999 74s47.333 36.666 72 48.999s62.334 26.5 113.001 42.5zM617.998 1265c-86.667 0 -156.168 -26.002 -208.501 -78.002s-78.5 -118.333 -78.5 -199
c0 -49.333 10.833 -91.833 32.5 -127.5s52.834 -62.667 93.501 -81s85.334 -27.5 134.001 -27.5c54.667 0 104.167 11.5 148.5 34.5s79.166 55.333 104.499 97s38 89.834 38 144.501c0 53.333 -13 98.333 -39 135s-58.5 62.834 -97.5 78.501s-81.5 23.5 -127.5 23.5z
M590.997 633.996c-71.333 0 -130.166 -11.168 -176.499 -33.501s-82.333 -54.166 -108 -95.499s-38.5 -88 -38.5 -140c0 -48.667 12 -93.5 36 -134.5s61 -72.833 111 -95.5s103.333 -34 160 -34c57.333 0 111.166 12 161.499 36s88.833 59 115.5 105s40 96.333 40 151
c0 74.667 -24.833 133.5 -74.5 176.5s-125.167 64.5 -226.5 64.5z" />
    <glyph glyph-name="nine" unicode="9" 
d="M391 0c156 202.667 278.166 383.834 366.499 543.501s132.5 298.5 132.5 416.5c0 58 -11.5 110.5 -34.5 157.5s-56 82.5 -99 106.5s-92.833 36 -149.5 36c-58 0 -111.333 -12.833 -160 -38.5s-86.167 -61.167 -112.5 -106.5s-39.5 -95.333 -39.5 -150
c0 -54 9.83301 -100.833 29.5 -140.5s51.667 -70 96 -91s96.5 -31.5 156.5 -31.5c25.333 0 50.166 1.66699 74.499 5s61.166 11.666 110.499 24.999c-23.333 -39.333 -48.666 -84.666 -75.999 -135.999c-59.333 -12.667 -113 -19 -161 -19c-82.667 0 -157 15.167 -223 45.5
s-114.167 73.333 -144.5 129s-45.5 119.167 -45.5 190.5c0 88 21.833 166.333 65.5 235s103.834 121 180.501 157s162.334 54 257.001 54c68 0 132.5 -10.167 193.5 -30.5s111.333 -50.5 151 -90.5s68.334 -86.5 86.001 -139.5s26.5 -104.5 26.5 -154.5
c0 -40 -4.33301 -84.333 -13 -133s-23.167 -100.5 -43.5 -155.5s-47.5 -116.333 -81.5 -184s-75.5 -140.334 -124.5 -218.001l-185.5 -282.5c-37.333 0.666992 -74.333 1 -111 1c-24.667 0 -65.334 -0.333008 -122.001 -1z" />
    <glyph glyph-name="colon" unicode=":" horiz-adv-x="461" 
d="M155 829l7.99902 183.999l101 -1l92 1c-3.33301 -41.333 -5.33301 -73.166 -6 -95.499s-2 -51.833 -4 -88.5l-91 1c-33.333 -0.666992 -66.666 -1 -99.999 -1zM112.999 -0.000976562l8.00098 185l102 -2c15.333 0 46 0.666992 92 2
c-2.66699 -28.667 -4.33398 -54 -5.00098 -76l-5 -109c-43.333 1.33301 -74 2 -92 2c-16.667 0 -50 -0.666992 -100 -2z" />
    <glyph glyph-name="semicolon" unicode=";" horiz-adv-x="461" 
d="M154 829c2.66699 39.333 4.33301 70.832 5 94.499s2 53.5 4 89.5l101 -1l92 1c-2.66699 -41.333 -4.5 -73.166 -5.5 -95.499s-2.5 -51.833 -4.5 -88.5l-91 1c-33.333 -0.666992 -67 -1 -101 -1zM12.999 -219.001c50.667 138.667 92.666 261.667 125.999 369
c44.667 -0.666992 81 -1 109 -1c26 0 61.333 0.333008 106 1l-64.5 -107.5c-19 -30.333 -48.833 -80.5 -89.5 -150.5l-66 -111c-24 0.666992 -44 1 -60 1c-17.333 0 -37.666 -0.333008 -60.999 -1z" />
    <glyph glyph-name="less" unicode="&#x3c;" horiz-adv-x="1028" 
d="M957 1173v-157l-717 -329l717 -330v-156l-887 418v136z" />
    <glyph glyph-name="equal" unicode="=" 
d="M136 898c140 -3.33301 298.667 -5 476 -5c175.333 0 334.333 1.66699 477 5c-4 -32.667 -6.66699 -73 -8 -121c-181.333 3.33301 -340 5 -476 5c-136.667 0 -295.667 -1.66699 -477 -5c4 36.667 6.66699 77 8 121zM117 629c181.333 -2.66699 340 -4 476 -4
s295 1.33301 477 4c-4 -34 -6.66699 -74 -8 -120c-180.667 3.33301 -339.334 5 -476.001 5c-136 0 -295 -1.66699 -477 -5c4.66699 38 7.33398 78 8.00098 120z" />
    <glyph glyph-name="greater" unicode="&#x3e;" horiz-adv-x="1028" 
d="M71 200v158l717 329l-716 330l-1 156l887 -418v-137z" />
    <glyph glyph-name="question" unicode="?" horiz-adv-x="959" 
d="M324 275l7.00195 138.997c3.33301 54 7 92 11 114s9.5 40.833 16.5 56.5s18.5 34.167 34.5 55.5c22.667 30 63 77.333 121 142s95.5 108.5 112.5 131.5s31.833 47.333 44.5 73s19 52.834 19 81.501c0 38.667 -11.833 73.5 -35.5 104.5s-59 53.333 -106 67
s-98.833 20.5 -155.5 20.5c-44.667 0 -91 -3.5 -139 -10.5s-112 -20.833 -192 -41.5c13.333 61.333 22.333 111 27 149c127.333 20 244.333 30 351 30c87.333 0 165.5 -11 234.5 -33s120.833 -57 155.5 -105s52 -99 52 -153c0 -24 -3 -49.5 -9 -76.5
s-18.833 -58.167 -38.5 -93.5s-45.167 -71.666 -76.5 -108.999s-65.833 -75.666 -103.5 -114.999s-64.5 -68.333 -80.5 -87s-28.5 -35.5 -37.5 -50.5s-15.833 -29.5 -20.5 -43.5s-8.83398 -32.167 -12.501 -54.5s-6.83398 -50.5 -9.50098 -84.5l-9 -107
c-26 1.33301 -52.333 2 -79 2c-28.667 0 -56 -0.666992 -82 -2zM290.002 -0.00292969l12 177l102 -1l101 1c-3.33301 -42.667 -5.33301 -77.5 -6 -104.5s-2 -51.167 -4 -72.5c-40 1.33301 -73.333 2 -100 2c-27.333 0 -62.333 -0.666992 -105 -2z" />
    <glyph glyph-name="at" unicode="@" horiz-adv-x="1669" 
d="M1198 996l-13.9932 -75c-0.666992 -2 -6 -36.667 -16 -104l-37 -237c-3.33301 -22.667 -5.66602 -40 -6.99902 -52c-0.666992 -6.66699 -1.16699 -12.5 -1.5 -17.5s-0.5 -9.16699 -0.5 -12.5c0 -23.333 6.16699 -40.833 18.5 -52.5s27.833 -17.5 46.5 -17.5
c40 0 83.167 20.167 129.5 60.5s83.5 93.833 111.5 160.5s42 137 42 211c0 64 -11.333 124.333 -34 181s-59.5 104.5 -110.5 143.5s-110.5 67 -178.5 84s-138.667 25.5 -212 25.5c-96.667 0 -188.167 -14.167 -274.5 -42.5s-163.333 -75.166 -231 -140.499
s-120.5 -145.166 -158.5 -239.499s-57 -192.833 -57 -295.5c0 -74.667 12 -145 36 -211s61 -121.5 111 -166.5s110.667 -77.5 182 -97.5s147 -30 227 -30c44 0 88.667 2.83301 134 8.5s88.666 15.834 129.999 30.501s86.333 38 135 70
c8.66699 -27.333 18.667 -54.333 30 -81c-60.667 -41.333 -127.167 -71.833 -199.5 -91.5s-152.5 -29.5 -240.5 -29.5c-96 0 -187.333 13.333 -274 40s-158.5 66.334 -215.5 119.001s-98.667 115.667 -125 189s-39.5 154 -39.5 242c0 115.333 22.833 228.166 68.5 338.499
s106.5 201.333 182.5 273s165.167 124.167 267.5 157.5s209.166 50 320.499 50c87.333 0 170.833 -10.833 250.5 -32.5s148.5 -55.834 206.5 -102.501s102.167 -104.5 132.5 -173.5s45.5 -142.167 45.5 -219.5c0 -91.333 -20 -177.166 -60 -257.499s-95.333 -146 -166 -197
s-141.667 -76.5 -213 -76.5c-45.333 0 -82 11 -110 33s-42 51.333 -42 88c-18.667 -20.667 -34.334 -36.834 -47.001 -48.501s-29.834 -23.334 -51.501 -35.001s-45.834 -20.834 -72.501 -27.501s-53.334 -10 -80.001 -10c-46.667 0 -89.5 11 -128.5 33s-68 52.333 -87 91
s-28.5 83.334 -28.5 134.001c0 72.667 19.167 145.667 57.5 219s92.166 128.166 161.499 164.499s154 54.5 254 54.5c27.333 0 55.666 -1.33301 84.999 -4s78.333 -10.667 147 -24zM1049.01 907c-37.333 9.33301 -72 14.001 -104 14.001c-62 0 -117 -13 -165 -39
s-85.833 -65.833 -113.5 -119.5s-41.5 -108.5 -41.5 -164.5c0 -30 5.33301 -58 16 -84s28.167 -46.667 52.5 -62s51.833 -23 82.5 -23c26 0 51 4.5 75 13.5s46 22.5 66 40.5s37 38.667 51 62s24.833 47 32.5 71s15.667 62.667 24 116s16.5 111.666 24.5 174.999z" />
    <glyph glyph-name="A" unicode="A" horiz-adv-x="1425" 
d="M-47 0l182.002 344.001l464 907l54 114l116 -1c36 0 75 0.333008 117 1l173 -490l320 -875l-95 2c-18 0 -53.667 -0.666992 -107 -2c-18 64 -47.833 156.667 -89.5 278s-76.834 219.666 -105.501 294.999h-547l-145 -299l-128 -274l-102 2
c-16.667 0 -52.334 -0.666992 -107.001 -2zM494.002 705.001h450l-186 529z" />
    <glyph glyph-name="B" unicode="B" horiz-adv-x="1233" 
d="M135 0c11.333 136 19.1689 246.333 23.502 331s10.333 247.5 18 488.5s11.5 391.5 11.5 451.5l-1 94c90 -1.33301 159.333 -2 208 -2c39.333 0 92.166 0.666992 158.499 2s117.166 2 152.499 2c73.333 0 129.166 -3.66699 167.499 -11s72.5 -19 102.5 -35
s55.333 -36.167 76 -60.5s37.334 -54.5 50.001 -90.5s19 -75.667 19 -119c0 -34 -4.16699 -66.833 -12.5 -98.5s-21.166 -61.334 -38.499 -89.001s-37.333 -51.5 -60 -71.5s-44.334 -35.5 -65.001 -46.5s-48 -22.833 -82 -35.5c34 -8.66699 61.167 -17 81.5 -25
s40.666 -18.667 60.999 -32s39.333 -29.833 57 -49.5s32 -40.667 43 -63s19.5 -47.5 25.5 -75.5s9 -57.333 9 -88c0 -42.667 -6.33301 -83.334 -19 -122.001s-31 -73.167 -55 -103.5s-52.333 -55.666 -85 -75.999s-65 -35.666 -97 -45.999s-74.167 -17.833 -126.5 -22.5
s-122.166 -7 -209.499 -7l-255 1zM350.003 767h181.005c81.333 0 136.666 1.83301 165.999 5.5s61.166 12.334 95.499 26.001s62.666 33.667 84.999 60s38.666 55 48.999 86s15.5 62.167 15.5 93.5c0 33.333 -5.5 62.666 -16.5 87.999s-27.5 47 -49.5 65
s-47.833 31 -77.5 39s-74.834 12 -135.501 12h-295zM326.008 126l260 0.00195312c73.333 0 127.666 4 162.999 12s70 22.167 104 42.5s60.667 50.666 80 90.999s29 83.166 29 128.499c0 37.333 -6.83301 71 -20.5 101s-33.667 56 -60 78s-57.166 38 -92.499 48
s-87 15 -155 15h-290z" />
    <glyph glyph-name="C" unicode="C" horiz-adv-x="1288" 
d="M1193 174c-9.33301 -48 -17.6699 -100.001 -25.0029 -156.001c-131.333 -26.667 -251.666 -40 -360.999 -40c-97.333 0 -191.333 14.833 -282 44.5s-169.5 75.5 -236.5 137.5s-115.833 135 -146.5 219s-46 174 -46 270c0 102.667 17 201.667 51 297
s85.5 176.166 154.5 242.499s152.333 116 250 149s199.834 49.5 306.501 49.5c114.667 0 229 -12 343 -36c0.666992 -34 4.33398 -86 11.001 -156c-74 22.667 -137 37.834 -189 45.501s-101.333 11.5 -148 11.5c-79.333 0 -155.333 -12.167 -228 -36.5
s-137 -63.166 -193 -116.499s-98.833 -118.833 -128.5 -196.5s-44.5 -158.5 -44.5 -242.5c0 -78 11.833 -152 35.5 -222s60 -129.167 109 -177.5s107.167 -85.333 174.5 -111s143 -38.5 227 -38.5c106 0 228 21 366 63z" />
    <glyph glyph-name="D" unicode="D" horiz-adv-x="1510" 
d="M134 0l28.001 411.998l30 809c0.666992 32.667 1 80.667 1 144c84 -1.33301 155.667 -2 215 -2c37.333 0 95 0.666992 173 2s133.333 2 166 2c111.333 0 204.666 -8.66699 279.999 -26c57.333 -12.667 109.833 -35 157.5 -67s90.167 -73.833 127.5 -125.5
s65 -108.5 83 -170.5c21.333 -74.667 32 -152.667 32 -234c0 -111.333 -19.667 -218.166 -59 -320.499s-97.833 -187.666 -175.5 -255.999s-164.667 -113.333 -261 -135s-203.833 -32.5 -322.5 -32.5l-279 2c-18 0 -83.333 -0.666992 -196 -2zM326.001 133.998
c81.333 -2 156.998 -2.99707 226.998 -2.99707c58.667 0 118.5 2.83301 179.5 8.5s115.667 16.167 164 31.5s95.833 42.833 142.5 82.5s84.834 84.667 114.501 135s51.834 106.666 66.501 168.999s22 125.5 22 189.5c0 72 -9.33301 138.667 -28 200
s-50.5 116.666 -95.5 165.999s-98.333 82.166 -160 98.499s-143.167 24.5 -244.5 24.5c-124.667 0 -238.667 -1 -342 -3z" />
    <glyph glyph-name="E" unicode="E" horiz-adv-x="1158" 
d="M134 0l25 376l28 703l3 153c0.666992 38.667 1 83 1 133c150.667 -0.666992 305 -1 463 -1l319 1h102c-4.66699 -46 -7.66699 -92.333 -9 -139l-89 5c-22 1.33301 -59.833 2.33301 -113.5 3s-106.834 1 -159.501 1c-157.333 0 -267 -1 -329 -3l-18 -469
c102.667 -2 194.667 -3 276 -3c88.667 0 205 1.33301 349 4c-4.66699 -46.667 -7.66699 -92.667 -9 -138l-344 3c-67.333 0 -161 -1.33301 -281 -4l-18 -494l104 -1c188.667 0 313.834 0.666992 375.501 2s133.834 4.33301 216.501 9
c-4.66699 -49.333 -7.66699 -96.333 -9 -141c-160.667 1.33301 -296.334 2 -407.001 2z" />
    <glyph glyph-name="F" unicode="F" horiz-adv-x="1091" 
d="M135 0l12.999 182.999c2.66699 41.333 5 86.333 7 135l22 595l6 240c1.33301 50.667 2 95 2 133v79c158 -0.666992 307.333 -1 448 -1l247 1h148c-5.33301 -61.333 -8 -107.666 -8 -138.999c-84.667 5.33301 -204 8 -358 8l-294 -2l-15 -472l192 -4
c181.333 0 313 1.33301 395 4c-4 -49.333 -6 -95 -6 -137c-123.333 2.66699 -227.333 4 -312 4c-83.333 0 -175.666 -1.33301 -276.999 -4c-7.33301 -245.333 -11 -453 -11 -623l-97 2c-4 0 -38 -0.666992 -102 -2z" />
    <glyph glyph-name="G" unicode="G" horiz-adv-x="1527" 
d="M909 765c115.333 -0.666992 204.004 -1.00195 266.004 -1.00195c66 0 140.333 0.333008 223 1c-14.667 -199.333 -25.334 -440 -32.001 -722c-202 -43.333 -374.667 -65 -518 -65c-106 0 -207.5 13.667 -304.5 41s-178.833 69 -245.5 125s-116.834 128 -150.501 216
s-50.5 181 -50.5 279c0 111.333 21.167 216.166 63.5 314.499s101.833 180.833 178.5 247.5s163 114.334 259 143.001s202.333 43 319 43c128 0 270.667 -17 428 -51c1.33301 -50 4.66602 -104 9.99902 -162c-93.333 30.667 -174 51.834 -242 63.501
s-130.667 17.5 -188 17.5c-90 0 -175.667 -13.5 -257 -40.5s-151 -68.333 -209 -124s-102 -124.5 -132 -206.5s-45 -166.667 -45 -254c0 -78 12.167 -151.167 36.5 -219.5s61.166 -124.166 110.499 -167.499s109.5 -76.5 180.5 -99.5s148.167 -34.5 231.5 -34.5
c45.333 0 99.333 4.16699 162 12.5s126 22.5 190 42.5l20 473h-94c-62.667 0 -134.667 -1.66699 -216 -5c4 48 6 92.333 6 133z" />
    <glyph glyph-name="H" unicode="H" horiz-adv-x="1509" 
d="M135 0l33.001 602.999l16 460l3 158c0.666992 22.667 1 70.667 1 144l102 -1l95 1l-29 -599h812l18 475c0.666992 16.667 1 58 1 124l102 -1l95 1c-17.333 -264 -29.833 -501.167 -37.5 -711.5s-12.834 -428.166 -15.501 -653.499l-98 2c-10 0 -44.333 -0.666992 -103 -2
c17.333 208 28 418.667 32 632h-812l-14 -410l-4 -222l-101 2c-9.33301 0 -41.333 -0.666992 -96 -2z" />
    <glyph glyph-name="I" unicode="I" horiz-adv-x="510" 
d="M135 0l15.001 230.001l21 479l14 472c0.666992 27.333 1 54.666 1 81.999l-1 102l103 -1l97 1c-12 -166.667 -21 -340.667 -27 -522c-10.667 -290.667 -18.334 -571.667 -23.001 -843l-94 2c-12 0 -47.333 -0.666992 -106 -2z" />
    <glyph glyph-name="J" unicode="J" horiz-adv-x="858" 
d="M-31 13c-2.66699 54 -7 105.668 -13 155.001c70 -21.333 123.667 -35.333 161 -42s74.333 -10 111 -10c34.667 0 68 4.33301 100 13c28 8 52.333 18.333 73 31c17.333 10.667 31.666 22.667 42.999 36c14.667 18 27.334 39.667 38.001 65
c11.333 25.333 19 54.666 23 87.999c6 48 12.333 144.333 19 289l11 355l7 372l96 -1l100 1c-14 -208 -24.333 -391 -31 -549l-15 -379c-3.33301 -94 -11 -165.833 -23 -215.5s-35.167 -92.167 -69.5 -127.5s-80 -63.333 -137 -84s-121.833 -31 -194.5 -31
c-87.333 0 -187 11.333 -299 34z" />
    <glyph glyph-name="K" unicode="K" horiz-adv-x="1195" 
d="M371 724l252 284l213 249l86 108l114 -1l109 1l-487 -539l-84 -97l55 -71c12 -15.333 95.667 -116 251 -302l300 -356c-58 1.33301 -96.333 2 -115 2c-30 0 -71 -0.666992 -123 -2l-99 134zM136 0l25 393l27 773c1.33301 43.333 2 87 2 131l-1 68l101 -1l97 1l-20 -365
l-30 -815l-3 -185l-97 2c-9.33301 0 -43 -0.666992 -101 -2z" />
    <glyph glyph-name="L" unicode="L" horiz-adv-x="1008" 
d="M130 0c15.333 172 28.5 382.168 39.5 630.501s17.833 493.166 20.5 734.499c46 -0.666992 81 -1 105 -1l93 1l-32 -634l-24 -598l190 -1c141.333 0 240.833 0.5 298.5 1.5s113.5 3.16699 167.5 6.5c-4 -42 -7.33301 -88.667 -10 -140c-151.333 1.33301 -285 2 -401 2z
" />
    <glyph glyph-name="M" unicode="M" horiz-adv-x="1748" 
d="M108 0l20.999 184.998l62 745l30 435c50.667 -0.666992 94.667 -1 132 -1c34.667 0 76.667 0.333008 126 1l23 -87c6.66699 -23.333 15 -50.666 25 -81.999l52 -157l123 -355l153 -476l199 476l227 520c8 18.667 15.833 38.5 23.5 59.5l36.5 101.5
c43.333 -0.666992 88.333 -1 135 -1c37.333 0 80 0.333008 128 1l-13 -477l-5 -313c-0.666992 -29.333 -1 -58.666 -1 -87.999l1 -229v-129c0 -14.667 0.666992 -57.667 2 -129c-44 1.33301 -73.333 2 -88 2c-20.667 0 -51 -0.666992 -91 -2l6 127l15 720
c2 80.667 3 170.334 3 269.001l-1 82l-439 -1053l-58 -145c-43.333 1.33301 -73.666 2 -90.999 2c-20.667 0 -52.667 -0.666992 -96 -2l-119 377l-123 371l-122 358c-5.33301 16 -14.333 44.667 -27 86l-12 -117l-60 -860c-1.33301 -28.667 -2.5 -57.334 -3.5 -86.001
s-2.16699 -71.667 -3.5 -129l-84 2c-13.333 0 -42 -0.666992 -86 -2z" />
    <glyph glyph-name="N" unicode="N" horiz-adv-x="1546" 
d="M134 0l20.0029 278l34 812l4 158c0.666992 50 1 89 1 117c50 -0.666992 91.667 -1 125 -1c27.333 0 65.666 0.333008 114.999 1l109 -176l661 -997l42 1173l89 -1l88 1l-22 -350l-27 -617l-12 -398c-39.333 1.33301 -78 2 -116 2c-34.667 0 -75 -0.666992 -121 -2
l-92 147l-677 1015c-2.66699 -37.333 -5.33398 -96 -8.00098 -176l-28 -707l-6 -279c-43.333 1.33301 -72.333 2 -87 2c-10.667 0 -41.334 -0.666992 -92.001 -2z" />
    <glyph glyph-name="O" unicode="O" horiz-adv-x="1649" 
d="M863 1387c98.667 0 192.329 -14.3311 280.996 -42.998s166.834 -76 234.501 -142s115.834 -140 144.501 -222s43 -171 43 -267c0 -102.667 -16 -201.334 -48 -296.001s-81.333 -175 -148 -241s-148.667 -115.5 -246 -148.5s-199.666 -49.5 -306.999 -49.5
c-102 0 -199.833 15 -293.5 45s-173.5 76.167 -239.5 138.5s-113.667 135.666 -143 219.999s-44 173.833 -44 268.5c0 104 17.667 203.833 53 299.5s87.5 176.5 156.5 242.5s152.333 115 250 147s199.834 48 306.501 48zM851.995 1254
c-80 0 -155.664 -12.834 -226.997 -38.501s-133.5 -66.834 -186.5 -123.501s-92.333 -123.334 -118 -200.001s-38.5 -156.667 -38.5 -240c0 -77.333 12.667 -151.5 38 -222.5s62.666 -130.167 111.999 -177.5s108.666 -82.5 177.999 -105.5s141.666 -34.5 216.999 -34.5
c77.333 0 151.166 12.333 221.499 37s131 63.834 182 117.501s88.833 118.5 113.5 194.5s37 155.667 37 239c0 78.667 -11.167 153.834 -33.5 225.501s-58 132.834 -107 183.501s-107.167 87.5 -174.5 110.5s-138.666 34.5 -213.999 34.5z" />
    <glyph glyph-name="P" unicode="P" horiz-adv-x="1113" 
d="M135 0l17.001 226.999l32 782l4 168c0.666992 26.667 1 53 1 79v109c83.333 -1.33301 151 -2 203 -2c31.333 0 79.333 0.666992 144 2s113 2 145 2c84.667 0 147.334 -6.16699 188.001 -18.5s76.667 -33 108 -62s56 -64.833 74 -107.5s27 -89.667 27 -141
c0 -84 -21.333 -159.5 -64 -226.5s-100.834 -117 -174.501 -150s-155.834 -49.5 -246.501 -49.5c-48 0 -101.333 5.33301 -160 16c-10 46 -21.333 87.667 -34 125c52 -10 102.667 -15 152 -15c48 0 93.833 5.5 137.5 16.5s81.167 29.333 112.5 55
s55.666 57.834 72.999 96.501s26 79.667 26 123c0 34 -6.33301 65.5 -19 94.5s-30.167 52 -52.5 69s-47.666 28.5 -75.999 34.5s-69.5 9 -123.5 9h-84l-105 -2l-78 1c-8 -146 -13.667 -278.667 -17 -398l-14 -411c-4.66699 -156 -7 -260.333 -7 -313v-113l-93 2
c-11.333 0 -43.333 -0.666992 -96 -2z" />
    <glyph glyph-name="Q" unicode="Q" horiz-adv-x="1658" 
d="M1565 187c-7.33301 -29.333 -16.668 -80.665 -28.001 -153.998c-130.667 -18.667 -256.167 -32.5 -376.5 -41.5s-219.5 -13.5 -297.5 -13.5c-109.333 0 -212.333 13.333 -309 40s-181 72.167 -253 136.5s-124 138.5 -156 222.5s-48 174.667 -48 272
c0 104 17.5 203.667 52.5 299s86.667 175.166 155 239.499s149.833 113.666 244.5 147.999s198.667 51.5 312 51.5c96 0 188.667 -14.333 278 -43s166 -73.5 230 -134.5s112.667 -134.833 146 -221.5s50 -177.667 50 -273c0 -48 -3.66699 -94.667 -11 -140
s-17.833 -87.333 -31.5 -126s-31.167 -75.667 -52.5 -111s-43.833 -65.5 -67.5 -90.5s-46.834 -46.667 -69.501 -65s-50.667 -38.5 -84 -60.5c46.667 4 84.834 8.5 114.501 13.5s58.834 11.333 87.501 19s66.667 18.5 114 32.5zM853.998 1254
c-76.667 0 -150 -12.333 -220 -37s-132 -63.167 -186 -115.5s-95.833 -117.833 -125.5 -196.5s-44.5 -160 -44.5 -244c0 -76 10 -146.5 30 -211.5s55 -124.333 105 -178s110.167 -93.5 180.5 -119.5s144.5 -39 222.5 -39c80.667 0 157.334 13.333 230.001 40
s134.667 66.834 186 120.501s89.166 118 113.499 193s36.5 153.833 36.5 236.5c0 118 -22.667 219.667 -68 305s-108.833 147.666 -190.5 186.999s-171.5 59 -269.5 59z" />
    <glyph glyph-name="R" unicode="R" horiz-adv-x="1159" 
d="M133 0l20.001 269.001l23 497l10 418c1.33301 84.667 2 145 2 181c80 -1.33301 146.333 -2 199 -2c45.333 0 95.5 0.666992 150.5 2s100.167 2 135.5 2c62 0 118.5 -4.33301 169.5 -13s96.667 -28.5 137 -59.5s70 -67 89 -108s28.5 -87.5 28.5 -139.5
c0 -50 -7.5 -96.333 -22.5 -139s-37 -81.334 -66 -116.001s-63.5 -63 -103.5 -85c-30.667 -16.667 -69 -30.334 -115 -41.001c-30.667 -6.66699 -72.667 -13 -126 -19l176 -281l182 -279l55 -87c-52 1.33301 -86.667 2 -104 2c-18.667 0 -54.334 -0.666992 -107.001 -2
l-72 137l-44 79l-48 84l-226 369c-9.33301 14.667 -24.666 40.334 -45.999 77.001c51.333 -9.33301 96.666 -14 135.999 -14c66.667 0 127.167 11 181.5 33s96.333 56.167 126 102.5s44.5 97.833 44.5 154.5c0 30.667 -4.66699 59.167 -14 85.5s-24.166 48.5 -44.499 66.5
s-40.333 31 -60 39s-45 14 -76 18s-63.833 6 -98.5 6l-142 -2c-61.333 0 -100.333 0.333008 -117 1c-20.667 -448 -33.334 -860 -38.001 -1236l-98 2c-14.667 0 -47 -0.666992 -97 -2z" />
    <glyph glyph-name="S" unicode="S" horiz-adv-x="974" 
d="M79 36c-2.66699 63.333 -7.00195 118.333 -13.002 165c70.667 -33.333 134.167 -56.833 190.5 -70.5s110.5 -20.5 162.5 -20.5c50 0 96.5 8.5 139.5 25.5s75.333 41 97 72s32.5 66.5 32.5 106.5c0 23.333 -3.66699 45.166 -11 65.499s-19.166 41 -35.499 62
s-44.666 49.333 -84.999 85l-171.5 147.5l-74 63c-28 24 -53.333 47.833 -76 71.5s-41.667 46.334 -57 68.001s-27.166 41.334 -35.499 59.001s-14.833 37.334 -19.5 59.001s-7 43.834 -7 66.501c0 57.333 15.667 111 47 161s78.5 90 141.5 120s146.167 45 249.5 45
c74 0 165 -10 273 -30c1.33301 -42.667 6 -95 14 -157c-102 36 -194.667 54 -278 54c-57.333 0 -105.333 -9.5 -144 -28.5s-68 -43.333 -88 -73s-30 -60.167 -30 -91.5c0 -18.667 2.66699 -36.834 8 -54.501s13.333 -34.5 24 -50.5c15.333 -23.333 34.333 -46.833 57 -70.5
s54 -52.5 94 -86.5l114.5 -94c66.333 -54.667 114.666 -97 144.999 -127s54.5 -57.833 72.5 -83.5s32 -53.334 42 -83.001s15 -61.834 15 -96.501c0 -53.333 -11.5 -102.5 -34.5 -147.5s-56 -81.833 -99 -110.5s-90.833 -49 -143.5 -61s-107.667 -18 -165 -18
c-46 0 -93.5 3.5 -142.5 10.5s-118.833 22.833 -209.5 47.5z" />
    <glyph glyph-name="T" unicode="T" horiz-adv-x="1068" 
d="M413 0l19.999 306.001l27 634l9 293c-163.333 -0.666992 -306.333 -3.66699 -429 -9c4 53.333 6.33301 100.333 7 141c169.333 -0.666992 352 -1 548 -1l320 1h170c-4.66699 -58.667 -7 -105.334 -7 -140.001c-103.333 6 -217.666 9 -342.999 9h-82l-21 -443l-21 -624
v-167l-96 2c-8.66699 0 -42.667 -0.666992 -102 -2z" />
    <glyph glyph-name="U" unicode="U" horiz-adv-x="1487" 
d="M184 1365l99.001 -0.999023l97 1l-45 -763l-3 -93v-19c0 -92.667 13.667 -164.5 41 -215.5s70.833 -90.5 130.5 -118.5s135.167 -42 226.5 -42c61.333 0 118 8 170 24c43.333 14 80.166 32.667 110.499 56s55.5 52 75.5 86c18.667 32.667 32 69.667 40 111
c9.33301 52 17.666 142.667 24.999 272l18 322c5.33301 118.667 9 245.334 11 380.001l103 -1l93 1l-29 -471l-18 -390c-6 -90.667 -15.667 -161 -29 -211c-10 -35.333 -24.667 -68.666 -44 -99.999c-17.333 -28 -38.666 -53 -63.999 -75
c-30 -26.667 -66.333 -50.334 -109 -71.001c-45.333 -21.333 -93.333 -37.333 -144 -48c-72.667 -14 -148 -21 -226 -21c-76 0 -147 7.66699 -213 23c-57.333 13.333 -110 33.666 -158 60.999s-86.333 58.333 -115 93c-24 28 -43 63.333 -57 106c-16 48 -24 101 -24 159
c0 62 2.5 133 7.5 213s11.333 200.667 19 362s11.5 284.666 11.5 369.999z" />
    <glyph glyph-name="V" unicode="V" horiz-adv-x="1375" 
d="M522 0l-54.001 174l-426 1191c46 -0.666992 81 -1 105 -1l94 1l31 -108l23 -70l355 -1040l510 1036l33.5 71.5l48.5 110.5c48 -0.666992 82.667 -1 104 -1l99 1c-62.667 -113.333 -142.667 -266 -240 -458l-259 -508c-75.333 -146.667 -140.333 -279.667 -195 -399
c-47.333 1.33301 -84.666 2 -111.999 2s-66.333 -0.666992 -117 -2z" />
    <glyph glyph-name="W" unicode="W" horiz-adv-x="1983" 
d="M507 0l-157.001 503.001l-285 862c36.667 -0.666992 69 -1 97 -1c30 0 62.333 0.333008 97 1l177 -596l137 -442l52 -159c102 210.667 199 425.334 291 644.001c-58.667 189.333 -120 373.666 -184 552.999c36.667 -0.666992 69.334 -1 98.001 -1
c30 0 62.333 0.333008 97 1c18 -68.667 33.167 -124.334 45.5 -167.001s29.833 -98 52.5 -166c38.667 82.667 84.334 193.667 137.001 333c36.667 -0.666992 69.667 -1 99 -1c31.333 0 64.333 0.333008 99 1c-89.333 -181.333 -175.666 -366.333 -258.999 -555
c61.333 -213.333 129 -427.333 203 -642l266 594l193 446l65 157c37.333 -0.666992 70 -1 98 -1c29.333 0 61.666 0.333008 96.999 1l-319 -681l-228 -500l-81 -184c-36.667 1.33301 -71.334 2 -104.001 2c-35.333 0 -70 -0.666992 -104 -2
c-58.667 200.667 -122.667 397.667 -192 591c-98 -196 -190.333 -393 -277 -591c-36 1.33301 -71.333 2 -106 2c-36 0 -71 -0.666992 -105 -2z" />
    <glyph glyph-name="X" unicode="X" horiz-adv-x="1228" 
d="M-45 0l228 286l325 424l-268 405l-170 250c44.667 -0.666992 83.667 -1 117 -1c28 0 63.333 0.333008 106 1c54 -94 115.667 -192.5 185 -295.5s120.333 -182.167 153 -237.5l319 423l29.5 42.5l44.5 67.5c38.667 -0.666992 74 -1 106 -1l105 1l-229 -295l-282 -367
l184 -284l280 -419c-50.667 1.33301 -86.667 2 -108 2c-31.333 0 -69.333 -0.666992 -114 -2l-52 87l-51 83l-264 408l-239 -317c-76 -100 -139.333 -187 -190 -261c-48 1.33301 -83.333 2 -106 2c-24 0 -60.333 -0.666992 -109 -2z" />
    <glyph glyph-name="Y" unicode="Y" horiz-adv-x="1089" 
d="M402 0c17.333 197.333 30.667 396.667 40 598l-439 767l107 -1c21.333 0 55 0.333008 101 1c31.333 -66.667 80 -158.5 146 -275.5l187 -344.5l349 544l45 76c44 -0.666992 79.333 -1 106 -1l100 1l-399 -590l-125 -189l-20 -456l-2 -130c-47.333 1.33301 -80 2 -98 2
s-50.667 -0.666992 -98 -2z" />
    <glyph glyph-name="Z" unicode="Z" horiz-adv-x="1178" 
d="M50 0c4.66699 64.667 7 116.333 7 155l45 55c0.666992 0.666992 32 41 94 121l545 699l156 205l-65 2h-312c-50.667 0 -107 -0.833008 -169 -2.5s-133.333 -4.83398 -214 -9.50098c3.33301 34.667 5 71 5 109c0 8 -0.333008 18.333 -1 31
c137.333 -0.666992 307 -1 509 -1h192l274 1c-3.33301 -41.333 -5.66602 -92.666 -6.99902 -153.999l-64 -77l-110 -142l-141 -186l-245 -318l-279 -356c22.667 -0.666992 163 -1 421 -1c146 0 268 3.33301 366 10c-4 -53.333 -6.33301 -100.333 -7 -141
c-146.667 1.33301 -305.334 2 -476.001 2l-345 -1z" />
    <glyph glyph-name="bracketleft" unicode="[" horiz-adv-x="655" 
d="M238 1365c60.667 -0.666992 121.332 -1 181.999 -1s121.334 0.333008 182.001 1c-4 -28 -6.33301 -63 -7 -105c-32.667 1.33301 -66.667 2 -102 2c-34 0 -68.667 -0.666992 -104 -2l-41 -961l-20 -645c31.333 -0.666992 65.666 -1 102.999 -1s71.666 0.333008 102.999 1
c-1.33301 -10 -2.66602 -27.5 -3.99902 -52.5s-2 -42.5 -2 -52.5c-52.667 1.33301 -112.667 2 -180 2c-68 0 -128.333 -0.666992 -181 -2c30.667 548 54.334 1153.33 71.001 1816z" />
    <glyph glyph-name="backslash" unicode="\" horiz-adv-x="844" 
d="M978 -451c-32 1.33301 -55.3311 2 -69.998 2c-16.667 0 -38.334 -0.666992 -65.001 -2l-200 465l-599 1351c29.333 -0.666992 50.666 -1 63.999 -1l64 1l173 -398l454 -1024z" />
    <glyph glyph-name="bracketright" unicode="]" horiz-adv-x="656" 
d="M386 -451c-41.333 1.33301 -101.996 2 -181.996 2c-80.667 0 -141.334 -0.666992 -182.001 -2c3.33301 26 5.66602 61 6.99902 105c28.667 -0.666992 62.667 -1 102 -1c37.333 0 72 0.333008 104 1l41 961l20 645c-34.667 1.33301 -69 2 -103 2
s-68.333 -0.666992 -103 -2c1.33301 11.333 2.66602 29 3.99902 53s2 41.333 2 52c48.667 -1.33301 108.667 -2 180 -2c72 0 132.333 0.666992 181 2c-30.667 -546.667 -54.334 -1152 -71.001 -1816z" />
    <glyph glyph-name="asciicircum" unicode="^" horiz-adv-x="1028" 
d="M218 763h-154l357 606h187l357 -606h-155l-297 495z" />
    <glyph glyph-name="underscore" unicode="_" horiz-adv-x="1028" 
d="M2 -144h1024v-111h-1024v111z" />
    <glyph glyph-name="grave" unicode="`" horiz-adv-x="1024" 
d="M621 1145c-20 1.33301 -39.999 2 -59.999 2c-24.667 0 -45.334 -0.666992 -62.001 -2c-66.667 108.667 -122.667 196 -168 262c38 -1.33301 72 -2 102 -2c35.333 0 69 0.666992 101 2z" />
    <glyph glyph-name="a" unicode="a" horiz-adv-x="1088" 
d="M177 852c6 29.333 12.3359 72.6641 19.0029 129.997c80 20.667 149.5 34.834 208.5 42.501s116.5 11.5 172.5 11.5c60 0 116.167 -5.5 168.5 -16.5s95.833 -28.833 130.5 -53.5s57.667 -53 69 -85s17 -66.333 17 -103c0 -46 -3.5 -123.167 -10.5 -231.5
s-12.333 -208.5 -16 -300.5s-5.5 -174 -5.5 -246c-36 1.33301 -65.333 2 -88 2c-21.333 0 -51.666 -0.666992 -90.999 -2l21 273l15 323c-23.333 -18 -40.833 -30.667 -52.5 -38s-24.834 -14.166 -39.501 -20.499s-30.834 -12.333 -48.501 -18s-52 -15.5 -103 -29.5
s-87.167 -24.667 -108.5 -32c-46 -14.667 -82.333 -29.334 -109 -44.001s-49 -30.667 -67 -48s-30.667 -34.666 -38 -51.999c-8.66699 -21.333 -13 -43.666 -13 -66.999c0 -36 10.667 -67.333 32 -94s48.166 -45.167 80.499 -55.5s71.166 -15.5 116.499 -15.5
c28 0 57.333 2 88 6s71.667 14.333 123 31c-9.33301 -26 -20 -66 -32 -120c-48.667 -9.33301 -88.334 -15.166 -119.001 -17.499s-59.667 -3.5 -87 -3.5c-91.333 0 -162.666 10.667 -213.999 32s-89.666 53.833 -114.999 97.5s-38 91.167 -38 142.5c0 30 4.5 57.667 13.5 83
s21.167 48.333 36.5 69s37.166 41.334 65.499 62.001s58 37.667 89 51s67.167 26.5 108.5 39.5s107.666 30.5 198.999 52.5c29.333 6.66699 54.333 13.5 75 20.5s39 13.833 55 20.5s30 14.5 42 23.5s23 20 33 33s17.333 26.167 22 39.5s7 26.666 7 39.999
c0 32.667 -10.667 60.667 -32 84s-49.166 39.666 -83.499 48.999s-74.833 14 -121.5 14c-43.333 0 -87.833 -3.5 -133.5 -10.5s-85 -15.333 -118 -25s-74.167 -24.167 -123.5 -43.5z" />
    <glyph glyph-name="b" unicode="b" horiz-adv-x="1214" 
d="M118 0l8.99707 111.996c1.33301 20 3.33301 57.667 6 113l28 678l12 462c40.667 -0.666992 72.334 -1 95.001 -1c23.333 0 53 0.333008 89 1c-9.33301 -85.333 -17.666 -208 -24.999 -368c70 15.333 127.333 25.666 172 30.999s88.667 8 132 8c84 0 158 -10.667 222 -32
s116.833 -56.666 158.5 -105.999s71.167 -103.666 88.5 -162.999s26 -122.333 26 -189c0 -76 -10.5 -149.5 -31.5 -220.5s-52.667 -134 -95 -189s-93.833 -95.167 -154.5 -120.5s-127 -38 -199 -38c-38.667 0 -75 4.16699 -109 12.5s-64.667 19.833 -92 34.5
s-50.5 31.334 -69.5 50.001s-34.667 37.334 -47 56.001s-26.166 44.334 -41.499 77.001l-3 -208c-38.667 1.33301 -66 2 -82 2c-11.333 0 -41 -0.666992 -89 -2zM321.997 861.996c-4.66699 -110.667 -8 -183.667 -10 -219s-3 -77.666 -3 -126.999
c0 -104.667 12 -185 36 -241s60 -98.333 108 -127s102.333 -43 163 -43c70 0 130.333 17.667 181 53s90 89.166 118 161.499s42 147.5 42 225.5c0 110 -29.167 198.667 -87.5 266s-146.166 101 -263.499 101c-40.667 0 -82.834 -3.5 -126.501 -10.5
s-96.167 -20.167 -157.5 -39.5z" />
    <glyph glyph-name="c" unicode="c" horiz-adv-x="967" 
d="M858 152c-1.33301 -10.667 -4.83496 -30.5 -10.502 -59.5s-10.5 -57.5 -14.5 -85.5c-48.667 -11.333 -95.5 -19 -140.5 -23s-84.5 -6 -118.5 -6c-72 0 -138.5 9.66699 -199.5 29s-114.167 51.166 -159.5 95.499s-78.666 99.333 -99.999 165s-32 134.834 -32 207.501
c0 98 17.333 191 52 279s89.334 157 164.001 207s176.334 75 305.001 75c94.667 0 187 -12.667 277 -38c4 -56.667 7.66699 -103.334 11 -140.001c-63.333 20 -115 33.5 -155 40.5s-77 10.5 -111 10.5c-58.667 0 -111.167 -10.667 -157.5 -32
s-85.833 -51.666 -118.5 -90.999s-56.167 -86 -70.5 -140s-21.5 -109 -21.5 -165c0 -75.333 11.667 -141.333 35 -198s64.166 -100.5 122.499 -131.5s123.833 -46.5 196.5 -46.5c70.667 0 152.667 15.667 246 47z" />
    <glyph glyph-name="d" unicode="d" horiz-adv-x="1215" 
d="M1059 0c-39.333 1.33301 -66.6719 1.99902 -82.0049 1.99902c-16.667 0 -45.667 -0.666992 -87 -2l12 216c-21.333 -37.333 -39.666 -66.166 -54.999 -86.499s-33.5 -39.5 -54.5 -57.5s-45.333 -34.167 -73 -48.5s-58.5 -25.5 -92.5 -33.5s-70 -12 -108 -12
c-64.667 0 -125.167 11.667 -181.5 35s-104.166 56.666 -143.499 99.999s-67.666 93.833 -84.999 151.5s-26 117.834 -26 180.501c0 84 16.333 166.667 49 248s78.834 148.5 138.501 201.5s127.167 89.833 202.5 110.5s155.333 31 240 31
c58.667 0 128.334 -6.66699 209.001 -20c3.33301 72.667 5 133 5 181c0 69.333 -0.333008 125.333 -1 168l91 -1c22.667 0 53 0.333008 91 1l-29 -564l-20 -646v-155zM914.994 889.999c-40 12 -74.1689 19.667 -102.502 23s-55.833 5 -82.5 5
c-64 0 -125.167 -9.16699 -183.5 -27.5s-109.666 -48.5 -153.999 -90.5s-78.5 -95.333 -102.5 -160s-36 -128 -36 -190s11.333 -119.833 34 -173.5s57.834 -95.667 105.501 -126s103.167 -45.5 166.5 -45.5c38 0 72.667 5.16699 104 15.5s59.833 25.5 85.5 45.5
s49.834 47 72.501 81s40.667 73.333 54 118c11.333 39.333 19.666 92.333 24.999 159c2.66699 32.667 5.66699 95.667 9 189z" />
    <glyph glyph-name="e" unicode="e" horiz-adv-x="1087" 
d="M942 159c-8 -36.667 -16 -83.333 -24 -140c-64 -16 -119.5 -26.833 -166.5 -32.5s-93.833 -8.5 -140.5 -8.5c-83.333 0 -158.166 10 -224.499 30s-123.166 54.833 -170.499 104.5s-81.333 106.5 -102 170.5s-31 131.667 -31 203c0 99.333 19 191.5 57 276.5
s95.167 151.833 171.5 200.5s173.166 73 290.499 73c60.667 0 118.667 -8.83301 174 -26.5s101.333 -44.5 138 -80.5s65 -80.5 85 -133.5s30 -110.833 30 -173.5c0 -24 -2 -47.333 -6 -70h-763c-2.66699 -36.667 -4 -64.667 -4 -84c0 -70 14.667 -134.5 44 -193.5
s72.666 -103.667 129.999 -134s123.333 -45.5 198 -45.5c86 0 190.667 21.333 314 64zM268 635.001h596c-0.666992 42 -3.33398 74.667 -8.00098 98s-13.334 47.5 -26.001 72.5s-29.834 46.667 -51.501 65s-47.667 32.333 -78 42s-63.166 14.5 -98.499 14.5
c-38 0 -74.167 -5.33301 -108.5 -16s-64.666 -25.334 -90.999 -44.001s-48.666 -40.5 -66.999 -65.5s-32 -49.167 -41 -72.5s-17.833 -54.666 -26.5 -93.999z" />
    <glyph glyph-name="f" unicode="f" horiz-adv-x="604" 
d="M140 0l11.002 184.002l27 704h-125c3.33301 32.667 6 73.667 8 123h129c1.33301 62 2.83301 109.5 4.5 142.5s6 62.667 13 89s17.333 48.666 31 66.999s32.667 35.166 57 50.499s52.666 26.5 84.999 33.5s69.5 10.5 111.5 10.5c55.333 0 119.666 -8.33301 192.999 -25
c1.33301 -40 4.66602 -82.333 9.99902 -127c-63.333 22 -121 33 -173 33c-25.333 0 -48.666 -3.33301 -69.999 -10s-38.5 -15.5 -51.5 -26.5s-23.667 -25.5 -32 -43.5s-14 -39.333 -17 -64s-4.5 -53.667 -4.5 -87l-1 -43h278c-3.33301 -28.667 -6.33301 -69.667 -9 -123
h-268l-18 -511l-9 -377c-41.333 1.33301 -71.666 2 -90.999 2c-18.667 0 -48.334 -0.666992 -89.001 -2z" />
    <glyph glyph-name="g" unicode="g" horiz-adv-x="1235" 
d="M176 -293c88 -26.667 161.67 -44.6689 221.003 -54.002s113.333 -14 162 -14c55.333 0 106.666 7.66699 153.999 23c39.333 12.667 73 30.667 101 54c21.333 18 39 41.333 53 70c17.333 38 29.666 86.333 36.999 145c6 47.333 10.667 141.666 14 282.999
c-16 -30 -30.5 -54.333 -43.5 -73s-30.5 -37.834 -52.5 -57.501s-47.667 -37.167 -77 -52.5s-63.333 -27.5 -102 -36.5s-78.667 -13.5 -120 -13.5c-60.667 0 -117.5 8.33301 -170.5 25s-100.333 44.334 -142 83.001s-73.334 88 -95.001 148s-32.5 122.667 -32.5 188
c0 90 16.167 175.667 48.5 257s79.666 149.333 141.999 204s132.666 93.334 210.999 116.001s164.166 34 257.499 34c102.667 0 230.334 -13.667 383.001 -41l-11 -123l-30 -561c0 -11.333 -1.66699 -79.333 -5 -204l-6 -207c-3.33301 -44 -9.33301 -82.667 -18 -116
c-8 -27.333 -18.667 -53.333 -32 -78c-12 -22.667 -27 -43.334 -45 -62.001c-17.333 -19.333 -37.666 -36.666 -60.999 -51.999s-48.333 -27.666 -75 -36.999c-37.333 -13.333 -76 -23 -116 -29c-45.333 -7.33301 -90.666 -11 -135.999 -11
c-65.333 0 -129.5 3.33301 -192.5 10s-133.5 19.334 -211.5 38.001l-3 55c-0.666992 13.333 -3 43 -7 89zM945.003 886.998c-74.667 14.667 -144.333 22.001 -209 22.001c-65.333 0 -125.833 -7.66699 -181.5 -23s-106.667 -43.333 -153 -84s-82.5 -93.334 -108.5 -158.001
s-39 -131.667 -39 -201c0 -64.667 11.833 -123.667 35.5 -177s60.167 -93.5 109.5 -120.5s105.333 -40.5 168 -40.5c54 0 102.167 9.5 144.5 28.5s79.833 48.167 112.5 87.5c34 40.667 59.333 87.334 76 140.001c12.667 37.333 22.334 92.666 29.001 165.999
c5.33301 58.667 10.666 178.667 15.999 360z" />
    <glyph glyph-name="h" unicode="h" horiz-adv-x="1245" 
d="M118 0l25.002 434.999l23 593l6 337l91 -1c22.667 0 52.334 0.333008 89.001 1l-22 -347l-8 -207c16 28.667 29.833 51.5 41.5 68.5s26.667 34 45 51s37.5 31.5 57.5 43.5s42.333 22.5 67 31.5s54.334 16.5 89.001 22.5s71 9 109 9
c56.667 0 110.834 -6.33301 162.501 -19s96 -33.667 133 -63s62.333 -64.333 76 -105s20.5 -82 20.5 -124c0 -16.667 -0.333008 -38.667 -1 -66c-2 -41.333 -4.66699 -89.666 -8 -144.999l-17 -368c-2 -40 -3.33301 -89 -4 -147c-38.667 1.33301 -68.334 2 -89.001 2
c-22.667 0 -54.334 -0.666992 -95.001 -2c7.33301 72 15.833 185.333 25.5 340s14.5 262 14.5 322c0 53.333 -9.66699 97.5 -29 132.5s-51.333 61.833 -96 80.5s-94.334 28 -149.001 28c-50 0 -96.667 -7.66699 -140 -23c-39.333 -14 -72.833 -33.667 -100.5 -59
s-49.834 -56.333 -66.501 -93c-18 -39.333 -30.667 -79 -38 -119c-11.333 -63.333 -19.333 -151.333 -24 -264c-2.66699 -67.333 -6.33398 -182.333 -11.001 -345c-37.333 1.33301 -65.333 2 -84 2c-17.333 0 -48.333 -0.666992 -93 -2z" />
    <glyph glyph-name="i" unicode="i" horiz-adv-x="461" 
d="M163 1231c2 62.667 3 110 3 142c36.667 -1.33301 69 -2 97 -2c35.333 0 67.333 0.666992 96 2c-1.33301 -20.667 -3.33301 -68 -6 -142c-36 0.666992 -67 1 -93 1s-58.333 -0.333008 -97 -1zM118 0l17 252.002l19 430l8 331l92 -1l90 1
c-7.33301 -104 -14 -212.833 -20 -326.5s-10.833 -237.834 -14.5 -372.501s-5.5 -239.334 -5.5 -314.001c-42 1.33301 -72 2 -90 2c-16.667 0 -48.667 -0.666992 -96 -2z" />
    <glyph glyph-name="j" unicode="j" horiz-adv-x="462" 
d="M159 1232c2 38 3.66602 85 4.99902 141c28.667 -1.33301 61 -2 97 -2c32.667 0 64.334 0.666992 95.001 2c-2 -33.333 -4 -80.333 -6 -141c-36 1.33301 -68 2 -96 2c-27.333 0 -59 -0.666992 -95 -2zM336.999 1013l-20.002 -441l-16 -447
c-6 -178.667 -12 -289.667 -18 -333c-6 -50 -15 -89 -27 -117c-10 -22.667 -22.667 -43 -38 -61s-35 -34.333 -59 -49c-26 -16 -53.333 -27.667 -82 -35c-38.667 -10 -83.667 -15 -135 -15c-81.333 0 -169 10.333 -263 31c-1.33301 37.333 -5.66602 84.333 -12.999 141
c78.667 -28.667 151.334 -43 218.001 -43c37.333 0 71.666 6.66699 102.999 20c26.667 10.667 49 25 67 43c14.667 15.333 27.334 37.333 38.001 66c13.333 34 22.333 77.333 27 130c6 73.333 12.333 180.333 19 321c2 42 5.66699 144 11 306c6.66699 226 10 356.667 10 392
l-1 91c42 -0.666992 72.333 -1 91 -1s48 0.333008 88 1z" />
    <glyph glyph-name="k" unicode="k" horiz-adv-x="982" 
d="M115 0l17 271l21 519l11 435c0.666992 63.333 1 110 1 140l93 -1c18 0 47 0.333008 87 1c-8.66699 -107.333 -19.167 -315.833 -31.5 -625.5s-19.5 -556.167 -21.5 -739.5c-41.333 1.33301 -70.333 2 -87 2c-18.667 0 -48.667 -0.666992 -90 -2zM321 565l203.999 218
c71.333 76 138.666 152.667 201.999 230c46 -0.666992 79.333 -1 100 -1c26 0 61.667 0.333008 107 1l-432 -449c80.667 -105.333 236.667 -293.333 468 -564c-41.333 1.33301 -74.666 2 -99.999 2s-59.666 -0.666992 -102.999 -2l-147 195l-93 114l-155 189z" />
    <glyph glyph-name="l" unicode="l" horiz-adv-x="459" 
d="M114 0c13.333 205.333 26.332 448.666 38.999 729.999c8.66699 204.667 15 416.334 19 635.001l93 -1c19.333 0 49 0.333008 89 1l-31 -587l-22 -594l-4 -184c-39.333 1.33301 -68.666 2 -87.999 2c-8 0 -39.667 -0.666992 -95 -2z" />
    <glyph glyph-name="m" unicode="m" horiz-adv-x="1757" 
d="M111 0l11.0029 144.997c2 30.667 4.66699 79 8 145l24 609c0.666992 50 1 88 1 114c31.333 -0.666992 60 -1 86 -1c28 0 55.667 0.333008 83 1l-9 -186c22.667 37.333 43.167 67 61.5 89s42.5 42.333 72.5 61s64.167 33.167 102.5 43.5s78.166 15.5 119.499 15.5
c28.667 0 57 -3.33301 85 -10s53.833 -16 77.5 -28s44 -25.667 61 -41s30.667 -32 41 -50s20.833 -44 31.5 -78c40.667 76.667 91.5 130.334 152.5 161.001s129.167 46 204.5 46c48 0 94.5 -7.66699 139.5 -23s80.833 -37.333 107.5 -66s44.5 -58.5 53.5 -89.5
s13.5 -62.167 13.5 -93.5c0 -32 -2.33301 -80 -7 -144s-10 -161.5 -16 -292.5s-9.33301 -240.167 -10 -327.5c-35.333 1.33301 -63 2 -83 2c-21.333 0 -53 -0.666992 -95 -2c7.33301 90 13.666 188 18.999 294l13 248c3.33301 60 5 111.667 5 155
c0 38.667 -4 68.834 -12 90.501s-20.833 41.167 -38.5 58.5s-39.5 30.5 -65.5 39.5s-55.667 13.5 -89 13.5c-26.667 0 -51.334 -3 -74.001 -9c-21.333 -6 -42 -15 -62 -27c-22 -12.667 -41.667 -28.334 -59 -47.001c-17.333 -18 -32 -38.333 -44 -61
c-12.667 -23.333 -23 -51 -31 -83c-10 -40 -17 -89 -21 -147c-4.66699 -62 -8.33398 -143.667 -11.001 -245l-8 -280c-38.667 1.33301 -67.667 2 -87 2c-18 0 -48.333 -0.666992 -91 -2c6.66699 82.667 12 167.667 16 255l12 242c3.33301 74.667 5 138.334 5 191.001
c0 34 -3.33301 62.833 -10 86.5s-19.167 45.334 -37.5 65.001s-40.5 34.667 -66.5 45s-54.667 15.5 -86 15.5c-33.333 0 -65 -5.83301 -95 -17.5s-57.667 -28.834 -83 -51.501s-46.666 -50.5 -63.999 -83.5s-30.833 -76.333 -40.5 -130s-17.334 -147.167 -23.001 -280.5
s-8.5 -245.666 -8.5 -336.999c-42.667 1.33301 -72 2 -88 2c-17.333 0 -47.666 -0.666992 -90.999 -2z" />
    <glyph glyph-name="n" unicode="n" horiz-adv-x="1235" 
d="M107 0c32 418 48.666 755.665 49.999 1013l90 -1c22 0 51 0.333008 87 1l-13 -200c16.667 28 30 49.5 40 64.5s23.333 30.833 40 47.5s36.334 32.167 59.001 46.5s49.334 26.333 80.001 36s61.834 16.834 93.501 21.501s63.167 7 94.5 7c57.333 0 112.666 -7 165.999 -21
s97.166 -36.833 131.499 -68.5s57.333 -67.167 69 -106.5s17.5 -81.666 17.5 -126.999c0 -8.66699 -0.333008 -25.334 -1 -50.001s-2 -57 -4 -97l-20 -419c-1.33301 -40 -2.33301 -89 -3 -147c-30 1.33301 -58.333 2 -85 2c-32.667 0 -63.334 -0.666992 -92.001 -2
c6.66699 80.667 11.667 158.334 15 233.001l13 233c4 80 6 140.333 6 181c0 58.667 -10 105.5 -30 140.5s-52 62 -96 81s-93.333 28.5 -148 28.5c-77.333 0 -143.666 -18.333 -198.999 -55c-50.667 -34 -90 -82.333 -118 -145c-19.333 -44.667 -33 -110.667 -41 -198
c-10 -104.667 -17 -271 -21 -499c-37.333 1.33301 -66.333 2 -87 2s-52 -0.666992 -94 -2z" />
    <glyph glyph-name="o" unicode="o" horiz-adv-x="1206" 
d="M617 1036c70 0 136.667 -9.99707 200 -29.9971s118.166 -51.667 164.499 -95s81.5 -98 105.5 -164s36 -135.667 36 -209c0 -79.333 -12.833 -155.333 -38.5 -228s-61.667 -134.334 -108 -185.001s-103 -87.834 -170 -111.501s-138.833 -35.5 -215.5 -35.5
c-71.333 0 -138.666 10.667 -201.999 32s-118.166 54.666 -164.499 99.999s-81.5 100.833 -105.5 166.5s-36 134.5 -36 206.5c0 108.667 22 206.5 66 293.5s108.667 152 194 195s176.666 64.5 273.999 64.5zM613 909.003c-68 0 -130.499 -17 -187.499 -51
s-99.167 -85.167 -126.5 -153.5s-41 -142.833 -41 -223.5c0 -70.667 11.333 -134.167 34 -190.5s60 -101.833 112 -136.5s114.667 -52 188 -52c50 0 97.333 8.5 142 25.5s83.667 45.167 117 84.5s58 87.5 74 144.5s24 116.833 24 179.5c0 58.667 -8 113.667 -24 165
s-40.5 92.5 -73.5 123.5s-70.333 52.833 -112 65.5s-83.834 19 -126.501 19z" />
    <glyph glyph-name="p" unicode="p" horiz-adv-x="1206" 
d="M92 -452c13.333 172 25.832 406.002 37.499 702.002s18.167 538 19.5 726c109.333 23.333 196.833 39.166 262.5 47.499s131.5 12.5 197.5 12.5c104 0 194.333 -16.5 271 -49.5s136.334 -91 179.001 -174s64 -176.833 64 -281.5c0 -72.667 -10 -142.834 -30 -210.501
s-50.5 -128.167 -91.5 -181.5s-90.5 -93.5 -148.5 -120.5s-122.667 -40.5 -194 -40.5c-42.667 0 -83.667 5.16699 -123 15.5s-73.5 23.833 -102.5 40.5s-53.333 35.334 -73 56.001s-43.5 51.667 -71.5 93l-12 -396c-2.66699 -64.667 -4 -111.334 -4 -140.001v-99
c-34 1.33301 -63.667 2 -89 2c-23.333 0 -54 -0.666992 -92 -2zM320.999 857.002l-7.00098 -76l-5 -104c-2.66699 -54.667 -4.66699 -99.167 -6 -133.5s-2 -58.5 -2 -72.5c0 -49.333 5.16699 -96 15.5 -140s31 -84.167 62 -120.5s67.5 -63.833 109.5 -82.5
s85.333 -28 130 -28c62.667 0 119.5 17.333 170.5 52s90.833 86.334 119.5 155.001s43 143.667 43 225c0 82 -15 152.667 -45 212s-70.333 102.166 -121 128.499s-108 39.5 -172 39.5c-91.333 0 -188.666 -18.333 -291.999 -55z" />
    <glyph glyph-name="q" unicode="q" horiz-adv-x="1200" 
d="M856 -451l14.002 238.998c3.33301 57.333 5.66602 106.666 6.99902 147.999l11 273c-27.333 -44 -51.333 -77.667 -72 -101s-47 -45 -79 -65s-67.667 -35.833 -107 -47.5s-80.666 -17.5 -123.999 -17.5c-59.333 0 -116 11.333 -170 34s-100.333 55 -139 97
s-67.334 91.833 -86.001 149.5s-28 117.834 -28 180.501c0 89.333 17.167 175.333 51.5 258s82.166 149.834 143.499 201.501s131.333 87.5 210 107.5s164 30 256 30c36 0 77 -1.66699 123 -5s121 -13.666 225 -30.999l-16 -216l-17 -389l-16 -548l-6 -298
c-36 0.666992 -65.667 1 -89 1zM904.002 883.998c-46 11.333 -82.334 18.3311 -109.001 20.998s-51 4 -73 4c-94 0 -177.167 -19 -249.5 -57s-126.833 -94.667 -163.5 -170s-55 -158 -55 -248c0 -60.667 10.667 -116 32 -166s55.333 -90.167 102 -120.5
s98.667 -45.5 156 -45.5c50 0 96.5 10.333 139.5 31s80.667 51.834 113 93.501s56.833 89.834 73.5 144.501c8.66699 30.667 15.334 72.667 20.001 126c6 72.667 10.667 201.667 14 387z" />
    <glyph glyph-name="r" unicode="r" horiz-adv-x="716" 
d="M110 0c24 384.667 36 691.666 36 920.999l-1 92c34 -0.666992 62 -1 84 -1c25.333 0 53.666 0.333008 84.999 1l-8 -166c24.667 41.333 46.5 72.5 65.5 93.5s40.5 38.333 64.5 52s51.167 24.334 81.5 32.001s61.833 11.5 94.5 11.5c28 0 55.667 -3.33301 83 -10
c0.666992 -44 3 -93.333 7 -148c-41.333 11.333 -78.333 17 -111 17c-39.333 0 -74.666 -6.5 -105.999 -19.5s-59.5 -32.667 -84.5 -59s-45.5 -57.833 -61.5 -94.5c-13.333 -29.333 -23.5 -67.333 -30.5 -114s-12.5 -131.667 -16.5 -255c-2.66699 -90 -4 -185.333 -4 -286
v-67c-36 1.33301 -65 2 -87 2c-20 0 -50.333 -0.666992 -91 -2z" />
    <glyph glyph-name="s" unicode="s" horiz-adv-x="813" 
d="M66 19l-5.99316 73.002c0 8 -2.66699 33.333 -8 76c102.667 -44.667 197.334 -67 284.001 -67c45.333 0 83.666 6 114.999 18s54.833 29.833 70.5 53.5s23.5 48.167 23.5 73.5c0 14 -2.16699 28 -6.5 42s-10.833 27.5 -19.5 40.5s-21.5 27.333 -38.5 43
s-52.333 45.167 -106 88.5s-94.334 77.166 -122.001 101.499s-51.334 49.333 -71.001 75s-34.167 51.5 -43.5 77.5s-14 52.333 -14 79c0 42.667 13.5 84 40.5 124s66 69.833 117 89.5s110.833 29.5 179.5 29.5c76.667 0 161 -9 253 -27c2.66699 -52 6 -99.667 10 -143
c-74.667 30.667 -148.334 46 -221.001 46c-39.333 0 -75.833 -5.16699 -109.5 -15.5s-58.334 -25.833 -74.001 -46.5s-23.5 -43.334 -23.5 -68.001c0 -16 2.66699 -31.333 8 -46s14.833 -30.5 28.5 -47.5s30.167 -33.833 49.5 -50.5s57.833 -48 115.5 -94
s97.167 -80 118.5 -102s39.666 -44.667 54.999 -68s26.5 -46.5 33.5 -69.5s10.5 -46.5 10.5 -70.5c0 -46.667 -13.833 -90 -41.5 -130s-68.834 -71 -123.501 -93s-116 -33 -184 -33c-28.667 0 -62.334 1.83301 -101.001 5.5s-71.5 8 -98.5 13s-60.5 12.5 -100.5 22.5z" />
    <glyph glyph-name="t" unicode="t" horiz-adv-x="658" 
d="M624 132c-7.33301 -32.667 -15.333 -76 -24 -130c-45.333 -10.667 -81.333 -17.334 -108 -20.001s-52 -4 -76 -4c-59.333 0 -107.166 7.5 -143.499 22.5s-64.166 39 -83.499 72s-29 77.833 -29 134.5c0 7.33301 0.333008 20.333 1 39s4 83.667 10 195l24 448h-133
c2.66699 28 5 68 7 120h136c3.33301 37.333 6.66602 101 9.99902 191c62.667 12 115.667 23.333 159 34c-4.66699 -98.667 -7.33398 -173.667 -8.00098 -225h278c-3.33301 -42 -5.33301 -82 -6 -120h-277l-27 -563l-1 -43c0 -48.667 5.5 -85.167 16.5 -109.5
s27.5 -41.833 49.5 -52.5s45 -16 69 -16c16.667 0 34.667 1.33301 54 4s53.333 10.334 102 23.001z" />
    <glyph glyph-name="u" unicode="u" horiz-adv-x="1220" 
d="M1064 0c-32.667 1.33301 -60.6689 2.00293 -84.002 2.00293c-26.667 0 -54.334 -0.666992 -83.001 -2l5 193c-16 -30 -29.833 -53.167 -41.5 -69.5s-26.167 -32.333 -43.5 -48s-35.166 -28.834 -53.499 -39.501s-39.833 -20.167 -64.5 -28.5s-53.5 -15.333 -86.5 -21
s-68.167 -8.5 -105.5 -8.5c-81.333 0 -150.833 12.333 -208.5 37s-101.334 59.667 -131.001 105s-44.5 107.333 -44.5 186c0 12 0.666992 32.333 2 61s3.33301 66 6 112l17 333l3 107c0.666992 24.667 1 56 1 94l92 -1c18.667 0 47.334 0.333008 86.001 1
c-9.33301 -116.667 -18.166 -244.334 -26.499 -383.001s-12.5 -227.334 -12.5 -266.001c0 -58.667 9.5 -105.5 28.5 -140.5s50.667 -62 95 -81s94.5 -28.5 150.5 -28.5c49.333 0 96.666 8.66699 141.999 26c38.667 15.333 71.334 36 98.001 62
c28.667 28.667 52.667 65.667 72 111c14 33.333 24.667 76.333 32 129c4.66699 38 9.33398 106.333 14.001 205c5.33301 120 9 242 11 366l93 -1c20 0 48 0.333008 84 1c-9.33301 -120 -20.333 -302.333 -33 -547c-7.33301 -134.667 -12 -290 -14 -466z" />
    <glyph glyph-name="v" unicode="v" horiz-adv-x="1008" 
d="M383 0l-33.999 101l-80 223l-251 689c40.667 -0.666992 72.667 -1 96 -1c25.333 0 55.333 0.333008 90 1l21 -70c6 -20 16.333 -52 31 -96l235 -697l318 764l38 99c39.333 -0.666992 70.666 -1 93.999 -1s54.666 0.333008 93.999 1l-130 -279l-261 -582l-64 -152
c-41.333 1.33301 -73.666 2 -96.999 2c-24 0 -57.333 -0.666992 -100 -2z" />
    <glyph glyph-name="w" unicode="w" horiz-adv-x="1710" 
d="M375 0l-47 145l-310 868c36.667 -0.666992 66.334 -1 89.001 -1c21.333 0 48.666 0.333008 81.999 1l88 -269l203 -589l316 858c36 -0.666992 66.667 -1 92 -1c27.333 0 57.333 0.333008 90 1l231 -858l280 664l78 194c36 -0.666992 63.667 -1 83 -1l86 1l-337 -754
l-110 -259c-33.333 1.33301 -64 2 -92 2c-28.667 0 -62.334 -0.666992 -101.001 -2l-184 702c-12 46 -24.667 91.667 -38 137l-20 -52c-6 -14.667 -19.667 -51.667 -41 -111l-211 -576l-35 -100c-34 1.33301 -64.667 2 -92 2c-29.333 0 -62.666 -0.666992 -99.999 -2z" />
    <glyph glyph-name="x" unicode="x" horiz-adv-x="989" 
d="M-27 0l267.997 360.002l135 185l-299 468c48.667 -0.666992 84.334 -1 107.001 -1c30.667 0 63 0.333008 97 1c36.667 -70.667 108.334 -193 215.001 -367c130 183.333 214.667 305.666 254 366.999c34.667 -0.666992 66.667 -1 96 -1c26.667 0 59.334 0.333008 98.001 1
l-170 -225l-177 -240l192 -303l159 -245c-40.667 1.33301 -74.334 2 -101.001 2c-31.333 0 -66.666 -0.666992 -105.999 -2c-34 66.667 -76.667 142 -128 226l-133 218l-123 -175c-70 -98.667 -131 -188.334 -183 -269.001c-39.333 1.33301 -71.333 2 -96 2
c-27.333 0 -62.333 -0.666992 -105 -2z" />
    <glyph glyph-name="y" unicode="y" horiz-adv-x="1004" 
d="M-53 -463c-4.66699 56.667 -10.334 104.669 -17.001 144.002c33.333 -16 64.333 -26.833 93 -32.5s53 -8.5 73 -8.5c26 0 51.333 4.66699 76 14s44.667 21.666 60 36.999s31.5 36.5 48.5 63.5s35 58.833 54 95.5s37.167 77.667 54.5 123l-213 607l-156 434
c48.667 -1.33301 81 -2 97 -2c18.667 0 49 0.666992 91 2c10.667 -46.667 19.667 -82.334 27 -107.001s23.333 -75 48 -151l151 -459c16.667 -52 33.334 -108 50.001 -168l113 276l209 489c6 14.667 11.833 29.834 17.5 45.501l26.5 74.5
c42.667 -1.33301 72.334 -2 89.001 -2c14 0 45 0.666992 93 2l-189 -415l-371 -825c-26 -55.333 -49.667 -97.333 -71 -126c-17.333 -22.667 -36 -42.334 -56 -59.001c-16 -14 -34 -26 -54 -36c-24.667 -12 -51.334 -21.333 -80.001 -28
c-31.333 -6.66699 -63.333 -10 -96 -10c-51.333 0 -107.333 7.33301 -168 22z" />
    <glyph glyph-name="z" unicode="z" horiz-adv-x="909" 
d="M43 0c2.66699 42 4.33301 91.999 5 149.999l52 61c10.667 12 20.667 24 30 36l520 645c-61.333 0.666992 -126 1 -194 1c-107.333 0 -222 -3.66699 -344 -11c3.33301 44.667 5 88.334 5 131.001c110 -0.666992 234.667 -1 374 -1c126 0 242 0.333008 348 1
c-2 -25.333 -3.33301 -52.333 -4 -81l-3 -75l-73 -88l-525 -645c64.667 -2.66699 127.667 -4 189 -4c160.667 0 286.334 3.33301 377.001 10c-4.66699 -36 -7.66699 -79.333 -9 -130c-109.333 1.33301 -229 2 -359 2c-160.667 0 -290.334 -0.666992 -389.001 -2z" />
    <glyph glyph-name="braceleft" unicode="{" horiz-adv-x="815" 
d="M362 455c16 -8 28.6592 -15.3281 37.9922 -21.9951s18.333 -16 27 -28s15.834 -25.333 21.501 -40s9.83398 -31.834 12.501 -51.501s4 -42.834 4 -69.501c0 -35.333 -1.66699 -82 -5 -140l-9 -144c-2.66699 -38 -4 -73 -4 -105c0 -39.333 2 -69 6 -89
s10.333 -36.833 19 -50.5s20.167 -25 34.5 -34s32 -15.667 53 -20s45.833 -6.83301 74.5 -7.5c-4 -24.667 -6.66699 -59.667 -8 -105c-52 0 -94.667 3 -128 9c-50.667 10 -88.834 24.167 -114.501 42.5s-45.5 44.166 -59.5 77.499c-16.667 38.667 -25 87.667 -25 147
c0 20 2 61.667 6 125l10 185c4 60 6 100.667 6 122c0 22.667 -2.16699 43 -6.5 61s-10 32.333 -17 43s-16.333 20.667 -28 30s-22.167 16.333 -31.5 21s-20.666 8.33398 -33.999 11.001c3.33301 20 5.33301 42 6 66c18 5.33301 34.333 12.666 49 21.999
c20 12.667 35 25.667 45 39s17.667 30.166 23 50.499s9 51.166 11 92.499c1.33301 20 2.83301 83.5 4.5 190.5s3.83398 180.333 6.50098 220s9.83398 74.667 21.501 105s26 55.166 43 74.499s39.333 35.5 67 48.5s58.5 21.833 92.5 26.5s76.333 7 127 7
c-3.33301 -24 -6 -59 -8 -105c-36.667 -2 -65.667 -6.16699 -87 -12.5s-37.833 -13.666 -49.5 -21.999s-22 -19.5 -31 -33.5s-16.167 -31.167 -21.5 -51.5s-9.16602 -53.833 -11.499 -100.5s-3.5 -100.667 -3.5 -162c0 -22 -0.333008 -56 -1 -102
s-2.66699 -86.167 -6 -120.5s-7.66602 -61.5 -12.999 -81.5s-12.666 -37.167 -21.999 -51.5s-19.666 -26.333 -30.999 -36s-29 -20.167 -53 -31.5z" />
    <glyph glyph-name="bar" unicode="|" horiz-adv-x="1028" 
d="M435 1365h159v-1706h-159v1706z" />
    <glyph glyph-name="braceright" unicode="}" horiz-adv-x="815" 
d="M413 456c-22 10.667 -38.1709 20.499 -48.5039 29.499s-20.166 21.667 -29.499 38s-16 36.5 -20 60.5s-6 50.333 -6 79c0 48 3.16699 119.833 9.5 215.5s9.5 163.167 9.5 202.5c0 38.667 -3.66699 67.5 -11 86.5s-17.666 35.5 -30.999 49.5s-31 24.333 -53 31
s-51.333 10.667 -88 12l2 79c0 7.33301 -0.333008 16 -1 26c46 0 79.667 -1.33301 101 -4c39.333 -5.33301 74 -14.333 104 -27s53.5 -28.334 70.5 -47.001s30.167 -42.667 39.5 -72c10.667 -34 16 -69 16 -105c0 -12 -1.66699 -46.667 -5 -104l-11 -198
c-4.66699 -74 -7 -122.667 -7 -146c0 -28.667 3 -54.667 9 -78s19.333 -43.5 40 -60.5s43 -28.5 67 -34.5c-2.66699 -20.667 -4.66699 -42.667 -6 -66c-16.667 -4 -31.667 -10.333 -45 -19c-16.667 -10 -29.667 -20.167 -39 -30.5s-17.166 -22.5 -23.499 -36.5
s-11.166 -32.5 -14.499 -55.5s-5.66602 -62.167 -6.99902 -117.5l-3 -168c-1.33301 -82 -4 -141.667 -8 -179c-4 -46 -11.667 -84.167 -23 -114.5s-26 -55.166 -44 -74.499s-39 -34.666 -63 -45.999c-29.333 -12.667 -64 -21.667 -104 -27
c-20.667 -2.66699 -58.667 -4.66699 -114 -6c3.33301 24 6 59 8 105c35.333 0.666992 65.166 4.83398 89.499 12.501s44.166 19 59.499 34s26.5 31.667 33.5 50s12.167 53.166 15.5 104.499s5 115 5 191c0 40.667 1 86.667 3 138s4.83301 88.5 8.5 111.5
s8.83398 42.833 15.501 59.5s14.5 31.167 23.5 43.5s18.667 22.5 29 30.5s25.833 17 46.5 27z" />
    <glyph glyph-name="asciitilde" unicode="~" horiz-adv-x="1370" 
d="M282 489l-87.001 65.999c10 21.333 20.333 41 31 59s24.167 37.833 40.5 59.5s31.166 38.334 44.499 50.001s28.833 22.334 46.5 32.001s36.334 17.167 56.001 22.5s39.5 8 59.5 8c22 0 44 -3 66 -9s47.167 -14.833 75.5 -26.5s63.166 -27.667 104.499 -48
s71 -34.333 89 -42s34.833 -13.167 50.5 -16.5s29.834 -5 42.501 -5c38 0 71.833 12.167 101.5 36.5s58.5 62.5 86.5 114.5l88 -64c-11.333 -24.667 -21.5 -44.834 -30.5 -60.501s-21.167 -33.167 -36.5 -52.5s-31.833 -36.333 -49.5 -51s-36.167 -26.667 -55.5 -36
s-39.833 -16.5 -61.5 -21.5s-41.5 -7.5 -59.5 -7.5c-10.667 0 -22.167 1 -34.5 3s-29.166 6.5 -50.499 13.5s-37.833 13.167 -49.5 18.5s-44.667 21.333 -99 48s-93.833 43.667 -118.5 51s-46.667 11 -66 11c-34 0 -65.833 -12 -95.5 -36s-59.167 -63 -88.5 -117z" />
    <glyph glyph-name="nbspace" unicode="&#xa0;" horiz-adv-x="512" 
 />
    <glyph glyph-name="exclamdown" unicode="&#xa1;" horiz-adv-x="552" 
d="M186 1013l104.999 -1l100 1c-2 -36.667 -3.66699 -70.167 -5 -100.5s-2.66602 -56.833 -3.99902 -79.5l-100 1l-105 -1c2.66699 28.667 5.66699 88.667 9 180zM201.999 715c28.667 -1.33301 56.667 -2 84 -2c23.333 0 47.333 0.666992 72 2l-16 -572
c-5.33301 -202 -8 -367 -8 -495c-40.667 1.33301 -71.667 2 -93 2c-26.667 0 -58.667 -0.666992 -96 -2c6.66699 83.333 12.667 184.333 18 303z" />
    <glyph glyph-name="cent" unicode="&#xa2;" 
d="M936 326c-11.333 -55.333 -19.665 -102.999 -24.998 -142.999c-58 -13.333 -98.5 -21.666 -121.5 -24.999s-55.5 -5.66602 -97.5 -6.99902c-2 -46 -3 -90.333 -3 -133v-35c-24.667 1.33301 -47.667 2 -69 2c-20.667 0 -45 -0.666992 -73 -2
c5.33301 68 8.66602 126.333 9.99902 175c-44 10 -78.833 19.833 -104.5 29.5s-51.167 23.167 -76.5 40.5s-49.5 39.833 -72.5 67.5s-43.5 60.667 -61.5 99s-31.667 80.333 -41 126s-14 92.5 -14 140.5c0 54.667 5.66699 107 17 157s26.5 96.167 45.5 138.5
s42.5 80.666 70.5 114.999s56.5 61.5 85.5 81.5s57.167 34.833 84.5 44.5s64.333 18.834 111 27.501c1.33301 33.333 2 77 2 131v28c27.333 -1.33301 52.666 -2 75.999 -2c24.667 0 48.667 0.666992 72 2c-4.66699 -42 -8 -91.667 -10 -149
c42 -2.66699 77.5 -6.83398 106.5 -12.501s64.167 -14.834 105.5 -27.501c2 -48.667 5.33301 -98.334 10 -149.001c-83.333 37.333 -163.666 56 -240.999 56c-58 0 -109.667 -11.5 -155 -34.5s-83.833 -56.167 -115.5 -99.5s-53.834 -91.5 -66.501 -144.5
s-19 -105.833 -19 -158.5c0 -76 12 -141.167 36 -195.5s61 -99.5 111 -135.5s112 -54 186 -54c30.667 0 63.167 3 97.5 9s80.833 18.333 139.5 37z" />
    <glyph glyph-name="sterling" unicode="&#xa3;" 
d="M1124 162l-20.999 -104.996l-8 -52c-50 -18 -103.667 -27 -161 -27c-22 0 -43.833 1.33301 -65.5 4s-45.167 7.16699 -70.5 13.5s-50.166 13.333 -74.499 21s-56.666 18.667 -96.999 33s-68.833 24 -85.5 29s-35.5 9 -56.5 12s-43.167 4.5 -66.5 4.5
c-26 0 -51.5 -2.5 -76.5 -7.5s-47.667 -12 -68 -21s-37.333 -18.333 -51 -28s-30.834 -23.5 -51.501 -41.5c3.33301 41.333 5.66602 95 6.99902 161c33.333 24 59.166 44.833 77.499 62.5s36.5 40.5 54.5 68.5s32.167 60 42.5 96s15.5 74.667 15.5 116c0 42 -6 83 -18 123
c-78 -1.33301 -143.333 -3.33301 -196 -6c6.66699 30.667 14 73 22 127c64 -2 109 -3 135 -3l-43.5 104c-16.333 38 -27.833 66.333 -34.5 85s-12 38.667 -16 60s-6 42.666 -6 63.999c0 51.333 12.333 99 37 143s60.334 80.833 107.001 110.5s97.167 50.167 151.5 61.5
s111.166 17 170.499 17c46 0 88.167 -2 126.5 -6s89.5 -12.667 153.5 -26c2 -43.333 6.33301 -94 13 -152c-106 36 -200 54 -282 54c-51.333 0 -99.5 -8.33301 -144.5 -25s-81.333 -42.334 -109 -77.001s-41.5 -71.667 -41.5 -111c0 -20.667 2 -41 6 -61
s9.33301 -39.167 16 -57.5s18.834 -49.5 36.501 -93.5s28.834 -73.333 33.501 -88c100 0 243 1.33301 429 4c-2 -8.66699 -10 -51 -24 -127c-114.667 2 -192.667 3 -234 3c-66 0 -114.667 -0.666992 -146 -2c10.667 -46.667 16 -91.334 16 -134.001
c0 -27.333 -2.83301 -54.333 -8.5 -81s-13.334 -51.334 -23.001 -74.001s-20.334 -43.167 -32.001 -61.5s-28.834 -42.5 -51.501 -72.5c38 6 70.667 9 98 9c23.333 0 44.833 -1.16699 64.5 -3.5s36.5 -5.33301 50.5 -9s42.833 -12.667 86.5 -27s84.334 -26 122.001 -35
s74.167 -13.5 109.5 -13.5c24 0 46.333 1.66699 67 5s38.5 7.5 53.5 12.5s35.5 13.167 61.5 24.5z" />
    <glyph glyph-name="currency" unicode="&#xa4;" 
d="M230 994l-134.999 136.001c24 19.333 53.333 46 88 80l129 -139c40 27.333 85.167 48 135.5 62s102.166 21 155.499 21c55.333 0 108.5 -7.83301 159.5 -23.5s93.5 -36.167 127.5 -61.5l144 143c16 -20.667 41.667 -48.667 77 -84l-147 -137
c24.667 -36 43.834 -78.333 57.501 -127s20.5 -99.334 20.5 -152.001c0 -54.667 -7.5 -108.667 -22.5 -162s-35.5 -100.333 -61.5 -141l131 -132c-29.333 -24.667 -58.666 -51.667 -87.999 -81l-116 126c-15.333 -12.667 -28.333 -22.5 -39 -29.5
s-25.834 -15.167 -45.501 -24.5s-41.334 -17.5 -65.001 -24.5s-49.5 -12.5 -77.5 -16.5s-56 -6 -84 -6c-54 0 -107.833 8 -161.5 24s-99.5 40.333 -137.5 73l-124 -123c-16 18.667 -42 46.334 -78 83.001l130 121c-24 36 -42.333 77.167 -55 123.5s-19 94.166 -19 143.499
c0 62 9.33301 122.667 28 182s43 108 73 146zM594.001 1044c-61.333 0 -118.168 -14.8369 -170.501 -44.5039s-91 -74.5 -116 -134.5s-37.5 -125.667 -37.5 -197c0 -63.333 10.333 -120.166 31 -170.499s54.667 -91.166 102 -122.499s105 -47 173 -47
c66.667 0 125 15.167 175 45.5s87.667 75.5 113 135.5s38 127.333 38 202c0 52.667 -7.33301 101.834 -22 147.501s-37 82.334 -67 110.001s-64.167 47.167 -102.5 58.5s-77.166 17 -116.499 17z" />
    <glyph glyph-name="yen" unicode="&#xa5;" 
d="M134 512c4.66699 29.333 8.66797 65 12.001 107c157.333 -2.66699 271 -4 341 -4l-105 187l-257 -4c5.33301 29.333 9.33301 65 12 107c80.667 -2 143.334 -3 188.001 -3l-267 463c39.333 -0.666992 70.666 -1 93.999 -1s54.333 0.333008 93 1l98 -186l245 -441l334 522
l63 105c39.333 -0.666992 69.666 -1 90.999 -1s51.666 0.333008 90.999 1l-309 -463c52.667 0 122.334 1 209.001 3c-5.33301 -31.333 -10 -67 -14 -107c-129.333 2.66699 -216 4 -260 4l-122 -187l125 1c24 0 103.667 1 239 3c-6 -30.667 -10.667 -66.334 -14 -107.001
c-162.667 3.33301 -285 5 -367 5l-10 -189c-5.33301 -103.333 -9 -212.666 -11 -327.999c-39.333 1.33301 -69.333 2 -90 2c-21.333 0 -51.333 -0.666992 -90 -2l28 382l7 135l-43 -1h-103z" />
    <glyph glyph-name="brokenbar" unicode="&#xa6;" horiz-adv-x="1028" 
d="M435 1365h159v-683h-159v683zM435 314h159v-655h-159v655z" />
    <glyph glyph-name="section" unicode="&#xa7;" horiz-adv-x="1098" 
d="M884 1336c-0.666992 -14 -1.00195 -36.333 -1.00195 -67c0 -20 0.333008 -42.333 1 -67c-58 23.333 -106.167 38.833 -144.5 46.5s-72.5 11.5 -102.5 11.5c-49.333 0 -90 -9.83301 -122 -29.5s-56.333 -45 -73 -76s-25 -63.5 -25 -97.5c0 -20 2.33301 -38.333 7 -55
s12.834 -33.667 24.501 -51s24.167 -32 37.5 -44s33.5 -26.333 60.5 -43s60.167 -35.334 99.5 -56.001c88 -46.667 154.833 -87 200.5 -121s79.334 -72.833 101.001 -116.5s32.5 -90.167 32.5 -139.5c0 -29.333 -4 -58.833 -12 -88.5s-19.833 -58.5 -35.5 -86.5
s-33.667 -53 -54 -75s-39.833 -40.167 -58.5 -54.5s-42.667 -31.166 -72 -50.499c22 -20.667 38.833 -38.334 50.5 -53.001s21.834 -31.334 30.501 -50.001s15.334 -39.667 20.001 -63s7 -47.333 7 -72c0 -62 -15.833 -118.167 -47.5 -168.5s-75.667 -89.833 -132 -118.5
s-119.833 -43 -190.5 -43c-42 0 -85.667 4 -131 12s-101 21.667 -167 41c0.666992 18 1 33.667 1 47c0 16.667 -0.666992 49.334 -2 98.001c54.667 -22 102 -38.333 142 -49s78 -16 114 -16c43.333 0 82.833 8.66699 118.5 26s63.167 44 82.5 80s29 72.667 29 110
c0 18 -2 34.833 -6 50.5s-11.333 32.167 -22 49.5s-23.5 32.833 -38.5 46.5s-35.833 29 -62.5 46s-63.334 37.167 -110.001 60.5s-83.667 42.5 -111 57.5s-54.5 34.167 -81.5 57.5s-50.667 48.333 -71 75s-35 54.834 -44 84.501s-13.5 61.167 -13.5 94.5
c0 70 20.167 136.167 60.5 198.5s98.833 115.5 175.5 159.5c-24 22.667 -41.833 41.334 -53.5 56.001s-22.167 31.667 -31.5 51s-16 39.166 -20 59.499s-6 40.833 -6 61.5c0 58 15.333 112.667 46 164s73.167 90.5 127.5 117.5s123.166 40.5 206.499 40.5
c37.333 0 76.5 -3.5 117.5 -10.5s90.5 -20.5 148.5 -40.5zM653.998 152c54.667 32 96.332 67.8369 124.999 107.504s43 85.167 43 136.5c0 33.333 -4.33301 63.166 -13 89.499s-22.167 50.666 -40.5 72.999s-42.166 43.166 -71.499 62.499
c-18.667 12.667 -66 38.667 -142 78c-41.333 21.333 -78.333 41.333 -111 60c-24 -13.333 -43.167 -25 -57.5 -35s-30 -23.833 -47 -41.5s-31.5 -36.834 -43.5 -57.501s-20.667 -40.667 -26 -60s-8 -39.333 -8 -60c0 -31.333 6 -61 18 -89s33.667 -56 65 -84
s83.833 -61 157.5 -99s124.167 -65 151.5 -81z" />
    <glyph glyph-name="dieresis" unicode="&#xa8;" horiz-adv-x="1024" 
d="M610 1212l6 129c32 -0.666992 57.333 -1 76 -1s43.334 0.333008 74.001 1l-4 -129c-24.667 1.33301 -49.334 2 -74.001 2c-24 0 -50 -0.666992 -78 -2zM317 1212l4.99902 129c32.667 -0.666992 58.334 -1 77.001 -1s43.334 0.333008 74.001 1l-4 -129
c-24.667 1.33301 -49.334 2 -74.001 2c-24 0 -50 -0.666992 -78 -2z" />
    <glyph glyph-name="copyright" unicode="&#xa9;" horiz-adv-x="1625" 
d="M848 1386c99.333 0 193.33 -14.501 281.997 -43.501s165.834 -75.833 231.501 -140.5s112.334 -138.667 140.001 -222s41.5 -172.333 41.5 -267c0 -102.667 -15.833 -201.334 -47.5 -296.001s-79.5 -174.5 -143.5 -239.5s-144.333 -114.333 -241 -148
s-197.667 -50.5 -303 -50.5c-102 0 -200 15.5 -294 46.5s-172.5 76.833 -235.5 137.5s-109 133.334 -138 218.001s-43.5 173.667 -43.5 267c0 104.667 17.833 205.834 53.5 303.501s87.334 179.167 155.001 244.5s149 113.333 244 144s194.5 46 298.5 46zM844.997 1304
c-92.667 0 -180.331 -13.665 -262.998 -40.998s-154.167 -72 -214.5 -134s-104.833 -134.833 -133.5 -218.5s-43 -171.167 -43 -262.5c0 -85.333 14.833 -167.333 44.5 -246s73.167 -143.834 130.5 -195.501s124.666 -88.834 201.999 -111.501s159 -34 245 -34
c90.667 0 176.5 12.833 257.5 38.5s150.667 67.834 209 126.501s101.166 129.167 128.499 211.5s41 169.166 41 260.499c0 87.333 -12.667 170.333 -38 249s-65.833 145.5 -121.5 200.5s-122 94.833 -199 119.5s-158.833 37 -245.5 37zM1081 421.001
c-6.66699 -30 -12.6719 -64.666 -18.0049 -103.999c-75.333 -16 -146 -24 -212 -24c-56.667 0 -111.167 8.33301 -163.5 25s-98 42.667 -137 78s-67.167 76.833 -84.5 124.5s-26 99.167 -26 154.5c0 78 18.167 149.667 54.5 215s88.833 114.166 157.5 146.499
s144.334 48.5 227.001 48.5c66.667 0 134.334 -7 203.001 -21c0.666992 -34.667 3.33398 -69.667 8.00098 -105c-46.667 14 -85.167 23.333 -115.5 28s-59.166 7 -86.499 7c-63.333 0 -120.166 -12.833 -170.499 -38.5s-89 -63.667 -116 -114s-40.5 -104.833 -40.5 -163.5
c0 -54.667 10.333 -104.167 31 -148.5s54.667 -79.833 102 -106.5s103.333 -40 168 -40c61.333 0 134.333 12.667 219 38z" />
    <glyph glyph-name="ordfeminine" unicode="&#xaa;" horiz-adv-x="699" 
d="M124 1041c6.66699 32 11.6621 64.668 14.9951 98.001c88 22 168 33 240 33c54 0 99.5 -5.83301 136.5 -17.5s64.333 -29 82 -52s26.5 -53.167 26.5 -90.5c0 -28.667 -3.16699 -90.667 -9.5 -186s-9.5 -188.666 -9.5 -279.999c-24.667 0.666992 -45.667 1 -63 1
c-18 0 -39.667 -0.333008 -65 -1c4.66699 38.667 8 72.667 10 102s4.33301 72 7 128l6 113c-15.333 -10.667 -30.166 -19 -44.499 -25s-44.166 -15 -89.499 -27c-40 -10.667 -72 -20 -96 -28s-44.5 -18 -61.5 -30s-29 -24 -36 -36s-10.5 -25.333 -10.5 -40
c0 -20.667 6.33301 -38.334 19 -53.001s28.334 -24.834 47.001 -30.501s41.334 -8.5 68.001 -8.5c20 0 39.167 1.33301 57.5 4s45.833 10 82.5 22c-10.667 -35.333 -18.667 -65.333 -24 -90c-48 -9.33301 -92.667 -14 -134 -14c-58 0 -103.167 6.66699 -135.5 20
s-56.5 33.5 -72.5 60.5s-24 56.5 -24 88.5c0 24 5.33301 46.833 16 68.5s27.5 41.334 50.5 59.001s52.667 33 89 46s90.833 27.833 163.5 44.5c56.667 12.667 93.5 27 110.5 43s25.5 33.333 25.5 52c0 22.667 -10.833 41.167 -32.5 55.5s-56.5 21.5 -104.5 21.5
c-31.333 0 -66.166 -3.33301 -104.499 -10s-83.5 -20.334 -135.5 -41.001z" />
    <glyph glyph-name="guillemotleft" unicode="&#xab;" horiz-adv-x="866" 
d="M429 880l-92.001 -197c-24 -50.667 -47.333 -103 -70 -157c30 -86 53 -149.333 69 -190l61 -160c-23.333 0.666992 -44 1 -62 1s-38 -0.333008 -60 -1l-24 53l-55 110l-94 187c50.667 82 117.667 200 201 354c22 -1.33301 42.333 -2 61 -2
c20.667 0 42.334 0.666992 65.001 2zM737.999 880l-86.002 -184c-26 -54 -51.333 -110.667 -76 -170l41 -115l39 -106l50 -129c-23.333 0.666992 -44.333 1 -63 1c-18 0 -37.667 -0.333008 -59 -1l-24 53l-149 297c58 95.333 124.667 213.333 200 354
c22.667 -1.33301 43.334 -2 62.001 -2c20.667 0 42.334 0.666992 65.001 2z" />
    <glyph glyph-name="logicalnot" unicode="&#xac;" horiz-adv-x="1028" 
d="M802 0v423h-732v140h887v-563h-155z" />
    <glyph glyph-name="sfthyphen" unicode="&#xad;" horiz-adv-x="510" 
d="M-3 461c5.33301 49.333 8.00098 93.667 8.00098 133c92.667 -3.33301 175.667 -5 249 -5c71.333 0 154.333 1.66699 249 5c-4.66699 -46.667 -7.33398 -91 -8.00098 -133c-83.333 3.33301 -167 5 -251 5c-80 0 -162.333 -1.66699 -247 -5z" />
    <glyph glyph-name="registered" unicode="&#xae;" horiz-adv-x="1625" 
d="M848 1386c99.333 0 193.33 -14.501 281.997 -43.501s165.834 -75.833 231.501 -140.5s112.334 -138.667 140.001 -222s41.5 -172.333 41.5 -267c0 -102.667 -15.833 -201.334 -47.5 -296.001s-79.5 -174.5 -143.5 -239.5s-144.333 -114.333 -241 -148
s-197.667 -50.5 -303 -50.5c-102 0 -200 15.5 -294 46.5s-172.5 76.833 -235.5 137.5s-109 133.334 -138 218.001s-43.5 173.667 -43.5 267c0 104.667 17.833 205.834 53.5 303.501s87.334 179.167 155.001 244.5s149 113.333 244 144s194.5 46 298.5 46zM844.997 1304
c-92.667 0 -180.331 -13.665 -262.998 -40.998s-154.167 -72 -214.5 -134s-104.833 -134.833 -133.5 -218.5s-43 -171.167 -43 -262.5c0 -85.333 14.833 -167.333 44.5 -246s73.167 -143.834 130.5 -195.501s124.666 -88.834 201.999 -111.501s159 -34 245 -34
c90.667 0 176.5 12.833 257.5 38.5s150.667 67.834 209 126.501s101.166 129.167 128.499 211.5s41 169.166 41 260.499c0 87.333 -12.667 170.333 -38 249s-65.833 145.5 -121.5 200.5s-122 94.833 -199 119.5s-158.833 37 -245.5 37zM553 304.001
c8 85.333 15.166 205.998 21.499 361.998s9.5 291.667 9.5 407l122 -1l153 2c28.667 0 55 -1.33301 79 -4s43.333 -6.5 58 -11.5s29.834 -13 45.501 -24s29 -23.833 40 -38.5s19.167 -31 24.5 -49s8 -37 8 -57c0 -27.333 -4 -52.666 -12 -75.999
s-19.833 -44.833 -35.5 -64.5s-33.334 -35.5 -53.001 -47.5s-38.5 -20.167 -56.5 -24.5s-45 -9.83301 -81 -16.5c25.333 -42 56.666 -90.333 93.999 -145l143 -212c-37.333 1.33301 -62.666 2 -75.999 2l-65 -1l-46 82l-35.5 62.5c-10.333 17.667 -26.5 43.834 -48.5 78.501
l-131 208c41.333 -7.33301 73 -11 95 -11c36.667 0 69.834 5.83301 99.501 17.5s52.334 29.5 68.001 53.5s23.5 50.333 23.5 79c0 15.333 -2.33301 29.833 -7 43.5s-12.834 25.5 -24.501 35.5s-24.167 17 -37.5 21s-27.666 6.83301 -42.999 8.5s-42 2.5 -80 2.5
c-24.667 0 -59.334 -0.333008 -104.001 -1c-6 -114 -10.833 -240.5 -14.5 -379.5s-5.5 -239.5 -5.5 -301.5c-34 1.33301 -55.667 2 -65 2c-10 0 -31 -0.666992 -63 -2z" />
    <glyph glyph-name="overscore" unicode="&#xaf;" horiz-adv-x="1028" 
d="M2 1581h1024v-111h-1024v111z" />
    <glyph glyph-name="degree" unicode="&#xb0;" horiz-adv-x="567" 
d="M499 1193c0 -34 -8.5 -65.833 -25.5 -95.5s-40.333 -53 -70 -70s-61.5 -25.5 -95.5 -25.5s-65.833 8.5 -95.5 25.5s-53 40.5 -70 70.5s-25.5 61.667 -25.5 95c0 34 8.5 65.833 25.5 95.5s40.333 53 70 70s61.5 25.5 95.5 25.5s65.833 -8.5 95.5 -25.5s53 -40.333 70 -70
s25.5 -61.5 25.5 -95.5zM418 1193c0 30.667 -10.667 57 -32 79s-47.333 33 -78 33c-30 0 -55.833 -11 -77.5 -33s-32.5 -48.333 -32.5 -79s10.833 -56.834 32.5 -78.501s47.5 -32.5 77.5 -32.5c30.667 0 56.667 10.833 78 32.5s32 47.834 32 78.501z" />
    <glyph glyph-name="plusminus" unicode="&#xb1;" 
d="M115 716c3.33301 18.667 6.33203 58.667 8.99902 120c176 -3.33301 313.333 -5 412 -5l10 370c15.333 -1.33301 36.666 -2 63.999 -2c28 0 49.333 0.666992 64 2c-2 -30.667 -8.33301 -153.667 -19 -369h168l253 4c-4 -32.667 -6.66699 -72.667 -8 -120
c-179.333 2.66699 -318.666 4 -417.999 4l-10 -369c-15.333 1.33301 -36.666 2 -63.999 2c-28 0 -49.333 -0.666992 -64 -2c2.66699 39.333 9 162.333 19 369h-162zM92.999 163c3.33301 19.333 6 59.667 8 121c177.333 -3.33301 336 -5 476 -5c136 0 295 1.66699 477 5
c-4 -28 -6.66699 -68.333 -8 -121c-181.333 3.33301 -340 5 -476 5s-295 -1.66699 -477 -5z" />
    <glyph glyph-name="twosuperior" unicode="&#xb2;" horiz-adv-x="748" 
d="M94 546c2.66699 28.667 4 59.3359 4 92.0029l159.5 156.5c51 51 99.667 103.333 146 157s78.666 94.167 96.999 121.5s29.833 48.166 34.5 62.499s7 28.166 7 41.499c0 35.333 -16.167 62.666 -48.5 81.999s-74.166 29 -125.499 29c-58 0 -135.333 -12 -232 -36
c8 38 13.667 72 17 102c82.667 16 165.334 24 248.001 24c56 0 104.833 -7.16699 146.5 -21.5s73.834 -35.333 96.501 -63s34 -60.167 34 -97.5c0 -18.667 -2.16699 -36.667 -6.5 -54s-13.666 -39.5 -27.999 -66.5s-36.833 -59.167 -67.5 -96.5
c-44.667 -56 -95.334 -114.167 -152.001 -174.5s-113.334 -116.833 -170.001 -169.5l28 -1c132.667 0 216.5 0.5 251.5 1.5s73.5 3.16699 115.5 6.5c-4 -36.667 -6.33301 -68.667 -7 -96c-65.333 0.666992 -154.333 1 -267 1c-120.667 0 -214.334 -0.333008 -281.001 -1z
" />
    <glyph glyph-name="threesuperior" unicode="&#xb3;" horiz-adv-x="747" 
d="M94 565c-3.33301 47.333 -6.99902 83.666 -10.999 108.999c50 -19.333 93.5 -32.166 130.5 -38.499s71.5 -9.5 103.5 -9.5c64.667 0 117.5 15.5 158.5 46.5s61.5 70.167 61.5 117.5c0 26.667 -7.16699 50.667 -21.5 72s-36.833 37.666 -67.5 48.999
s-73.334 17 -128.001 17c-27.333 0 -58.333 -1.33301 -93 -4c4 44 6 76.667 6 98c26 -4 48.667 -6 68 -6c36.667 0 73 4.5 109 13.5s64 26.333 84 52s30 53.5 30 83.5c0 24.667 -7 47 -21 67s-34.333 34.5 -61 43.5s-58.334 13.5 -95.001 13.5c-32.667 0 -63.667 -2 -93 -6
s-65.333 -11.333 -108 -22c9.33301 45.333 15 78.333 17 99c80 12 146.667 18 200 18c64.667 0 119.334 -7.33301 164.001 -22s77.667 -37.667 99 -69s32 -67.333 32 -108c0 -28 -5.5 -55.833 -16.5 -83.5s-26 -50.667 -45 -69s-50.167 -36.166 -93.5 -53.499
c54.667 -10.667 95.5 -32.834 122.5 -66.501s40.5 -74.834 40.5 -123.501c0 -47.333 -13.667 -90.666 -41 -129.999s-67 -69.166 -119 -89.499s-113 -30.5 -183 -30.5c-68 0 -144.333 10.667 -229 32z" />
    <glyph glyph-name="acute" unicode="&#xb4;" horiz-adv-x="1024" 
d="M444 1145l92 262c32.667 -1.33301 66.334 -2 101.001 -2c31.333 0 65.333 0.666992 102 2c-44 -62 -101.667 -149.333 -173 -262c-18.667 1.33301 -39.334 2 -62.001 2c-22 0 -42 -0.666992 -60 -2z" />
    <glyph glyph-name="mu" unicode="&#xb5;" 
d="M157 1013l91.999 -0.998047c18.667 0 47.334 0.333008 86.001 1c-8 -108.667 -15.5 -233.834 -22.5 -375.501s-10.5 -232.834 -10.5 -273.501c0 -62 8.66699 -110.5 26 -145.5s44.333 -61.167 81 -78.5s76.334 -26 119.001 -26c43.333 0 84.333 8.33301 123 25
c34.667 14.667 64.5 35.5 89.5 62.5s46.167 63.833 63.5 110.5c13.333 35.333 23.333 82 30 140c4.66699 39.333 8.66699 105.666 12 198.999c4.66699 120.667 8 241.334 10 362.001l92 -1c20 0 48 0.333008 84 1c-9.33301 -126 -20.333 -308.333 -33 -547
c-7.33301 -140 -12 -295.333 -14 -466c-32 1.33301 -59.667 2 -83 2c-26.667 0 -54.334 -0.666992 -83.001 -2l7 193c-16.667 -39.333 -33 -70.5 -49 -93.5s-37 -43.667 -63 -62s-57.333 -32.5 -94 -42.5s-74.667 -15 -114 -15c-32 0 -61.333 3 -88 9
s-49.5 14.167 -68.5 24.5s-34.667 21.833 -47 34.5s-25.5 29 -39.5 49v-95l-1 -102l-2 -156c-0.666992 -40.667 -1 -73 -1 -97l1 -99c-32 1.33301 -60 2 -84 2c-22 0 -51 -0.666992 -87 -2c14.667 194.667 29.667 445 45 751s23 544 23 714z" />
    <glyph glyph-name="paragraph" unicode="&#xb6;" 
d="M934 1266l-24.001 -544.001l-45 -1196c-22.667 1.33301 -40.667 2 -54 2c-12.667 0 -30.334 -0.666992 -53.001 -2l48 1172l20 569h-131l-36 -845l-33 -896c-22.667 1.33301 -40.334 2 -53.001 2c-14 0 -32 -0.666992 -54 -2l44 1106c-41.333 2 -70 4 -86 6
c-32 4 -64 11.667 -96 23c-41.333 14.667 -77.166 33.334 -107.499 56.001s-56.333 49.5 -78 80.5s-38 65.167 -49 102.5s-16.5 76.333 -16.5 117c0 54.667 10.167 106.667 30.5 156s49.5 89.5 87.5 120.5s77.833 50.667 119.5 59s93.834 12.5 156.501 12.5l282 -1
c114.667 0 206.334 0.333008 275.001 1c-3.33301 -32.667 -5.33301 -66.667 -6 -102c-10.667 1.33301 -57.667 2.33301 -141 3z" />
    <glyph glyph-name="middot" unicode="&#xb7;" horiz-adv-x="221" 
d="M10 598c2 32.667 3.33301 60.667 4 84l5 115l109 -1l99 1c-2.66699 -32 -4.66699 -67 -6 -105l-4 -94l-99 2c-6 0 -42 -0.666992 -108 -2z" />
    <glyph glyph-name="cedilla" unicode="&#xb8;" horiz-adv-x="1024" 
d="M673 -96l-57 -112l-68 -136c-42.667 1.33301 -77.667 2 -105 2c-25.333 0 -61.333 -0.666992 -108 -2l207 250c18 -2.66699 41.667 -4 71 -4c22.667 0 42.667 0.666992 60 2z" />
    <glyph glyph-name="onesuperior" unicode="&#xb9;" horiz-adv-x="747" 
d="M336 546l4.99902 67.001c1.33301 15.333 4.66602 80.666 9.99902 195.999l16 436c-9.33301 -5.33301 -39.666 -25 -90.999 -59c4.66699 42 7 80.333 7 115c54 31.333 89 53 105 65c12.667 -1.33301 30 -2 52 -2c25.333 0 46 0.666992 62 2c-6 -87.333 -14 -239 -24 -455
c-6 -120.667 -9 -223.667 -9 -309l1 -56c-22 0.666992 -43.333 1 -64 1c-25.333 0 -48.666 -0.333008 -69.999 -1z" />
    <glyph glyph-name="ordmasculine" unicode="&#xba;" horiz-adv-x="771" 
d="M407 1172c63.333 0 119.832 -12 169.499 -36s86.834 -59.833 111.501 -107.5s37 -100.5 37 -158.5c0 -64 -14.333 -123.5 -43 -178.5s-67.834 -95.167 -117.501 -120.5s-107.167 -38 -172.5 -38c-62.667 0 -118.667 12.333 -168 37s-86.833 61 -112.5 109
s-38.5 101 -38.5 159c0 66.667 13.833 126.167 41.5 178.5s68.334 91.333 122.001 117s110.5 38.5 170.5 38.5zM403.999 1079c-38.667 0 -74.834 -9.33398 -108.501 -28.001s-58.5 -47.334 -74.5 -86.001s-24 -81 -24 -127c0 -41.333 7.16699 -78.166 21.5 -110.499
s36.833 -57.666 67.5 -75.999s66.334 -27.5 107.001 -27.5c42.667 0 80 9.5 112 28.5s56 47.667 72 86s24 81.833 24 130.5c0 42 -7 79.5 -21 112.5s-36.5 57.5 -67.5 73.5s-67.167 24 -108.5 24z" />
    <glyph glyph-name="guillemotright" unicode="&#xbb;" horiz-adv-x="869" 
d="M139 880c23.333 -1.33301 44.668 -2 64.001 -2c20 0 40.667 0.666992 62 2c72 -162 127.333 -280 166 -354l-207 -350c-22.667 0.666992 -42.334 1 -59.001 1c-19.333 0 -40.333 -0.333008 -63 -1l80 165c16 33.333 44 95 84 185c-19.333 59.333 -39 116 -59 170z
M447.002 880c24 -1.33301 45.667 -2 65 -2c20 0 40.667 0.666992 62 2c72 -162 127.333 -280 166 -354l-163 -273l-44 -77c-22.667 0.666992 -42.667 1 -60 1c-19.333 0 -40 -0.333008 -62 -1l83 173c6 11.333 33 70.333 81 177c-19.333 59.333 -39.333 116 -60 170z" />
    <glyph glyph-name="onequarter" unicode="&#xbc;" horiz-adv-x="1691" 
d="M336 546l4.99902 67.001c1.33301 15.333 4.66602 80.666 9.99902 195.999l16 436c-9.33301 -5.33301 -39.666 -25 -90.999 -59c4.66699 42 7 80.333 7 115c54 31.333 89 53 105 65c12.667 -1.33301 30 -2 52 -2c25.333 0 46 0.666992 62 2c-6 -87.333 -14 -239 -24 -455
c-6 -120.667 -9 -223.667 -9 -309l1 -56c-22 0.666992 -43.333 1 -64 1c-25.333 0 -48.666 -0.333008 -69.999 -1zM394.999 0.000976562l576 968l231 397c21.333 -0.666992 39.333 -1 54 -1c16.667 0 35.667 0.333008 57 1l-226 -375l-481 -817l-97 -173
c-20.667 1.33301 -37.667 2 -51 2c-16 0 -37 -0.666992 -63 -2zM1341 0.000976562l6.99805 104l8 173l-151 -1l-198 -2c2.66699 24.667 4.33398 59.334 5.00098 104.001l118 151l117 155l97 135c26 -0.666992 52.667 -1 80 -1s53 0.333008 77 1
c-9.33301 -150.667 -16.666 -301 -21.999 -451h12c51.333 0 82.166 0.166992 92.499 0.5s21.833 1.5 34.5 3.5c-2 -21.333 -3 -47 -3 -77l1 -20c-46.667 1.33301 -93.667 2 -141 2c-0.666992 -16 -1.66699 -52.667 -3 -110s-2 -95.333 -2 -114
c0 -10.667 0.333008 -28.334 1 -53.001c-23.333 0.666992 -44.666 1 -63.999 1c-20.667 0 -42.667 -0.333008 -66 -1zM1368 365.001l13 350l-262 -350h249z" />
    <glyph glyph-name="onehalf" unicode="&#xbd;" horiz-adv-x="1691" 
d="M336 546l4.99902 67.001c1.33301 15.333 4.66602 80.666 9.99902 195.999l16 436c-9.33301 -5.33301 -39.666 -25 -90.999 -59c4.66699 42 7 80.333 7 115c54 31.333 89 53 105 65c12.667 -1.33301 30 -2 52 -2c25.333 0 46 0.666992 62 2c-6 -87.333 -14 -239 -24 -455
c-6 -120.667 -9 -223.667 -9 -309l1 -56c-22 0.666992 -43.333 1 -64 1c-25.333 0 -48.666 -0.333008 -69.999 -1zM394.999 0.000976562l576 968l231 397c21.333 -0.666992 39.333 -1 54 -1c16.667 0 35.667 0.333008 57 1l-226 -375l-481 -817l-97 -173
c-20.667 1.33301 -37.667 2 -51 2c-16 0 -37 -0.666992 -63 -2zM1016 0.000976562c2.66699 32 3.99805 62.6689 3.99805 92.002l158 154.5c50.667 51 99.5 103.667 146.5 158s79.667 95.166 98 122.499s29.833 48.166 34.5 62.499s7 28.166 7 41.499
c0 35.333 -16.333 62.666 -49 81.999s-74.334 29 -125.001 29c-58 0 -135.333 -12 -232 -36c8 38 13.667 72 17 102c82.667 16 165.334 24 248.001 24c56 0 104.833 -7.16699 146.5 -21.5s73.834 -35.5 96.501 -63.5s34 -60.333 34 -97c0 -18.667 -2.16699 -36.667 -6.5 -54
s-13.666 -39.5 -27.999 -66.5s-36.833 -59.5 -67.5 -97.5c-44.667 -55.333 -95.167 -113.166 -151.5 -173.499s-113.166 -117.166 -170.499 -170.499h28c132.667 0 216.667 0.5 252 1.5s73.666 3.16699 114.999 6.5c-3.33301 -33.333 -5.66602 -65.333 -6.99902 -96
c-65.333 0.666992 -154.333 1 -267 1c-120.667 0 -214.334 -0.333008 -281.001 -1z" />
    <glyph glyph-name="threequarters" unicode="&#xbe;" horiz-adv-x="1691" 
d="M94 565c-3.33301 47.333 -6.99902 83.666 -10.999 108.999c50 -19.333 93.5 -32.166 130.5 -38.499s71.5 -9.5 103.5 -9.5c64.667 0 117.5 15.5 158.5 46.5s61.5 70.167 61.5 117.5c0 26.667 -7.16699 50.667 -21.5 72s-36.833 37.666 -67.5 48.999
s-73.334 17 -128.001 17c-27.333 0 -58.333 -1.33301 -93 -4c4 44 6 76.667 6 98c26 -4 48.667 -6 68 -6c36.667 0 73 4.5 109 13.5s64 26.333 84 52s30 53.5 30 83.5c0 24.667 -7 47 -21 67s-34.333 34.5 -61 43.5s-58.334 13.5 -95.001 13.5c-32.667 0 -63.667 -2 -93 -6
s-65.333 -11.333 -108 -22c9.33301 45.333 15 78.333 17 99c80 12 146.667 18 200 18c64.667 0 119.334 -7.33301 164.001 -22s77.667 -37.667 99 -69s32 -67.333 32 -108c0 -28 -5.5 -55.833 -16.5 -83.5s-26 -50.667 -45 -69s-50.167 -36.166 -93.5 -53.499
c54.667 -10.667 95.5 -32.834 122.5 -66.501s40.5 -74.834 40.5 -123.501c0 -47.333 -13.667 -90.666 -41 -129.999s-67 -69.166 -119 -89.499s-113 -30.5 -183 -30.5c-68 0 -144.333 10.667 -229 32zM394.001 0l264.001 440l449 761l94 164
c21.333 -0.666992 39.666 -1 54.999 -1c16 0 34.667 0.333008 56 1l-225 -374l-480 -816l-99 -175c-20.667 1.33301 -37.667 2 -51 2c-15.333 0 -36.333 -0.666992 -63 -2zM1340 0c4.66699 54.667 8.33203 109.999 10.999 165.999l4 111l-150 -1l-199 -2
c3.33301 34.667 5 69.334 5 104.001l117 149l117 154c32 42.667 64.667 88.667 98 138c26.667 -0.666992 53.334 -1 80.001 -1c28 0 53.667 0.333008 77 1c-8.66699 -140 -15.667 -290.333 -21 -451h11c51.333 0 82.333 0.166992 93 0.5s22 1.5 34 3.5
c-2 -24.667 -3 -47.334 -3 -68.001c0 -7.33301 0.333008 -17 1 -29c-46.667 1.33301 -93.334 2 -140.001 2c-1.33301 -17.333 -2.66602 -53.5 -3.99902 -108.5s-2 -92.833 -2 -113.5c0 -11.333 0.666992 -29.666 2 -54.999c-23.333 0.666992 -45 1 -65 1
s-42 -0.333008 -66 -1zM1368 364.999l12 350l-139 -187l-123 -163h250z" />
    <glyph glyph-name="questiondown" unicode="&#xbf;" horiz-adv-x="959" 
d="M640 1013c-0.666992 -6 -4.33301 -65.001 -11 -177.001c-39.333 1.33301 -73.333 2 -102 2c-31.333 0 -65 -0.666992 -101 -2c2.66699 34 4.5 66.333 5.5 97s2.5 57.334 4.5 80.001l100 -1zM607.001 737.999l-6.99902 -139.01c-3.33301 -53.333 -7 -91.166 -11 -113.499
s-9.5 -41.166 -16.5 -56.499s-18.167 -33.666 -33.5 -54.999c-22.667 -29.333 -63.167 -76.666 -121.5 -141.999s-96.166 -109.666 -113.499 -132.999s-32.166 -47.666 -44.499 -72.999s-18.5 -52 -18.5 -80c0 -38.667 11.833 -73.5 35.5 -104.5s59 -53.5 106 -67.5
s98.833 -21 155.5 -21c44.667 0 90.834 3.5 138.501 10.5s111.834 21.167 192.501 42.5c-14 -64 -23 -114 -27 -150c-125.333 -20 -242 -30 -350 -30c-88.667 0 -167.334 11.167 -236.001 33.5s-120.334 57.333 -155.001 105s-52 98.834 -52 153.501c0 24 3 49.333 9 76
s18.833 57.834 38.5 93.501s45.167 72 76.5 109s65.666 75.167 102.999 114.5s64.166 68.333 80.499 87s28.833 35.334 37.5 50.001s15.5 29.167 20.5 43.5s9.16699 32.333 12.5 54s6.66602 49.834 9.99902 84.501l9 108c24 -0.666992 50.333 -1 79 -1s56 0.333008 82 1z
" />
    <glyph glyph-name="Agrave" unicode="&#xc0;" horiz-adv-x="1425" 
d="M-47 0l182.002 344.001l464 907l54 114l116 -1c36 0 75 0.333008 117 1l173 -490l320 -875l-95 2c-18 0 -53.667 -0.666992 -107 -2c-18 64 -47.833 156.667 -89.5 278s-76.834 219.666 -105.501 294.999h-547l-145 -299l-128 -274l-102 2
c-16.667 0 -52.334 -0.666992 -107.001 -2zM494.002 705.001h450l-186 529zM839.002 1493c-20 1.33301 -39.999 2 -59.999 2c-24.667 0 -45.334 -0.666992 -62.001 -2c-66.667 108.667 -122.667 196 -168 262c38 -1.33301 72 -2 102 -2c35.333 0 69 0.666992 101 2z" />
    <glyph glyph-name="Aacute" unicode="&#xc1;" horiz-adv-x="1425" 
d="M-47 0l182.002 344.001l464 907l54 114l116 -1c36 0 75 0.333008 117 1l173 -490l320 -875l-95 2c-18 0 -53.667 -0.666992 -107 -2c-18 64 -47.833 156.667 -89.5 278s-76.834 219.666 -105.501 294.999h-547l-145 -299l-128 -274l-102 2
c-16.667 0 -52.334 -0.666992 -107.001 -2zM494.002 705.001h450l-186 529zM701.002 1493l92 262c32.667 -1.33301 66.334 -2 101.001 -2c31.333 0 65.333 0.666992 102 2c-44 -62 -101.667 -149.333 -173 -262c-18.667 1.33301 -39.334 2 -62.001 2
c-22 0 -42 -0.666992 -60 -2z" />
    <glyph glyph-name="Acircumflex" unicode="&#xc2;" horiz-adv-x="1425" 
d="M-47 0l182.002 344.001l464 907l54 114l116 -1c36 0 75 0.333008 117 1l173 -490l320 -875l-95 2c-18 0 -53.667 -0.666992 -107 -2c-18 64 -47.833 156.667 -89.5 278s-76.834 219.666 -105.501 294.999h-547l-145 -299l-128 -274l-102 2
c-16.667 0 -52.334 -0.666992 -107.001 -2zM494.002 705.001h450l-186 529zM545.002 1509c54 96 96.001 173.667 126.001 233l111 -2c5.33301 0 40.666 0.666992 105.999 2c29.333 -64 68 -141.667 116 -233c-21.333 0.666992 -40 1 -56 1
c-13.333 0 -31.333 -0.333008 -54 -1l-114 160l-125 -160c-16 0.666992 -33.667 1 -53 1c-22.667 0 -41.667 -0.333008 -57 -1z" />
    <glyph glyph-name="Atilde" unicode="&#xc3;" horiz-adv-x="1425" 
d="M-47 0l182.002 344.001l464 907l54 114l116 -1c36 0 75 0.333008 117 1l173 -490l320 -875l-95 2c-18 0 -53.667 -0.666992 -107 -2c-18 64 -47.833 156.667 -89.5 278s-76.834 219.666 -105.501 294.999h-547l-145 -299l-128 -274l-102 2
c-16.667 0 -52.334 -0.666992 -107.001 -2zM494.002 705.001h450l-186 529zM522.002 1529c0 52 4.5 93.333 13.5 124s22.5 52.334 40.5 65.001s37.667 19 59 19c12 0 24.833 -2.16699 38.5 -6.5s28.167 -11.166 43.5 -20.499s45.333 -29.666 90 -60.999
c16.667 -11.333 29.5 -19.333 38.5 -24s18.167 -7 27.5 -7c8 0 15.5 1.5 22.5 4.5s13.167 8.16699 18.5 15.5s9.16602 16.833 11.499 28.5s4.16602 30.167 5.49902 55.5c18 -0.666992 33 -1 45 -1c12.667 0 28 0.333008 46 1c-0.666992 -46.667 -5 -83.834 -13 -111.501
s-20.5 -50.334 -37.5 -68.001s-39.5 -26.5 -67.5 -26.5c-11.333 0 -23 1.83301 -35 5.5s-25.333 10 -40 19s-38 24.5 -70 46.5s-54 35.833 -66 41.5s-22.667 8.5 -32 8.5c-7.33301 0 -13.833 -1.16699 -19.5 -3.5s-10.667 -6.33301 -15 -12
s-7.66602 -12.334 -9.99902 -20.001s-4 -16.667 -5 -27s-1.83301 -25.5 -2.5 -45.5c-20 1.33301 -34.667 2 -44 2s-23.666 -0.666992 -42.999 -2z" />
    <glyph glyph-name="Adieresis" unicode="&#xc4;" horiz-adv-x="1425" 
d="M-47 0l182.002 344.001l464 907l54 114l116 -1c36 0 75 0.333008 117 1l173 -490l320 -875l-95 2c-18 0 -53.667 -0.666992 -107 -2c-18 64 -47.833 156.667 -89.5 278s-76.834 219.666 -105.501 294.999h-547l-145 -299l-128 -274l-102 2
c-16.667 0 -52.334 -0.666992 -107.001 -2zM494.002 705.001h450l-186 529zM847.002 1562l6 129c32 -0.666992 57.333 -1 76 -1s43.334 0.333008 74.001 1l-4 -129c-24.667 1.33301 -49.334 2 -74.001 2c-24 0 -50 -0.666992 -78 -2zM554.002 1562l4.99902 129
c32.667 -0.666992 58.334 -1 77.001 -1s43.334 0.333008 74.001 1l-4 -129c-24.667 1.33301 -49.334 2 -74.001 2c-24 0 -50 -0.666992 -78 -2z" />
    <glyph glyph-name="Aring" unicode="&#xc5;" horiz-adv-x="1425" 
d="M958 1639c0 -32.667 -8.33301 -63.5 -25 -92.5s-39.5 -51.833 -68.5 -68.5s-59.833 -25 -92.5 -25c-33.333 0 -64.333 8.33301 -93 25s-51.334 39.5 -68.001 68.5s-25 59.833 -25 92.5c0 33.333 8.33301 64.333 25 93s39.334 51.334 68.001 68.001s59.667 25 93 25
c32.667 0 63.5 -8.33301 92.5 -25s51.833 -39.334 68.5 -68.001s25 -59.667 25 -93zM873 1638c0 28 -9.99902 52.001 -29.999 72.001s-43.667 30 -71 30c-28 0 -52 -9.83301 -72 -29.5s-30 -43.834 -30 -72.501c0 -28 10.167 -51.833 30.5 -71.5s44.166 -29.5 71.499 -29.5
s51 9.83301 71 29.5s30 43.5 30 71.5zM-46.999 0.000976562l182.002 344.001l464 907l54 114l116 -1c36 0 75 0.333008 117 1l173 -490l320 -875l-95 2c-18 0 -53.667 -0.666992 -107 -2c-18 64 -47.833 156.667 -89.5 278s-76.834 219.666 -105.501 294.999h-547l-145 -299
l-128 -274l-102 2c-16.667 0 -52.334 -0.666992 -107.001 -2zM494.003 705.002h450l-186 529z" />
    <glyph glyph-name="AE" unicode="&#xc6;" horiz-adv-x="1698" 
d="M-111 0l221 425.001l395 778l31 65l43 97c144 -0.666992 324.667 -1 542 -1l398 1h98c-4.66699 -48 -7.66699 -93.667 -9 -137c-101.333 4.66699 -217.666 7 -348.999 7l-397 -1l101 -477c80 -2 182.667 -3 308 -3c97.333 0 181 1.33301 251 4
c-4.66699 -41.333 -7.66699 -86.333 -9 -135l-94 4h-68c-39.333 0.666992 -137.333 1 -294 1l-71 -1l106 -502h72c98 0 154.667 0.166992 170 0.5s41.5 1.16602 78.5 2.49902s82.5 4 136.5 8c-5.33301 -52 -8 -97.333 -8 -136c-118.667 1.33301 -213.334 2 -284.001 2
c-105.333 0 -212.333 -0.666992 -321 -2l-119 588h-442l-147 -289c-60 -121.333 -107.667 -221 -143 -299l-98 2c-16 0 -48.667 -0.666992 -98 -2zM429 710.001l373.998 0.000976562l-43 222c-7.33301 42 -17.666 93.667 -30.999 155s-24.666 115.666 -33.999 162.999z" />
    <glyph glyph-name="Ccedilla" unicode="&#xc7;" horiz-adv-x="1288" 
d="M1193 174c-9.33301 -48 -17.6699 -100.001 -25.0029 -156.001c-131.333 -26.667 -251.666 -40 -360.999 -40c-97.333 0 -191.333 14.833 -282 44.5s-169.5 75.5 -236.5 137.5s-115.833 135 -146.5 219s-46 174 -46 270c0 102.667 17 201.667 51 297
s85.5 176.166 154.5 242.499s152.333 116 250 149s199.834 49.5 306.501 49.5c114.667 0 229 -12 343 -36c0.666992 -34 4.33398 -86 11.001 -156c-74 22.667 -137 37.834 -189 45.501s-101.333 11.5 -148 11.5c-79.333 0 -155.333 -12.167 -228 -36.5
s-137 -63.166 -193 -116.499s-98.833 -118.833 -128.5 -196.5s-44.5 -158.5 -44.5 -242.5c0 -78 11.833 -152 35.5 -222s60 -129.167 109 -177.5s107.167 -85.333 174.5 -111s143 -38.5 227 -38.5c106 0 228 21 366 63zM885.996 -98.001
c-62.667 -122 -108.668 -214.333 -138.001 -277l-111 1l-112 -1l93 119.5l121 158.5c24 -2 51.333 -3 82 -3c18.667 0 40.334 0.666992 65.001 2z" />
    <glyph glyph-name="Egrave" unicode="&#xc8;" horiz-adv-x="1158" 
d="M134 0l25 376l28 703l3 153c0.666992 38.667 1 83 1 133c150.667 -0.666992 305 -1 463 -1l319 1h102c-4.66699 -46 -7.66699 -92.333 -9 -139l-89 5c-22 1.33301 -59.833 2.33301 -113.5 3s-106.834 1 -159.501 1c-157.333 0 -267 -1 -329 -3l-18 -469
c102.667 -2 194.667 -3 276 -3c88.667 0 205 1.33301 349 4c-4.66699 -46.667 -7.66699 -92.667 -9 -138l-344 3c-67.333 0 -161 -1.33301 -281 -4l-18 -494l104 -1c188.667 0 313.834 0.666992 375.501 2s133.834 4.33301 216.501 9
c-4.66699 -49.333 -7.66699 -96.333 -9 -141c-160.667 1.33301 -296.334 2 -407.001 2zM693 1493c-20 1.33301 -39.999 2 -59.999 2c-24.667 0 -45.334 -0.666992 -62.001 -2c-66.667 108.667 -122.667 196 -168 262c38 -1.33301 72 -2 102 -2c35.333 0 69 0.666992 101 2z
" />
    <glyph glyph-name="Eacute" unicode="&#xc9;" horiz-adv-x="1158" 
d="M134 0l25 376l28 703l3 153c0.666992 38.667 1 83 1 133c150.667 -0.666992 305 -1 463 -1l319 1h102c-4.66699 -46 -7.66699 -92.333 -9 -139l-89 5c-22 1.33301 -59.833 2.33301 -113.5 3s-106.834 1 -159.501 1c-157.333 0 -267 -1 -329 -3l-18 -469
c102.667 -2 194.667 -3 276 -3c88.667 0 205 1.33301 349 4c-4.66699 -46.667 -7.66699 -92.667 -9 -138l-344 3c-67.333 0 -161 -1.33301 -281 -4l-18 -494l104 -1c188.667 0 313.834 0.666992 375.501 2s133.834 4.33301 216.501 9
c-4.66699 -49.333 -7.66699 -96.333 -9 -141c-160.667 1.33301 -296.334 2 -407.001 2zM553 1493l92 262c32.667 -1.33301 66.334 -2 101.001 -2c31.333 0 65.333 0.666992 102 2c-44 -62 -101.667 -149.333 -173 -262c-18.667 1.33301 -39.334 2 -62.001 2
c-22 0 -42 -0.666992 -60 -2z" />
    <glyph glyph-name="Ecircumflex" unicode="&#xca;" horiz-adv-x="1158" 
d="M134 0l25 376l28 703l3 153c0.666992 38.667 1 83 1 133c150.667 -0.666992 305 -1 463 -1l319 1h102c-4.66699 -46 -7.66699 -92.333 -9 -139l-89 5c-22 1.33301 -59.833 2.33301 -113.5 3s-106.834 1 -159.501 1c-157.333 0 -267 -1 -329 -3l-18 -469
c102.667 -2 194.667 -3 276 -3c88.667 0 205 1.33301 349 4c-4.66699 -46.667 -7.66699 -92.667 -9 -138l-344 3c-67.333 0 -161 -1.33301 -281 -4l-18 -494l104 -1c188.667 0 313.834 0.666992 375.501 2s133.834 4.33301 216.501 9
c-4.66699 -49.333 -7.66699 -96.333 -9 -141c-160.667 1.33301 -296.334 2 -407.001 2zM399 1509c54 96 96.001 173.667 126.001 233l111 -2c5.33301 0 40.666 0.666992 105.999 2c29.333 -64 68 -141.667 116 -233c-21.333 0.666992 -40 1 -56 1
c-13.333 0 -31.333 -0.333008 -54 -1l-114 160l-125 -160c-16 0.666992 -33.667 1 -53 1c-22.667 0 -41.667 -0.333008 -57 -1z" />
    <glyph glyph-name="Edieresis" unicode="&#xcb;" horiz-adv-x="1158" 
d="M134 0l25 376l28 703l3 153c0.666992 38.667 1 83 1 133c150.667 -0.666992 305 -1 463 -1l319 1h102c-4.66699 -46 -7.66699 -92.333 -9 -139l-89 5c-22 1.33301 -59.833 2.33301 -113.5 3s-106.834 1 -159.501 1c-157.333 0 -267 -1 -329 -3l-18 -469
c102.667 -2 194.667 -3 276 -3c88.667 0 205 1.33301 349 4c-4.66699 -46.667 -7.66699 -92.667 -9 -138l-344 3c-67.333 0 -161 -1.33301 -281 -4l-18 -494l104 -1c188.667 0 313.834 0.666992 375.501 2s133.834 4.33301 216.501 9
c-4.66699 -49.333 -7.66699 -96.333 -9 -141c-160.667 1.33301 -296.334 2 -407.001 2zM702 1562l6 129c32 -0.666992 57.333 -1 76 -1s43.334 0.333008 74.001 1l-4 -129c-24.667 1.33301 -49.334 2 -74.001 2c-24 0 -50 -0.666992 -78 -2zM409 1562l4.99902 129
c32.667 -0.666992 58.334 -1 77.001 -1s43.334 0.333008 74.001 1l-4 -129c-24.667 1.33301 -49.334 2 -74.001 2c-24 0 -50 -0.666992 -78 -2z" />
    <glyph glyph-name="Igrave" unicode="&#xcc;" horiz-adv-x="510" 
d="M116 0l15.001 230.001l21 479l14 472c0.666992 27.333 1 54.666 1 81.999l-1 102l103 -1l97 1c-12 -166.667 -21 -340.667 -27 -522c-10.667 -290.667 -18.334 -571.667 -23.001 -843l-94 2c-12 0 -47.333 -0.666992 -106 -2zM353.001 1493
c-20 1.33301 -39.999 2 -59.999 2c-24.667 0 -45.334 -0.666992 -62.001 -2c-66.667 108.667 -122.667 196 -168 262c38 -1.33301 72 -2 102 -2c35.333 0 69 0.666992 101 2z" />
    <glyph glyph-name="Iacute" unicode="&#xcd;" horiz-adv-x="510" 
d="M135 0l15.001 230.001l21 479l14 472c0.666992 27.333 1 54.666 1 81.999l-1 102l103 -1l97 1c-12 -166.667 -21 -340.667 -27 -522c-10.667 -290.667 -18.334 -571.667 -23.001 -843l-94 2c-12 0 -47.333 -0.666992 -106 -2zM225.001 1493l92 262
c32.667 -1.33301 66.334 -2 101.001 -2c31.333 0 65.333 0.666992 102 2c-44 -62 -101.667 -149.333 -173 -262c-18.667 1.33301 -39.334 2 -62.001 2c-22 0 -42 -0.666992 -60 -2z" />
    <glyph glyph-name="Icircumflex" unicode="&#xce;" horiz-adv-x="510" 
d="M143 0l15.001 230.001l21 479l14 472c0.666992 27.333 1 54.666 1 81.999l-1 102l103 -1l97 1c-12 -166.667 -21 -340.667 -27 -522c-10.667 -290.667 -18.334 -571.667 -23.001 -843l-94 2c-12 0 -47.333 -0.666992 -106 -2zM75.001 1509
c54 96 96.001 173.667 126.001 233l111 -2c5.33301 0 40.666 0.666992 105.999 2c29.333 -64 68 -141.667 116 -233c-21.333 0.666992 -40 1 -56 1c-13.333 0 -31.333 -0.333008 -54 -1l-114 160l-125 -160c-16 0.666992 -33.667 1 -53 1
c-22.667 0 -41.667 -0.333008 -57 -1z" />
    <glyph glyph-name="Idieresis" unicode="&#xcf;" horiz-adv-x="510" 
d="M159 0l15.001 230.001l21 479l14 472c0.666992 27.333 1 54.666 1 81.999l-1 102l103 -1l97 1c-12 -166.667 -21 -340.667 -27 -522c-10.667 -290.667 -18.334 -571.667 -23.001 -843l-94 2c-12 0 -47.333 -0.666992 -106 -2zM393.001 1562l6 129
c32 -0.666992 57.333 -1 76 -1s43.334 0.333008 74.001 1l-4 -129c-24.667 1.33301 -49.334 2 -74.001 2c-24 0 -50 -0.666992 -78 -2zM100.001 1562l4.99902 129c32.667 -0.666992 58.334 -1 77.001 -1s43.334 0.333008 74.001 1l-4 -129
c-24.667 1.33301 -49.334 2 -74.001 2c-24 0 -50 -0.666992 -78 -2z" />
    <glyph glyph-name="Eth" unicode="&#xd0;" horiz-adv-x="1510" 
d="M31 637c5.33301 45.333 8.32617 85.3359 8.99316 120.003l137 -3l15 484c0.666992 19.333 1 61.666 1 126.999c84 -1.33301 155.667 -2 215 -2c43.333 0 97.833 0.666992 163.5 2s122.834 2 171.501 2c113.333 0 208 -8.66699 284 -26
c56.667 -12.667 108.834 -34.834 156.501 -66.501s90.334 -73.334 128.001 -125.001s65.5 -108.5 83.5 -170.5c21.333 -75.333 32 -153.666 32 -234.999c0 -111.333 -19.667 -218 -59 -320s-97.666 -187.333 -174.999 -256s-164.166 -113.834 -260.499 -135.501
s-204.166 -32.5 -323.499 -32.5l-279 2c-18 0 -83.333 -0.666992 -196 -2c18.667 236.667 31.334 450 38.001 640c-32.667 0 -79.667 -1 -141 -3zM351.993 753.003h86c84 0 174.667 1.33301 272 4c-4 -35.333 -6.66699 -75.333 -8 -120c-88.667 2.66699 -207 4 -355 4
l-21 -507c88.667 -2 166 -3 232 -3c59.333 0 119.166 3 179.499 9s114.333 16.667 162 32s94.834 43 141.501 83s84.5 85.167 113.5 135.5s50.833 106.5 65.5 168.5s22 124.333 22 187c0 72 -9.33301 139 -28 201s-50.5 117.5 -95.5 166.5s-98.333 81.667 -160 98
s-142.834 24.5 -243.501 24.5c-125.333 0 -239.666 -1 -342.999 -3z" />
    <glyph glyph-name="Ntilde" unicode="&#xd1;" horiz-adv-x="1546" 
d="M134 0l20.0029 278l34 812l4 158c0.666992 50 1 89 1 117c50 -0.666992 91.667 -1 125 -1c27.333 0 65.666 0.333008 114.999 1l109 -176l661 -997l42 1173l89 -1l88 1l-22 -350l-27 -617l-12 -398c-39.333 1.33301 -78 2 -116 2c-34.667 0 -75 -0.666992 -121 -2
l-92 147l-677 1015c-2.66699 -37.333 -5.33398 -96 -8.00098 -176l-28 -707l-6 -279c-43.333 1.33301 -72.333 2 -87 2c-10.667 0 -41.334 -0.666992 -92.001 -2zM572.003 1529c0 52 4.5 93.333 13.5 124s22.5 52.334 40.5 65.001s37.667 19 59 19
c12 0 24.833 -2.16699 38.5 -6.5s28.167 -11.166 43.5 -20.499s45.333 -29.666 90 -60.999c16.667 -11.333 29.5 -19.333 38.5 -24s18.167 -7 27.5 -7c8 0 15.5 1.5 22.5 4.5s13.167 8.16699 18.5 15.5s9.16602 16.833 11.499 28.5s4.16602 30.167 5.49902 55.5
c18 -0.666992 33 -1 45 -1c12.667 0 28 0.333008 46 1c-0.666992 -46.667 -5 -83.834 -13 -111.501s-20.5 -50.334 -37.5 -68.001s-39.5 -26.5 -67.5 -26.5c-11.333 0 -23 1.83301 -35 5.5s-25.333 10 -40 19s-38 24.5 -70 46.5s-54 35.833 -66 41.5s-22.667 8.5 -32 8.5
c-7.33301 0 -13.833 -1.16699 -19.5 -3.5s-10.667 -6.33301 -15 -12s-7.66602 -12.334 -9.99902 -20.001s-4 -16.667 -5 -27s-1.83301 -25.5 -2.5 -45.5c-20 1.33301 -34.667 2 -44 2s-23.666 -0.666992 -42.999 -2z" />
    <glyph glyph-name="Ograve" unicode="&#xd2;" horiz-adv-x="1649" 
d="M863 1387c98.667 0 192.329 -14.3311 280.996 -42.998s166.834 -76 234.501 -142s115.834 -140 144.501 -222s43 -171 43 -267c0 -102.667 -16 -201.334 -48 -296.001s-81.333 -175 -148 -241s-148.667 -115.5 -246 -148.5s-199.666 -49.5 -306.999 -49.5
c-102 0 -199.833 15 -293.5 45s-173.5 76.167 -239.5 138.5s-113.667 135.666 -143 219.999s-44 173.833 -44 268.5c0 104 17.667 203.833 53 299.5s87.5 176.5 156.5 242.5s152.333 115 250 147s199.834 48 306.501 48zM851.995 1254
c-80 0 -155.664 -12.834 -226.997 -38.501s-133.5 -66.834 -186.5 -123.501s-92.333 -123.334 -118 -200.001s-38.5 -156.667 -38.5 -240c0 -77.333 12.667 -151.5 38 -222.5s62.666 -130.167 111.999 -177.5s108.666 -82.5 177.999 -105.5s141.666 -34.5 216.999 -34.5
c77.333 0 151.166 12.333 221.499 37s131 63.834 182 117.501s88.833 118.5 113.5 194.5s37 155.667 37 239c0 78.667 -11.167 153.834 -33.5 225.501s-58 132.834 -107 183.501s-107.167 87.5 -174.5 110.5s-138.666 34.5 -213.999 34.5zM930.998 1493
c-20 1.33301 -39.999 2 -59.999 2c-24.667 0 -45.334 -0.666992 -62.001 -2c-66.667 108.667 -122.667 196 -168 262c38 -1.33301 72 -2 102 -2c35.333 0 69 0.666992 101 2z" />
    <glyph glyph-name="Oacute" unicode="&#xd3;" horiz-adv-x="1649" 
d="M863 1387c98.667 0 192.329 -14.3311 280.996 -42.998s166.834 -76 234.501 -142s115.834 -140 144.501 -222s43 -171 43 -267c0 -102.667 -16 -201.334 -48 -296.001s-81.333 -175 -148 -241s-148.667 -115.5 -246 -148.5s-199.666 -49.5 -306.999 -49.5
c-102 0 -199.833 15 -293.5 45s-173.5 76.167 -239.5 138.5s-113.667 135.666 -143 219.999s-44 173.833 -44 268.5c0 104 17.667 203.833 53 299.5s87.5 176.5 156.5 242.5s152.333 115 250 147s199.834 48 306.501 48zM851.995 1254
c-80 0 -155.664 -12.834 -226.997 -38.501s-133.5 -66.834 -186.5 -123.501s-92.333 -123.334 -118 -200.001s-38.5 -156.667 -38.5 -240c0 -77.333 12.667 -151.5 38 -222.5s62.666 -130.167 111.999 -177.5s108.666 -82.5 177.999 -105.5s141.666 -34.5 216.999 -34.5
c77.333 0 151.166 12.333 221.499 37s131 63.834 182 117.501s88.833 118.5 113.5 194.5s37 155.667 37 239c0 78.667 -11.167 153.834 -33.5 225.501s-58 132.834 -107 183.501s-107.167 87.5 -174.5 110.5s-138.666 34.5 -213.999 34.5zM792.998 1493l92 262
c32.667 -1.33301 66.334 -2 101.001 -2c31.333 0 65.333 0.666992 102 2c-44 -62 -101.667 -149.333 -173 -262c-18.667 1.33301 -39.334 2 -62.001 2c-22 0 -42 -0.666992 -60 -2z" />
    <glyph glyph-name="Ocircumflex" unicode="&#xd4;" horiz-adv-x="1649" 
d="M863 1387c98.667 0 192.329 -14.3311 280.996 -42.998s166.834 -76 234.501 -142s115.834 -140 144.501 -222s43 -171 43 -267c0 -102.667 -16 -201.334 -48 -296.001s-81.333 -175 -148 -241s-148.667 -115.5 -246 -148.5s-199.666 -49.5 -306.999 -49.5
c-102 0 -199.833 15 -293.5 45s-173.5 76.167 -239.5 138.5s-113.667 135.666 -143 219.999s-44 173.833 -44 268.5c0 104 17.667 203.833 53 299.5s87.5 176.5 156.5 242.5s152.333 115 250 147s199.834 48 306.501 48zM851.995 1254
c-80 0 -155.664 -12.834 -226.997 -38.501s-133.5 -66.834 -186.5 -123.501s-92.333 -123.334 -118 -200.001s-38.5 -156.667 -38.5 -240c0 -77.333 12.667 -151.5 38 -222.5s62.666 -130.167 111.999 -177.5s108.666 -82.5 177.999 -105.5s141.666 -34.5 216.999 -34.5
c77.333 0 151.166 12.333 221.499 37s131 63.834 182 117.501s88.833 118.5 113.5 194.5s37 155.667 37 239c0 78.667 -11.167 153.834 -33.5 225.501s-58 132.834 -107 183.501s-107.167 87.5 -174.5 110.5s-138.666 34.5 -213.999 34.5zM636.998 1509
c54 96 96.001 173.667 126.001 233l111 -2c5.33301 0 40.666 0.666992 105.999 2c29.333 -64 68 -141.667 116 -233c-21.333 0.666992 -40 1 -56 1c-13.333 0 -31.333 -0.333008 -54 -1l-114 160l-125 -160c-16 0.666992 -33.667 1 -53 1
c-22.667 0 -41.667 -0.333008 -57 -1z" />
    <glyph glyph-name="Otilde" unicode="&#xd5;" horiz-adv-x="1649" 
d="M863 1387c98.667 0 192.329 -14.3311 280.996 -42.998s166.834 -76 234.501 -142s115.834 -140 144.501 -222s43 -171 43 -267c0 -102.667 -16 -201.334 -48 -296.001s-81.333 -175 -148 -241s-148.667 -115.5 -246 -148.5s-199.666 -49.5 -306.999 -49.5
c-102 0 -199.833 15 -293.5 45s-173.5 76.167 -239.5 138.5s-113.667 135.666 -143 219.999s-44 173.833 -44 268.5c0 104 17.667 203.833 53 299.5s87.5 176.5 156.5 242.5s152.333 115 250 147s199.834 48 306.501 48zM851.995 1254
c-80 0 -155.664 -12.834 -226.997 -38.501s-133.5 -66.834 -186.5 -123.501s-92.333 -123.334 -118 -200.001s-38.5 -156.667 -38.5 -240c0 -77.333 12.667 -151.5 38 -222.5s62.666 -130.167 111.999 -177.5s108.666 -82.5 177.999 -105.5s141.666 -34.5 216.999 -34.5
c77.333 0 151.166 12.333 221.499 37s131 63.834 182 117.501s88.833 118.5 113.5 194.5s37 155.667 37 239c0 78.667 -11.167 153.834 -33.5 225.501s-58 132.834 -107 183.501s-107.167 87.5 -174.5 110.5s-138.666 34.5 -213.999 34.5zM617.998 1529
c0 52 4.5 93.333 13.5 124s22.5 52.334 40.5 65.001s37.667 19 59 19c12 0 24.833 -2.16699 38.5 -6.5s28.167 -11.166 43.5 -20.499s45.333 -29.666 90 -60.999c16.667 -11.333 29.5 -19.333 38.5 -24s18.167 -7 27.5 -7c8 0 15.5 1.5 22.5 4.5s13.167 8.16699 18.5 15.5
s9.16602 16.833 11.499 28.5s4.16602 30.167 5.49902 55.5c18 -0.666992 33 -1 45 -1c12.667 0 28 0.333008 46 1c-0.666992 -46.667 -5 -83.834 -13 -111.501s-20.5 -50.334 -37.5 -68.001s-39.5 -26.5 -67.5 -26.5c-11.333 0 -23 1.83301 -35 5.5s-25.333 10 -40 19
s-38 24.5 -70 46.5s-54 35.833 -66 41.5s-22.667 8.5 -32 8.5c-7.33301 0 -13.833 -1.16699 -19.5 -3.5s-10.667 -6.33301 -15 -12s-7.66602 -12.334 -9.99902 -20.001s-4 -16.667 -5 -27s-1.83301 -25.5 -2.5 -45.5c-20 1.33301 -34.667 2 -44 2
s-23.666 -0.666992 -42.999 -2z" />
    <glyph glyph-name="Odieresis" unicode="&#xd6;" horiz-adv-x="1649" 
d="M863 1387c98.667 0 192.329 -14.3311 280.996 -42.998s166.834 -76 234.501 -142s115.834 -140 144.501 -222s43 -171 43 -267c0 -102.667 -16 -201.334 -48 -296.001s-81.333 -175 -148 -241s-148.667 -115.5 -246 -148.5s-199.666 -49.5 -306.999 -49.5
c-102 0 -199.833 15 -293.5 45s-173.5 76.167 -239.5 138.5s-113.667 135.666 -143 219.999s-44 173.833 -44 268.5c0 104 17.667 203.833 53 299.5s87.5 176.5 156.5 242.5s152.333 115 250 147s199.834 48 306.501 48zM851.995 1254
c-80 0 -155.664 -12.834 -226.997 -38.501s-133.5 -66.834 -186.5 -123.501s-92.333 -123.334 -118 -200.001s-38.5 -156.667 -38.5 -240c0 -77.333 12.667 -151.5 38 -222.5s62.666 -130.167 111.999 -177.5s108.666 -82.5 177.999 -105.5s141.666 -34.5 216.999 -34.5
c77.333 0 151.166 12.333 221.499 37s131 63.834 182 117.501s88.833 118.5 113.5 194.5s37 155.667 37 239c0 78.667 -11.167 153.834 -33.5 225.501s-58 132.834 -107 183.501s-107.167 87.5 -174.5 110.5s-138.666 34.5 -213.999 34.5zM938.998 1562l6 129
c32 -0.666992 57.333 -1 76 -1s43.334 0.333008 74.001 1l-4 -129c-24.667 1.33301 -49.334 2 -74.001 2c-24 0 -50 -0.666992 -78 -2zM645.998 1562l4.99902 129c32.667 -0.666992 58.334 -1 77.001 -1s43.334 0.333008 74.001 1l-4 -129
c-24.667 1.33301 -49.334 2 -74.001 2c-24 0 -50 -0.666992 -78 -2z" />
    <glyph glyph-name="multiply" unicode="&#xd7;" 
d="M282 323c-13.333 17.333 -40 46.332 -80 86.999l311 293l-289 295c30 24.667 60.333 52.334 91 83.001l281 -299l307 301c20 -25.333 46.667 -54.333 80 -87l-311 -293l290 -294c-29.333 -24.667 -60 -52.667 -92 -84l-281 300z" />
    <glyph glyph-name="Oslash" unicode="&#xd8;" horiz-adv-x="1641" 
d="M1175 1320l107.007 160.996c29.333 -1.33301 56 -2 80 -2c24.667 0 51 0.666992 79 2l-144 -214c22 -15.333 43 -31.833 63 -49.5s41.167 -40.667 63.5 -69s41.333 -57.166 57 -86.499s29.167 -61.5 40.5 -96.5s20.5 -74.5 27.5 -118.5s10.5 -90.667 10.5 -140
c0 -103.333 -16.833 -202.5 -50.5 -297.5s-83.334 -174.667 -149.001 -239s-146.334 -112.5 -242.001 -144.5s-195.834 -48 -300.501 -48c-40 0 -80 2.83301 -120 8.5s-78.333 14.834 -115 27.501l-109 37l-108 -163c-32 1.33301 -58 2 -78 2
c-20.667 0 -46.667 -0.666992 -78 -2l144 216c-88 59.333 -152.667 137.5 -194 234.5s-62 202.167 -62 315.5c0 102.667 17.833 201.834 53.5 297.501s86.167 175.5 151.5 239.5s145.666 112.833 240.999 146.5s194.666 50.5 297.999 50.5c31.333 0 62.166 -1.5 92.499 -4.5
s55.666 -6.66699 75.999 -11s43.833 -11.166 70.5 -20.499zM1099.01 1208c-76.667 32.667 -159.001 49.001 -247.001 49.001c-81.333 0 -158.166 -12.833 -230.499 -38.5s-135.333 -66.834 -189 -123.501s-93.334 -123.834 -119.001 -201.501s-38.5 -158.167 -38.5 -241.5
c0 -40 3.33301 -79.5 10 -118.5s16 -74.667 28 -107s25 -60.166 39 -83.499s27.333 -42.5 40 -57.5s29.334 -31.833 50.001 -50.5zM1209.01 1138l-659 -972c82 -38 173.333 -57 274 -57c78.667 0 153.5 12.833 224.5 38.5s132 66 183 121s88.333 120.333 112 196
s35.5 155.834 35.5 240.501s-13.5 165.167 -40.5 241.5s-70.167 140.166 -129.5 191.499z" />
    <glyph glyph-name="Ugrave" unicode="&#xd9;" horiz-adv-x="1487" 
d="M184 1365l99.001 -0.999023l97 1l-45 -763l-3 -93v-19c0 -92.667 13.667 -164.5 41 -215.5s70.833 -90.5 130.5 -118.5s135.167 -42 226.5 -42c61.333 0 118 8 170 24c43.333 14 80.166 32.667 110.499 56s55.5 52 75.5 86c18.667 32.667 32 69.667 40 111
c9.33301 52 17.666 142.667 24.999 272l18 322c5.33301 118.667 9 245.334 11 380.001l103 -1l93 1l-29 -471l-18 -390c-6 -90.667 -15.667 -161 -29 -211c-10 -35.333 -24.667 -68.666 -44 -99.999c-17.333 -28 -38.666 -53 -63.999 -75
c-30 -26.667 -66.333 -50.334 -109 -71.001c-45.333 -21.333 -93.333 -37.333 -144 -48c-72.667 -14 -148 -21 -226 -21c-76 0 -147 7.66699 -213 23c-57.333 13.333 -110 33.666 -158 60.999s-86.333 58.333 -115 93c-24 28 -43 63.333 -57 106c-16 48 -24 101 -24 159
c0 62 2.5 133 7.5 213s11.333 200.667 19 362s11.5 284.666 11.5 369.999zM856.001 1493c-20 1.33301 -39.999 2 -59.999 2c-24.667 0 -45.334 -0.666992 -62.001 -2c-66.667 108.667 -122.667 196 -168 262c38 -1.33301 72 -2 102 -2c35.333 0 69 0.666992 101 2z" />
    <glyph glyph-name="Uacute" unicode="&#xda;" horiz-adv-x="1487" 
d="M184 1365l99.001 -0.999023l97 1l-45 -763l-3 -93v-19c0 -92.667 13.667 -164.5 41 -215.5s70.833 -90.5 130.5 -118.5s135.167 -42 226.5 -42c61.333 0 118 8 170 24c43.333 14 80.166 32.667 110.499 56s55.5 52 75.5 86c18.667 32.667 32 69.667 40 111
c9.33301 52 17.666 142.667 24.999 272l18 322c5.33301 118.667 9 245.334 11 380.001l103 -1l93 1l-29 -471l-18 -390c-6 -90.667 -15.667 -161 -29 -211c-10 -35.333 -24.667 -68.666 -44 -99.999c-17.333 -28 -38.666 -53 -63.999 -75
c-30 -26.667 -66.333 -50.334 -109 -71.001c-45.333 -21.333 -93.333 -37.333 -144 -48c-72.667 -14 -148 -21 -226 -21c-76 0 -147 7.66699 -213 23c-57.333 13.333 -110 33.666 -158 60.999s-86.333 58.333 -115 93c-24 28 -43 63.333 -57 106c-16 48 -24 101 -24 159
c0 62 2.5 133 7.5 213s11.333 200.667 19 362s11.5 284.666 11.5 369.999zM717.001 1493l92 262c32.667 -1.33301 66.334 -2 101.001 -2c31.333 0 65.333 0.666992 102 2c-44 -62 -101.667 -149.333 -173 -262c-18.667 1.33301 -39.334 2 -62.001 2
c-22 0 -42 -0.666992 -60 -2z" />
    <glyph glyph-name="Ucircumflex" unicode="&#xdb;" horiz-adv-x="1487" 
d="M184 1365l99.001 -0.999023l97 1l-45 -763l-3 -93v-19c0 -92.667 13.667 -164.5 41 -215.5s70.833 -90.5 130.5 -118.5s135.167 -42 226.5 -42c61.333 0 118 8 170 24c43.333 14 80.166 32.667 110.499 56s55.5 52 75.5 86c18.667 32.667 32 69.667 40 111
c9.33301 52 17.666 142.667 24.999 272l18 322c5.33301 118.667 9 245.334 11 380.001l103 -1l93 1l-29 -471l-18 -390c-6 -90.667 -15.667 -161 -29 -211c-10 -35.333 -24.667 -68.666 -44 -99.999c-17.333 -28 -38.666 -53 -63.999 -75
c-30 -26.667 -66.333 -50.334 -109 -71.001c-45.333 -21.333 -93.333 -37.333 -144 -48c-72.667 -14 -148 -21 -226 -21c-76 0 -147 7.66699 -213 23c-57.333 13.333 -110 33.666 -158 60.999s-86.333 58.333 -115 93c-24 28 -43 63.333 -57 106c-16 48 -24 101 -24 159
c0 62 2.5 133 7.5 213s11.333 200.667 19 362s11.5 284.666 11.5 369.999zM562.001 1509c54 96 96.001 173.667 126.001 233l111 -2c5.33301 0 40.666 0.666992 105.999 2c29.333 -64 68 -141.667 116 -233c-21.333 0.666992 -40 1 -56 1
c-13.333 0 -31.333 -0.333008 -54 -1l-114 160l-125 -160c-16 0.666992 -33.667 1 -53 1c-22.667 0 -41.667 -0.333008 -57 -1z" />
    <glyph glyph-name="Udieresis" unicode="&#xdc;" horiz-adv-x="1487" 
d="M184 1365l99.001 -0.999023l97 1l-45 -763l-3 -93v-19c0 -92.667 13.667 -164.5 41 -215.5s70.833 -90.5 130.5 -118.5s135.167 -42 226.5 -42c61.333 0 118 8 170 24c43.333 14 80.166 32.667 110.499 56s55.5 52 75.5 86c18.667 32.667 32 69.667 40 111
c9.33301 52 17.666 142.667 24.999 272l18 322c5.33301 118.667 9 245.334 11 380.001l103 -1l93 1l-29 -471l-18 -390c-6 -90.667 -15.667 -161 -29 -211c-10 -35.333 -24.667 -68.666 -44 -99.999c-17.333 -28 -38.666 -53 -63.999 -75
c-30 -26.667 -66.333 -50.334 -109 -71.001c-45.333 -21.333 -93.333 -37.333 -144 -48c-72.667 -14 -148 -21 -226 -21c-76 0 -147 7.66699 -213 23c-57.333 13.333 -110 33.666 -158 60.999s-86.333 58.333 -115 93c-24 28 -43 63.333 -57 106c-16 48 -24 101 -24 159
c0 62 2.5 133 7.5 213s11.333 200.667 19 362s11.5 284.666 11.5 369.999zM867.001 1562l6 129c32 -0.666992 57.333 -1 76 -1s43.334 0.333008 74.001 1l-4 -129c-24.667 1.33301 -49.334 2 -74.001 2c-24 0 -50 -0.666992 -78 -2zM574.001 1562l4.99902 129
c32.667 -0.666992 58.334 -1 77.001 -1s43.334 0.333008 74.001 1l-4 -129c-24.667 1.33301 -49.334 2 -74.001 2c-24 0 -50 -0.666992 -78 -2z" />
    <glyph glyph-name="Yacute" unicode="&#xdd;" horiz-adv-x="1089" 
d="M402 0c17.333 197.333 30.667 396.667 40 598l-439 767l107 -1c21.333 0 55 0.333008 101 1c31.333 -66.667 80 -158.5 146 -275.5l187 -344.5l349 544l45 76c44 -0.666992 79.333 -1 106 -1l100 1l-399 -590l-125 -189l-20 -456l-2 -130c-47.333 1.33301 -80 2 -98 2
s-50.667 -0.666992 -98 -2zM513.001 1493l92 262c32.667 -1.33301 66.334 -2 101.001 -2c31.333 0 65.333 0.666992 102 2c-44 -62 -101.667 -149.333 -173 -262c-18.667 1.33301 -39.334 2 -62.001 2c-22 0 -42 -0.666992 -60 -2z" />
    <glyph glyph-name="Thorn" unicode="&#xde;" horiz-adv-x="1113" 
d="M135 0l21.002 305.999l29 718l3 163c0.666992 25.333 1 50.333 1 75v103c39.333 -0.666992 69.333 -1 90 -1c21.333 0 51.666 0.333008 90.999 1c-4 -56.667 -7.33301 -120.334 -10 -191.001h175l163 2c58.667 0 109.667 -4.83301 153 -14.5s82.333 -29.667 117 -60
s61.167 -67.666 79.5 -111.999s27.5 -92.166 27.5 -143.499c0 -84 -21.333 -159.333 -64 -226s-100.834 -116.5 -174.501 -149.5s-155.834 -49.5 -246.501 -49.5c-48 0 -101.333 5.33301 -160 16c-10 46 -21.333 87.667 -34 125c50.667 -10 101.334 -15 152.001 -15
c47.333 0 93 5.5 137 16.5s81.5 29.333 112.5 55s55.333 57.834 73 96.501s26.5 79.667 26.5 123c0 27.333 -4.66699 54.166 -14 80.499s-23 48.833 -41 67.5s-41.5 33.167 -70.5 43.5s-76.833 15.5 -143.5 15.5c-98 0 -189.333 -1 -274 -3l-7 -127l-19 -669l-4 -246l-93 2
c-11.333 0 -43.333 -0.666992 -96 -2z" />
    <glyph glyph-name="germandbls" unicode="&#xdf;" horiz-adv-x="1161" 
d="M107 0l8 78.9971c2.66699 26.667 6 72.667 10 138l28 530l11 270c2.66699 50.667 9 93.667 19 129c8.66699 30 19.834 56 33.501 78s32 43 55 63s50 37.667 81 53s65.167 26.666 102.5 33.999c45.333 8.66699 93.333 13 144 13c69.333 0 130.833 -9.33301 184.5 -28
s94.167 -46.667 121.5 -84s41 -85.666 41 -144.999c0 -23.333 -1.66699 -46.166 -5 -68.499s-7 -39.5 -11 -51.5s-8.33301 -21.333 -13 -28s-11.834 -13.5 -21.501 -20.5s-20.667 -13.667 -33 -20s-29.166 -14.166 -50.499 -23.499s-35 -15.5 -41 -18.5
s-13 -7.83301 -21 -14.5s-14.333 -13.334 -19 -20.001s-8.16699 -13.834 -10.5 -21.501s-3.5 -16.834 -3.5 -27.501c0 -27.333 7 -50.166 21 -68.499s36.333 -37.833 67 -58.5c61.333 -41.333 103.666 -70.833 126.999 -88.5s47.833 -41 73.5 -70
s45.834 -61.167 60.501 -96.5s22 -77.666 22 -126.999c0 -46.667 -7.5 -91.167 -22.5 -133.5s-39.167 -78.5 -72.5 -108.5s-72.5 -52 -117.5 -66s-92.5 -21 -142.5 -21c-25.333 0 -57.666 2.16699 -96.999 6.5s-82 12.5 -128 24.5
c-2.66699 39.333 -7.33398 87.333 -14.001 144c46.667 -17.333 86.5 -29.666 119.5 -36.999s63.833 -11 92.5 -11c58.667 0 108.5 19.333 149.5 58s61.5 90.334 61.5 155.001c0 19.333 -1.83301 37.666 -5.5 54.999s-9.16699 34.166 -16.5 50.499s-15.833 31.333 -25.5 45
s-22.5 28.334 -38.5 44.001s-29 27.334 -39 35.001l-73 54.5l-58 43c-6 4 -15.333 12 -28 24s-23.167 25 -31.5 39s-14 29.833 -17 47.5s-4.5 35.167 -4.5 52.5c0 24 2.5 45.667 7.5 65s11.333 34.666 19 45.999s17.667 20.833 30 28.5s32.166 15.667 59.499 24
s46.333 16.333 57 24s19.334 20.834 26.001 39.501s10 43 10 73c0 40.667 -8.33301 72.334 -25 95.001s-39.334 39.5 -68.001 50.5s-62 16.5 -100 16.5c-45.333 0 -85 -6.33301 -119 -19c-26 -10 -49 -24.667 -69 -44c-21.333 -21.333 -37.333 -44.5 -48 -69.5
s-18.334 -58.833 -23.001 -101.5c-2.66699 -26 -7.66699 -110 -15 -252l-20 -404c-6.66699 -138.667 -11 -265.334 -13 -380.001c-38 1.33301 -68.333 2 -91 2c-19.333 0 -49.666 -0.666992 -90.999 -2z" />
    <glyph glyph-name="agrave" unicode="&#xe0;" horiz-adv-x="1088" 
d="M177 852c6 29.333 12.3359 72.6641 19.0029 129.997c80 20.667 149.5 34.834 208.5 42.501s116.5 11.5 172.5 11.5c60 0 116.167 -5.5 168.5 -16.5s95.833 -28.833 130.5 -53.5s57.667 -53 69 -85s17 -66.333 17 -103c0 -46 -3.5 -123.167 -10.5 -231.5
s-12.333 -208.5 -16 -300.5s-5.5 -174 -5.5 -246c-36 1.33301 -65.333 2 -88 2c-21.333 0 -51.666 -0.666992 -90.999 -2l21 273l15 323c-23.333 -18 -40.833 -30.667 -52.5 -38s-24.834 -14.166 -39.501 -20.499s-30.834 -12.333 -48.501 -18s-52 -15.5 -103 -29.5
s-87.167 -24.667 -108.5 -32c-46 -14.667 -82.333 -29.334 -109 -44.001s-49 -30.667 -67 -48s-30.667 -34.666 -38 -51.999c-8.66699 -21.333 -13 -43.666 -13 -66.999c0 -36 10.667 -67.333 32 -94s48.166 -45.167 80.499 -55.5s71.166 -15.5 116.499 -15.5
c28 0 57.333 2 88 6s71.667 14.333 123 31c-9.33301 -26 -20 -66 -32 -120c-48.667 -9.33301 -88.334 -15.166 -119.001 -17.499s-59.667 -3.5 -87 -3.5c-91.333 0 -162.666 10.667 -213.999 32s-89.666 53.833 -114.999 97.5s-38 91.167 -38 142.5c0 30 4.5 57.667 13.5 83
s21.167 48.333 36.5 69s37.166 41.334 65.499 62.001s58 37.667 89 51s67.167 26.5 108.5 39.5s107.666 30.5 198.999 52.5c29.333 6.66699 54.333 13.5 75 20.5s39 13.833 55 20.5s30 14.5 42 23.5s23 20 33 33s17.333 26.167 22 39.5s7 26.666 7 39.999
c0 32.667 -10.667 60.667 -32 84s-49.166 39.666 -83.499 48.999s-74.833 14 -121.5 14c-43.333 0 -87.833 -3.5 -133.5 -10.5s-85 -15.333 -118 -25s-74.167 -24.167 -123.5 -43.5zM658.003 1145c-20 1.33301 -39.999 2 -59.999 2c-24.667 0 -45.334 -0.666992 -62.001 -2
c-66.667 108.667 -122.667 196 -168 262c38 -1.33301 72 -2 102 -2c35.333 0 69 0.666992 101 2z" />
    <glyph glyph-name="aacute" unicode="&#xe1;" horiz-adv-x="1088" 
d="M177 852c6 29.333 12.3359 72.6641 19.0029 129.997c80 20.667 149.5 34.834 208.5 42.501s116.5 11.5 172.5 11.5c60 0 116.167 -5.5 168.5 -16.5s95.833 -28.833 130.5 -53.5s57.667 -53 69 -85s17 -66.333 17 -103c0 -46 -3.5 -123.167 -10.5 -231.5
s-12.333 -208.5 -16 -300.5s-5.5 -174 -5.5 -246c-36 1.33301 -65.333 2 -88 2c-21.333 0 -51.666 -0.666992 -90.999 -2l21 273l15 323c-23.333 -18 -40.833 -30.667 -52.5 -38s-24.834 -14.166 -39.501 -20.499s-30.834 -12.333 -48.501 -18s-52 -15.5 -103 -29.5
s-87.167 -24.667 -108.5 -32c-46 -14.667 -82.333 -29.334 -109 -44.001s-49 -30.667 -67 -48s-30.667 -34.666 -38 -51.999c-8.66699 -21.333 -13 -43.666 -13 -66.999c0 -36 10.667 -67.333 32 -94s48.166 -45.167 80.499 -55.5s71.166 -15.5 116.499 -15.5
c28 0 57.333 2 88 6s71.667 14.333 123 31c-9.33301 -26 -20 -66 -32 -120c-48.667 -9.33301 -88.334 -15.166 -119.001 -17.499s-59.667 -3.5 -87 -3.5c-91.333 0 -162.666 10.667 -213.999 32s-89.666 53.833 -114.999 97.5s-38 91.167 -38 142.5c0 30 4.5 57.667 13.5 83
s21.167 48.333 36.5 69s37.166 41.334 65.499 62.001s58 37.667 89 51s67.167 26.5 108.5 39.5s107.666 30.5 198.999 52.5c29.333 6.66699 54.333 13.5 75 20.5s39 13.833 55 20.5s30 14.5 42 23.5s23 20 33 33s17.333 26.167 22 39.5s7 26.666 7 39.999
c0 32.667 -10.667 60.667 -32 84s-49.166 39.666 -83.499 48.999s-74.833 14 -121.5 14c-43.333 0 -87.833 -3.5 -133.5 -10.5s-85 -15.333 -118 -25s-74.167 -24.167 -123.5 -43.5zM480.003 1145l92 262c32.667 -1.33301 66.334 -2 101.001 -2
c31.333 0 65.333 0.666992 102 2c-44 -62 -101.667 -149.333 -173 -262c-18.667 1.33301 -39.334 2 -62.001 2c-22 0 -42 -0.666992 -60 -2z" />
    <glyph glyph-name="acircumflex" unicode="&#xe2;" horiz-adv-x="1088" 
d="M177 852c6 29.333 12.3359 72.6641 19.0029 129.997c80 20.667 149.5 34.834 208.5 42.501s116.5 11.5 172.5 11.5c60 0 116.167 -5.5 168.5 -16.5s95.833 -28.833 130.5 -53.5s57.667 -53 69 -85s17 -66.333 17 -103c0 -46 -3.5 -123.167 -10.5 -231.5
s-12.333 -208.5 -16 -300.5s-5.5 -174 -5.5 -246c-36 1.33301 -65.333 2 -88 2c-21.333 0 -51.666 -0.666992 -90.999 -2l21 273l15 323c-23.333 -18 -40.833 -30.667 -52.5 -38s-24.834 -14.166 -39.501 -20.499s-30.834 -12.333 -48.501 -18s-52 -15.5 -103 -29.5
s-87.167 -24.667 -108.5 -32c-46 -14.667 -82.333 -29.334 -109 -44.001s-49 -30.667 -67 -48s-30.667 -34.666 -38 -51.999c-8.66699 -21.333 -13 -43.666 -13 -66.999c0 -36 10.667 -67.333 32 -94s48.166 -45.167 80.499 -55.5s71.166 -15.5 116.499 -15.5
c28 0 57.333 2 88 6s71.667 14.333 123 31c-9.33301 -26 -20 -66 -32 -120c-48.667 -9.33301 -88.334 -15.166 -119.001 -17.499s-59.667 -3.5 -87 -3.5c-91.333 0 -162.666 10.667 -213.999 32s-89.666 53.833 -114.999 97.5s-38 91.167 -38 142.5c0 30 4.5 57.667 13.5 83
s21.167 48.333 36.5 69s37.166 41.334 65.499 62.001s58 37.667 89 51s67.167 26.5 108.5 39.5s107.666 30.5 198.999 52.5c29.333 6.66699 54.333 13.5 75 20.5s39 13.833 55 20.5s30 14.5 42 23.5s23 20 33 33s17.333 26.167 22 39.5s7 26.666 7 39.999
c0 32.667 -10.667 60.667 -32 84s-49.166 39.666 -83.499 48.999s-74.833 14 -121.5 14c-43.333 0 -87.833 -3.5 -133.5 -10.5s-85 -15.333 -118 -25s-74.167 -24.167 -123.5 -43.5zM350.003 1160c54 96 96.001 173.667 126.001 233l111 -2
c5.33301 0 40.666 0.666992 105.999 2c29.333 -64 68 -141.667 116 -233c-21.333 0.666992 -40 1 -56 1c-13.333 0 -31.333 -0.333008 -54 -1l-114 160l-125 -160c-16 0.666992 -33.667 1 -53 1c-22.667 0 -41.667 -0.333008 -57 -1z" />
    <glyph glyph-name="atilde" unicode="&#xe3;" horiz-adv-x="1088" 
d="M177 852c6 29.333 12.3359 72.6641 19.0029 129.997c80 20.667 149.5 34.834 208.5 42.501s116.5 11.5 172.5 11.5c60 0 116.167 -5.5 168.5 -16.5s95.833 -28.833 130.5 -53.5s57.667 -53 69 -85s17 -66.333 17 -103c0 -46 -3.5 -123.167 -10.5 -231.5
s-12.333 -208.5 -16 -300.5s-5.5 -174 -5.5 -246c-36 1.33301 -65.333 2 -88 2c-21.333 0 -51.666 -0.666992 -90.999 -2l21 273l15 323c-23.333 -18 -40.833 -30.667 -52.5 -38s-24.834 -14.166 -39.501 -20.499s-30.834 -12.333 -48.501 -18s-52 -15.5 -103 -29.5
s-87.167 -24.667 -108.5 -32c-46 -14.667 -82.333 -29.334 -109 -44.001s-49 -30.667 -67 -48s-30.667 -34.666 -38 -51.999c-8.66699 -21.333 -13 -43.666 -13 -66.999c0 -36 10.667 -67.333 32 -94s48.166 -45.167 80.499 -55.5s71.166 -15.5 116.499 -15.5
c28 0 57.333 2 88 6s71.667 14.333 123 31c-9.33301 -26 -20 -66 -32 -120c-48.667 -9.33301 -88.334 -15.166 -119.001 -17.499s-59.667 -3.5 -87 -3.5c-91.333 0 -162.666 10.667 -213.999 32s-89.666 53.833 -114.999 97.5s-38 91.167 -38 142.5c0 30 4.5 57.667 13.5 83
s21.167 48.333 36.5 69s37.166 41.334 65.499 62.001s58 37.667 89 51s67.167 26.5 108.5 39.5s107.666 30.5 198.999 52.5c29.333 6.66699 54.333 13.5 75 20.5s39 13.833 55 20.5s30 14.5 42 23.5s23 20 33 33s17.333 26.167 22 39.5s7 26.666 7 39.999
c0 32.667 -10.667 60.667 -32 84s-49.166 39.666 -83.499 48.999s-74.833 14 -121.5 14c-43.333 0 -87.833 -3.5 -133.5 -10.5s-85 -15.333 -118 -25s-74.167 -24.167 -123.5 -43.5zM328.003 1174c0 52 4.5 93.333 13.5 124s22.5 52.334 40.5 65.001s37.667 19 59 19
c12 0 24.833 -2.16699 38.5 -6.5s28.167 -11.166 43.5 -20.499s45.333 -29.666 90 -60.999c16.667 -11.333 29.5 -19.333 38.5 -24s18.167 -7 27.5 -7c8 0 15.5 1.5 22.5 4.5s13.167 8.16699 18.5 15.5s9.16602 16.833 11.499 28.5s4.16602 30.167 5.49902 55.5
c18 -0.666992 33 -1 45 -1c12.667 0 28 0.333008 46 1c-0.666992 -46.667 -5 -83.834 -13 -111.501s-20.5 -50.334 -37.5 -68.001s-39.5 -26.5 -67.5 -26.5c-11.333 0 -23 1.83301 -35 5.5s-25.333 10 -40 19s-38 24.5 -70 46.5s-54 35.833 -66 41.5s-22.667 8.5 -32 8.5
c-7.33301 0 -13.833 -1.16699 -19.5 -3.5s-10.667 -6.33301 -15 -12s-7.66602 -12.334 -9.99902 -20.001s-4 -16.667 -5 -27s-1.83301 -25.5 -2.5 -45.5c-20 1.33301 -34.667 2 -44 2s-23.666 -0.666992 -42.999 -2z" />
    <glyph glyph-name="adieresis" unicode="&#xe4;" horiz-adv-x="1088" 
d="M177 852c6 29.333 12.3359 72.6641 19.0029 129.997c80 20.667 149.5 34.834 208.5 42.501s116.5 11.5 172.5 11.5c60 0 116.167 -5.5 168.5 -16.5s95.833 -28.833 130.5 -53.5s57.667 -53 69 -85s17 -66.333 17 -103c0 -46 -3.5 -123.167 -10.5 -231.5
s-12.333 -208.5 -16 -300.5s-5.5 -174 -5.5 -246c-36 1.33301 -65.333 2 -88 2c-21.333 0 -51.666 -0.666992 -90.999 -2l21 273l15 323c-23.333 -18 -40.833 -30.667 -52.5 -38s-24.834 -14.166 -39.501 -20.499s-30.834 -12.333 -48.501 -18s-52 -15.5 -103 -29.5
s-87.167 -24.667 -108.5 -32c-46 -14.667 -82.333 -29.334 -109 -44.001s-49 -30.667 -67 -48s-30.667 -34.666 -38 -51.999c-8.66699 -21.333 -13 -43.666 -13 -66.999c0 -36 10.667 -67.333 32 -94s48.166 -45.167 80.499 -55.5s71.166 -15.5 116.499 -15.5
c28 0 57.333 2 88 6s71.667 14.333 123 31c-9.33301 -26 -20 -66 -32 -120c-48.667 -9.33301 -88.334 -15.166 -119.001 -17.499s-59.667 -3.5 -87 -3.5c-91.333 0 -162.666 10.667 -213.999 32s-89.666 53.833 -114.999 97.5s-38 91.167 -38 142.5c0 30 4.5 57.667 13.5 83
s21.167 48.333 36.5 69s37.166 41.334 65.499 62.001s58 37.667 89 51s67.167 26.5 108.5 39.5s107.666 30.5 198.999 52.5c29.333 6.66699 54.333 13.5 75 20.5s39 13.833 55 20.5s30 14.5 42 23.5s23 20 33 33s17.333 26.167 22 39.5s7 26.666 7 39.999
c0 32.667 -10.667 60.667 -32 84s-49.166 39.666 -83.499 48.999s-74.833 14 -121.5 14c-43.333 0 -87.833 -3.5 -133.5 -10.5s-85 -15.333 -118 -25s-74.167 -24.167 -123.5 -43.5zM647.003 1212l6 129c32 -0.666992 57.333 -1 76 -1s43.334 0.333008 74.001 1l-4 -129
c-24.667 1.33301 -49.334 2 -74.001 2c-24 0 -50 -0.666992 -78 -2zM354.003 1212l4.99902 129c32.667 -0.666992 58.334 -1 77.001 -1s43.334 0.333008 74.001 1l-4 -129c-24.667 1.33301 -49.334 2 -74.001 2c-24 0 -50 -0.666992 -78 -2z" />
    <glyph glyph-name="aring" unicode="&#xe5;" horiz-adv-x="1088" 
d="M177 852c6 29.333 12.3359 72.6641 19.0029 129.997c80 20.667 149.5 34.834 208.5 42.501s116.5 11.5 172.5 11.5c60 0 116.167 -5.5 168.5 -16.5s95.833 -28.833 130.5 -53.5s57.667 -53 69 -85s17 -66.333 17 -103c0 -46 -3.5 -123.167 -10.5 -231.5
s-12.333 -208.5 -16 -300.5s-5.5 -174 -5.5 -246c-36 1.33301 -65.333 2 -88 2c-21.333 0 -51.666 -0.666992 -90.999 -2l21 273l15 323c-23.333 -18 -40.833 -30.667 -52.5 -38s-24.834 -14.166 -39.501 -20.499s-30.834 -12.333 -48.501 -18s-52 -15.5 -103 -29.5
s-87.167 -24.667 -108.5 -32c-46 -14.667 -82.333 -29.334 -109 -44.001s-49 -30.667 -67 -48s-30.667 -34.666 -38 -51.999c-8.66699 -21.333 -13 -43.666 -13 -66.999c0 -36 10.667 -67.333 32 -94s48.166 -45.167 80.499 -55.5s71.166 -15.5 116.499 -15.5
c28 0 57.333 2 88 6s71.667 14.333 123 31c-9.33301 -26 -20 -66 -32 -120c-48.667 -9.33301 -88.334 -15.166 -119.001 -17.499s-59.667 -3.5 -87 -3.5c-91.333 0 -162.666 10.667 -213.999 32s-89.666 53.833 -114.999 97.5s-38 91.167 -38 142.5c0 30 4.5 57.667 13.5 83
s21.167 48.333 36.5 69s37.166 41.334 65.499 62.001s58 37.667 89 51s67.167 26.5 108.5 39.5s107.666 30.5 198.999 52.5c29.333 6.66699 54.333 13.5 75 20.5s39 13.833 55 20.5s30 14.5 42 23.5s23 20 33 33s17.333 26.167 22 39.5s7 26.666 7 39.999
c0 32.667 -10.667 60.667 -32 84s-49.166 39.666 -83.499 48.999s-74.833 14 -121.5 14c-43.333 0 -87.833 -3.5 -133.5 -10.5s-85 -15.333 -118 -25s-74.167 -24.167 -123.5 -43.5zM761.003 1322c0 -32.667 -8.33301 -63.334 -25 -92.001s-39.334 -51.167 -68.001 -67.5
s-59.334 -24.5 -92.001 -24.5s-63.334 8.16699 -92.001 24.5s-51.167 38.833 -67.5 67.5s-24.5 59.334 -24.5 92.001s8.16699 63.334 24.5 92.001s38.833 51.334 67.5 68.001s59.334 25 92.001 25s63.334 -8.33301 92.001 -25s51.334 -39.334 68.001 -68.001
s25 -59.334 25 -92.001zM679.003 1321c0 28 -10 52 -30 72s-44.333 30 -73 30c-28 0 -52.167 -10 -72.5 -30s-30.5 -44 -30.5 -72s10.167 -52.167 30.5 -72.5s44.5 -30.5 72.5 -30.5c28.667 0 53 10.167 73 30.5s30 44.5 30 72.5z" />
    <glyph glyph-name="ae" unicode="&#xe6;" horiz-adv-x="1710" 
d="M174 854c8 46 14.001 89.002 18.001 129.002c46 13.333 83.667 23 113 29s66.666 11.5 111.999 16.5s87.666 7.5 126.999 7.5c44.667 0 84.834 -3 120.501 -9s64.834 -13.167 87.501 -21.5s42.834 -18.666 60.501 -30.999s32.334 -27 44.001 -44
s23.167 -42.833 34.5 -77.5c28.667 36 53.334 63.5 74.001 82.5s45 36.167 73 51.5s59.5 27.333 94.5 36s71.167 13 108.5 13c72.667 0 141.167 -15.5 205.5 -46.5s114.666 -76 150.999 -135s54.5 -132.833 54.5 -221.5c0 -30 -2.66699 -58.667 -8 -86h-725
c-2 -34 -3 -61 -3 -81c0 -52.667 8.16699 -103.334 24.5 -152.001s41 -89.834 74 -123.501s71.333 -58 115 -73s89.5 -22.5 137.5 -22.5c76.667 0 172 18 286 54c-8.66699 -42 -16.667 -89.333 -24 -142c-99.333 -19.333 -191 -29 -275 -29
c-64.667 0 -124.667 8.16699 -180 24.5s-104 41.833 -146 76.5s-75.5 77.834 -100.5 129.501s-42.667 104 -53 157s-15.5 99.167 -15.5 138.5c0 14.667 0.666992 29.167 2 43.5s5 37.5 11 69.5c-21.333 -26 -38.833 -44.333 -52.5 -55s-33 -21.167 -58 -31.5
s-58.333 -21.5 -100 -33.5s-82.167 -25.167 -121.5 -39.5s-70.833 -26.833 -94.5 -37.5s-43.167 -21.5 -58.5 -32.5s-29 -23.833 -41 -38.5s-21 -30.5 -27 -47.5s-9 -34.167 -9 -51.5c0 -32.667 9.66699 -62.167 29 -88.5s47.666 -46 84.999 -59s77.666 -19.5 120.999 -19.5
c30 0 66.167 4 108.5 12s85.166 20.333 128.499 37c-10.667 -38.667 -20.334 -79 -29.001 -121c-44.667 -10.667 -89.167 -18.834 -133.5 -24.501s-82.166 -8.5 -113.499 -8.5c-68.667 0 -132.167 10.667 -190.5 32s-102.5 53.333 -132.5 96s-45 90.334 -45 143.001
c0 29.333 4.83301 57.5 14.5 84.5s24.834 53.333 45.501 79s44.667 47.5 72 65.5c38 24.667 79.667 44.667 125 60c33.333 11.333 117.333 36 252 74c38.667 11.333 73 23.166 103 35.499s53.167 26.666 69.5 42.999s27.666 32.166 33.999 47.499s9.5 32 9.5 50
c0 42.667 -17.833 77.167 -53.5 103.5s-93.167 39.5 -172.5 39.5c-38.667 0 -80 -3.33301 -124 -10s-82.5 -14.667 -115.5 -24s-74.167 -23.666 -123.5 -42.999zM928.001 635.002h560.999c0 43.333 -1.66699 74.333 -5 93s-9.5 38.167 -18.5 58.5s-21.333 39.666 -37 57.999
s-33.667 33.5 -54 45.5s-43 21.167 -68 27.5s-50.833 9.5 -77.5 9.5c-30.667 0 -59.667 -4 -87 -12s-52.666 -19.667 -75.999 -35s-44 -33.666 -62 -54.999s-32.333 -45 -43 -71s-21.667 -65.667 -33 -119z" />
    <glyph glyph-name="ccedilla" unicode="&#xe7;" horiz-adv-x="967" 
d="M858 152c-1.33301 -10.667 -4.83496 -30.5 -10.502 -59.5s-10.5 -57.5 -14.5 -85.5c-48.667 -11.333 -95.5 -19 -140.5 -23s-84.5 -6 -118.5 -6c-72 0 -138.5 9.66699 -199.5 29s-114.167 51.166 -159.5 95.499s-78.666 99.333 -99.999 165s-32 134.834 -32 207.501
c0 98 17.333 191 52 279s89.334 157 164.001 207s176.334 75 305.001 75c94.667 0 187 -12.667 277 -38c4 -56.667 7.66699 -103.334 11 -140.001c-63.333 20 -115 33.5 -155 40.5s-77 10.5 -111 10.5c-58.667 0 -111.167 -10.667 -157.5 -32
s-85.833 -51.666 -118.5 -90.999s-56.167 -86 -70.5 -140s-21.5 -109 -21.5 -165c0 -75.333 11.667 -141.333 35 -198s64.166 -100.5 122.499 -131.5s123.833 -46.5 196.5 -46.5c70.667 0 152.667 15.667 246 47zM644.998 -96l-57 -112l-68 -136
c-43.333 1.33301 -78.333 2 -105 2c-25.333 0 -61.333 -0.666992 -108 -2l207 250c18 -2.66699 41.667 -4 71 -4c22.667 0 42.667 0.666992 60 2z" />
    <glyph glyph-name="egrave" unicode="&#xe8;" horiz-adv-x="1087" 
d="M942 159c-8 -36.667 -16 -83.333 -24 -140c-64 -16 -119.5 -26.833 -166.5 -32.5s-93.833 -8.5 -140.5 -8.5c-83.333 0 -158.166 10 -224.499 30s-123.166 54.833 -170.499 104.5s-81.333 106.5 -102 170.5s-31 131.667 -31 203c0 99.333 19 191.5 57 276.5
s95.167 151.833 171.5 200.5s173.166 73 290.499 73c60.667 0 118.667 -8.83301 174 -26.5s101.333 -44.5 138 -80.5s65 -80.5 85 -133.5s30 -110.833 30 -173.5c0 -24 -2 -47.333 -6 -70h-763c-2.66699 -36.667 -4 -64.667 -4 -84c0 -70 14.667 -134.5 44 -193.5
s72.666 -103.667 129.999 -134s123.333 -45.5 198 -45.5c86 0 190.667 21.333 314 64zM268 635.001h596c-0.666992 42 -3.33398 74.667 -8.00098 98s-13.334 47.5 -26.001 72.5s-29.834 46.667 -51.501 65s-47.667 32.333 -78 42s-63.166 14.5 -98.499 14.5
c-38 0 -74.167 -5.33301 -108.5 -16s-64.666 -25.334 -90.999 -44.001s-48.666 -40.5 -66.999 -65.5s-32 -49.167 -41 -72.5s-17.833 -54.666 -26.5 -93.999zM674 1145c-20 1.33301 -39.999 2 -59.999 2c-24.667 0 -45.334 -0.666992 -62.001 -2
c-66.667 108.667 -122.667 196 -168 262c38 -1.33301 72 -2 102 -2c35.333 0 69 0.666992 101 2z" />
    <glyph glyph-name="eacute" unicode="&#xe9;" horiz-adv-x="1087" 
d="M942 159c-8 -36.667 -16 -83.333 -24 -140c-64 -16 -119.5 -26.833 -166.5 -32.5s-93.833 -8.5 -140.5 -8.5c-83.333 0 -158.166 10 -224.499 30s-123.166 54.833 -170.499 104.5s-81.333 106.5 -102 170.5s-31 131.667 -31 203c0 99.333 19 191.5 57 276.5
s95.167 151.833 171.5 200.5s173.166 73 290.499 73c60.667 0 118.667 -8.83301 174 -26.5s101.333 -44.5 138 -80.5s65 -80.5 85 -133.5s30 -110.833 30 -173.5c0 -24 -2 -47.333 -6 -70h-763c-2.66699 -36.667 -4 -64.667 -4 -84c0 -70 14.667 -134.5 44 -193.5
s72.666 -103.667 129.999 -134s123.333 -45.5 198 -45.5c86 0 190.667 21.333 314 64zM268 635.001h596c-0.666992 42 -3.33398 74.667 -8.00098 98s-13.334 47.5 -26.001 72.5s-29.834 46.667 -51.501 65s-47.667 32.333 -78 42s-63.166 14.5 -98.499 14.5
c-38 0 -74.167 -5.33301 -108.5 -16s-64.666 -25.334 -90.999 -44.001s-48.666 -40.5 -66.999 -65.5s-32 -49.167 -41 -72.5s-17.833 -54.666 -26.5 -93.999zM498 1145l92 262c32.667 -1.33301 66.334 -2 101.001 -2c31.333 0 65.333 0.666992 102 2
c-44 -62 -101.667 -149.333 -173 -262c-18.667 1.33301 -39.334 2 -62.001 2c-22 0 -42 -0.666992 -60 -2z" />
    <glyph glyph-name="ecircumflex" unicode="&#xea;" horiz-adv-x="1087" 
d="M942 159c-8 -36.667 -16 -83.333 -24 -140c-64 -16 -119.5 -26.833 -166.5 -32.5s-93.833 -8.5 -140.5 -8.5c-83.333 0 -158.166 10 -224.499 30s-123.166 54.833 -170.499 104.5s-81.333 106.5 -102 170.5s-31 131.667 -31 203c0 99.333 19 191.5 57 276.5
s95.167 151.833 171.5 200.5s173.166 73 290.499 73c60.667 0 118.667 -8.83301 174 -26.5s101.333 -44.5 138 -80.5s65 -80.5 85 -133.5s30 -110.833 30 -173.5c0 -24 -2 -47.333 -6 -70h-763c-2.66699 -36.667 -4 -64.667 -4 -84c0 -70 14.667 -134.5 44 -193.5
s72.666 -103.667 129.999 -134s123.333 -45.5 198 -45.5c86 0 190.667 21.333 314 64zM268 635.001h596c-0.666992 42 -3.33398 74.667 -8.00098 98s-13.334 47.5 -26.001 72.5s-29.834 46.667 -51.501 65s-47.667 32.333 -78 42s-63.166 14.5 -98.499 14.5
c-38 0 -74.167 -5.33301 -108.5 -16s-64.666 -25.334 -90.999 -44.001s-48.666 -40.5 -66.999 -65.5s-32 -49.167 -41 -72.5s-17.833 -54.666 -26.5 -93.999zM367 1160c54 96 96.001 173.667 126.001 233l111 -2c5.33301 0 40.666 0.666992 105.999 2
c29.333 -64 68 -141.667 116 -233c-21.333 0.666992 -40 1 -56 1c-13.333 0 -31.333 -0.333008 -54 -1l-114 160l-125 -160c-16 0.666992 -33.667 1 -53 1c-22.667 0 -41.667 -0.333008 -57 -1z" />
    <glyph glyph-name="edieresis" unicode="&#xeb;" horiz-adv-x="1087" 
d="M942 159c-8 -36.667 -16 -83.333 -24 -140c-64 -16 -119.5 -26.833 -166.5 -32.5s-93.833 -8.5 -140.5 -8.5c-83.333 0 -158.166 10 -224.499 30s-123.166 54.833 -170.499 104.5s-81.333 106.5 -102 170.5s-31 131.667 -31 203c0 99.333 19 191.5 57 276.5
s95.167 151.833 171.5 200.5s173.166 73 290.499 73c60.667 0 118.667 -8.83301 174 -26.5s101.333 -44.5 138 -80.5s65 -80.5 85 -133.5s30 -110.833 30 -173.5c0 -24 -2 -47.333 -6 -70h-763c-2.66699 -36.667 -4 -64.667 -4 -84c0 -70 14.667 -134.5 44 -193.5
s72.666 -103.667 129.999 -134s123.333 -45.5 198 -45.5c86 0 190.667 21.333 314 64zM268 635.001h596c-0.666992 42 -3.33398 74.667 -8.00098 98s-13.334 47.5 -26.001 72.5s-29.834 46.667 -51.501 65s-47.667 32.333 -78 42s-63.166 14.5 -98.499 14.5
c-38 0 -74.167 -5.33301 -108.5 -16s-64.666 -25.334 -90.999 -44.001s-48.666 -40.5 -66.999 -65.5s-32 -49.167 -41 -72.5s-17.833 -54.666 -26.5 -93.999zM664 1212l6 129c32 -0.666992 57.333 -1 76 -1s43.334 0.333008 74.001 1l-4 -129
c-24.667 1.33301 -49.334 2 -74.001 2c-24 0 -50 -0.666992 -78 -2zM371 1212l4.99902 129c32.667 -0.666992 58.334 -1 77.001 -1s43.334 0.333008 74.001 1l-4 -129c-24.667 1.33301 -49.334 2 -74.001 2c-24 0 -50 -0.666992 -78 -2z" />
    <glyph glyph-name="igrave" unicode="&#xec;" horiz-adv-x="461" 
d="M122 0l17 252.002l19 430l8 331l92 -1l90 1c-7.33301 -104 -14 -212.833 -20 -326.5s-10.833 -237.834 -14.5 -372.501s-5.5 -239.334 -5.5 -314.001c-42 1.33301 -72 2 -90 2c-16.667 0 -48.667 -0.666992 -96 -2zM346 1145c-20 1.33301 -39.999 2 -59.999 2
c-24.667 0 -45.334 -0.666992 -62.001 -2c-66.667 108.667 -122.667 196 -168 262c38 -1.33301 72 -2 102 -2c35.333 0 69 0.666992 101 2z" />
    <glyph glyph-name="iacute" unicode="&#xed;" horiz-adv-x="461" 
d="M118 0l17 252.002l19 430l8 331l92 -1l90 1c-7.33301 -104 -14 -212.833 -20 -326.5s-10.833 -237.834 -14.5 -372.501s-5.5 -239.334 -5.5 -314.001c-42 1.33301 -72 2 -90 2c-16.667 0 -48.667 -0.666992 -96 -2zM163 1145l92 262
c32.667 -1.33301 66.334 -2 101.001 -2c31.333 0 65.333 0.666992 102 2c-44 -62 -101.667 -149.333 -173 -262c-18.667 1.33301 -39.334 2 -62.001 2c-22 0 -42 -0.666992 -60 -2z" />
    <glyph glyph-name="icircumflex" unicode="&#xee;" horiz-adv-x="461" 
d="M137 0l17 252.002l19 430l8 331l92 -1l90 1c-7.33301 -104 -14 -212.833 -20 -326.5s-10.833 -237.834 -14.5 -372.501s-5.5 -239.334 -5.5 -314.001c-42 1.33301 -72 2 -90 2c-16.667 0 -48.667 -0.666992 -96 -2zM46 1160c54 96 96.001 173.667 126.001 233l111 -2
c5.33301 0 40.666 0.666992 105.999 2c29.333 -64 68 -141.667 116 -233c-21.333 0.666992 -40 1 -56 1c-13.333 0 -31.333 -0.333008 -54 -1l-114 160l-125 -160c-16 0.666992 -33.667 1 -53 1c-22.667 0 -41.667 -0.333008 -57 -1z" />
    <glyph glyph-name="idieresis" unicode="&#xef;" horiz-adv-x="461" 
d="M151 0l17 252.002l19 430l8 331l92 -1l90 1c-7.33301 -104 -14 -212.833 -20 -326.5s-10.833 -237.834 -14.5 -372.501s-5.5 -239.334 -5.5 -314.001c-42 1.33301 -72 2 -90 2c-16.667 0 -48.667 -0.666992 -96 -2zM359 1213l6 129c32 -0.666992 57.333 -1 76 -1
s43.334 0.333008 74.001 1l-4 -129c-24.667 1.33301 -49.334 2 -74.001 2c-24 0 -50 -0.666992 -78 -2zM66 1213l4.99902 129c32.667 -0.666992 58.334 -1 77.001 -1s43.334 0.333008 74.001 1l-4 -129c-24.667 1.33301 -49.334 2 -74.001 2c-24 0 -50 -0.666992 -78 -2z
" />
    <glyph glyph-name="eth" unicode="&#xf0;" horiz-adv-x="1206" 
d="M432 1423c8 6 25.3291 16.6689 51.9961 32.002s46.334 28.333 59.001 39c9.33301 -12.667 22.333 -29.334 39 -50.001l39 -50c9.33301 -12 18 -22.667 26 -32l37 27c8 6 21.5 16.667 40.5 32l44.5 35c12.667 -20.667 22.167 -37 28.5 -49s14.5 -24 24.5 -36
c-17.333 -10.667 -38 -25.334 -62 -44.001s-44 -33 -60 -43l84 -115l65 -84l94 -115.5c38.667 -47 67.834 -84.833 87.501 -113.5s35.834 -57.167 48.501 -85.5s23.167 -62.666 31.5 -102.999s12.5 -84.5 12.5 -132.5c0 -78.667 -13 -154.334 -39 -227.001
s-62.333 -134.167 -109 -184.5s-103.5 -87.166 -170.5 -110.499s-138.833 -35 -215.5 -35c-70 0 -136.333 10.5 -199 31.5s-117.334 53.833 -164.001 98.5s-82.167 100 -106.5 166s-36.5 134 -36.5 204c0 74.667 11 147 33 217s55.833 130.5 101.5 181.5
s104.834 90.333 177.501 118s149 41.5 229 41.5c52 0 97.333 -7.66699 136 -23c-36.667 46.667 -70.667 87.667 -102 123s-54.666 62.666 -69.999 81.999c-24.667 -18 -47.667 -35.667 -69 -53s-38 -30.333 -50 -39l-27.5 48c-7 12.667 -15.167 25 -24.5 37
c12.667 8 27 18.167 43 30.5s41.667 30.833 77 55.5c-9.33301 11.333 -17.833 22.166 -25.5 32.499s-13.667 17.833 -18 22.5s-24.833 28.334 -61.5 71.001zM612.996 909.002c-68 0 -130.499 -17 -187.499 -51s-99.167 -85.167 -126.5 -153.5s-41 -142.833 -41 -223.5
c0 -70.667 11.333 -134.167 34 -190.5s60 -101.833 112 -136.5s114.667 -52 188 -52c50 0 97.333 8.5 142 25.5s83.667 45.167 117 84.5s58 87.5 74 144.5s24 116.833 24 179.5c0 58.667 -8 113.667 -24 165s-40.5 92.5 -73.5 123.5s-70.333 52.833 -112 65.5
s-83.834 19 -126.501 19z" />
    <glyph glyph-name="ntilde" unicode="&#xf1;" horiz-adv-x="1235" 
d="M107 0c32 418 48.666 755.665 49.999 1013l90 -1c22 0 51 0.333008 87 1l-13 -200c16.667 28 30 49.5 40 64.5s23.333 30.833 40 47.5s36.334 32.167 59.001 46.5s49.334 26.333 80.001 36s61.834 16.834 93.501 21.501s63.167 7 94.5 7c57.333 0 112.666 -7 165.999 -21
s97.166 -36.833 131.499 -68.5s57.333 -67.167 69 -106.5s17.5 -81.666 17.5 -126.999c0 -8.66699 -0.333008 -25.334 -1 -50.001s-2 -57 -4 -97l-20 -419c-1.33301 -40 -2.33301 -89 -3 -147c-30 1.33301 -58.333 2 -85 2c-32.667 0 -63.334 -0.666992 -92.001 -2
c6.66699 80.667 11.667 158.334 15 233.001l13 233c4 80 6 140.333 6 181c0 58.667 -10 105.5 -30 140.5s-52 62 -96 81s-93.333 28.5 -148 28.5c-77.333 0 -143.666 -18.333 -198.999 -55c-50.667 -34 -90 -82.333 -118 -145c-19.333 -44.667 -33 -110.667 -41 -198
c-10 -104.667 -17 -271 -21 -499c-37.333 1.33301 -66.333 2 -87 2s-52 -0.666992 -94 -2zM397.999 1174c0 52 4.5 93.333 13.5 124s22.5 52.334 40.5 65.001s37.667 19 59 19c12 0 24.833 -2.16699 38.5 -6.5s28.167 -11.166 43.5 -20.499s45.333 -29.666 90 -60.999
c16.667 -11.333 29.5 -19.333 38.5 -24s18.167 -7 27.5 -7c8 0 15.5 1.5 22.5 4.5s13.167 8.16699 18.5 15.5s9.16602 16.833 11.499 28.5s4.16602 30.167 5.49902 55.5c18 -0.666992 33 -1 45 -1c12.667 0 28 0.333008 46 1c-0.666992 -46.667 -5 -83.834 -13 -111.501
s-20.5 -50.334 -37.5 -68.001s-39.5 -26.5 -67.5 -26.5c-11.333 0 -23 1.83301 -35 5.5s-25.333 10 -40 19s-38 24.5 -70 46.5s-54 35.833 -66 41.5s-22.667 8.5 -32 8.5c-7.33301 0 -13.833 -1.16699 -19.5 -3.5s-10.667 -6.33301 -15 -12
s-7.66602 -12.334 -9.99902 -20.001s-4 -16.667 -5 -27s-1.83301 -25.5 -2.5 -45.5c-20 1.33301 -34.667 2 -44 2s-23.666 -0.666992 -42.999 -2z" />
    <glyph glyph-name="ograve" unicode="&#xf2;" horiz-adv-x="1206" 
d="M617 1036c70 0 136.667 -9.99707 200 -29.9971s118.166 -51.667 164.499 -95s81.5 -98 105.5 -164s36 -135.667 36 -209c0 -79.333 -12.833 -155.333 -38.5 -228s-61.667 -134.334 -108 -185.001s-103 -87.834 -170 -111.501s-138.833 -35.5 -215.5 -35.5
c-71.333 0 -138.666 10.667 -201.999 32s-118.166 54.666 -164.499 99.999s-81.5 100.833 -105.5 166.5s-36 134.5 -36 206.5c0 108.667 22 206.5 66 293.5s108.667 152 194 195s176.666 64.5 273.999 64.5zM613 909.003c-68 0 -130.499 -17 -187.499 -51
s-99.167 -85.167 -126.5 -153.5s-41 -142.833 -41 -223.5c0 -70.667 11.333 -134.167 34 -190.5s60 -101.833 112 -136.5s114.667 -52 188 -52c50 0 97.333 8.5 142 25.5s83.667 45.167 117 84.5s58 87.5 74 144.5s24 116.833 24 179.5c0 58.667 -8 113.667 -24 165
s-40.5 92.5 -73.5 123.5s-70.333 52.833 -112 65.5s-83.834 19 -126.501 19zM712.001 1145c-20 1.33301 -39.999 2 -59.999 2c-24.667 0 -45.334 -0.666992 -62.001 -2c-66.667 108.667 -122.667 196 -168 262c38 -1.33301 72 -2 102 -2c35.333 0 69 0.666992 101 2z" />
    <glyph glyph-name="oacute" unicode="&#xf3;" horiz-adv-x="1206" 
d="M617 1036c70 0 136.667 -9.99707 200 -29.9971s118.166 -51.667 164.499 -95s81.5 -98 105.5 -164s36 -135.667 36 -209c0 -79.333 -12.833 -155.333 -38.5 -228s-61.667 -134.334 -108 -185.001s-103 -87.834 -170 -111.501s-138.833 -35.5 -215.5 -35.5
c-71.333 0 -138.666 10.667 -201.999 32s-118.166 54.666 -164.499 99.999s-81.5 100.833 -105.5 166.5s-36 134.5 -36 206.5c0 108.667 22 206.5 66 293.5s108.667 152 194 195s176.666 64.5 273.999 64.5zM613 909.003c-68 0 -130.499 -17 -187.499 -51
s-99.167 -85.167 -126.5 -153.5s-41 -142.833 -41 -223.5c0 -70.667 11.333 -134.167 34 -190.5s60 -101.833 112 -136.5s114.667 -52 188 -52c50 0 97.333 8.5 142 25.5s83.667 45.167 117 84.5s58 87.5 74 144.5s24 116.833 24 179.5c0 58.667 -8 113.667 -24 165
s-40.5 92.5 -73.5 123.5s-70.333 52.833 -112 65.5s-83.834 19 -126.501 19zM536.001 1145l92 262c32.667 -1.33301 66.334 -2 101.001 -2c31.333 0 65.333 0.666992 102 2c-44 -62 -101.667 -149.333 -173 -262c-18.667 1.33301 -39.334 2 -62.001 2
c-22 0 -42 -0.666992 -60 -2z" />
    <glyph glyph-name="ocircumflex" unicode="&#xf4;" horiz-adv-x="1206" 
d="M617 1036c70 0 136.667 -9.99707 200 -29.9971s118.166 -51.667 164.499 -95s81.5 -98 105.5 -164s36 -135.667 36 -209c0 -79.333 -12.833 -155.333 -38.5 -228s-61.667 -134.334 -108 -185.001s-103 -87.834 -170 -111.501s-138.833 -35.5 -215.5 -35.5
c-71.333 0 -138.666 10.667 -201.999 32s-118.166 54.666 -164.499 99.999s-81.5 100.833 -105.5 166.5s-36 134.5 -36 206.5c0 108.667 22 206.5 66 293.5s108.667 152 194 195s176.666 64.5 273.999 64.5zM613 909.003c-68 0 -130.499 -17 -187.499 -51
s-99.167 -85.167 -126.5 -153.5s-41 -142.833 -41 -223.5c0 -70.667 11.333 -134.167 34 -190.5s60 -101.833 112 -136.5s114.667 -52 188 -52c50 0 97.333 8.5 142 25.5s83.667 45.167 117 84.5s58 87.5 74 144.5s24 116.833 24 179.5c0 58.667 -8 113.667 -24 165
s-40.5 92.5 -73.5 123.5s-70.333 52.833 -112 65.5s-83.834 19 -126.501 19zM406.001 1160c54 96 96.001 173.667 126.001 233l111 -2c5.33301 0 40.666 0.666992 105.999 2c29.333 -64 68 -141.667 116 -233c-21.333 0.666992 -40 1 -56 1
c-13.333 0 -31.333 -0.333008 -54 -1l-114 160l-125 -160c-16 0.666992 -33.667 1 -53 1c-22.667 0 -41.667 -0.333008 -57 -1z" />
    <glyph glyph-name="otilde" unicode="&#xf5;" horiz-adv-x="1206" 
d="M617 1036c70 0 136.667 -9.99707 200 -29.9971s118.166 -51.667 164.499 -95s81.5 -98 105.5 -164s36 -135.667 36 -209c0 -79.333 -12.833 -155.333 -38.5 -228s-61.667 -134.334 -108 -185.001s-103 -87.834 -170 -111.501s-138.833 -35.5 -215.5 -35.5
c-71.333 0 -138.666 10.667 -201.999 32s-118.166 54.666 -164.499 99.999s-81.5 100.833 -105.5 166.5s-36 134.5 -36 206.5c0 108.667 22 206.5 66 293.5s108.667 152 194 195s176.666 64.5 273.999 64.5zM613 909.003c-68 0 -130.499 -17 -187.499 -51
s-99.167 -85.167 -126.5 -153.5s-41 -142.833 -41 -223.5c0 -70.667 11.333 -134.167 34 -190.5s60 -101.833 112 -136.5s114.667 -52 188 -52c50 0 97.333 8.5 142 25.5s83.667 45.167 117 84.5s58 87.5 74 144.5s24 116.833 24 179.5c0 58.667 -8 113.667 -24 165
s-40.5 92.5 -73.5 123.5s-70.333 52.833 -112 65.5s-83.834 19 -126.501 19zM384.001 1174c0 52 4.5 93.333 13.5 124s22.5 52.334 40.5 65.001s37.667 19 59 19c12 0 24.833 -2.16699 38.5 -6.5s28.167 -11.166 43.5 -20.499s45.333 -29.666 90 -60.999
c16.667 -11.333 29.5 -19.333 38.5 -24s18.167 -7 27.5 -7c8 0 15.5 1.5 22.5 4.5s13.167 8.16699 18.5 15.5s9.16602 16.833 11.499 28.5s4.16602 30.167 5.49902 55.5c18 -0.666992 33 -1 45 -1c12.667 0 28 0.333008 46 1c-0.666992 -46.667 -5 -83.834 -13 -111.501
s-20.5 -50.334 -37.5 -68.001s-39.5 -26.5 -67.5 -26.5c-11.333 0 -23 1.83301 -35 5.5s-25.333 10 -40 19s-38 24.5 -70 46.5s-54 35.833 -66 41.5s-22.667 8.5 -32 8.5c-7.33301 0 -13.833 -1.16699 -19.5 -3.5s-10.667 -6.33301 -15 -12
s-7.66602 -12.334 -9.99902 -20.001s-4 -16.667 -5 -27s-1.83301 -25.5 -2.5 -45.5c-20 1.33301 -34.667 2 -44 2s-23.666 -0.666992 -42.999 -2z" />
    <glyph glyph-name="odieresis" unicode="&#xf6;" horiz-adv-x="1206" 
d="M617 1036c70 0 136.667 -9.99707 200 -29.9971s118.166 -51.667 164.499 -95s81.5 -98 105.5 -164s36 -135.667 36 -209c0 -79.333 -12.833 -155.333 -38.5 -228s-61.667 -134.334 -108 -185.001s-103 -87.834 -170 -111.501s-138.833 -35.5 -215.5 -35.5
c-71.333 0 -138.666 10.667 -201.999 32s-118.166 54.666 -164.499 99.999s-81.5 100.833 -105.5 166.5s-36 134.5 -36 206.5c0 108.667 22 206.5 66 293.5s108.667 152 194 195s176.666 64.5 273.999 64.5zM613 909.003c-68 0 -130.499 -17 -187.499 -51
s-99.167 -85.167 -126.5 -153.5s-41 -142.833 -41 -223.5c0 -70.667 11.333 -134.167 34 -190.5s60 -101.833 112 -136.5s114.667 -52 188 -52c50 0 97.333 8.5 142 25.5s83.667 45.167 117 84.5s58 87.5 74 144.5s24 116.833 24 179.5c0 58.667 -8 113.667 -24 165
s-40.5 92.5 -73.5 123.5s-70.333 52.833 -112 65.5s-83.834 19 -126.501 19zM702.001 1212l6 129c32 -0.666992 57.333 -1 76 -1s43.334 0.333008 74.001 1l-4 -129c-24.667 1.33301 -49.334 2 -74.001 2c-24 0 -50 -0.666992 -78 -2zM409.001 1212l4.99902 129
c32.667 -0.666992 58.334 -1 77.001 -1s43.334 0.333008 74.001 1l-4 -129c-24.667 1.33301 -49.334 2 -74.001 2c-24 0 -50 -0.666992 -78 -2z" />
    <glyph glyph-name="divide" unicode="&#xf7;" 
d="M527 952l4.99902 100l2 48c25.333 -1.33301 51 -2 77 -2s51.667 0.666992 77 2c-1.33301 -12 -4 -61.333 -8 -148c-25.333 0.666992 -51 1 -77 1c-25.333 0 -50.666 -0.333008 -75.999 -1zM119.999 763c181.333 -2.66699 340 -4 476 -4s295 1.33301 477 4
c-4 -34 -6.66699 -74 -8 -120c-180.667 3.33301 -339.334 5 -476.001 5c-136 0 -295 -1.66699 -477 -5c4.66699 38 7.33398 78 8.00098 120zM497.999 307l2.99805 39.002c1.33301 22 2.33301 42 3 60s1.33398 34.333 2.00098 49c24.667 -1.33301 50 -2 76 -2
s51.667 0.666992 77 2l-2 -33c-1.33301 -22.667 -2.33301 -43.834 -3 -63.501s-1.66699 -36.834 -3 -51.501c-25.333 0.666992 -50.666 1 -75.999 1c-26 0 -51.667 -0.333008 -77 -1z" />
    <glyph glyph-name="oslash" unicode="&#xf8;" horiz-adv-x="1204" 
d="M828 992l77.002 128.997c24 -1.33301 48.667 -2 74 -2c22.667 0 47 0.666992 73 2l-107 -181c22 -16.667 40.333 -32.5 55 -47.5s29 -33 43 -54s26.833 -47.167 38.5 -78.5s21.167 -66.166 28.5 -104.499s11 -78.5 11 -120.5c0 -105.333 -21.5 -201.166 -64.5 -287.499
s-103.833 -152.833 -182.5 -199.5s-165.667 -70 -261 -70c-73.333 0 -148.333 13.667 -225 41l-79 -133c-35.333 1.33301 -61 2 -77 2c-8.66699 0 -34.334 -0.666992 -77.001 -2l113 186c-67.333 51.333 -115 112.333 -143 183s-42 144.334 -42 221.001
c0 78.667 11.167 153.5 33.5 224.5s59 131.667 110 182s110.167 88.5 177.5 114.5s135.666 39 204.999 39c72 0 145 -14.667 219 -44zM762.002 884.997c-43.333 17.333 -91.001 26 -143.001 26s-100.333 -8.33301 -145 -25s-84.167 -45 -118.5 -85
s-59.166 -87.667 -74.499 -143s-23 -113.333 -23 -174c0 -118 30 -211.333 90 -280zM865.001 808.997l-409.999 -679c42.667 -16.667 88.667 -25 138 -25c68.667 0 129.167 15.167 181.5 45.5s94 79.166 125 146.499s46.5 147.333 46.5 240
c0 49.333 -5.33301 96.833 -16 142.5s-32.334 88.834 -65.001 129.501z" />
    <glyph glyph-name="ugrave" unicode="&#xf9;" horiz-adv-x="1223" 
d="M1067 0c-32.667 1.33301 -60.6689 2.00293 -84.002 2.00293c-26.667 0 -54.334 -0.666992 -83.001 -2l5 193c-16 -30 -29.833 -53.167 -41.5 -69.5s-26.167 -32.333 -43.5 -48s-35.166 -28.834 -53.499 -39.501s-39.833 -20.167 -64.5 -28.5s-53.5 -15.333 -86.5 -21
s-68.167 -8.5 -105.5 -8.5c-81.333 0 -150.833 12.333 -208.5 37s-101.334 59.667 -131.001 105s-44.5 107.333 -44.5 186c0 12 0.666992 32.333 2 61s3.33301 66 6 112l17 333l3 107c0.666992 24.667 1 56 1 94l92 -1c18.667 0 47.334 0.333008 86.001 1
c-9.33301 -116.667 -18.166 -244.334 -26.499 -383.001s-12.5 -227.334 -12.5 -266.001c0 -58.667 9.5 -105.5 28.5 -140.5s50.667 -62 95 -81s94.5 -28.5 150.5 -28.5c49.333 0 96.666 8.66699 141.999 26c38.667 15.333 71.334 36 98.001 62
c28.667 28.667 52.667 65.667 72 111c14 33.333 24.667 76.333 32 129c4.66699 38 9.33398 106.333 14.001 205c5.33301 120 9 242 11 366l93 -1c20 0 48 0.333008 84 1c-9.33301 -120 -20.333 -302.333 -33 -547c-7.33301 -134.667 -12 -290 -14 -466zM721.998 1145
c-20 1.33301 -39.999 2 -59.999 2c-24.667 0 -45.334 -0.666992 -62.001 -2c-66.667 108.667 -122.667 196 -168 262c38 -1.33301 72 -2 102 -2c35.333 0 69 0.666992 101 2z" />
    <glyph glyph-name="uacute" unicode="&#xfa;" horiz-adv-x="1223" 
d="M1067 0c-32.667 1.33301 -60.6689 2.00293 -84.002 2.00293c-26.667 0 -54.334 -0.666992 -83.001 -2l5 193c-16 -30 -29.833 -53.167 -41.5 -69.5s-26.167 -32.333 -43.5 -48s-35.166 -28.834 -53.499 -39.501s-39.833 -20.167 -64.5 -28.5s-53.5 -15.333 -86.5 -21
s-68.167 -8.5 -105.5 -8.5c-81.333 0 -150.833 12.333 -208.5 37s-101.334 59.667 -131.001 105s-44.5 107.333 -44.5 186c0 12 0.666992 32.333 2 61s3.33301 66 6 112l17 333l3 107c0.666992 24.667 1 56 1 94l92 -1c18.667 0 47.334 0.333008 86.001 1
c-9.33301 -116.667 -18.166 -244.334 -26.499 -383.001s-12.5 -227.334 -12.5 -266.001c0 -58.667 9.5 -105.5 28.5 -140.5s50.667 -62 95 -81s94.5 -28.5 150.5 -28.5c49.333 0 96.666 8.66699 141.999 26c38.667 15.333 71.334 36 98.001 62
c28.667 28.667 52.667 65.667 72 111c14 33.333 24.667 76.333 32 129c4.66699 38 9.33398 106.333 14.001 205c5.33301 120 9 242 11 366l93 -1c20 0 48 0.333008 84 1c-9.33301 -120 -20.333 -302.333 -33 -547c-7.33301 -134.667 -12 -290 -14 -466zM544.998 1145l92 262
c32.667 -1.33301 66.334 -2 101.001 -2c31.333 0 65.333 0.666992 102 2c-44 -62 -101.667 -149.333 -173 -262c-18.667 1.33301 -39.334 2 -62.001 2c-22 0 -42 -0.666992 -60 -2z" />
    <glyph glyph-name="ucircumflex" unicode="&#xfb;" horiz-adv-x="1223" 
d="M1067 0c-32.667 1.33301 -60.6689 2.00293 -84.002 2.00293c-26.667 0 -54.334 -0.666992 -83.001 -2l5 193c-16 -30 -29.833 -53.167 -41.5 -69.5s-26.167 -32.333 -43.5 -48s-35.166 -28.834 -53.499 -39.501s-39.833 -20.167 -64.5 -28.5s-53.5 -15.333 -86.5 -21
s-68.167 -8.5 -105.5 -8.5c-81.333 0 -150.833 12.333 -208.5 37s-101.334 59.667 -131.001 105s-44.5 107.333 -44.5 186c0 12 0.666992 32.333 2 61s3.33301 66 6 112l17 333l3 107c0.666992 24.667 1 56 1 94l92 -1c18.667 0 47.334 0.333008 86.001 1
c-9.33301 -116.667 -18.166 -244.334 -26.499 -383.001s-12.5 -227.334 -12.5 -266.001c0 -58.667 9.5 -105.5 28.5 -140.5s50.667 -62 95 -81s94.5 -28.5 150.5 -28.5c49.333 0 96.666 8.66699 141.999 26c38.667 15.333 71.334 36 98.001 62
c28.667 28.667 52.667 65.667 72 111c14 33.333 24.667 76.333 32 129c4.66699 38 9.33398 106.333 14.001 205c5.33301 120 9 242 11 366l93 -1c20 0 48 0.333008 84 1c-9.33301 -120 -20.333 -302.333 -33 -547c-7.33301 -134.667 -12 -290 -14 -466zM414.998 1160
c54 96 96.001 173.667 126.001 233l111 -2c5.33301 0 40.666 0.666992 105.999 2c29.333 -64 68 -141.667 116 -233c-21.333 0.666992 -40 1 -56 1c-13.333 0 -31.333 -0.333008 -54 -1l-114 160l-125 -160c-16 0.666992 -33.667 1 -53 1
c-22.667 0 -41.667 -0.333008 -57 -1z" />
    <glyph glyph-name="udieresis" unicode="&#xfc;" horiz-adv-x="1223" 
d="M1067 0c-32.667 1.33301 -60.6689 2.00293 -84.002 2.00293c-26.667 0 -54.334 -0.666992 -83.001 -2l5 193c-16 -30 -29.833 -53.167 -41.5 -69.5s-26.167 -32.333 -43.5 -48s-35.166 -28.834 -53.499 -39.501s-39.833 -20.167 -64.5 -28.5s-53.5 -15.333 -86.5 -21
s-68.167 -8.5 -105.5 -8.5c-81.333 0 -150.833 12.333 -208.5 37s-101.334 59.667 -131.001 105s-44.5 107.333 -44.5 186c0 12 0.666992 32.333 2 61s3.33301 66 6 112l17 333l3 107c0.666992 24.667 1 56 1 94l92 -1c18.667 0 47.334 0.333008 86.001 1
c-9.33301 -116.667 -18.166 -244.334 -26.499 -383.001s-12.5 -227.334 -12.5 -266.001c0 -58.667 9.5 -105.5 28.5 -140.5s50.667 -62 95 -81s94.5 -28.5 150.5 -28.5c49.333 0 96.666 8.66699 141.999 26c38.667 15.333 71.334 36 98.001 62
c28.667 28.667 52.667 65.667 72 111c14 33.333 24.667 76.333 32 129c4.66699 38 9.33398 106.333 14.001 205c5.33301 120 9 242 11 366l93 -1c20 0 48 0.333008 84 1c-9.33301 -120 -20.333 -302.333 -33 -547c-7.33301 -134.667 -12 -290 -14 -466zM711.998 1212l6 129
c32 -0.666992 57.333 -1 76 -1s43.334 0.333008 74.001 1l-4 -129c-24.667 1.33301 -49.334 2 -74.001 2c-24 0 -50 -0.666992 -78 -2zM418.998 1212l4.99902 129c32.667 -0.666992 58.334 -1 77.001 -1s43.334 0.333008 74.001 1l-4 -129
c-24.667 1.33301 -49.334 2 -74.001 2c-24 0 -50 -0.666992 -78 -2z" />
    <glyph glyph-name="yacute" unicode="&#xfd;" horiz-adv-x="1004" 
d="M-53 -463c-4.66699 56.667 -10.334 104.669 -17.001 144.002c33.333 -16 64.333 -26.833 93 -32.5s53 -8.5 73 -8.5c26 0 51.333 4.66699 76 14s44.667 21.666 60 36.999s31.5 36.5 48.5 63.5s35 58.833 54 95.5s37.167 77.667 54.5 123l-213 607l-156 434
c48.667 -1.33301 81 -2 97 -2c18.667 0 49 0.666992 91 2c10.667 -46.667 19.667 -82.334 27 -107.001s23.333 -75 48 -151l151 -459c16.667 -52 33.334 -108 50.001 -168l113 276l209 489c6 14.667 11.833 29.834 17.5 45.501l26.5 74.5
c42.667 -1.33301 72.334 -2 89.001 -2c14 0 45 0.666992 93 2l-189 -415l-371 -825c-26 -55.333 -49.667 -97.333 -71 -126c-17.333 -22.667 -36 -42.334 -56 -59.001c-16 -14 -34 -26 -54 -36c-24.667 -12 -51.334 -21.333 -80.001 -28
c-31.333 -6.66699 -63.333 -10 -96 -10c-51.333 0 -107.333 7.33301 -168 22zM434 1145l92 262c32.667 -1.33301 66.334 -2 101.001 -2c31.333 0 65.333 0.666992 102 2c-44 -62 -101.667 -149.333 -173 -262c-18.667 1.33301 -39.334 2 -62.001 2
c-22 0 -42 -0.666992 -60 -2z" />
    <glyph glyph-name="thorn" unicode="&#xfe;" horiz-adv-x="1216" 
d="M102 -452l22.001 345.002l37 947c0.666992 10.667 1.33398 48 2.00098 112l7 413c31.333 -0.666992 61 -1 89 -1c29.333 0 59 0.333008 89 1c-10.667 -146.667 -17.334 -277.334 -20.001 -392.001c25.333 10.667 46.666 19 63.999 25s40 12 68 18s58.667 11 92 15
s67.333 6 102 6c70 0 136 -11.167 198 -33.5s114 -56.5 156 -102.5s73.333 -101.5 94 -166.5s31 -132.833 31 -203.5c0 -72.667 -10 -142.834 -30 -210.501s-50.5 -128.167 -91.5 -181.5s-90.5 -93.5 -148.5 -120.5s-122.667 -40.5 -194 -40.5
c-42.667 0 -83.667 5.16699 -123 15.5s-73.5 23.833 -102.5 40.5s-53.333 35.334 -73 56.001s-43.5 51.667 -71.5 93l-12 -396c-2.66699 -64.667 -4 -111.334 -4 -140.001v-99c-34 1.33301 -63.667 2 -89 2c-23.333 0 -54 -0.666992 -92 -2zM326.001 855.002l-6 -71.002
l-9 -239l-1 -71c0 -89.333 13.667 -159.166 41 -209.499s65.5 -90 114.5 -119s102.5 -43.5 160.5 -43.5c63.333 0 120.5 17 171.5 51s91 85 120 153s43.5 143.667 43.5 227c0 82 -15.167 152.833 -45.5 212.5s-70.833 102.334 -121.5 128.001s-107 38.5 -169 38.5
c-96 0 -195.667 -19 -299 -57z" />
    <glyph glyph-name="ydieresis" unicode="&#xff;" horiz-adv-x="1004" 
d="M-53 -463c-4.66699 56.667 -10.334 104.669 -17.001 144.002c33.333 -16 64.333 -26.833 93 -32.5s53 -8.5 73 -8.5c26 0 51.333 4.66699 76 14s44.667 21.666 60 36.999s31.5 36.5 48.5 63.5s35 58.833 54 95.5s37.167 77.667 54.5 123l-213 607l-156 434
c48.667 -1.33301 81 -2 97 -2c18.667 0 49 0.666992 91 2c10.667 -46.667 19.667 -82.334 27 -107.001s23.333 -75 48 -151l151 -459c16.667 -52 33.334 -108 50.001 -168l113 276l209 489c6 14.667 11.833 29.834 17.5 45.501l26.5 74.5
c42.667 -1.33301 72.334 -2 89.001 -2c14 0 45 0.666992 93 2l-189 -415l-371 -825c-26 -55.333 -49.667 -97.333 -71 -126c-17.333 -22.667 -36 -42.334 -56 -59.001c-16 -14 -34 -26 -54 -36c-24.667 -12 -51.334 -21.333 -80.001 -28
c-31.333 -6.66699 -63.333 -10 -96 -10c-51.333 0 -107.333 7.33301 -168 22zM600 1212l6 129c32 -0.666992 57.333 -1 76 -1s43.334 0.333008 74.001 1l-4 -129c-24.667 1.33301 -49.334 2 -74.001 2c-24 0 -50 -0.666992 -78 -2zM307 1212l4.99902 129
c32.667 -0.666992 58.334 -1 77.001 -1s43.334 0.333008 74.001 1l-4 -129c-24.667 1.33301 -49.334 2 -74.001 2c-24 0 -50 -0.666992 -78 -2z" />
    <glyph glyph-name="dotlessi" unicode="&#x131;" horiz-adv-x="461" 
d="M118 0l17 252.002l19 430l8 331l92 -1l90 1c-7.33301 -104 -14 -212.833 -20 -326.5s-10.833 -237.834 -14.5 -372.501s-5.5 -239.334 -5.5 -314.001c-42 1.33301 -72 2 -90 2c-16.667 0 -48.667 -0.666992 -96 -2z" />
    <glyph glyph-name="Lslash" unicode="&#x141;" horiz-adv-x="1008" 
d="M698 1037c-3.33301 -50.667 -5.00098 -105.666 -5.00098 -164.999c-40.667 -26.667 -155 -112.667 -343 -258c-4 -66.667 -10 -227 -18 -481l189 -1c142 0 241.833 0.5 299.5 1.5s113.5 3.16699 167.5 6.5c-5.33301 -55.333 -8.66602 -102 -9.99902 -140
c-152 1.33301 -285.667 2 -401 2l-447 -2l19 252l13 258c-28 -20.667 -57.5 -43.834 -88.5 -69.501l-69.5 -56.5c3.33301 37.333 5.33301 92 6 164c8.66699 6 62.334 45.667 161.001 119l8 226c3.33301 79.333 5.66602 159 6.99902 239l4 233c46 -0.666992 81 -1 105 -1
l93 1l-30 -599z" />
    <glyph glyph-name="lslash" unicode="&#x142;" horiz-adv-x="492" 
d="M17 456c5.33301 62.667 7.99805 118.666 7.99805 167.999l144 106l17 473l3 162l92 -1c20 0 50 0.333008 90 1c-9.33301 -133.333 -18.666 -312.333 -27.999 -537l152 123c-2.66699 -36 -4.5 -64.167 -5.5 -84.5s-1.5 -48.166 -1.5 -83.499l-153 -113l-22 -670
c-39.333 1.33301 -68.666 2 -87.999 2c-7.33301 0 -39 -0.666992 -95 -2c8 110.667 18 301 30 571z" />
    <glyph glyph-name="OE" unicode="&#x152;" horiz-adv-x="2111" 
d="M1971 143c-2.66699 -50 -4.00098 -97.666 -4.00098 -142.999c-182 0.666992 -371 1 -567 1c-103.333 0 -174.666 -0.333008 -213.999 -1s-91.333 -2.33398 -156 -5.00098l-156 -6c-40 -2 -70.667 -3 -92 -3c-72 0 -142.5 7.83301 -211.5 23.5s-132 40.5 -189 74.5
s-107.167 78.5 -150.5 133.5s-76.5 121.333 -99.5 199s-34.5 157.834 -34.5 240.501c0 84 11.667 166.167 35 246.5s56.5 151 99.5 212s95.667 111.667 158 152s131.833 69 208.5 86s152 25.5 226 25.5c31.333 0 102.166 -2.5 212.499 -7.5s258.833 -7.5 445.5 -7.5l544 1
c-4 -46.667 -6.66699 -93.334 -8 -140.001c-99.333 4.66699 -200 7 -302 7l-318 -1l-71 1l-20 -475c124.667 -1.33301 213.667 -2 267 -2c153.333 0 272.333 3 357 9c-3.33301 -42 -5.66602 -88.333 -6.99902 -139c-96.667 2 -175 3 -235 3c-24 0 -69 -0.666992 -135 -2
l-254 -3l-21 -489l96 -2c206 0 337.833 0.666992 395.5 2s124.5 4.33301 200.5 9zM1102 132.001l45.998 1101c-152 10 -253.333 15 -304 15c-76.667 0 -147.667 -9.66699 -213 -29s-124.666 -54.5 -177.999 -105.5s-95.166 -118 -125.499 -201s-45.5 -168.5 -45.5 -256.5
c0 -78.667 12.167 -153.5 36.5 -224.5s61.666 -131.5 111.999 -181.5s107.333 -84.667 171 -104s133.834 -29 210.501 -29c32 0 64 1 96 3z" />
    <glyph glyph-name="oe" unicode="&#x153;" horiz-adv-x="1934" 
d="M1779 155c-8 -40.667 -15.335 -86.335 -22.002 -137.002c-117.333 -26.667 -218.666 -40 -303.999 -40c-42 0 -82 4 -120 12s-73.667 19.333 -107 34s-63.333 33.5 -90 56.5s-48 46.833 -64 71.5s-33.333 58 -52 100c-26 -50.667 -48.833 -88.834 -68.5 -114.501
s-41.5 -48.167 -65.5 -67.5s-51.5 -35.666 -82.5 -48.999s-66 -23.833 -105 -31.5s-79.5 -11.5 -121.5 -11.5c-73.333 0 -141.333 12 -204 36s-116.667 59.667 -162 107s-78 102.333 -98 165s-30 128.667 -30 198c0 102.667 21.333 198 64 286s105 154.333 187 199
s173 67 273 67c35.333 0 70.5 -3.16699 105.5 -9.5s68.167 -15.5 99.5 -27.5s58.166 -25.333 80.499 -40s42 -30.667 59 -48s31.833 -36.166 44.5 -56.499s27 -48.833 43 -85.5c20 40 38.167 71.833 54.5 95.5s36.833 46.5 61.5 68.5s52.834 40.5 84.501 55.5
s66 26.667 103 35s75.5 12.5 115.5 12.5c74.667 0 143.834 -14.167 207.501 -42.5s114.667 -74.666 153 -138.999s57.5 -140.833 57.5 -229.5c0 -24.667 -1.66699 -48.667 -5 -72l-754 -1c-2 -34 -3 -63.333 -3 -88c0 -63.333 14 -124.333 42 -183
s68.5 -104.834 121.5 -138.501s118.5 -50.5 196.5 -50.5c38 0 77.667 3.83301 119 11.5s103.333 24.834 186 51.501zM1126 632.999l587.001 2.00098c0 76 -12 134.167 -36 174.5s-56.333 69.666 -97 87.999s-84.334 27.5 -131.001 27.5c-46 0 -88.667 -7.83301 -128 -23.5
s-71.833 -36.167 -97.5 -61.5s-45.167 -52.333 -58.5 -81s-26.333 -70.667 -39 -126zM619.999 909c-71.333 0 -136.002 -16.999 -194.002 -50.999s-101.167 -83.333 -129.5 -148s-42.5 -140.667 -42.5 -228c0 -52.667 6.16699 -102 18.5 -148s34.333 -87 66 -123
s69.334 -63.167 113.001 -81.5s91.5 -27.5 143.5 -27.5c69.333 0 132 16.667 188 50s98.167 86.666 126.5 159.999s42.5 149.333 42.5 228c0 78 -14.667 146.333 -44 205s-69.166 100.667 -119.499 126s-106.5 38 -168.5 38z" />
    <glyph glyph-name="Scaron" unicode="&#x160;" horiz-adv-x="974" 
d="M79 36c-2.66699 63.333 -7.00195 118.333 -13.002 165c70.667 -33.333 134.167 -56.833 190.5 -70.5s110.5 -20.5 162.5 -20.5c50 0 96.5 8.5 139.5 25.5s75.333 41 97 72s32.5 66.5 32.5 106.5c0 23.333 -3.66699 45.166 -11 65.499s-19.166 41 -35.499 62
s-44.666 49.333 -84.999 85l-171.5 147.5l-74 63c-28 24 -53.333 47.833 -76 71.5s-41.667 46.334 -57 68.001s-27.166 41.334 -35.499 59.001s-14.833 37.334 -19.5 59.001s-7 43.834 -7 66.501c0 57.333 15.667 111 47 161s78.5 90 141.5 120s146.167 45 249.5 45
c74 0 165 -10 273 -30c1.33301 -42.667 6 -95 14 -157c-102 36 -194.667 54 -278 54c-57.333 0 -105.333 -9.5 -144 -28.5s-68 -43.333 -88 -73s-30 -60.167 -30 -91.5c0 -18.667 2.66699 -36.834 8 -54.501s13.333 -34.5 24 -50.5c15.333 -23.333 34.333 -46.833 57 -70.5
s54 -52.5 94 -86.5l114.5 -94c66.333 -54.667 114.666 -97 144.999 -127s54.5 -57.833 72.5 -83.5s32 -53.334 42 -83.001s15 -61.834 15 -96.501c0 -53.333 -11.5 -102.5 -34.5 -147.5s-56 -81.833 -99 -110.5s-90.833 -49 -143.5 -61s-107.667 -18 -165 -18
c-46 0 -93.5 3.5 -142.5 10.5s-118.833 22.833 -209.5 47.5zM787.998 1742c-54 -96 -96 -173.667 -126 -233c-40 0.666992 -77 1 -111 1c-24.667 0 -59.667 -0.333008 -105 -1l-117 233c21.333 -1.33301 40 -2 56 -2c14 0 32.333 0.666992 55 2l113 -161l125 161
c16 -1.33301 34 -2 54 -2c22 0 40.667 0.666992 56 2z" />
    <glyph glyph-name="scaron" unicode="&#x161;" horiz-adv-x="813" 
d="M66 19l-5.99316 73.002c0 8 -2.66699 33.333 -8 76c102.667 -44.667 197.334 -67 284.001 -67c45.333 0 83.666 6 114.999 18s54.833 29.833 70.5 53.5s23.5 48.167 23.5 73.5c0 14 -2.16699 28 -6.5 42s-10.833 27.5 -19.5 40.5s-21.5 27.333 -38.5 43
s-52.333 45.167 -106 88.5s-94.334 77.166 -122.001 101.499s-51.334 49.333 -71.001 75s-34.167 51.5 -43.5 77.5s-14 52.333 -14 79c0 42.667 13.5 84 40.5 124s66 69.833 117 89.5s110.833 29.5 179.5 29.5c76.667 0 161 -9 253 -27c2.66699 -52 6 -99.667 10 -143
c-74.667 30.667 -148.334 46 -221.001 46c-39.333 0 -75.833 -5.16699 -109.5 -15.5s-58.334 -25.833 -74.001 -46.5s-23.5 -43.334 -23.5 -68.001c0 -16 2.66699 -31.333 8 -46s14.833 -30.5 28.5 -47.5s30.167 -33.833 49.5 -50.5s57.833 -48 115.5 -94
s97.167 -80 118.5 -102s39.666 -44.667 54.999 -68s26.5 -46.5 33.5 -69.5s10.5 -46.5 10.5 -70.5c0 -46.667 -13.833 -90 -41.5 -130s-68.834 -71 -123.501 -93s-116 -33 -184 -33c-28.667 0 -62.334 1.83301 -101.001 5.5s-71.5 8 -98.5 13s-60.5 12.5 -100.5 22.5z
M695.007 1393c-54 -96 -96 -173.667 -126 -233c-40 0.666992 -77 1 -111 1c-24.667 0 -59.667 -0.333008 -105 -1l-117 233c21.333 -1.33301 40 -2 56 -2c14 0 32.333 0.666992 55 2l113 -161l125 161c16 -1.33301 34 -2 54 -2c22 0 40.667 0.666992 56 2z" />
    <glyph glyph-name="Ydieresis" unicode="&#x178;" horiz-adv-x="1089" 
d="M402 0c17.333 197.333 30.667 396.667 40 598l-439 767l107 -1c21.333 0 55 0.333008 101 1c31.333 -66.667 80 -158.5 146 -275.5l187 -344.5l349 544l45 76c44 -0.666992 79.333 -1 106 -1l100 1l-399 -590l-125 -189l-20 -456l-2 -130c-47.333 1.33301 -80 2 -98 2
s-50.667 -0.666992 -98 -2zM659.001 1562l6 129c32 -0.666992 57.333 -1 76 -1s43.334 0.333008 74.001 1l-4 -129c-24.667 1.33301 -49.334 2 -74.001 2c-24 0 -50 -0.666992 -78 -2zM366.001 1562l4.99902 129c32.667 -0.666992 58.334 -1 77.001 -1
s43.334 0.333008 74.001 1l-4 -129c-24.667 1.33301 -49.334 2 -74.001 2c-24 0 -50 -0.666992 -78 -2z" />
    <glyph glyph-name="Zcaron" unicode="&#x17d;" horiz-adv-x="1178" 
d="M50 0c4.66699 64.667 7 116.333 7 155l45 55c0.666992 0.666992 32 41 94 121l545 699l156 205l-65 2h-312c-50.667 0 -107 -0.833008 -169 -2.5s-133.333 -4.83398 -214 -9.50098c3.33301 34.667 5 71 5 109c0 8 -0.333008 18.333 -1 31
c137.333 -0.666992 307 -1 509 -1h192l274 1c-3.33301 -41.333 -5.66602 -92.666 -6.99902 -153.999l-64 -77l-110 -142l-141 -186l-245 -318l-279 -356c22.667 -0.666992 163 -1 421 -1c146 0 268 3.33301 366 10c-4 -53.333 -6.33301 -100.333 -7 -141
c-146.667 1.33301 -305.334 2 -476.001 2l-345 -1zM866 1742c-54 -96 -96 -173.667 -126 -233c-40 0.666992 -77 1 -111 1c-24.667 0 -59.667 -0.333008 -105 -1l-117 233c21.333 -1.33301 40 -2 56 -2c14 0 32.333 0.666992 55 2l113 -161l125 161c16 -1.33301 34 -2 54 -2
c22 0 40.667 0.666992 56 2z" />
    <glyph glyph-name="zcaron" unicode="&#x17e;" horiz-adv-x="909" 
d="M43 0c2.66699 42 4.33301 91.999 5 149.999l52 61c10.667 12 20.667 24 30 36l520 645c-61.333 0.666992 -126 1 -194 1c-107.333 0 -222 -3.66699 -344 -11c3.33301 44.667 5 88.334 5 131.001c110 -0.666992 234.667 -1 374 -1c126 0 242 0.333008 348 1
c-2 -25.333 -3.33301 -52.333 -4 -81l-3 -75l-73 -88l-525 -645c64.667 -2.66699 127.667 -4 189 -4c160.667 0 286.334 3.33301 377.001 10c-4.66699 -36 -7.66699 -79.333 -9 -130c-109.333 1.33301 -229 2 -359 2c-160.667 0 -290.334 -0.666992 -389.001 -2z
M710.999 1393c-54 -96 -96 -173.667 -126 -233c-40 0.666992 -77 1 -111 1c-24.667 0 -59.667 -0.333008 -105 -1l-117 233c21.333 -1.33301 40 -2 56 -2c14 0 32.333 0.666992 55 2l113 -161l125 161c16 -1.33301 34 -2 54 -2c22 0 40.667 0.666992 56 2z" />
    <glyph glyph-name="florin" unicode="&#x192;" 
d="M712 1093h56.002c66 0 137 1.33301 213 4c-10 -37.333 -18.667 -77.666 -26 -120.999c-66.667 2.66699 -155.667 4 -267 4l-144 -783c-13.333 -70.667 -25.166 -127.834 -35.499 -171.501s-21.166 -80.167 -32.499 -109.5s-25.166 -55.333 -41.499 -78
s-36.5 -42 -60.5 -58s-53.5 -28.833 -88.5 -38.5s-71.833 -14.5 -110.5 -14.5c-57.333 0 -116.333 9 -177 27c10 38.667 17.333 77 22 115c50 -16.667 94.667 -25 134 -25c37.333 0 69.666 7 96.999 21s49.166 34.167 65.499 60.5s29.5 60.833 39.5 103.5
c11.333 48.667 24.666 116.334 39.999 203.001l133 747c-48.667 0 -93.334 -1 -134.001 -3c10 41.333 18 81.666 24 120.999c56 -2 100.333 -3 133 -3c16.667 100 32.667 171.167 48 213.5s37.833 78.5 67.5 108.5s65.667 51.833 108 65.5s88.166 20.5 137.499 20.5
c56.667 0 120.667 -9.66699 192 -29c-8 -35.333 -13.667 -74 -17 -116c-58.667 17.333 -110 26 -154 26c-34 0 -63.667 -5.5 -89 -16.5s-45.833 -27.167 -61.5 -48.5s-28 -44.833 -37 -70.5s-20.5 -77.167 -34.5 -154.5z" />
    <glyph glyph-name="circumflex" unicode="&#x2c6;" horiz-adv-x="1024" 
d="M314 1160c54 96 96.001 173.667 126.001 233l111 -2c5.33301 0 40.666 0.666992 105.999 2c29.333 -64 68 -141.667 116 -233c-21.333 0.666992 -40 1 -56 1c-13.333 0 -31.333 -0.333008 -54 -1l-114 160l-125 -160c-16 0.666992 -33.667 1 -53 1
c-22.667 0 -41.667 -0.333008 -57 -1z" />
    <glyph glyph-name="caron" unicode="&#x2c7;" horiz-adv-x="1024" 
d="M769 1393c-54 -96 -96 -173.667 -126 -233c-40 0.666992 -77 1 -111 1c-24.667 0 -59.667 -0.333008 -105 -1l-117 233c21.333 -1.33301 40 -2 56 -2c14 0 32.333 0.666992 55 2l113 -161l125 161c16 -1.33301 34 -2 54 -2c22 0 40.667 0.666992 56 2z" />
    <glyph glyph-name="macron" unicode="&#x2c9;" horiz-adv-x="1024" 
d="M286 1220c3.33301 38.667 5 70.667 5 96c54 -2.66699 140.333 -4 259 -4c116.667 0 200.667 1.33301 252 4c-1.33301 -19.333 -2.5 -34.833 -3.5 -46.5s-1.83301 -28.167 -2.5 -49.5l-253 2z" />
    <glyph glyph-name="breve" unicode="&#x2d8;" horiz-adv-x="1024" 
d="M316 1380c17.333 -1.33301 30.9941 -1.99902 40.9941 -1.99902c10.667 0 24.334 0.666992 41.001 2c6.66699 -24 13.667 -42 21 -54s16.833 -22.333 28.5 -31s26.334 -15.667 44.001 -21s36.834 -8 57.501 -8s39.834 2.66699 57.501 8s32.334 12.333 44.001 21
s21.334 19.167 29.001 31.5s14.167 30.166 19.5 53.499c17.333 -1.33301 31 -2 41 -2c10.667 0 24.667 0.666992 42 2c-1.33301 -45.333 -13 -84.5 -35 -117.5s-50 -56.333 -84 -70s-72 -20.5 -114 -20.5s-80.167 7 -114.5 21s-62.5 37.5 -84.5 70.5
s-33.333 71.833 -34 116.5z" />
    <glyph glyph-name="dotaccent" unicode="&#x2d9;" horiz-adv-x="1024" 
d="M459 1209l6.00098 136c37.333 -1.33301 64 -2 80 -2s42 0.666992 78 2l-5 -136c-28.667 1.33301 -54.334 2 -77.001 2c-20.667 0 -48 -0.666992 -82 -2z" />
    <glyph glyph-name="ring" unicode="&#x2da;" horiz-adv-x="1024" 
d="M735 1322c0 -32.667 -8.33301 -63.334 -25 -92.001s-39.334 -51.167 -68.001 -67.5s-59.334 -24.5 -92.001 -24.5s-63.334 8.16699 -92.001 24.5s-51.167 38.833 -67.5 67.5s-24.5 59.334 -24.5 92.001s8.16699 63.334 24.5 92.001s38.833 51.334 67.5 68.001
s59.334 25 92.001 25s63.334 -8.33301 92.001 -25s51.334 -39.334 68.001 -68.001s25 -59.334 25 -92.001zM653 1321c0 28 -10 52 -30 72s-44.333 30 -73 30c-28 0 -52.167 -10 -72.5 -30s-30.5 -44 -30.5 -72s10.167 -52.167 30.5 -72.5s44.5 -30.5 72.5 -30.5
c28.667 0 53 10.167 73 30.5s30 44.5 30 72.5z" />
    <glyph glyph-name="ogonek" unicode="&#x2db;" horiz-adv-x="1024" 
d="M692 8h99.999c-32 -25.333 -53.833 -48.5 -65.5 -69.5s-17.5 -41.167 -17.5 -60.5c0 -21.333 7.5 -40 22.5 -56s37.167 -24 66.5 -24c32 0 63.333 4.66699 94 14c-6 -20 -9.66699 -33.333 -11 -40s-3.66602 -22.667 -6.99902 -48c-38 -10 -73.667 -15 -107 -15
c-52 0 -92.167 14.333 -120.5 43s-42.5 63 -42.5 103c0 24 6 48 18 72s35.333 51 70 81z" />
    <glyph glyph-name="tilde" unicode="&#x2dc;" horiz-adv-x="1024" 
d="M293 1174c0 52 4.5 93.333 13.5 124s22.5 52.334 40.5 65.001s37.667 19 59 19c12 0 24.833 -2.16699 38.5 -6.5s28.167 -11.166 43.5 -20.499s45.333 -29.666 90 -60.999c16.667 -11.333 29.5 -19.333 38.5 -24s18.167 -7 27.5 -7c8 0 15.5 1.5 22.5 4.5
s13.167 8.16699 18.5 15.5s9.16602 16.833 11.499 28.5s4.16602 30.167 5.49902 55.5c18 -0.666992 33 -1 45 -1c12.667 0 28 0.333008 46 1c-0.666992 -46.667 -5 -83.834 -13 -111.501s-20.5 -50.334 -37.5 -68.001s-39.5 -26.5 -67.5 -26.5
c-11.333 0 -23 1.83301 -35 5.5s-25.333 10 -40 19s-38 24.5 -70 46.5s-54 35.833 -66 41.5s-22.667 8.5 -32 8.5c-7.33301 0 -13.833 -1.16699 -19.5 -3.5s-10.667 -6.33301 -15 -12s-7.66602 -12.334 -9.99902 -20.001s-4 -16.667 -5 -27s-1.83301 -25.5 -2.5 -45.5
c-20 1.33301 -34.667 2 -44 2s-23.666 -0.666992 -42.999 -2z" />
    <glyph glyph-name="hungarumlaut" unicode="&#x2dd;" horiz-adv-x="1024" 
d="M597 1152l86 251.001c36.667 -0.666992 66.667 -1 90 -1c24.667 0 55 0.333008 91 1c-40 -56.667 -94 -140.334 -162 -251.001c-13.333 1.33301 -31.333 2 -54 2c-18.667 0 -35.667 -0.666992 -51 -2zM337 1152l60.001 175l26 76c37.333 -0.666992 67.333 -1 90 -1
c25.333 0 55.666 0.333008 90.999 1c-46.667 -67.333 -100.667 -151 -162 -251c-13.333 1.33301 -31.333 2 -54 2c-18.667 0 -35.667 -0.666992 -51 -2z" />
    <glyph glyph-name="pi" unicode="&#x3c0;" horiz-adv-x="1150" 
d="M194 0v860h-149v120h1059v-120h-147v-860h-146v860h-471v-860h-146z" />
    <glyph glyph-name="endash" unicode="&#x2013;" 
d="M85 461c5.33301 49.333 8 93.667 8 133c190 -3.33301 353.333 -5 490 -5c133.333 0 297 1.66699 491 5c-5.33301 -48.667 -8 -93 -8 -133c-152 3.33301 -315.333 5 -490 5c-172 0 -335.667 -1.66699 -491 -5z" />
    <glyph glyph-name="emdash" unicode="&#x2014;" horiz-adv-x="1486" 
d="M-3 461c4 53.333 6.33301 97.667 7 133c266.667 -3.33301 514 -5 742 -5c198 0 445.667 1.66699 743 5c-4 -56.667 -6.33301 -101 -7 -133c-220 3.33301 -467.333 5 -742 5c-272 0 -519.667 -1.66699 -743 -5z" />
    <glyph glyph-name="quoteleft" unicode="&#x2018;" horiz-adv-x="421" 
d="M96 1030l64.999 107.5l57 93.5l77 134l49 -1c11.333 0 27.333 0.333008 48 1c-51.333 -146 -88.333 -257.667 -111 -335c-38 1.33301 -67.333 2 -88 2c-25.333 0 -57.666 -0.666992 -96.999 -2z" />
    <glyph glyph-name="quoteright" unicode="&#x2019;" horiz-adv-x="431" 
d="M396 1365l-64.999 -107.001l-57 -94l-77 -134c-24 1.33301 -40.333 2 -49 2c-11.333 0 -27.333 -0.666992 -48 -2c48 136.667 85 248.334 111 335.001c38 -0.666992 67.333 -1 88 -1c25.333 0 57.666 0.333008 96.999 1z" />
    <glyph glyph-name="quotesinglbase" unicode="&#x201a;" horiz-adv-x="431" 
d="M316 147l-65 -108l-57 -94l-77 -134c-24 1.33301 -40.333 2 -49 2c-11.333 0 -27.333 -0.666992 -48 -2c48 137.333 85 249.333 111 336c42 -1.33301 71.333 -2 88 -2c20.667 0 53 0.666992 97 2z" />
    <glyph glyph-name="quotedblleft" unicode="&#x201c;" horiz-adv-x="730" 
d="M404 1030l65.001 107.5c23.333 37 41.666 67.167 54.999 90.5l79 137l49 -1c11.333 0 27.333 0.333008 48 1c-49.333 -140 -86.333 -251.667 -111 -335c-38 1.33301 -67.333 2 -88 2c-24.667 0 -57 -0.666992 -97 -2zM96.001 1030l64.999 107.5l57 93.5l77 134l49 -1
c11.333 0 27.333 0.333008 48 1c-51.333 -146 -88.333 -257.667 -111 -335c-38 1.33301 -67.333 2 -88 2c-25.333 0 -57.666 -0.666992 -96.999 -2z" />
    <glyph glyph-name="quotedblright" unicode="&#x201d;" horiz-adv-x="739" 
d="M396 1365l-64.999 -107.001l-57 -94l-77 -134c-24 1.33301 -40.333 2 -49 2c-11.333 0 -27.333 -0.666992 -48 -2c48 136.667 85 248.334 111 335.001c38 -0.666992 67.333 -1 88 -1c25.333 0 57.666 0.333008 96.999 1zM704.001 1365l-64.999 -107l-57 -94l-77 -134
c-24 1.33301 -40.333 2 -49 2c-11.333 0 -27.333 -0.666992 -48 -2c51.333 146 88.333 257.667 111 335c38 -0.666992 67.333 -1 88 -1c25.333 0 57.666 0.333008 96.999 1z" />
    <glyph glyph-name="quotedblbase" unicode="&#x201e;" horiz-adv-x="723" 
d="M624 147c-18.667 -32.667 -40 -68 -64 -106l-52 -85l-83 -145c-24 1.33301 -40.333 2 -49 2c-11.333 0 -27.333 -0.666992 -48 -2c51.333 146.667 88.333 258.667 111 336c42 -1.33301 71.333 -2 88 -2c20.667 0 53 0.666992 97 2zM316 147l-65 -108l-57 -94l-77 -134
c-24 1.33301 -40.333 2 -49 2c-11.333 0 -27.333 -0.666992 -48 -2c48 137.333 85 249.333 111 336c42 -1.33301 71.333 -2 88 -2c20.667 0 53 0.666992 97 2z" />
    <glyph glyph-name="dagger" unicode="&#x2020;" horiz-adv-x="1101" 
d="M654 900l175 1c13.333 0 81.666 1.33301 204.999 4c-3.33301 -35.333 -5.66602 -80.333 -6.99902 -135c-146 3.33301 -272.667 5 -380 5l-46 -1226c-26.667 1.33301 -54.334 2 -83.001 2s-56 -0.666992 -82 -2l49 1226l-182 -1c-19.333 -0.666992 -86.666 -2 -201.999 -4
c4 34.667 6.33301 79.667 7 135l204 -4l178 -1l17 465c23.333 -0.666992 51 -1 83 -1c32.667 0 60.667 0.333008 84 1z" />
    <glyph glyph-name="daggerdbl" unicode="&#x2021;" horiz-adv-x="1101" 
d="M654 900l175 1c13.333 0 82 1.33301 206 4c-5.33301 -46.667 -8 -91.667 -8 -135c-146.667 3.33301 -273 5 -379 5l-25 -617l181 1c13.333 0 81.666 1.33301 204.999 4c-3.33301 -35.333 -5.66602 -80.333 -6.99902 -135l-205 4l-179 1l-17 -484
c-26.667 1.33301 -54 2 -82 2c-29.333 0 -57 -0.666992 -83 -2l20 484l-186 -1l-194 -4c4 34.667 6.33301 79.667 7 135l204 -4h175l23 616l-183 -1c-19.333 -0.666992 -86.333 -2 -201 -4c4.66699 50.667 7 95.667 7 135l204 -4l178 -1l17 465
c24 -0.666992 51.667 -1 83 -1c32.667 0 60.667 0.333008 84 1c-3.33301 -54.667 -10 -209.667 -20 -465z" />
    <glyph glyph-name="bullet" unicode="&#x2022;" horiz-adv-x="1370" 
d="M966 696c0 -50.667 -12.499 -98.3359 -37.499 -143.003s-59.5 -79.667 -103.5 -105s-90.667 -38 -140 -38c-50 0 -96.833 12.833 -140.5 38.5s-78.167 60.834 -103.5 105.501s-38 92 -38 142c0 50.667 12.5 98.167 37.5 142.5s59.5 79.333 103.5 105
s91.667 38.5 143 38.5c48.667 0 94.667 -12.667 138 -38s77.666 -60.166 102.999 -104.499s38 -92.166 38 -143.499z" />
    <glyph glyph-name="ellipsis" unicode="&#x2026;" horiz-adv-x="1376" 
d="M570 0c2 36.667 3.50098 70.165 4.50098 100.498s2.16699 58.5 3.5 84.5l102 -2c15.333 0 46 0.666992 92 2c-3.33301 -41.333 -5.33301 -73.166 -6 -95.499s-2 -52.166 -4 -89.499c-42.667 1.33301 -73.334 2 -92.001 2c-16.667 0 -50 -0.666992 -100 -2z
M113.001 -0.00195312l8.00098 185l102 -2c15.333 0 46 0.666992 92 2c-2.66699 -28.667 -4.33398 -54 -5.00098 -76l-5 -109c-43.333 1.33301 -74 2 -92 2c-16.667 0 -50 -0.666992 -100 -2zM1027 -0.00195312l9 185l101 -2c15.333 0 46 0.666992 92 2l-10 -185
c-42.667 1.33301 -73 2 -91 2c-17.333 0 -51 -0.666992 -101 -2z" />
    <glyph glyph-name="perthousand" unicode="&#x2030;" horiz-adv-x="2373" 
d="M383 1380c62.667 0 115 -16 157 -48s73.667 -78 95 -138s32 -130.333 32 -211c0 -93.333 -13.333 -179.833 -40 -259.5s-63.667 -136.667 -111 -171s-103.333 -51.5 -168 -51.5c-62 0 -114.833 15.667 -158.5 47s-76 76.833 -97 136.5s-31.5 126.167 -31.5 199.5
c0 96.667 13.5 186.167 40.5 268.5s65.333 140.833 115 175.5s105.167 52 166.5 52zM380 1285c-39.333 0 -74.666 -15.5 -105.999 -46.5s-55 -77.833 -71 -140.5s-24 -135 -24 -217c0 -63.333 6.66699 -115.5 20 -156.5s33.166 -72.833 59.499 -95.5s56.833 -34 91.5 -34
c64 0 112.833 36.667 146.5 110s50.5 169 50.5 287c0 68.667 -7 123.5 -21 164.5s-33.5 72.667 -58.5 95s-54.167 33.5 -87.5 33.5zM357 0l521 864l192 322l103 179c20 -0.666992 40.333 -1 61 -1s40.667 0.333008 60 1l-249 -409l-468 -786l-96 -170
c-19.333 1.33301 -39 2 -59 2c-19.333 0 -41 -0.666992 -65 -2zM1305 864c92 0 162 -34.835 210 -104.502s72 -165.167 72 -286.5c0 -63.333 -6.33301 -126.166 -19 -188.499s-32.334 -117.166 -59.001 -164.499s-60.667 -81.5 -102 -102.5s-87.666 -31.5 -138.999 -31.5
c-62.667 0 -115.167 15 -157.5 45s-74.333 74.167 -96 132.5s-32.5 126.833 -32.5 205.5c0 96.667 13.5 186 40.5 268s65.333 140.333 115 175s105.5 52 167.5 52zM1301 768.998c-40.667 0 -76.499 -16.001 -107.499 -48.001s-54.167 -78.833 -69.5 -140.5
s-23 -133.167 -23 -214.5c0 -66 6.66699 -119.167 20 -159.5s33.166 -71.666 59.499 -93.999s56.5 -33.5 90.5 -33.5c64 0 112.667 37 146 111s50 169.667 50 287c0 66.667 -6.66699 120.667 -20 162s-32.5 73.333 -57.5 96s-54.5 34 -88.5 34zM2038 863.997
c92.667 0 162.999 -34.835 210.999 -104.502s72 -165.167 72 -286.5c0 -63.333 -6.5 -126.166 -19.5 -188.499s-32.833 -117.166 -59.5 -164.499s-60.667 -81.5 -102 -102.5s-87.666 -31.5 -139 -31.5c-62.667 0 -115.167 15 -157.5 45s-74.333 74.167 -96 132.5
s-32.5 126.833 -32.5 205.5c0 63.333 6.16699 126 18.5 188s31.833 117 58.5 165s61.834 83.667 105.501 107s90.5 35 140.5 35zM2034 768.995c-40.667 0 -76.499 -15.833 -107.499 -47.5s-54.167 -78.667 -69.5 -141s-23 -133.833 -23 -214.5
c0 -66 6.66699 -119.333 20 -160s33.166 -72 59.499 -94s56.5 -33 90.5 -33c64.667 0 113.667 37.333 147 112s50 169.667 50 285c0 98 -15.333 171.333 -46 220s-71 73 -121 73z" />
    <glyph glyph-name="quilsinglleft" unicode="&#x2039;" horiz-adv-x="558" 
d="M429 880l-92.001 -197c-24 -50.667 -47.333 -103 -70 -157c30 -86 53 -149.333 69 -190l61 -160c-23.333 0.666992 -44 1 -62 1s-38 -0.333008 -60 -1l-24 53l-55 110l-94 187c50.667 82 117.667 200 201 354c22 -1.33301 42.333 -2 61 -2
c20.667 0 42.334 0.666992 65.001 2z" />
    <glyph glyph-name="quilsinglright" unicode="&#x203a;" horiz-adv-x="560" 
d="M139 880c23.333 -1.33301 44.668 -2 64.001 -2c20 0 40.667 0.666992 62 2c72 -162 127.333 -280 166 -354l-207 -350c-22.667 0.666992 -42.334 1 -59.001 1c-19.333 0 -40.333 -0.333008 -63 -1l80 165c16 33.333 44 95 84 185c-19.333 59.333 -39 116 -59 170z" />
    <glyph glyph-name="Euro" unicode="&#x20ac;" horiz-adv-x="1202" 
d="M1163 1204c-122 38.667 -226.334 58.001 -313.001 58.001c-134.667 0 -246.667 -34.167 -336 -102.5s-150 -166.833 -182 -295.5h739l-24 -127h-736c-1.33301 -14.667 -2 -40.667 -2 -78v-30h717l-25 -127h-679c48.667 -265.333 206.334 -398 473.001 -398
c102 0 218.667 20.667 350 62l-25 -148c-135.333 -27.333 -246 -41 -332 -41c-184 0 -331.833 44.667 -443.5 134s-180.167 219.666 -205.5 390.999h-116l26 127h80v16c0 22 1.33301 52.667 4 92h-110l26 127h101c34.667 172 111 302.5 229 391.5s272.333 133.5 463 133.5
c90 0 193.667 -12.333 311 -37z" />
    <glyph glyph-name="trademark" unicode="&#x2122;" horiz-adv-x="1655" 
d="M695 587l11.9971 99.9971c2.66699 24.667 7.33398 76.334 14.001 155.001l39 523c28.667 -1.33301 57.334 -2 86.001 -2c25.333 0 51.333 0.666992 78 2c8.66699 -31.333 15.334 -54.666 20.001 -69.999s12.667 -40 24 -74l166 -481l72 165l158 357
c5.33301 12 10.5 24.5 15.5 37.5l24.5 65.5c24.667 -1.33301 52.667 -2 84 -2c28.667 0 56 0.666992 82 2l-8 -316c-1.33301 -84 -2 -144.667 -2 -182c0 -149.333 0.666992 -242.666 2 -279.999l-60 1c-16.667 0 -37.334 -0.333008 -62.001 -1l2 36
c2 32.667 3.66699 97.667 5 195l4 181c0.666992 23.333 1.33398 63 2.00098 119l1 102l-91 -212l-51 -118l-127 -303c-26 0.666992 -45.667 1 -59 1c-16 0 -36.333 -0.333008 -61 -1l-213 629c-2.66699 -24.667 -7 -81.667 -13 -171l-18 -245
c-5.33301 -74.667 -8.33301 -145.667 -9 -213l-58 1c-12 0 -31.667 -0.333008 -59 -1zM253.997 586.997l16.999 270l15 415c-73.333 0 -155.333 -1.66699 -246 -5c2.66699 28.667 4 61 4 97c128.667 -0.666992 236.667 -1 324 -1l290 1l-3 -46
c-0.666992 -13.333 -1 -30 -1 -50c-55.333 3.33301 -124.666 5 -207.999 5h-36l-23 -573v-113l-65 1z" />
    <glyph glyph-name="Omega" unicode="&#x2126;" horiz-adv-x="1370" 
d="M60 0l0.00390625 133.999h374c-40.667 23.333 -72.334 43.333 -95.001 60c-38.667 29.333 -76.334 64.166 -113.001 104.499s-67.5 83.833 -92.5 130.5s-44 96.5 -57 149.5s-19.5 108.167 -19.5 165.5c0 120.667 27.167 229.834 81.5 327.501
s129.166 176.667 224.499 237s202.666 90.5 321.999 90.5c117.333 0 223.833 -29.667 319.5 -89s171 -138.333 226 -237s82.5 -208.334 82.5 -329.001c0 -57.333 -6.5 -112.666 -19.5 -165.999s-32 -103.166 -57 -149.499s-55.667 -89.5 -92 -129.5
s-73.5 -74.667 -111.5 -104c-22.667 -16.667 -54.667 -37 -96 -61h373v-134h-533v124c34 18.667 63.667 36.5 89 53.5s53.5 39.833 84.5 68.5s60.333 62.5 88 101.5s50.334 78.667 68.001 119s30.5 81.666 38.5 123.999s12 85.833 12 130.5
c0 103.333 -20.333 194.333 -61 273s-96.334 143.334 -167.001 194.001s-152 76 -244 76c-128.667 0 -239.5 -51.833 -332.5 -155.5s-139.5 -232.5 -139.5 -386.5c0 -125.333 31.667 -239.5 95 -342.5s158.333 -188.167 285 -255.5v-124h-533z" />
    <glyph glyph-name="partialdiff" unicode="&#x2202;" horiz-adv-x="1028" 
d="M177 1248l18.999 125.003c58.667 -8 107.667 -17 147 -27c62 -15.333 120.167 -36.333 174.5 -63s105.666 -60.834 153.999 -102.501s91.5 -89.834 129.5 -144.501s69.167 -114 93.5 -178s41.333 -127.5 51 -190.5s14.5 -121.5 14.5 -175.5
c0 -85.333 -10.333 -157.5 -31 -216.5s-52 -111.333 -94 -157s-90.5 -80.667 -145.5 -105s-112.833 -36.5 -173.5 -36.5c-79.333 0 -154 20.667 -224 62s-124.833 97.333 -164.5 168s-59.5 147.667 -59.5 231c0 80 19.167 156.167 57.5 228.5s90.5 127.833 156.5 166.5
s136 58 210 58c28 0 55.833 -2.83301 83.5 -8.5s53.834 -13.834 78.501 -24.501s45.834 -23.167 63.501 -37.5s43.834 -42.5 78.501 -84.5l-68 161c-5.33301 12 -16 29.333 -32 52c-23.333 34 -45 62 -65 84c-18.667 20 -38 38 -58 54c-21.333 17.333 -49.333 36 -84 56
c-38 22 -72 39.333 -102 52c-28.667 12 -58.334 22.333 -89.001 31c-30.667 8 -71 15.333 -121 22zM816.999 445.003c0 60 -11.5 115.333 -34.5 166s-58.333 90.667 -106 120s-100.5 44 -158.5 44c-42 0 -88.667 -12.667 -140 -38s-92.333 -66.666 -123 -123.999
s-46 -116.666 -46 -177.999c0 -60 14 -116.333 42 -169s66 -93.834 114 -123.501s98 -44.5 150 -44.5c52.667 0 103.667 15.333 153 46s86.5 72.667 111.5 126s37.5 111.666 37.5 174.999z" />
    <glyph glyph-name="increment" unicode="&#x2206;" horiz-adv-x="1373" 
d="M62 0l544 1365h159l546 -1365h-1249zM265 134h841l-420 1064z" />
    <glyph glyph-name="product" unicode="&#x220f;" horiz-adv-x="1383" 
d="M61 1536h1260v-128h-154v-1792h154v-128h-453v128h158v1792h-670v-1792h156v-128h-451v128h154v1792h-154v128z" />
    <glyph glyph-name="summation" unicode="&#x2211;" horiz-adv-x="1370" 
d="M1225 1536v-468h-139l-14 327h-832l512 -843l-511 -924h850l8 328h145v-468h-1174v161l502 903l-502 826v158h1155z" />
    <glyph glyph-name="minus" unicode="&#x2212;" 
d="M120 763c181.333 -2.66699 340 -4 476 -4s295 1.33301 477 4c-4 -34 -6.66699 -74 -8 -120c-180.667 3.33301 -339.334 5 -476.001 5c-136 0 -295 -1.66699 -477 -5c4.66699 38 7.33398 78 8.00098 120z" />
    <glyph glyph-name="fraction" unicode="&#x2215;" horiz-adv-x="209" 
d="M-347 0l576 968l231 397c21.333 -0.666992 39.333 -1 54 -1c16.667 0 35.667 0.333008 57 1l-407 -681l-310 -529l-87 -155c-20.667 1.33301 -37.667 2 -51 2c-15.333 0 -36.333 -0.666992 -63 -2z" />
    <glyph glyph-name="periodcentered" unicode="&#x2219;" horiz-adv-x="221" 
d="M10 598c2 32.667 3.33301 60.667 4 84l5 115l109 -1l99 1c-2.66699 -32 -4.66699 -67 -6 -105l-4 -94l-99 2c-6 0 -42 -0.666992 -108 -2z" />
    <glyph glyph-name="radical" unicode="&#x221a;" horiz-adv-x="1370" 
d="M1367 1694l0.000976562 -130.001h-396l-460 -1564h-171l-173 606h-165v130h262l85 -284c7.33301 -23.333 12.666 -42.666 15.999 -57.999l45 -170c2 -8 5.33301 -23 10 -45c6 26.667 15 62.667 27 108l77 288l99 326l232 793h512z" />
    <glyph glyph-name="infinity" unicode="&#x221e;" horiz-adv-x="1370" 
d="M688 615c-42.667 -65.333 -92.499 -119.499 -149.499 -162.499s-122.5 -64.5 -196.5 -64.5c-59.333 0 -112.5 14 -159.5 42s-82.333 66 -106 114s-35.5 99.667 -35.5 155c0 96 30.667 171.333 92 226s132 82 212 82c67.333 0 129.5 -20.833 186.5 -62.5
s107.5 -96.834 151.5 -165.501c47.333 73.333 99.166 129.5 155.499 168.5s118.833 58.5 187.5 58.5c60 0 113.5 -13.667 160.5 -41s82.5 -65 106.5 -113s36 -99.667 36 -155c0 -58.667 -12 -111.5 -36 -158.5s-60.167 -84 -108.5 -111s-100.5 -40.5 -156.5 -40.5
c-69.333 0 -132 20 -188 60s-106.667 96 -152 168zM746.001 697.001c43.333 -68.667 86.1699 -119.667 128.503 -153s89.166 -50 140.499 -50c35.333 0 68.166 8.66699 98.499 26s53.333 42 69 74s23.5 67 23.5 105s-7.83301 72 -23.5 102s-39 54 -70 72
s-64.167 27 -99.5 27c-21.333 0 -43 -3.33301 -65 -10s-44.667 -18.667 -68 -36s-44.833 -37.5 -64.5 -60.5s-42.834 -55.167 -69.501 -96.5zM624.005 696.001c-40 64.667 -81.5 114.832 -124.5 150.499s-90.833 53.5 -143.5 53.5c-36 0 -69.167 -8.83301 -99.5 -26.5
s-53.333 -42.5 -69 -74.5s-23.5 -66.667 -23.5 -104c0 -38 8 -72 24 -102s39.5 -54 70.5 -72s63.833 -27 98.5 -27c21.333 0 42.833 3.33301 64.5 10s44 18.334 67 35.001s44.167 36 63.5 58s43.333 55 72 99z" />
    <glyph glyph-name="integral" unicode="&#x222b;" horiz-adv-x="1028" 
d="M202 -490l32 140.002c20 -8.66699 36 -14.167 48 -16.5s23.333 -3.5 34 -3.5c20.667 0 39 3.66699 55 11s28.167 16.333 36.5 27s14.166 22.667 17.499 36s5.66602 31.333 6.99902 54s2 63.667 2 123v1236c0 104 1.33301 170 4 198c4.66699 39.333 13 71.166 25 95.499
s29 46.166 51 65.499s47 33.666 75 42.999c32 11.333 67.333 17 106 17c16.667 0 34.334 -1.16699 53.001 -3.5s44.667 -8.5 78 -18.5l-32 -140c-28.667 14 -56.334 21 -83.001 21c-22 0 -41 -4 -57 -12s-28.667 -19.167 -38 -33.5s-15.333 -33.666 -18 -57.999
s-4 -67.166 -4 -128.499v-1253c0 -66.667 -0.333008 -115.334 -1 -146.001s-4.16699 -61.5 -10.5 -92.5s-17.666 -57.833 -33.999 -80.5s-37.166 -41.167 -62.499 -55.5s-54 -25.333 -86 -33s-65 -11.5 -99 -11.5c-14.667 0 -29.667 1 -45 3s-33.333 7.33301 -54 16z" />
    <glyph glyph-name="approxequal" unicode="&#x2248;" horiz-adv-x="1028" 
d="M110 712l-87.001 58.9961c10 22 20.333 41.667 31 59s24.167 37 40.5 59s31 38.833 44 50.5s28.5 22.334 46.5 32.001s36.833 17.167 56.5 22.5s39.5 8 59.5 8c22 0 44 -3 66 -9s47.333 -15 76 -27s63.667 -28.167 105 -48.5s70.833 -34.166 88.5 -41.499
s34.167 -12.5 49.5 -15.5s29.666 -4.5 42.999 -4.5c35.333 0 66.833 9.5 94.5 28.5s58.834 57.167 93.501 114.5l88 -57c-13.333 -28.667 -26.166 -53.167 -38.499 -73.5s-28.333 -41 -48 -62s-40.334 -38.167 -62.001 -51.5s-45.667 -23.666 -72 -30.999
s-50.5 -11 -72.5 -11c-12.667 0 -25.334 1.33301 -38.001 4s-29.167 7.16699 -49.5 13.5s-35 11.5 -44 15.5s-50.833 24.333 -125.5 61c-38 18.667 -69.667 31.834 -95 39.501s-47.666 11.5 -66.999 11.5c-32 0 -62.167 -10.333 -90.5 -31s-59.166 -59 -92.499 -115z
M109.999 364.996l-87.001 57.998c10 22 20.167 41.833 30.5 59.5s23.833 37.334 40.5 59.001s31.5 38.334 44.5 50.001s28.5 22.5 46.5 32.5s36.833 17.5 56.5 22.5s39.5 7.5 59.5 7.5c22 0 44 -2.83301 66 -8.5s47 -14.334 75 -26.001s65.667 -29.167 113 -52.5
s82.333 -39 105 -47s46 -12 70 -12c33.333 0 63.833 9.16699 91.5 27.5s59.5 57.166 95.5 116.499l88 -58c-13.333 -28 -26 -52.167 -38 -72.5s-28 -41 -48 -62s-40.667 -38.167 -62 -51.5s-45.166 -23.666 -71.499 -30.999s-50.833 -11 -73.5 -11
c-10.667 0 -22.167 1 -34.5 3s-29.333 6.33301 -51 13s-36.667 12 -45 16l-126.5 62c-38 18.667 -69.667 31.834 -95 39.501s-47.666 11.5 -66.999 11.5c-32 0 -62.333 -10.5 -91 -31.5s-59.334 -59.167 -92.001 -114.5z" />
    <glyph glyph-name="notequal" unicode="&#x2260;" 
d="M600 893l99.999 287.001c33.333 -12.667 74.333 -25 123 -37l-93 -250c82.667 1.33301 130.334 2 143.001 2c74.667 0 146.667 1 216 3c-4 -32.667 -6.66699 -73 -8 -121c-94 2 -175 3 -243 3l-149 1l-57 -156c108 1.33301 167 2 177 2c68.667 0 155.667 0.666992 261 2
c-4 -34 -6.66699 -74 -8 -120c-109.333 2 -204 3 -284 3c-10 0 -71.333 0.666992 -184 2l-103 -297c-34 12.667 -75.333 25 -124 37l97 259c-100 -1.33301 -151.667 -2 -155 -2c-42.667 0 -109.334 -0.666992 -200.001 -2c4.66699 38 7.33398 78 8.00098 120
c94 -1.33301 174 -2 240 -2c9.33301 0 58.666 -0.666992 147.999 -2l56 157c-101.333 -1.33301 -159.333 -2 -174 -2c-67.333 0 -153.666 -1 -258.999 -3c4 36.667 6.66699 77 8 121c18.667 -0.666992 62.667 -1.33398 132 -2.00098l209 -2z" />
    <glyph glyph-name="lessequal" unicode="&#x2264;" horiz-adv-x="1028" 
d="M957 1223v-149l-714 -288l714 -287v-150l-887 369v136zM957 290v-140h-887v140h887z" />
    <glyph glyph-name="greaterequal" unicode="&#x2265;" horiz-adv-x="1028" 
d="M70 349l1 150l713 287l-714 288v149l887 -369v-136zM70 150v140h887v-140h-887z" />
    <glyph glyph-name="lozenge" unicode="&#x25ca;" horiz-adv-x="1370" 
d="M685 1419l531 -736l-531 -736l-532 736zM685 1238l-404 -555l404 -554l403 554z" />
    <glyph glyph-name="fi" unicode="&#xf001;" horiz-adv-x="1035" 
d="M140 0l11.001 183.998l27 704h-125c3.33301 32.667 6 73.667 8 123h129c2 84.667 4.33301 139.834 7 165.501s6.83398 49.334 12.501 71.001s15.167 42 28.5 61s33 36.5 59 52.5s55.167 27.167 87.5 33.5s65.5 9.5 99.5 9.5c61.333 0 121.333 -8.33301 180 -25
c1.33301 -44 4.66602 -86.333 9.99902 -127c-54.667 22 -105.334 33 -152.001 33c-26 0 -49.5 -3.5 -70.5 -10.5s-38 -16 -51 -27s-23.667 -25.333 -32 -43s-14 -39 -17 -64s-4.5 -53.833 -4.5 -86.5l-1 -43h278c-3.33301 -28.667 -6.33301 -69.667 -9 -123h-268l-18 -511
l-9 -377c-41.333 1.33301 -71.666 2 -90.999 2c-18.667 0 -48.334 -0.666992 -89.001 -2zM736.001 1231c2 62.667 2.99805 110 2.99805 142c36.667 -1.33301 69.334 -2 98.001 -2c35.333 0 67 0.666992 95 2l-5 -142c-36.667 0.666992 -68 1 -94 1
c-25.333 0 -57.666 -0.333008 -96.999 -1zM691.999 -0.00195312l17.001 252l24 612l3 149l91 -1l91 1c-8.66699 -112 -15.834 -225 -21.501 -339s-10.167 -233.5 -13.5 -358.5s-5 -230.167 -5 -315.5c-42 1.33301 -72.333 2 -91 2c-16 0 -47.667 -0.666992 -95 -2z" />
    <glyph glyph-name="fl" unicode="&#xf002;" horiz-adv-x="1037" 
d="M140 0l11.001 183.998l27 704h-125c3.33301 32.667 6 73.667 8 123h129c2 84.667 4.33301 139.834 7 165.501s6.83398 49.334 12.501 71.001s15.167 42 28.5 61s33 36.5 59 52.5s55.167 27.167 87.5 33.5s65.5 9.5 99.5 9.5c61.333 0 121.333 -8.33301 180 -25
c1.33301 -44 4.66602 -86.333 9.99902 -127c-54.667 22 -105.334 33 -152.001 33c-26 0 -49.5 -3.5 -70.5 -10.5s-38 -16 -51 -27s-23.667 -25.333 -32 -43s-14 -39 -17 -64s-4.5 -53.833 -4.5 -86.5l-1 -43h278c-3.33301 -28.667 -6.33301 -69.667 -9 -123h-268l-18 -511
l-9 -377c-41.333 1.33301 -71.666 2 -90.999 2c-18.667 0 -48.334 -0.666992 -89.001 -2zM692.001 -0.00195312c13.333 205.333 26.334 448.667 39.001 730c8.66699 204 15 415.667 19 635l92 -1c20 0 50 0.333008 90 1l-31 -577l-27 -788c-38.667 1.33301 -67.667 2 -87 2
c-16.667 0 -48.334 -0.666992 -95.001 -2z" />
    <glyph glyph-name="glyph1" horiz-adv-x="0" 
 />
    <glyph glyph-name="glyph2" horiz-adv-x="512" 
 />
  </font>
</defs>
</svg>
