<?xml version="1.0" standalone="no"?>
<!DOCTYPE svg PUBLIC "-//W3C//DTD SVG 1.1//EN" "http://www.w3.org/Graphics/SVG/1.1/DTD/svg11.dtd" >
<svg>
<metadata>
Created by FontForge 20090914 at Mon Feb 26 22:31:49 2018
 By www-data
Typeface: Copyright &#194;&#169;1995 International Typeface Corporation. Data: Copyright &#194;&#169; 1995 Microsoft Corportation. All rights reserved.
</metadata>
<defs>
<font id="ErasITC-Light" horiz-adv-x="1098" >
  <font-face 
    font-family="Eras Light ITC"
    font-weight="400"
    font-stretch="normal"
    units-per-em="2048"
    panose-1="2 11 4 2 3 5 4 2 8 4"
    ascent="1638"
    descent="-410"
    x-height="1010"
    cap-height="1365"
    bbox="-370.999 -512 2174.99 1810"
    underline-thickness="102"
    underline-position="-103"
    unicode-range="U+0020-U+F002"
  />
<missing-glyph horiz-adv-x="2048" 
d="M256 0v1536h1536v-1536h-1536zM384 128h1280v1280h-1280v-1280z" />
    <glyph glyph-name=".notdef" horiz-adv-x="2048" 
d="M256 0v1536h1536v-1536h-1536zM384 128h1280v1280h-1280v-1280z" />
    <glyph glyph-name="space" unicode=" " horiz-adv-x="512" 
 />
    <glyph glyph-name="exclam" unicode="!" horiz-adv-x="489" 
d="M192 208l19 661l9 375c0.666992 50.667 1 91 1 121c17.333 -0.666992 32.333 -1 45 -1c14 0 29.333 0.333008 46 1l-10 -144l-46 -1013c-11.333 1.33301 -22 2 -32 2c-11.333 0 -22 -0.666992 -32 -2zM165 0c2 27.333 3.16602 49 3.49902 65s0.833008 30.667 1.5 44
c24 -0.666992 42.667 -1 56 -1c14 0 32.667 0.333008 56 1c-1.33301 -20 -2.33301 -39.167 -3 -57.5s-1.66699 -35.5 -3 -51.5c-23.333 0.666992 -41.666 1 -54.999 1c-14 0 -32.667 -0.333008 -56 -1z" />
    <glyph glyph-name="quotedbl" unicode="&#x22;" horiz-adv-x="498" 
d="M143 1051c1.33301 47.333 2.00195 99.667 2.00195 157c0 46 -0.666992 98.333 -2 157c17.333 -0.666992 32.333 -1 45 -1c14 0 29.333 0.333008 46 1c-12.667 -111.333 -21.667 -216 -27 -314c-10.667 1.33301 -21.334 2 -32.001 2s-21.334 -0.666992 -32.001 -2z
M319.002 1051c1.33301 47.333 2.00098 99.667 2.00098 157c0 46 -1 98.333 -3 157c17.333 -0.666992 32.666 -1 45.999 -1s28.333 0.333008 45 1c-12.667 -111.333 -21.667 -216 -27 -314c-10.667 1.33301 -21 2 -31 2c-11.333 0 -22 -0.666992 -32 -2z" />
    <glyph glyph-name="numbersign" unicode="#" 
d="M331 531l-229.003 -3c4.66699 15.333 9 36.333 13 63l226 -3l33 189l-229 -3c4 12.667 8.33301 33.667 13 63l226 -3l91 531c13.333 -0.666992 26 -1 38 -1c12.667 0 25.667 0.333008 39 1l-96 -531l127 -1l129 1l91 531c12.667 -0.666992 25.334 -1 38.001 -1
s25.334 0.333008 38.001 1l-95 -531l226 3c-5.33301 -20.667 -9.66602 -41.667 -12.999 -63l-223 3l-33 -189l226 3c-5.33301 -18 -9.66602 -39 -12.999 -63l-223 3l-91 -531c-13.333 0.666992 -26 1 -38 1c-12.667 0 -25.667 -0.333008 -39 -1l96 532h-104h-152l-91 -532
c-13.333 0.666992 -26 1 -38 1c-12.667 0 -25.334 -0.333008 -38.001 -1zM445.997 778l-33 -190l127 -1h46l43 1h40l33 190h-193h-63z" />
    <glyph glyph-name="dollar" unicode="$" 
d="M182 157c47.333 -24.667 85.167 -43.0039 113.5 -55.0039s58.833 -21.667 91.5 -29s66.334 -11 101.001 -11c54.667 0 104.167 9.16699 148.5 27.5s80.5 48.5 108.5 90.5s42 87.667 42 137c0 36 -6.83301 67.667 -20.5 95s-32.834 53.833 -57.501 79.5
s-93 85.834 -205 180.501l-124.5 107.5c-27 24.333 -52.667 53.333 -77 87s-41.833 67 -52.5 100s-16 66.833 -16 101.5c0 36 6.33301 71.167 19 105.5s32.834 65.5 60.501 93.5s57.667 49 90 63s79.166 25.667 140.499 35c1.33301 24.667 2 49 2 73s-0.333008 52.667 -1 86
c17.333 -1.33301 30.666 -2 39.999 -2c10.667 0 24.334 0.666992 41.001 2c-6.66699 -61.333 -10.334 -113.666 -11.001 -156.999c45.333 -3.33301 82.5 -7.83301 111.5 -13.5s62.5 -14.167 100.5 -25.5c1.33301 -30.667 4.33301 -59.667 9 -87
c-54.667 22.667 -100.667 37.834 -138 45.501s-74 11.5 -110 11.5c-90 0 -157.833 -23.167 -203.5 -69.5s-68.5 -100.166 -68.5 -161.499c0 -24.667 3.5 -49.667 10.5 -75s21.333 -53 43 -83s50.334 -61.333 86.001 -94l105.5 -94l68 -59
c36 -30.667 69.667 -61.167 101 -91.5s55.333 -57.166 72 -80.499s29 -44 37 -62s14 -37 18 -57s6 -40 6 -60c0 -28.667 -4.33301 -56.834 -13 -84.501s-21.167 -54 -37.5 -79s-36.166 -47.167 -59.499 -66.5s-48.5 -34.833 -75.5 -46.5s-66.833 -23.167 -119.5 -34.5
c-0.666992 -26 -1 -53.333 -1 -82c0 -10 0.666992 -35.667 2 -77c-17.333 1.33301 -31.333 2 -42 2c-10 0 -23.667 -0.666992 -41 -2l5 60c1.33301 14.667 3.33301 46 6 94c-64 4.66699 -116.833 12.167 -158.5 22.5s-88.834 26.833 -141.501 49.5
c0 30.667 -1.66699 60.667 -5 90z" />
    <glyph glyph-name="percent" unicode="%" horiz-adv-x="1546" 
d="M368 1379c55.333 0 102.333 -15.5 141 -46.5s67.334 -76.167 86.001 -135.5s28 -129.333 28 -210c0 -93.333 -11.833 -180.5 -35.5 -261.5s-56.834 -138.833 -99.501 -173.5s-94.667 -52 -156 -52c-58 0 -106.5 15.333 -145.5 46s-67.833 75.167 -86.5 133.5
s-28 123.166 -28 194.499c0 62.667 5.16699 124.834 15.5 186.501s27.5 117.667 51.5 168s55.5 88 94.5 113s83.833 37.5 134.5 37.5zM366 1326c-44 0 -84.1719 -16.332 -120.505 -48.999s-64.166 -83.5 -83.499 -152.5s-29 -152.5 -29 -250.5
c0 -74.667 8.5 -135.334 25.5 -182.001s41 -81.5 72 -104.5s65.5 -34.5 103.5 -34.5c36.667 0 69.834 10.333 99.501 31s54.334 53.667 74.001 99s33.334 95.333 41.001 150s11.5 108.667 11.5 162c0 76.667 -7.83301 138.167 -23.5 184.5s-38.167 82.333 -67.5 108
s-63.666 38.5 -102.999 38.5zM312.995 0.000976562l562.999 890l295 475c12.667 -0.666992 25.334 -1 38.001 -1c14 0 27 0.333008 39 1l-537 -849l-320 -516c-12.667 0.666992 -25.667 1 -39 1c-14.667 0 -27.667 -0.333008 -39 -1zM1228.99 866.001
c55.333 0 102.333 -15.667 141 -47s67.334 -76.5 86.001 -135.5s28 -128.833 28 -209.5c0 -93.333 -11.833 -180.5 -35.5 -261.5s-56.834 -139 -99.501 -174s-94.667 -52.5 -156 -52.5c-58 0 -106.5 15.5 -145.5 46.5s-67.833 75.667 -86.5 134s-28 122.833 -28 193.5
c0 63.333 5.16699 125.833 15.5 187.5s27.5 117.667 51.5 168s55.5 88 94.5 113s83.833 37.5 134.5 37.5zM1226.99 812.001c-44 0 -84.1719 -16.167 -120.505 -48.5s-64.166 -83 -83.499 -152s-29 -152.833 -29 -251.5c0 -74.667 8.5 -135.167 25.5 -181.5s41 -81 72 -104
s65.5 -34.5 103.5 -34.5c36.667 0 69.834 10.333 99.501 31s54.334 53.5 74.001 98.5s33.334 95 41.001 150s11.5 109.167 11.5 162.5c0 76 -7.83301 137.333 -23.5 184s-38.167 82.667 -67.5 108s-63.666 38 -102.999 38z" />
    <glyph glyph-name="ampersand" unicode="&#x26;" horiz-adv-x="1342" 
d="M1086 555c13.333 -0.666992 24.9971 -0.999023 34.9971 -0.999023c10.667 0 22.334 0.333008 35.001 1c-1.33301 -62.667 -9.66602 -123.834 -24.999 -183.501s-37.666 -114.5 -66.999 -164.5l124 -107.5l116 -99.5c-16.667 0.666992 -34 1 -52 1
c-18.667 0 -36 -0.333008 -52 -1l-174 153c-22.667 -22.667 -42.5 -41.334 -59.5 -56.001s-39 -29.5 -66 -44.5s-56.833 -27.833 -89.5 -38.5s-69.167 -19 -109.5 -25s-82.5 -9 -126.5 -9c-92 0 -172.667 14.833 -242 44.5s-122.166 71.334 -158.499 125.001
s-54.5 112.5 -54.5 176.5c0 34 4.66699 67.5 14 100.5s26 65.5 50 97.5s53.5 61.667 88.5 89s97.5 68 187.5 122c-31.333 43.333 -54.833 77.833 -70.5 103.5s-29.667 52.667 -42 81s-21.5 56.333 -27.5 84s-9 53.834 -9 78.501c0 38 8 76 24 114s40.333 72 73 102
s71.167 52.167 115.5 66.5s90.5 21.5 138.5 21.5c34 0 67.5 -3.33301 100.5 -10s70.167 -19.334 111.5 -38.001c-0.666992 -12.667 -1 -24.667 -1 -36c0 -10.667 0.333008 -22.667 1 -36c-61.333 44 -131 66 -209 66c-55.333 0 -105.5 -10.667 -150.5 -32
s-79 -52.5 -102 -93.5s-34.5 -83.167 -34.5 -126.5c0 -44 9.16699 -87.667 27.5 -131s55.666 -102.833 111.999 -178.5s130 -161 221 -256s183.5 -182.833 277.5 -263.5c14 28 23.833 49.833 29.5 65.5s11.5 36 17.5 61s10.833 51.667 14.5 80s6.5 60.833 8.5 97.5z
M975.997 197.001c-166.667 148 -327.334 313.334 -482.001 496.001c-66.667 -40 -118.5 -74 -155.5 -102s-67.333 -57.5 -91 -88.5s-39.667 -60.167 -48 -87.5s-12.5 -55.333 -12.5 -84c0 -56.667 16.667 -107.834 50 -153.501s80.333 -80.834 141 -105.501s131 -37 211 -37
c37.333 0 73.333 2.83301 108 8.5s66.834 13.5 96.501 23.5s56 21.833 79 35.5s41.5 27.334 55.5 41.001s30 31.5 48 53.5z" />
    <glyph glyph-name="quotesingle" unicode="'" horiz-adv-x="323" 
d="M143 1051c1.33301 47.333 2.00195 99.667 2.00195 157c0 46 -0.666992 98.333 -2 157c17.333 -0.666992 32.333 -1 45 -1c14 0 29.333 0.333008 46 1c-12.667 -111.333 -21.667 -216 -27 -314c-10.667 1.33301 -21.334 2 -32.001 2s-21.334 -0.666992 -32.001 -2z" />
    <glyph glyph-name="parenleft" unicode="(" horiz-adv-x="609" 
d="M279 -444l-29 135.999c-9.33301 44 -17.666 87.833 -24.999 131.5s-13.833 91.834 -19.5 144.501s-10 106 -13 160s-4.5 109 -4.5 165c0 220 23.333 432.833 70 638.5s84.667 350.167 114 433.5c11.333 -0.666992 21.666 -1 30.999 -1c10 0 20.333 0.333008 31 1
l-42 -147c-13.333 -47.333 -26.5 -98.666 -39.5 -153.999s-25.167 -115 -36.5 -179s-21 -130 -29 -198s-13.833 -135.833 -17.5 -203.5s-5.5 -134.834 -5.5 -201.501c0 -74 1.5 -142.167 4.5 -204.5s7.83301 -122 14.5 -179s13.334 -103.833 20.001 -140.5s20 -104 40 -202
c-10.667 1.33301 -21.334 2 -32.001 2c-11.333 0 -22 -0.666992 -32 -2z" />
    <glyph glyph-name="parenright" unicode=")" horiz-adv-x="604" 
d="M215 1365c10.667 -0.666992 20.6729 -0.998047 30.0059 -0.998047c10.667 0 21 0.333008 31 1c21.333 -108 36.666 -191.167 45.999 -249.5s17.166 -116.5 23.499 -174.5s11 -114.167 14 -168.5s4.5 -107.5 4.5 -159.5c0 -198.667 -18.167 -389.5 -54.5 -572.5
s-79.833 -344.5 -130.5 -484.5c-10.667 1.33301 -21.334 2 -32.001 2c-11.333 0 -22 -0.666992 -32 -2c34 106.667 58.5 188.667 73.5 246s28.667 119.166 41 185.499s23.166 137.166 32.499 212.499s16.333 151.166 21 227.499s7 151.166 7 224.499
c0 64 -1.83301 127.833 -5.5 191.5s-8.83398 124.334 -15.501 182.001s-13.334 106.334 -20.001 146.001z" />
    <glyph glyph-name="asterisk" unicode="*" horiz-adv-x="1040" 
d="M273 783l207 243l-292 82c12 26.667 22 53 30 79l281 -112l2 311c17.333 -1.33301 30.666 -2 39.999 -2c10.667 0 24.334 0.666992 41.001 2l-31 -311l294 107c6 -30 13 -55.667 21 -77l-302 -81l184 -238c-28 -18 -51.667 -34.667 -71 -50l-155 259l-185 -259
c-16.667 14 -38 29.667 -64 47z" />
    <glyph glyph-name="plus" unicode="+" 
d="M120 670c3.33301 26 5 47.999 5 65.999c65.333 -2 148.333 -3.33301 249 -4l149 -1l5 229c2.66699 88.667 4 148.334 4 179.001c12 -1.33301 23.667 -2 35 -2c12.667 0 24.667 0.666992 36 2c-2.66699 -52 -9 -188 -19 -408h100l307 5
c-3.33301 -23.333 -5 -45.333 -5 -66c-66 2 -150.333 3.66699 -253 5l-151 1l-7 -288c-1.33301 -52.667 -2 -93 -2 -121c-12.667 1.33301 -24.667 2 -36 2c-12 0 -24 -0.666992 -36 -2c3.33301 42.667 10 179 20 409l-115 -1l-99 -1z" />
    <glyph glyph-name="comma" unicode="," horiz-adv-x="399" 
d="M31 -204c45.333 124.667 79.998 228.667 103.998 312c22.667 -0.666992 45.334 -1 68.001 -1c23.333 0 46 0.333008 68 1l-58 -96c-21.333 -34 -37 -60 -47 -78l-79 -138c-11.333 1.33301 -20.666 2 -27.999 2c-8 0 -17.333 -0.666992 -28 -2z" />
    <glyph glyph-name="hyphen" unicode="-" horiz-adv-x="494" 
d="M-3 490c3.33301 27.333 5 51.001 5 71.001c72.667 -3.33301 152.667 -5 240 -5c84.667 0 165 1.66699 241 5c-3.33301 -26.667 -5 -50.334 -5 -71.001c-72.667 4 -153.667 6 -243 6c-82.667 0 -162 -2 -238 -6z" />
    <glyph glyph-name="period" unicode="." horiz-adv-x="399" 
d="M120 0c2 27.333 3.16602 49 3.49902 65s0.833008 30.667 1.5 44c24 -0.666992 42.667 -1 56 -1c14 0 32.667 0.333008 56 1c-1.33301 -20 -2.33301 -39.167 -3 -57.5s-1.66699 -35.5 -3 -51.5c-23.333 0.666992 -41.666 1 -54.999 1c-14 0 -32.667 -0.333008 -56 -1z" />
    <glyph glyph-name="slash" unicode="/" horiz-adv-x="824" 
d="M-148 -444l292 618l496 1071l52 120c16.667 -0.666992 30.667 -1 42 -1s25.333 0.333008 42 1l-739 -1584l-100 -225c-16.667 1.33301 -30.667 2 -42 2c-12.667 0 -27 -0.666992 -43 -2z" />
    <glyph glyph-name="zero" unicode="0" 
d="M588 1386c49.333 0 94.6689 -7.5 136.002 -22.5s80.166 -39.833 116.499 -74.5s66.5 -79.834 90.5 -135.501s41.167 -116.667 51.5 -183s15.5 -136.166 15.5 -209.499c0 -99.333 -9.16699 -198.333 -27.5 -297s-46.5 -186.5 -84.5 -263.5s-87.333 -133 -148 -168
s-130 -52.5 -208 -52.5c-44.667 0 -87.334 5.83301 -128.001 17.5s-80.167 33.334 -118.5 65.001s-70.5 74.5 -96.5 128.5s-45 114.333 -57 181s-18 134.667 -18 204c0 98 7.66699 194.333 23 289c10.667 66.667 25 126.167 43 178.5s38.833 99.666 62.5 141.999
s54.167 79.333 91.5 111s77.5 54.5 120.5 68.5s88.167 21 135.5 21zM585.003 1329c-62 0 -120.496 -19.498 -175.496 -58.498s-99.167 -96.333 -132.5 -172s-56 -158.834 -68 -249.501s-18 -182 -18 -274c0 -72.667 5.16699 -139.667 15.5 -201s29.666 -118.333 57.999 -171
s66.166 -93.5 113.499 -122.5s99 -43.5 155 -43.5c62 0 118 17.333 168 52s91.667 89.167 125 163.5s56.666 156.5 69.999 246.5s20 180.667 20 272c0 102.667 -8.16699 187.167 -24.5 253.5s-37.833 120.666 -64.5 162.999s-60.334 76.5 -101.001 102.5s-87.667 39 -141 39
z" />
    <glyph glyph-name="one" unicode="1" 
d="M519 0c8.66699 108.667 15.667 236.667 21 384l18 488c7.33301 178 11.333 314.667 12 410l-115 -75c3.33301 26.667 5 52.334 5 77.001l130 81c11.333 -0.666992 22 -1 32 -1c11.333 0 22 0.333008 32 1l-43 -965l-5 -180c-0.666992 -28.667 -1 -57.334 -1 -86.001
c0 -35.333 0.666992 -80 2 -134c-17.333 0.666992 -32 1 -44 1s-26.667 -0.333008 -44 -1z" />
    <glyph glyph-name="two" unicode="2" 
d="M132 0c1.33301 18 1.99609 35.0039 1.99609 51.0039v25l243 256c95.333 103.333 172.166 189.5 230.499 258.5s109.333 132.667 153 191s77.834 111.166 102.501 158.499c17.333 34 28.833 62.167 34.5 84.5s8.5 45.166 8.5 68.499c0 37.333 -7.66699 70.333 -23 99
s-39.666 54.334 -72.999 77.001s-70.166 38.5 -110.499 47.5s-81.166 13.5 -122.499 13.5c-101.333 0 -226.666 -19 -375.999 -57c5.33301 25.333 9.33301 50.666 12 75.999c118 24.667 236.333 37 355 37c54.667 0 107.667 -5.66699 159 -17s96.333 -29.833 135 -55.5
s67.667 -56.334 87 -92.001s29 -75.834 29 -120.501c0 -26.667 -2.5 -52 -7.5 -76s-12.5 -47 -22.5 -69c-16.667 -39.333 -40.334 -82.166 -71.001 -128.499s-83 -114.833 -157 -205.5s-151.333 -180.334 -232 -269.001l-281 -295c63.333 -2 125.333 -3 186 -3l114 1l128 1
l102 1c30 0.666992 57.333 1.66699 82 3l46 2c6.66699 0 27.334 1.66699 62.001 5c-2.66699 -20 -4 -42.667 -4 -68c-97.333 0.666992 -226 1 -386 1h-261z" />
    <glyph glyph-name="three" unicode="3" 
d="M107 31c-1.33301 26.667 -4.33691 54.001 -9.00391 82.001c71.333 -29.333 135.333 -49.166 192 -59.499s110.667 -15.5 162 -15.5c78.667 0 149.834 13.333 213.501 40s115.834 67 156.501 121s61 116.667 61 188c0 29.333 -4.33301 58.166 -13 86.499
s-22 54.666 -40 78.999s-39.667 45 -65 62s-52.5 29.833 -81.5 38.5s-59.167 15 -90.5 19s-70 6 -116 6c-32 0 -73.333 -1.66699 -124 -5c2 20.667 3 39 3 55v11c27.333 -4.66699 56 -7 86 -7c74.667 0 144.667 12 210 36s116 62.833 152 116.5s54 111.834 54 174.501
c0 40.667 -8.16699 79.167 -24.5 115.5s-40 66.166 -71 89.499s-68.167 40 -111.5 50s-90.333 15 -141 15c-95.333 0 -196 -15.333 -302 -46c4 21.333 7 45 9 71c69.333 12.667 125.333 21.167 168 25.5s82.334 6.5 119.001 6.5c90 0 168.167 -12 234.5 -36
s115.666 -61.333 147.999 -112s48.5 -108.334 48.5 -173.001c0 -29.333 -3.5 -58.666 -10.5 -87.999s-17.5 -57.833 -31.5 -85.5s-28.167 -49.834 -42.5 -66.501s-30.666 -31.5 -48.999 -44.5s-39.5 -24.667 -63.5 -35s-62.333 -22.5 -115 -36.5
c29.333 0 66.333 -5.33301 111 -16s84.334 -30.667 119.001 -60s60.667 -65.666 78 -108.999s26 -89.333 26 -138c0 -62.667 -13.833 -121.167 -41.5 -175.5s-66 -98.833 -115 -133.5s-104.667 -59.667 -167 -75s-127.5 -23 -195.5 -23c-48 0 -97.167 3.66699 -147.5 11
s-111.5 21 -183.5 41z" />
    <glyph glyph-name="four" unicode="4" 
d="M663 0c4.66699 58 8.50098 115.666 11.501 172.999s7.83301 174 14.5 350l-293 -1l-284 -3c2.66699 22.667 4 49.667 4 81l439 592l122 173c23.333 -0.666992 44 -1 62 -1c17.333 0 37.666 0.333008 60.999 1c-13.333 -229.333 -25.333 -490.666 -36 -783.999l185 1
c15.333 0 31.333 1.33301 48 4c-1.33301 -17.333 -2 -36 -2 -56v-11c-56 2 -134.333 3.33301 -235 4c-1.33301 -23.333 -3.33301 -93.833 -6 -211.5s-4 -191.5 -4 -221.5c0 -20 0.666992 -50 2 -90c-17.333 0.666992 -32 1 -44 1c-13.333 0 -28.333 -0.333008 -45 -1z
M691.001 580.999c2.66699 48.667 4.66699 89.667 6 123l17 494l1 109l-535 -726h511z" />
    <glyph glyph-name="five" unicode="5" 
d="M163 16c-2 28 -4.99512 52.001 -8.99512 72.001c63.333 -18.667 114.666 -31.167 153.999 -37.5s80 -9.5 122 -9.5c63.333 0 124.666 8.33301 183.999 25s110.5 43.167 153.5 79.5s76.167 80.5 99.5 132.5s35 105.333 35 160c0 51.333 -10.833 97.333 -32.5 138
s-51.667 72.5 -90 95.5s-80.333 38.5 -126 46.5s-93.5 12 -143.5 12c-88.667 0 -190 -10.667 -304 -32l55 585c2 18.667 5.33301 46 10 82c166.667 -0.666992 288.667 -1 366 -1l327 1c-2 -20 -3 -39.333 -3 -58v-11l-63 5c-13.333 1.33301 -35.666 2.33301 -66.999 3
l-226 6c-56 0.666992 -101.667 1 -137 1l-129 -1l-53 -547c60.667 10 109 16.5 145 19.5s70.333 4.5 103 4.5c91.333 0 170.666 -12.167 237.999 -36.5s119.333 -64.833 156 -121.5s55 -120.334 55 -191.001c0 -81.333 -23.667 -159 -71 -233s-115 -130 -203 -168
s-182 -57 -282 -57c-22.667 0 -52.334 1.66699 -89.001 5s-66.334 7 -89.001 11s-51.334 10.667 -86.001 20z" />
    <glyph glyph-name="six" unicode="6" 
d="M403 756c86 16.667 155.666 24.9941 208.999 24.9941c72 0 136.333 -14.667 193 -44s100.167 -73.166 130.5 -131.499s45.5 -123.166 45.5 -194.499c0 -85.333 -21 -163.166 -63 -233.499s-96.333 -120.833 -163 -151.5s-142.334 -46 -227.001 -46
c-58.667 0 -115.5 9.33301 -170.5 28s-101.167 46.834 -138.5 84.501s-64.166 81.667 -80.499 132s-24.5 100.166 -24.5 149.499s5.5 103.333 16.5 162s34.833 130.834 71.5 216.501s83.834 174.834 141.501 267.501s138.167 207.667 241.5 345
c16.667 -0.666992 34 -1 52 -1s35.333 0.333008 52 1c-69.333 -84 -121.666 -150 -156.999 -198c-54 -73.333 -104.667 -151 -152 -233c-49.333 -86 -90 -167.667 -122 -245c-26 -62.667 -44 -116.667 -54 -162c-10.667 -48 -16 -97 -16 -147
c0 -71.333 12.667 -130.666 38 -177.999s63.666 -86.333 114.999 -117s112.333 -46 183 -46c73.333 0 139.333 15.833 198 47.5s102.667 76.667 132 135s44 123.5 44 195.5c0 58 -11.333 111 -34 159s-57.834 84.833 -105.501 110.5s-101.834 38.5 -162.501 38.5
c-29.333 0 -59.666 -2.5 -90.999 -7.5s-75.666 -15.167 -132.999 -30.5c14 27.333 24.333 50.333 31 69z" />
    <glyph glyph-name="seven" unicode="7" 
d="M256 0l264.999 555l351 752c-118 1.33301 -195.333 2 -232 2c-184.667 0 -341 -3.66699 -469 -11c2.66699 20.667 4.33398 43 5.00098 67c107.333 -0.666992 240 -1 398 -1l292 1h73c-2 -19.333 -3 -40.333 -3 -63v-11l-519 -1120l-71 -171
c-16.667 0.666992 -31.667 1 -45 1s-28.333 -0.333008 -45 -1z" />
    <glyph glyph-name="eight" unicode="8" 
d="M391 695c-35.333 12.667 -62.668 24.5 -82.001 35.5s-38.833 26.5 -58.5 46.5s-36.167 42.667 -49.5 68s-22.666 51 -27.999 77s-8 51.667 -8 77c0 73.333 18.333 140.333 55 201s87.334 106.834 152.001 138.501s138.667 47.5 222 47.5c51.333 0 101 -7.33301 149 -22
s89.333 -36.834 124 -66.501s61.334 -65.834 80.001 -108.501s28 -90.667 28 -144c0 -31.333 -3.16699 -61.833 -9.5 -91.5s-17.333 -58.167 -33 -85.5s-34 -51.666 -55 -72.999s-41.667 -38.5 -62 -51.5s-51.833 -27.833 -94.5 -44.5
c47.333 -12 82.166 -23.333 104.499 -34s44.166 -25.167 65.499 -43.5s39.333 -39.5 54 -63.5s25.667 -51.333 33 -82s11 -63 11 -97c0 -61.333 -11.167 -117.166 -33.5 -167.499s-54 -93 -95 -128s-90.833 -61.167 -149.5 -78.5s-119.334 -26 -182.001 -26
c-89.333 0 -168.166 15.833 -236.499 47.5s-118.666 75 -150.999 130s-48.5 116.833 -48.5 185.5c0 31.333 3.66699 62.666 11 93.999s19.666 61.5 36.999 90.5s37.5 53.667 60.5 74s47 36.833 72 49.5s64.167 27.667 117.5 45zM583.998 1330
c-101.333 0 -183.169 -30.668 -245.502 -92.001s-93.5 -141.333 -93.5 -240c0 -60.667 13.167 -111.667 39.5 -153s63.333 -72.833 111 -94.5s99.834 -32.5 156.501 -32.5c64.667 0 123.167 13.667 175.5 41s93.5 65.833 123.5 115.5s45 107.167 45 172.5
c0 64 -15.5 117.833 -46.5 161.5s-69.667 74.834 -116 93.501s-96.166 28 -149.499 28zM554.995 662.999c-86.667 0 -156.999 -13.335 -210.999 -40.002s-95.833 -64.167 -125.5 -112.5s-44.5 -102.5 -44.5 -162.5c0 -57.333 14 -110.166 42 -158.499s72 -86 132 -113
s123 -40.5 189 -40.5c68 0 132.167 14.667 192.5 44s105.666 71 135.999 125s45.5 112.667 45.5 176c0 86.667 -29 155.334 -87 206.001s-147.667 76 -269 76z" />
    <glyph glyph-name="nine" unicode="9" 
d="M435 0c115.333 154 209.001 292.997 281.001 416.997s122.333 231 151 321s43 170.667 43 242c0 46.667 -7.5 92.334 -22.5 137.001s-37.833 83.667 -68.5 117s-67.167 57.666 -109.5 72.999s-87.5 23 -135.5 23c-69.333 0 -132.5 -15 -189.5 -45s-101 -71.333 -132 -124
s-46.5 -111.334 -46.5 -176.001c0 -39.333 5.16699 -78.166 15.5 -116.499s29 -72.5 56 -102.5s63.167 -52.833 108.5 -68.5s93 -23.5 143 -23.5c28.667 0 60.834 2.5 96.501 7.5s84.834 16.5 147.501 34.5c-8.66699 -21.333 -16.667 -45.666 -24 -72.999
c-60.667 -12 -106.667 -19.5 -138 -22.5s-59.333 -4.5 -84 -4.5c-77.333 0 -148 13.833 -212 41.5s-111.667 68.667 -143 123s-47 117.5 -47 189.5c0 80.667 19.167 153 57.5 217s92.166 113.167 161.499 147.5s145.666 51.5 228.999 51.5
c60.667 0 118.5 -9.83301 173.5 -29.5s100.833 -48.5 137.5 -86.5s63 -82.5 79 -133.5s24 -100.833 24 -149.5c0 -42 -5.16699 -91.167 -15.5 -147.5s-32.166 -124.666 -65.499 -204.999s-74.333 -163.166 -123 -248.499s-129.334 -214 -242.001 -386
c-16.667 0.666992 -34.334 1 -53.001 1c-19.333 0 -37 -0.333008 -53 -1z" />
    <glyph glyph-name="colon" unicode=":" horiz-adv-x="399" 
d="M169 901c2 27.333 3.16602 49 3.49902 65s0.833008 30.667 1.5 44c24 -0.666992 42.667 -1 56 -1c14 0 32.667 0.333008 56 1c-1.33301 -20 -2.33301 -39.167 -3 -57.5s-1.66699 -35.5 -3 -51.5c-23.333 0.666992 -41.666 1 -54.999 1c-14 0 -32.667 -0.333008 -56 -1z
M119.999 0c2 27.333 3.16602 49 3.49902 65s0.833008 30.667 1.5 44c24 -0.666992 42.667 -1 56 -1c14 0 32.667 0.333008 56 1c-1.33301 -20 -2.33301 -39.167 -3 -57.5s-1.66699 -35.5 -3 -51.5c-23.333 0.666992 -41.666 1 -54.999 1c-14 0 -32.667 -0.333008 -56 -1z
" />
    <glyph glyph-name="semicolon" unicode=";" horiz-adv-x="399" 
d="M169 901c1.33301 27.333 2.33008 49 2.99707 65s1.33398 30.667 2.00098 44c23.333 -0.666992 42 -1 56 -1s32.667 0.333008 56 1c-2 -20 -3.16699 -39.167 -3.5 -57.5s-1.16602 -35.5 -2.49902 -51.5c-23.333 0.666992 -42 1 -56 1
c-13.333 0 -31.666 -0.333008 -54.999 -1zM30.9971 -204c45.333 124.667 79.998 228.667 103.998 312c22.667 -0.666992 45.334 -1 68.001 -1c23.333 0 46 0.333008 68 1l-58 -96c-21.333 -34 -37 -60 -47 -78l-79 -138c-11.333 1.33301 -20.666 2 -27.999 2
c-8 0 -17.333 -0.666992 -28 -2z" />
    <glyph glyph-name="less" unicode="&#x3c;" horiz-adv-x="1032" 
d="M959 1107v-70l-811 -353l811 -352v-70l-887 390v65z" />
    <glyph glyph-name="equal" unicode="=" 
d="M143 845c121.333 -3.33301 265.667 -5 433 -5c164.667 0 309 1.66699 433 5c-3.33301 -23.333 -5 -45.333 -5 -66c-120.667 4 -265 6 -433 6c-166 0 -310.333 -2 -433 -6c3.33301 26 5 48 5 66zM125.001 627c121.333 -4 265.666 -6 432.999 -6c164.667 0 309 2 433 6
c-3.33301 -24 -5 -46 -5 -66c-120.667 4 -265 6 -433 6c-165.333 0 -309.666 -2 -432.999 -6c3.33301 25.333 5 47.333 5 66z" />
    <glyph glyph-name="greater" unicode="&#x3e;" horiz-adv-x="1032" 
d="M73 262v70l811 352l-811 353v70l887 -390v-65z" />
    <glyph glyph-name="question" unicode="?" horiz-adv-x="911" 
d="M337 209l5 130.002c2 44.667 4.5 83.334 7.5 116.001s6.5 56.5 10.5 71.5s9.5 29 16.5 42s22 34.333 45 64s53.833 66.334 92.5 110.001l106.5 123.5c32.333 38.667 56.666 72.667 72.999 102s27 54 32 74s7.5 39.667 7.5 59c0 46 -13.667 87.667 -41 125
s-67.166 64.166 -119.499 80.499s-110.5 24.5 -174.5 24.5c-44 0 -89 -3.16699 -135 -9.5s-112 -19.5 -198 -39.5c6.66699 29.333 11.334 54 14.001 74c56.667 10 113.834 17.5 171.501 22.5s106.5 7.5 146.5 7.5c79.333 0 151.166 -10.167 215.499 -30.5
s112.333 -53.833 144 -100.5s47.5 -96.334 47.5 -149.001c0 -22.667 -2.83301 -46.834 -8.5 -72.501s-18 -56.334 -37 -92.001s-45.667 -74.5 -80 -116.5s-71.833 -84 -112.5 -126c-42 -44 -73.667 -80 -95 -108c-11.333 -14 -20.5 -28.333 -27.5 -43
s-12.833 -31.5 -17.5 -50.5s-8.33398 -49.833 -11.001 -92.5l-12 -196c-10.667 0.666992 -21.667 1 -33 1c-12 0 -23 -0.333008 -33 -1zM309 0.00195312c1.33301 27.333 2.16895 49 2.50195 65s1.16602 30.667 2.49902 44c23.333 -0.666992 42 -1 56 -1
s32.667 0.333008 56 1c-2 -20 -3.33301 -39.167 -4 -57.5s-1.33398 -35.5 -2.00098 -51.5c-24 0.666992 -42.667 1 -56 1c-14 0 -32.333 -0.333008 -55 -1z" />
    <glyph glyph-name="at" unicode="@" horiz-adv-x="1618" 
d="M1147 997c-12 -65.333 -21.334 -122.333 -28.001 -171l-40 -299c-4.66699 -26 -7 -47.333 -7 -64c0 -28 7 -48.333 21 -61s31 -19 51 -19c16.667 0 33.667 2.83301 51 8.5s38.833 17.667 64.5 36s50.667 43.666 75 75.999s45 67.5 62 105.5s30 78.167 39 120.5
s13.5 85.166 13.5 128.499c0 68.667 -11.5 133.334 -34.5 194.001s-60 112 -111 154s-110.833 72.167 -179.5 90.5s-140.334 27.5 -215.001 27.5c-102.667 0 -198.667 -16.5 -288 -49.5s-167 -85.5 -233 -157.5s-116.667 -156.333 -152 -253s-53 -196.667 -53 -300
c0 -78 12 -151.167 36 -219.5s61.5 -125.833 112.5 -172.5s112.333 -80.167 184 -100.5s147.5 -30.5 227.5 -30.5c44 0 87.833 2.83301 131.5 8.5s85.834 16.334 126.501 32.001s84.334 39.834 131.001 72.501c8.66699 -16 19 -32 31 -48
c-58.667 -42.667 -123.334 -74.334 -194.001 -95.001s-149.334 -31 -236.001 -31c-92 0 -179.5 12.833 -262.5 38.5s-152 64.334 -207 116.001s-95 113.167 -120 184.5s-37.5 150 -37.5 236c0 118 22.333 233 67 345s103.667 204.167 177 276.5s159.333 125.333 258 159
s202 50.5 310 50.5c82.667 0 162.167 -10.833 238.5 -32.5s142.5 -56.167 198.5 -103.5s98.333 -105.666 127 -174.999s43 -142 43 -218c0 -65.333 -10 -129.166 -30 -191.499s-49.333 -120 -88 -173s-82.5 -94.5 -131.5 -124.5s-97.167 -45 -144.5 -45
c-36.667 0 -68 11 -94 33s-39 49.667 -39 83c0 3.33301 0.333008 8.33301 1 15c-29.333 -42 -67.166 -74.333 -113.499 -97s-94.166 -34 -143.499 -34c-48 0 -92.5 11.167 -133.5 33.5s-71 53.166 -90 92.499s-28.5 83.333 -28.5 132c0 75.333 18.5 148.666 55.5 219.999
s88.833 126.5 155.5 165.5s149.334 58.5 248.001 58.5c19.333 0 38.166 -0.833008 56.499 -2.5s38.833 -4.83398 61.5 -9.50098zM1062 942c-43.333 11.333 -83.999 16.999 -121.999 16.999c-71.333 0 -135 -14.667 -191 -44s-100 -74.666 -132 -135.999
s-48 -125.333 -48 -192c0 -36 6.83301 -69.833 20.5 -101.5s34.667 -55.667 63 -72s60.833 -24.5 97.5 -24.5c38.667 0 75.5 8.5 110.5 25.5s66.167 43.5 93.5 79.5s47.166 76 59.499 120s28.5 153.333 48.5 328z" />
    <glyph glyph-name="A" unicode="A" horiz-adv-x="1318" 
d="M-33 0l334.999 657l295 582l61 126c16.667 -0.666992 34.667 -1 54 -1c20 0 38 0.333008 54 1l194 -550l295 -815c-17.333 0.666992 -32.333 1 -45 1c-13.333 0 -28.333 -0.333008 -45 -1c-18.667 64 -53.667 169.833 -105 317.5s-91.666 259.167 -120.999 334.5h-565
l-315 -652c-16.667 0.666992 -32 1 -46 1s-29.333 -0.333008 -46 -1zM404.999 717h512l-213 587z" />
    <glyph glyph-name="B" unicode="B" horiz-adv-x="1136" 
d="M149 0l21.001 328.999l29 858c0.666992 32.667 1 64.667 1 96l-1 82l207 -1l217 1c68.667 0 120.5 -3 155.5 -9s67 -16.667 96 -32s54.833 -36 77.5 -62s39.834 -57 51.501 -93s17.5 -73.667 17.5 -113c0 -32.667 -3.83301 -64.167 -11.5 -94.5
s-19.834 -59.166 -36.501 -86.499s-36.167 -51.5 -58.5 -72.5s-44 -37.5 -65 -49.5s-48.5 -25 -82.5 -39c34 -10.667 61.167 -20.334 81.5 -29.001s40.833 -19.667 61.5 -33s39.167 -29 55.5 -47s30.166 -38.167 41.499 -60.5s20.333 -47.666 27 -75.999
s10 -57.833 10 -88.5c0 -62 -12.5 -118.5 -37.5 -169.5s-62.333 -93.833 -112 -128.5s-102.667 -57 -159 -67s-118.5 -15 -186.5 -15l-242 1zM263.001 738.999h197.001c103.333 0 172.333 2.66699 207 8c44.667 7.33301 87.334 21.333 128.001 42
c27.333 14.667 52.666 35.667 75.999 63s41.666 59.5 54.999 96.5s20 75.5 20 115.5c0 38.667 -6.5 72.834 -19.5 102.501s-32 55.167 -57 76.5s-54 36.666 -87 45.999s-84.5 14 -154.5 14h-345zM238.002 62.999h290.004c91.333 0 157.666 5.33301 198.999 16
s80.666 28.167 117.999 52.5s67.166 60 89.499 107s33.5 96.5 33.5 148.5c0 50 -10.333 94.5 -31 133.5s-49.334 71 -86.001 96s-76 41.167 -118 48.5s-91.667 11 -149 11h-325z" />
    <glyph glyph-name="C" unicode="C" horiz-adv-x="1250" 
d="M1155 106c-5.33301 -23.333 -9.66797 -50.666 -13.001 -81.999c-68 -16.667 -131.833 -28.334 -191.5 -35.001s-113.167 -10 -160.5 -10c-97.333 0 -189.666 15.667 -276.999 47s-162.333 77.833 -225 139.5s-108.667 134.834 -138 219.501s-44 173.667 -44 267
c0 104 17.167 204.667 51.5 302s84.5 178.166 150.5 242.499s145.167 112 237.5 143s190.833 46.5 295.5 46.5c35.333 0 73.5 -1.66699 114.5 -5s74.667 -7 101 -11s61.5 -10.667 105.5 -20c1.33301 -27.333 4.33301 -56 9 -86c-73.333 24 -136.5 40 -189.5 48
s-104.167 12 -153.5 12c-86 0 -168.667 -13.333 -248 -40s-149.333 -69.5 -210 -128.5s-107.167 -132 -139.5 -219s-48.5 -176.833 -48.5 -269.5c0 -89.333 13.333 -174.5 40 -255.5s67.334 -148.833 122.001 -203.5s119.667 -96.167 195 -124.5
s157.666 -42.5 246.999 -42.5c110 0 233 21.667 369 65z" />
    <glyph glyph-name="D" unicode="D" horiz-adv-x="1478" 
d="M149 0l28.9971 475l27 779c0.666992 28.667 1 65.667 1 111l221 -1l274 1c128.667 0 231.834 -10 309.501 -30s146.834 -61.167 207.501 -123.5s103.667 -133 129 -212s38 -164.167 38 -255.5c0 -108.667 -19.5 -213.5 -58.5 -314.5s-96.667 -185.833 -173 -254.5
s-162.666 -115 -258.999 -139s-201.5 -36 -315.5 -36l-212 1zM234.997 63c118 -2 210.998 -3.00098 278.998 -3.00098c67.333 0 136.5 3.33301 207.5 10s134.5 18.667 190.5 36s110.833 49 164.5 95s97.667 97.333 132 154s59.833 119.5 76.5 188.5s25 138.833 25 209.5
c0 68 -8 133.333 -24 196c-11.333 45.333 -28.666 87.666 -51.999 126.999c-26 44.667 -56.167 82.5 -90.5 113.5s-70.166 54.333 -107.499 70s-84 26.834 -140 33.501c-50.667 6.66699 -110 10.334 -178 11.001h-238l-193 -1z" />
    <glyph glyph-name="E" unicode="E" horiz-adv-x="1073" 
d="M149 0c12.667 180.667 24.166 413.835 34.499 699.502s15.5 507.5 15.5 665.5c148 -0.666992 287 -1 417 -1l365 1c-2.66699 -26.667 -4 -50.334 -4 -71.001l-80 6c-20.667 2 -56.667 3.16699 -108 3.5s-101.666 0.5 -150.999 0.5c-158 0 -278 -0.333008 -360 -1
l-20 -573c100.667 -2 193 -3 277 -3c100 0 223.333 1 370 3c-2.66699 -20 -4.33398 -42 -5.00098 -66l-377 3c-44 0 -133.333 -1 -268 -3l-21 -601l287 -1c112.667 0 190.834 0.5 234.501 1.5s103.167 3.5 178.5 7.5c-3.33301 -26.667 -5 -50.334 -5 -71.001
c-160 0.666992 -277 1 -351 1z" />
    <glyph glyph-name="F" unicode="F" horiz-adv-x="1019" 
d="M149 0l18.0039 347.999l21 670l4 198c0.666992 48.667 1 98.334 1 149.001c139.333 -0.666992 272.333 -1 399 -1l348 1c-2.66699 -26.667 -4 -50.334 -4 -71.001c-57.333 4.66699 -121.833 7.33398 -193.5 8.00098s-136.834 1 -195.501 1h-276l-18 -575l213 -3
c181.333 0 316 1 404 3c-2.66699 -19.333 -4.33398 -42.333 -5.00098 -69l-178 2c-70 1.33301 -125.333 2 -166 2c-86 0 -176.667 -1.33301 -272 -4c-8 -286 -12 -505.667 -12 -659c-16.667 0.666992 -31.334 1 -44.001 1s-27.334 -0.333008 -44.001 -1z" />
    <glyph glyph-name="G" unicode="G" horiz-adv-x="1495" 
d="M910 752c122 -0.666992 211.671 -1.00098 269.004 -1.00098l175 1l-17 -316l-11 -386c-104.667 -25.333 -198.834 -43.5 -282.501 -54.5s-154.834 -16.5 -213.501 -16.5c-102 0 -199.5 14.333 -292.5 43s-172.5 71.834 -238.5 129.501s-114.667 129.5 -146 215.5
s-47 177 -47 273c0 110 20.5 214.5 61.5 313.5s97.5 181.167 169.5 246.5s155 112.666 249 141.999s195.667 44 305 44c61.333 0 123.833 -3.66699 187.5 -11s138.5 -20.666 224.5 -39.999c1.33301 -34 4 -64.667 8 -92c-95.333 31.333 -176.666 52.666 -243.999 63.999
s-130.333 17 -189 17c-98 0 -191.5 -15.333 -280.5 -46s-164.333 -76.667 -226 -138s-108.667 -137 -141 -227s-48.5 -182.667 -48.5 -278c0 -90 14.167 -173.667 42.5 -251s70.833 -140.666 127.5 -189.999s125.667 -87.166 207 -113.499s170.666 -39.5 267.999 -39.5
c33.333 0 69.666 1.83301 108.999 5.5s78.666 8.66699 117.999 15s71.5 12.666 96.5 18.999s57.833 15.833 98.5 28.5l24 581h-119c-32 0 -64 -0.333008 -96 -1l-151 -6c2 20.667 3 40 3 58v11z" />
    <glyph glyph-name="H" unicode="H" horiz-adv-x="1435" 
d="M149 0c16 287.333 28.001 555.667 36.001 805s12 436 12 560c17.333 -0.666992 32 -1 44 -1s26.333 0.333008 43 1l-27 -639h930l19 502c1.33301 28 2 73.667 2 137c17.333 -0.666992 32 -1 44 -1s26.333 0.333008 43 1c-25.333 -413.333 -42.666 -868.333 -51.999 -1365
c-16.667 0.666992 -31.334 1 -44.001 1c-13.333 0 -28.333 -0.333008 -45 -1c16.667 232 27 453.667 31 665h-930l-16 -491l-2 -174c-17.333 0.666992 -32 1 -44 1c-12.667 0 -27.334 -0.333008 -44.001 -1z" />
    <glyph glyph-name="I" unicode="I" horiz-adv-x="426" 
d="M149 0l22 401l20 601l4 208c0.666992 55.333 1 107 1 155c17.333 -0.666992 32.333 -1 45 -1c13.333 0 28.333 0.333008 45 1l-18 -362l-24 -745l-5 -258c-16.667 0.666992 -31.667 1 -45 1s-28.333 -0.333008 -45 -1z" />
    <glyph glyph-name="J" unicode="J" horiz-adv-x="770" 
d="M-35 6c-2 26.667 -5 52.668 -9 78.001c68 -18 118.667 -29.667 152 -35s66 -8 98 -8c40 0 77.667 4.66699 113 14c30 8 56 19 78 33c18.667 11.333 34 24.333 46 39c16 18.667 30 41.667 42 69c12 28 20 58.333 24 91c5.33301 40.667 11 143 17 307l12 384l8 387
c17.333 -0.666992 32.333 -1 45 -1c13.333 0 28.333 0.333008 45 1c-9.33301 -138.667 -17 -273 -23 -403l-18 -428c-6.66699 -148.667 -13.334 -243.334 -20.001 -284.001c-7.33301 -40.667 -16.333 -72.334 -27 -95.001c-11.333 -24 -26.333 -46 -45 -66
c-20 -21.333 -43 -39.666 -69 -54.999c-30 -18 -61 -31 -93 -39c-40.667 -10 -86 -15 -136 -15c-26 0 -59.167 1.66699 -99.5 5s-87.166 10.333 -140.499 21z" />
    <glyph glyph-name="K" unicode="K" horiz-adv-x="1032" 
d="M153 0c13.333 207.333 24.333 446.832 33 718.499s13 466.167 13 583.5l-1 63c17.333 -0.666992 32.333 -1 45 -1s27.334 0.333008 44.001 1l-21 -437l-22 -765c-1.33301 -49.333 -2 -103.666 -2 -162.999c-16.667 0.666992 -31.334 1 -44.001 1
c-13.333 0 -28.333 -0.333008 -45 -1zM270 724.999l309.498 325.5c118.333 127.667 212.5 232.5 282.5 314.5c16.667 -0.666992 34.334 -1 53.001 -1s36 0.333008 52 1l-602 -635l656 -730c-23.333 0.666992 -42.666 1 -57.999 1c-14.667 0 -33.667 -0.333008 -57 -1l-60 75
l-44.5 52.5l-91.5 105.5z" />
    <glyph glyph-name="L" unicode="L" horiz-adv-x="923" 
d="M147 0l20.999 317.002l26 717l6 331c16.667 -0.666992 31.334 -1 44.001 -1c13.333 0 28.333 0.333008 45 1l-36 -780l-19 -522l205 -1c146.667 0 247.667 0.666992 303 2s109.333 3.66602 162 6.99902c-2.66699 -26.667 -4 -50.334 -4 -71.001
c-141.333 0.666992 -260.333 1 -357 1z" />
    <glyph glyph-name="M" unicode="M" horiz-adv-x="1687" 
d="M121 0l21.002 185l58 734l31 446c23.333 -0.666992 44.666 -1 63.999 -1c20 0 41.667 0.333008 65 1l44 -135l79 -224l263 -735l72 -194l528 1168l49 120c22.667 -0.666992 44.334 -1 65.001 -1s42.334 0.333008 65.001 1l-10 -579
c-1.33301 -130.667 -2 -227.667 -2 -291c0 -208.667 2 -373.667 6 -495c-17.333 0.666992 -33 1 -47 1c-14.667 0 -30.334 -0.333008 -47.001 -1l17 880c2 106 3 199.667 3 281v132l-170 -373l-406 -920c-16 0.666992 -33.667 1 -53 1s-37 -0.333008 -53 -1l-436 1206
l-31 80l-11 -117c-2.66699 -32.667 -7.33398 -98.667 -14.001 -198l-53 -736c-2 -31.333 -3.66699 -62.833 -5 -94.5s-2.33301 -78.5 -3 -140.5c-17.333 0.666992 -32.333 1 -45 1s-27.334 -0.333008 -44.001 -1z" />
    <glyph glyph-name="N" unicode="N" horiz-adv-x="1486" 
d="M149 0l22.999 393.999l28 810l3 161c16 -0.666992 36 -1 60 -1c24.667 0 45 0.333008 61 1l83 -131c22 -33.333 68 -99.666 138 -198.999l513 -740l159 -224l43 1139l3 155c17.333 -0.666992 31 -1 41 -1c10.667 0 24.667 0.333008 42 1l-19 -314l-32 -854l-4 -197
c-23.333 0.666992 -43.666 1 -60.999 1s-37.333 -0.333008 -60 -1l-183 272l-634 912l-74 101c-2 -34 -3.66699 -69 -5 -105l-36 -936l-5 -244c-17.333 0.666992 -31.333 1 -42 1s-24.667 -0.333008 -42 -1z" />
    <glyph glyph-name="O" unicode="O" horiz-adv-x="1593" 
d="M831 1386c95.333 0 185.499 -14.333 270.499 -43s159.167 -75.334 222.5 -140.001s108.5 -138.834 135.5 -222.501s40.5 -172.5 40.5 -266.5c0 -103.333 -15.333 -202.666 -46 -297.999s-77 -175.333 -139 -240s-139.5 -113.667 -232.5 -147s-190.5 -50 -292.5 -50
c-98 0 -192 15.5 -282 46.5s-165.333 76.667 -226 137s-105.167 133 -133.5 218s-42.5 174.167 -42.5 267.5c0 104.667 17.333 206.167 52 304.5s84.834 179.833 150.501 244.5s144.167 112.334 235.5 143.001s187 46 287 46zM827.999 1324
c-92 0 -178.667 -14.1689 -260 -42.502s-152 -74.333 -212 -138s-104 -138.667 -132 -225s-42 -176.5 -42 -270.5c0 -88.667 14.667 -173.667 44 -255s72.333 -148.666 129 -201.999s123.167 -91.666 199.5 -114.999s156.833 -35 241.5 -35c89.333 0 173.833 13 253.5 39
s148.667 69.333 207 130s101 133.5 128 218.5s40.5 174.833 40.5 269.5c0 90 -12.5 175.667 -37.5 257s-65.167 150.5 -120.5 207.5s-121 98.167 -197 123.5s-156.667 38 -242 38z" />
    <glyph glyph-name="P" unicode="P" horiz-adv-x="1028" 
d="M149 0c9.33301 113.333 17.3359 250.334 24.0029 411.001l19 498c6 171.333 9 323.333 9 456l199 -1l223 1c64.667 0 117.167 -3.83301 157.5 -11.5s76.833 -25.667 109.5 -54s57.5 -63.166 74.5 -104.499s25.5 -85 25.5 -131c0 -82 -21.167 -154.833 -63.5 -218.5
s-99.333 -111.167 -171 -142.5s-152.834 -47 -243.501 -47c-51.333 0 -108 6 -170 18c-5.33301 19.333 -12 40 -20 62c61.333 -12 120 -18 176 -18c57.333 0 112.166 6.5 164.499 19.5s97 34.667 134 65s65.833 68.333 86.5 114s31 93.834 31 144.501
c0 34.667 -6.16699 68 -18.5 100s-29.333 58.167 -51 78.5s-49 35.666 -82 45.999s-88.167 15.5 -165.5 15.5h-172l-83 1l-59 1c-8.66699 -158.667 -17.667 -385.334 -27 -680.001s-14 -467.334 -14 -518.001l1 -105c-17.333 0.666992 -33 1 -47 1
c-14.667 0 -30.334 -0.333008 -47.001 -1z" />
    <glyph glyph-name="Q" unicode="Q" horiz-adv-x="1593" 
d="M1479 121c-6 -27.333 -10.6699 -56.6631 -14.0029 -87.9961c-118 -15.333 -210.833 -26.333 -278.5 -33s-133.167 -11.834 -196.5 -15.501s-115.666 -5.5 -156.999 -5.5c-106 0 -206.167 13.667 -300.5 41s-174.666 72.666 -240.999 135.999s-113.833 136.5 -142.5 219.5
s-43 172.5 -43 268.5c0 105.333 16.833 206.5 50.5 303.5s83.334 178.167 149.001 243.5s144.167 114.166 235.5 146.499s187.333 48.5 288 48.5s196 -16.833 286 -50.5s164.333 -84.167 223 -151.5s100.334 -141.666 125.001 -222.999s37 -168.333 37 -261
c0 -66.667 -6.5 -130.834 -19.5 -192.501s-31.333 -117.5 -55 -167.5s-53.834 -96 -90.501 -138c-29.333 -34 -63 -64.667 -101 -92c-24.667 -18 -57 -38 -97 -60c50 3.33301 91.667 7.66602 125 12.999s66 12.5 98 21.5s71.667 21.167 119 36.5zM827.997 1324
c-86.667 0 -168.667 -12.999 -246 -38.999s-146.333 -68.167 -207 -126.5s-108 -132 -142 -221s-51 -182.167 -51 -279.5c0 -86 11.333 -166 34 -240s62 -141.333 118 -202s123.667 -105 203 -133s163.333 -42 252 -42c91.333 0 177.833 14.5 259.5 43.5
s151.5 73.667 209.5 134s100.5 132.666 127.5 216.999s40.5 173.833 40.5 268.5c0 85.333 -10.833 165 -32.5 239s-57.834 141.167 -108.501 201.5s-116.667 105.333 -198 135s-167.666 44.5 -258.999 44.5z" />
    <glyph glyph-name="R" unicode="R" horiz-adv-x="1038" 
d="M149 0l16.0059 242.002l29 753l4 214l1 156l199 -1l228 1c94.667 0 163.667 -12.5 207 -37.5s77.5 -60.667 102.5 -107s37.5 -99.5 37.5 -159.5c0 -74.667 -18.833 -143.167 -56.5 -205.5s-89.167 -109.833 -154.5 -142.5s-140.333 -49 -225 -49
c-10.667 0 -26.667 0.666992 -48 2l479 -666c-16.667 0.666992 -34 1 -52 1c-18.667 0 -36 -0.333008 -52 -1l-131 198l-381 539c59.333 -10.667 110.666 -16 153.999 -16c52.667 0 103.667 7.16699 153 21.5s91.666 35.833 126.999 64.5s62.666 64.5 81.999 107.5
s29 89.833 29 140.5c0 34 -4.66699 65.667 -14 95s-24.333 55.166 -45 77.499s-41.834 38.166 -63.501 47.499s-49.5 16.166 -83.5 20.499s-70 6.5 -108 6.5l-164 -1c-36 0 -82 0.666992 -138 2c-22 -527.333 -34.667 -961.666 -38 -1303
c-16.667 0.666992 -32.334 1 -47.001 1s-30.334 -0.333008 -47.001 -1z" />
    <glyph glyph-name="S" unicode="S" horiz-adv-x="905" 
d="M76 42c0 26 -1.99609 56.001 -5.99609 90.001c126 -60.667 241 -91 345 -91c59.333 0 113 9.66699 161 29s85.167 48.166 111.5 86.499s39.5 82.166 39.5 131.499c0 24.667 -3.5 48 -10.5 70s-18.5 44.667 -34.5 68s-43.833 53.166 -83.5 89.499
s-105.5 92.833 -197.5 169.5l-79 66c-27.333 24 -53.666 49 -78.999 75s-46.333 50.167 -63 72.5s-29.167 42.333 -37.5 60s-14.833 37.167 -19.5 58.5s-7 43.333 -7 66c0 54 14.667 104.333 44 151s73 83.667 131 111s131.667 41 221 41c62 0 141 -9 237 -27
c0.666992 -25.333 3.66699 -53.333 9 -84c-61.333 19.333 -112.333 32.333 -153 39s-79.334 10 -116.001 10c-66 0 -120.333 -10.833 -163 -32.5s-75.667 -50.667 -99 -87s-35 -74.5 -35 -114.5c0 -21.333 3 -42.166 9 -62.499s15.833 -41 29.5 -62s31.834 -44 54.501 -69
s52.167 -53.5 88.5 -85.5l145 -123l126 -106.5c23.667 -21 46.167 -43.5 67.5 -67.5s38.666 -47.833 51.999 -71.5s23.166 -48.167 29.499 -73.5s9.5 -52 9.5 -80c0 -62.667 -15.833 -117.667 -47.5 -165s-78.334 -83.166 -140.001 -107.499s-130.834 -36.5 -207.501 -36.5
c-49.333 0 -97.333 3.83301 -144 11.5s-109.334 24.5 -188.001 50.5z" />
    <glyph glyph-name="T" unicode="T" horiz-adv-x="965" 
d="M417 0l15 249l39 1054c-164.667 0 -308 -3 -430 -9c3.33301 27.333 5 51 5 71c160.667 -0.666992 326.334 -1 497.001 -1l285 1h151c-3.33301 -26.667 -5 -50.334 -5 -71.001c-80.667 6 -203.334 9 -368.001 9h-58l-40 -1101c-0.666992 -15.333 -1 -30.666 -1 -45.999
v-156c-16.667 0.666992 -31.667 1 -45 1c-12.667 0 -27.667 -0.333008 -45 -1z" />
    <glyph glyph-name="U" unicode="U" horiz-adv-x="1441" 
d="M194 1365c16.667 -0.666992 31.6689 -0.999023 45.002 -0.999023c14 0 29.333 0.333008 46 1l-46 -820l-2 -74v-17c0 -80 10.333 -145.5 31 -196.5s53.834 -93.333 99.501 -127s95.667 -57 150 -70s113.5 -19.5 177.5 -19.5c61.333 0 120.333 6.33301 177 19
c42.667 9.33301 82 23.666 118 42.999c28.667 15.333 54.667 34.666 78 57.999s43.166 49.833 59.499 79.5s28.166 60.834 35.499 93.501c13.333 64 22 142.333 26 235l20 411c6.66699 154.667 10 283 10 385c17.333 -0.666992 32 -1 44 -1s26.667 0.333008 44 1l-26 -455
l-17 -401c-5.33301 -88 -15.333 -161 -30 -219c-9.33301 -34.667 -23 -67.667 -41 -99c-17.333 -28.667 -38 -54 -62 -76c-27.333 -25.333 -60.333 -47.666 -99 -66.999c-42 -21.333 -87.333 -37.333 -136 -48c-64 -13.333 -130 -20 -198 -20
c-74.667 0 -142.334 7.33301 -203.001 22c-53.333 12.667 -102.333 32.667 -147 60s-81 58.666 -109 93.999c-23.333 28.667 -42 66 -56 112s-21 101.667 -21 167c0 58.667 2 127.667 6 207l23 534c2 62 3 125 3 189z" />
    <glyph glyph-name="V" unicode="V" horiz-adv-x="1301" 
d="M548 0l-35.002 113.001c-6.66699 22.667 -13.667 45 -21 67l-57 162l-370 1023c17.333 -0.666992 32.333 -1 45 -1c13.333 0 28.333 0.333008 45 1l58 -185l397 -1119l543 1069l52 108c15.333 31.333 35 73.666 59 126.999c16.667 -0.666992 32.334 -1 47.001 -1
s30.334 0.333008 47.001 1c-60 -108 -138.333 -257 -235 -447l-262 -511c-78 -151.333 -144.667 -287 -200 -407c-23.333 0.666992 -42 1 -56 1c-14.667 0 -33.667 -0.333008 -57 -1z" />
    <glyph glyph-name="W" unicode="W" horiz-adv-x="2017" 
d="M548 0l-333.001 983l-85 247c-10.667 30.667 -27.667 75.667 -51 135c16.667 -0.666992 33 -1 49 -1c16.667 0 33.334 0.333008 50.001 1l52 -179l371 -1108l50 94l354 708l-93 276l-74 209c17.333 -0.666992 31 -1 41 -1c11.333 0 25.333 0.333008 42 1
c38 -134.667 80.333 -268 127 -400l174 400c16.667 -0.666992 32.334 -1 47.001 -1s30 0.333008 46 1l-126 -257l-108 -231l15 -51l226 -663l34 -91l61 121l68 145l427 911l51 116c16.667 -0.666992 31.667 -1 45 -1s28.666 0.333008 45.999 1
c-37.333 -71.333 -111.333 -223 -222 -455l-257 -537l-172 -373c-16.667 0.666992 -34 1 -52 1s-35.333 -0.333008 -52 -1l-111 338l-152 449l-26 -50c-7.33301 -12.667 -23.333 -44.667 -48 -96l-319 -641c-16.667 0.666992 -32.667 1 -48 1s-31 -0.333008 -47 -1z" />
    <glyph glyph-name="X" unicode="X" horiz-adv-x="1151" 
d="M-23 0c80.667 95.333 266.002 329.333 556.002 702l-455 663c16.667 -0.666992 34 -1 52 -1s35 0.333008 51 1l116 -184l285 -420l387 494l29.5 40.5c10.333 14.333 26.166 37.5 47.499 69.5c16.667 -0.666992 33.667 -1 51 -1s34 0.333008 50 1l-455 -571l-69 -90
l190 -284l285 -420c-16.667 0.666992 -33.334 1 -50.001 1c-17.333 0 -34.333 -0.333008 -51 -1l-147 232.5l-279 409.5l-202 -256l-222 -292l-68 -94c-16.667 0.666992 -33.667 1 -51 1c-18 0 -35 -0.333008 -51 -1z" />
    <glyph glyph-name="Y" unicode="Y" horiz-adv-x="987" 
d="M408 0l30.002 433l10 186l-134 238l-296 508c17.333 -0.666992 32.333 -1 45 -1c13.333 0 28.333 0.333008 45 1l43 -81c8.66699 -16.667 36.334 -65 83.001 -145l258 -451l239 358l147 229l55 90c17.333 -0.666992 32.666 -1 45.999 -1s28.666 0.333008 45.999 1
l-504 -750c-0.666992 -32.667 -2 -63.667 -4 -93l-13 -257c-2 -38 -3.66699 -80 -5 -126l-2 -139c-17.333 0.666992 -32.333 1 -45 1s-27.334 -0.333008 -44.001 -1z" />
    <glyph glyph-name="Z" unicode="Z" horiz-adv-x="1095" 
d="M54 0c2.66699 33.333 3.99902 63.999 3.99902 91.999l898 1211l-63 2l-329 -1c-97.333 0 -175 -0.833008 -233 -2.5s-122 -4.5 -192 -8.5c2 20 3 40.333 3 61v11c114 -0.666992 269.667 -1 467 -1l275 1h146c-2.66699 -29.333 -4 -59.666 -4 -90.999l-823 -1112l-72 -101
c128.667 -0.666992 278.334 -1 449.001 -1c95.333 0 167.833 0.5 217.5 1.5s107.5 3.83301 173.5 8.5c-2 -20 -3 -39.667 -3 -59v-11c-118 0.666992 -261.667 1 -431 1c-233.333 0 -394.333 -0.333008 -483 -1z" />
    <glyph glyph-name="bracketleft" unicode="[" horiz-adv-x="609" 
d="M266 1365c45.333 -0.666992 93.001 -1 143.001 -1c50.667 0 98.667 0.333008 144 1c-2.66699 -18 -4.33398 -36 -5.00098 -54c-30 0.666992 -63.667 1 -101 1c-36.667 0 -71.334 -0.333008 -104.001 -1l-34 -852l-26 -848c33.333 -0.666992 68 -1 104 -1
c35.333 0 69.666 0.333008 102.999 1c-2 -18 -3 -36.333 -3 -55c-41.333 1.33301 -88.666 2 -141.999 2s-100.666 -0.666992 -141.999 -2l36 911z" />
    <glyph glyph-name="backslash" unicode="\" horiz-adv-x="824" 
d="M940 -444c-16.667 1.33301 -31.332 2 -43.999 2c-12 0 -26.667 -0.666992 -44 -2l-98 233l-698 1576c17.333 -0.666992 31.666 -1 42.999 -1c12 0 26.667 0.333008 44 1l65 -158l502 -1139z" />
    <glyph glyph-name="bracketright" unicode="]" horiz-adv-x="609" 
d="M317 -444c-45.333 1.33301 -93 2 -143 2s-97.667 -0.666992 -143 -2c2.66699 18 4.33398 36.333 5.00098 55c30 -0.666992 63.667 -1 101 -1c36 0 70.667 0.333008 104 1l49 1322l11 378c-33.333 0.666992 -68 1 -104 1s-70.667 -0.333008 -104 -1c2.66699 18 4 36 4 54
c41.333 -1.33301 88.666 -2 141.999 -2c52.667 0 100 0.666992 142 2l-36 -910z" />
    <glyph glyph-name="asciicircum" unicode="^" horiz-adv-x="1032" 
d="M166 791h-81l386 575h91l385 -575h-83l-350 522z" />
    <glyph glyph-name="underscore" unicode="_" horiz-adv-x="1032" 
d="M4 -161h1024v-67h-1024v67z" />
    <glyph glyph-name="grave" unicode="`" horiz-adv-x="1024" 
d="M580 1137c-5.33301 1.33301 -12 2 -20 2c-8.66699 0 -15.667 -0.666992 -21 -2l-57 100l-107 179c16.667 -0.666992 36 -1 58 -1s41.333 0.333008 58 1z" />
    <glyph glyph-name="a" unicode="a" horiz-adv-x="1021" 
d="M182 904c4.66699 22.667 8.33398 48.666 11.001 77.999c68 18.667 127 31.5 177 38.5s100.667 10.5 152 10.5c59.333 0 114.5 -5.16699 165.5 -15.5s92.667 -27.666 125 -51.999s53.666 -52.166 63.999 -83.499s15.5 -63.333 15.5 -96
c0 -33.333 -1.16699 -75.5 -3.5 -126.5s-5.5 -105.833 -9.5 -164.5s-7.66699 -131.834 -11 -219.501s-5 -150.834 -5 -189.501v-84c-17.333 0.666992 -31.333 1 -42 1c-11.333 0 -25.333 -0.333008 -42 -1c9.33301 102 15.833 184.667 19.5 248s6.66699 131.5 9 204.5
s5.5 141.167 9.5 204.5c-20.667 -17.333 -36.5 -30.166 -47.5 -38.499s-23 -15.833 -36 -22.5s-28.667 -13.5 -47 -20.5s-35.166 -13 -50.499 -18s-52.5 -15.5 -111.5 -31.5s-101.167 -28 -126.5 -36c-57.333 -18.667 -101.666 -36.334 -132.999 -53.001
c-34 -18 -62.333 -38 -85 -60c-20 -19.333 -34.667 -39.666 -44 -60.999c-10.667 -25.333 -16 -52.333 -16 -81c0 -43.333 13 -81 39 -113s58.833 -54.5 98.5 -67.5s87.5 -19.5 143.5 -19.5c28 0 55 1.5 81 4.5s50.5 7 73.5 12s56.167 14.5 99.5 28.5
c-6 -25.333 -11 -50.666 -15 -75.999c-54 -10.667 -97.833 -17.5 -131.5 -20.5s-65.5 -4.5 -95.5 -4.5c-56 0 -107.667 4.33301 -155 13s-87 25.667 -119 51s-55.667 54.666 -71 87.999s-23 68.333 -23 105c0 28 4.66699 55.167 14 81.5s23.666 51.5 42.999 75.5
c16 20 37.333 38.667 64 56c31.333 21.333 66 39.333 104 54c44 17.333 91.333 33.333 142 48c14 4 69 18.333 165 43c43.333 11.333 84.333 25.5 123 42.5s68.667 40.667 90 71s32 61.166 32 92.499c0 22.667 -5 44.5 -15 65.5s-27.833 40.833 -53.5 59.5
s-57.5 31.667 -95.5 39s-78 11 -120 11c-48.667 0 -94.334 -3.16699 -137.001 -9.5s-78.667 -13.666 -108 -21.999s-66.333 -21.5 -111 -39.5z" />
    <glyph glyph-name="b" unicode="b" horiz-adv-x="1158" 
d="M132 0l7.99902 99.001l29 824l11 442c17.333 -0.666992 31.333 -1 42 -1c11.333 0 25.666 0.333008 42.999 1c-7.33301 -75.333 -12.333 -150 -15 -224l-7 -156c73.333 18.667 134.833 31 184.5 37s98.834 9 147.501 9c84.667 0 158.5 -10.5 221.5 -31.5
s115 -56 156 -105s70 -103.5 87 -163.5s25.5 -123 25.5 -189c0 -74 -10 -145.833 -30 -215.5s-51.167 -132.334 -93.5 -188.001s-93.333 -96 -153 -121s-125.834 -37.5 -198.501 -37.5c-42 0 -82.167 5 -120.5 15s-72 23.667 -101 41s-53.167 36.5 -72.5 57.5
s-34.666 42 -45.999 63s-23 49.5 -35 85.5l-2 -242c-17.333 0.666992 -31 1 -41 1c-9.33301 0 -22.666 -0.333008 -39.999 -1zM240.999 914.001c-5.33301 -135.333 -9.33301 -223.332 -12 -263.999s-4 -88.334 -4 -143.001c0 -71.333 5.33301 -134.666 16 -189.999
s31.334 -104.666 62.001 -147.999s70.5 -76.5 119.5 -99.5s103.167 -34.5 162.5 -34.5c60 0 116 11.5 168 34.5s95.333 59.167 130 108.5s61.167 107.166 79.5 173.499s27.5 132.5 27.5 198.5c0 93.333 -17.833 173.166 -53.5 239.499s-83.334 113.833 -143.001 142.5
s-129.834 43 -210.501 43c-49.333 0 -100.666 -4.33301 -153.999 -13s-116 -24.667 -188 -48z" />
    <glyph glyph-name="c" unicode="c" horiz-adv-x="937" 
d="M822 80c-6.66699 -27.333 -11.3369 -52.665 -14.0039 -75.998c-84.667 -16.667 -163.667 -25 -237 -25c-69.333 0 -134.166 9.66699 -194.499 29s-112.166 50.5 -155.499 93.5s-75.5 97 -96.5 162s-31.5 133.167 -31.5 204.5c0 97.333 16.5 190 49.5 278
s85.667 157.5 158 208.5s170.166 76.5 293.499 76.5c90 0 175.667 -12.333 257 -37c0.666992 -22 3 -45.333 7 -70c-69.333 21.333 -123.666 35.166 -162.999 41.499s-75.333 9.5 -108 9.5c-70 0 -132 -13.5 -186 -40.5s-98.833 -65.167 -134.5 -114.5
s-61 -104.5 -76 -165.5s-22.5 -122.167 -22.5 -183.5c0 -66 8.33301 -127.667 25 -185s43.334 -104 80.001 -140s81.667 -63.5 135 -82.5s109.333 -28.5 168 -28.5c32.667 0 67.334 3.16699 104.001 9.5s84 18.166 142 35.499z" />
    <glyph glyph-name="d" unicode="d" horiz-adv-x="1156" 
d="M990 0c-17.333 0.666992 -30.3359 1.00098 -39.0029 1.00098c-9.33301 0 -22.666 -0.333008 -39.999 -1l15 254c-16 -38.667 -30.833 -69.334 -44.5 -92.001s-31 -44.834 -52 -66.501s-46.5 -41.167 -76.5 -58.5s-64.667 -31.333 -104 -42s-80 -16 -122 -16
c-64.667 0 -125.167 11.667 -181.5 35s-104 56.5 -143 99.5s-67 92.667 -84 149s-25.5 115.833 -25.5 178.5c0 84.667 15.667 166.334 47 245.001s76.833 144.834 136.5 198.501s127.334 91.5 203.001 113.5s155.5 33 239.5 33c68.667 0 143.667 -7.33301 225 -22
c3.33301 63.333 5 124 5 182c0 51.333 -1 109.333 -3 174c17.333 -0.666992 31.333 -1 42 -1s24.334 0.333008 41.001 1c-7.33301 -124.667 -13 -255.334 -17 -392.001l-14 -484c-5.33301 -185.333 -8 -307.333 -8 -366v-123zM940.997 940.001
c-47.333 14.667 -88.333 24.166 -123 28.499s-67.667 6.5 -99 6.5c-74.667 0 -146 -10.667 -214 -32s-127.333 -56 -178 -104s-89.834 -108.667 -117.501 -182s-41.5 -145.666 -41.5 -216.999c0 -78.667 15.167 -150.334 45.5 -215.001s73.333 -112.5 129 -143.5
s117.834 -46.5 186.501 -46.5c40.667 0 77.834 4.83301 111.501 14.5s64 23.167 91 40.5s52.667 40.5 77 69.5s45.666 63.167 63.999 102.5s31.833 82.333 40.5 129s14.667 118.334 18 215.001z" />
    <glyph glyph-name="e" unicode="e" horiz-adv-x="1032" 
d="M882 97c-5.33301 -24.667 -9.33691 -49.668 -12.0039 -75.001c-55.333 -16 -105 -27.167 -149 -33.5s-89 -9.5 -135 -9.5c-80 0 -150.833 10.833 -212.5 32.5s-114.5 57.667 -158.5 108s-75.333 106.833 -94 169.5s-28 129.334 -28 200.001c0 92.667 16 179.5 48 260.5
s84.667 148.167 158 201.5s164.333 80 273 80c74.667 0 142.334 -13.833 203.001 -41.5s107.834 -72.834 141.501 -135.501s50.5 -137 50.5 -223c0 -16 -0.666992 -31.333 -2 -46l-791 -1c-3.33301 -43.333 -5 -76 -5 -98c0 -63.333 9.33301 -124.666 28 -183.999
s46.834 -109 84.501 -149s82.834 -69.667 135.501 -89s108.334 -29 167.001 -29c89.333 0 188.666 20.667 297.999 62zM182.996 638.999l711.003 -1c-0.666992 46 -3.33398 81.333 -8.00098 106s-13.334 50 -26.001 76s-27.834 48.5 -45.501 67.5s-38.334 35 -62.001 48
s-50.167 22.833 -79.5 29.5s-60 10 -92 10c-35.333 0 -70 -4 -104 -12s-65 -19 -93 -33s-54.167 -31.833 -78.5 -53.5s-44.333 -45.167 -60 -70.5s-27.667 -49.5 -36 -72.5s-17.166 -54.5 -26.499 -94.5z" />
    <glyph glyph-name="f" unicode="f" horiz-adv-x="513" 
d="M143 0l18.002 354.002l18 600h-127c2.66699 18 4.33398 36.667 5.00098 56h124c3.33301 96.667 6 153.334 8 170.001c4 35.333 10 63.166 18 83.499s18.333 37.833 31 52.5s29.5 28.167 50.5 40.5s45.5 21.833 73.5 28.5s60.333 10 97 10
c21.333 0 43.166 -1.33301 65.499 -4s52.833 -8 91.5 -16c1.33301 -20 4.33301 -43 9 -69c-62.667 22 -119.667 33 -171 33c-28.667 0 -54.5 -3.83301 -77.5 -11.5s-41.5 -16.834 -55.5 -27.501s-25.833 -24.334 -35.5 -41.001s-16.834 -35 -21.501 -55s-8 -49.667 -10 -89
c0 -8 -1 -43 -3 -105h298c-2.66699 -17.333 -4.33398 -36 -5.00098 -56h-295l-23 -954c-17.333 0.666992 -31.333 1 -42 1c-10 0 -23.667 -0.333008 -41 -1z" />
    <glyph glyph-name="g" unicode="g" horiz-adv-x="1185" 
d="M179 -365c88 -25.333 160.664 -42.335 217.997 -51.002s110 -13 158 -13c56.667 0 109.334 7.33301 158.001 22c44.667 12.667 82.667 30.334 114 53.001c28 20.667 49.667 43.667 65 69c18 30 31.5 67.333 40.5 112s14.5 92.667 16.5 144c4.66699 82.667 8 176 10 280
c-13.333 -32 -24.833 -57.167 -34.5 -75.5s-23.167 -37.666 -40.5 -57.999s-37.5 -38.666 -60.5 -54.999s-49.333 -31 -79 -44s-62.5 -23.167 -98.5 -30.5s-73.333 -11 -112 -11c-62 0 -119.5 8 -172.5 24s-100.333 43 -142 81s-73.167 86.833 -94.5 146.5
s-32 122.5 -32 188.5c0 90 16 176.333 48 259s77.5 150.834 136.5 204.501s127.167 92.167 204.5 115.5s161 35 251 35c91.333 0 202 -11.667 332 -35l-10 -115c-2 -22 -4 -50.667 -6 -86l-23 -458l-11 -419c-2.66699 -50 -9.33398 -94.333 -20.001 -133
c-11.333 -41.333 -28.666 -78.333 -51.999 -111s-52.666 -60.334 -87.999 -83.001s-80 -40.667 -134 -54c-58.667 -14.667 -124.667 -22 -198 -22c-54 0 -106.667 2.83301 -158 8.5s-111 16.5 -179 32.5c-1.33301 27.333 -3.66602 53.666 -6.99902 78.999zM984.997 948.998
c-63.333 12 -114.002 19.334 -152.002 22.001s-71.667 4 -101 4c-76.667 0 -147.667 -8.66699 -213 -26s-125.166 -50 -179.499 -98s-96.5 -109.667 -126.5 -185s-45 -153.333 -45 -234c0 -77.333 13.833 -147.333 41.5 -210s70.667 -109.834 129 -141.501
s122.833 -47.5 193.5 -47.5c48 0 92.667 5.33301 134 16c32 8 62.167 20.833 90.5 38.5s55.5 41.167 81.5 70.5s48.833 63.833 68.5 103.5s33.834 80.167 42.501 121.5c11.333 58 19.333 132.333 24 223z" />
    <glyph glyph-name="h" unicode="h" horiz-adv-x="1180" 
d="M134 0l30 652.004c2 63.333 6 226.666 12 489.999l6 223c15.333 -0.666992 28 -1 38 -1c11.333 0 24.333 0.333008 39 1l-27 -584c15.333 31.333 28.5 56 39.5 74s25.833 36.5 44.5 55.5s38.5 35.333 59.5 49s44.667 25.667 71 36s57.333 18.833 93 25.5
s73.167 10 112.5 10c58 0 113 -6.16699 165 -18.5s96.333 -33 133 -62s62 -63.833 76 -104.5s21 -81.334 21 -122.001c0 -13.333 -0.333008 -32 -1 -56c-1.33301 -36.667 -4 -86.334 -8 -149.001l-16 -407c-1.33301 -26 -2.66602 -63.333 -3.99902 -112
c-17.333 0.666992 -30.666 1 -39.999 1c-10 0 -23.667 -0.333008 -41 -1c8 86 14 172.667 18 260l14 244c4.66699 75.333 7 140.333 7 195c0 63.333 -11.833 115 -35.5 155s-63.334 70.167 -119.001 90.5s-114.5 30.5 -176.5 30.5c-41.333 0 -82 -4.66699 -122 -14
c-37.333 -8.66699 -70 -20.334 -98 -35.001c-23.333 -12 -44.666 -27 -63.999 -45c-20.667 -19.333 -39.334 -42 -56.001 -68c-18 -30 -33 -63.333 -45 -100c-11.333 -34 -20 -79.667 -26 -137c-4.66699 -44.667 -9.33398 -132 -14.001 -262l-8 -314
c-17.333 0.666992 -30.333 1 -39 1s-21.667 -0.333008 -39 -1z" />
    <glyph glyph-name="i" unicode="i" horiz-adv-x="382" 
d="M170 1266l3 99c16.667 -0.666992 33.667 -1 51 -1s34.333 0.333008 51 1l-3 -99c-16.667 1.33301 -33.667 2 -51 2s-34.333 -0.666992 -51 -2zM134 0c7.33301 100 15.832 274.334 25.499 523.001s14.5 411 14.5 487c17.333 -0.666992 30.666 -1 39.999 -1
c10 0 23.667 0.333008 41 1c-9.33301 -126.667 -18.5 -299.334 -27.5 -518.001s-13.5 -382.667 -13.5 -492c-17.333 0.666992 -30.666 1 -39.999 1s-22.666 -0.333008 -39.999 -1z" />
    <glyph glyph-name="j" unicode="j" horiz-adv-x="383" 
d="M166 1266l2.00098 99c16.667 -0.666992 33.667 -1 51 -1c18 0 35 0.333008 51 1l-3 -99c-16.667 1.33301 -33.334 2 -50.001 2c-18 0 -35 -0.666992 -51 -2zM248.001 1010l-20.999 -438.995l-17 -445c-7.33301 -178 -14 -288.667 -20 -332
c-6.66699 -50 -16.334 -90 -29.001 -120c-8.66699 -21.333 -21 -41.333 -37 -60c-16.667 -18.667 -36.667 -35.334 -60 -50.001c-24.667 -16 -50.667 -27.333 -78 -34c-34.667 -9.33301 -76.667 -14 -126 -14c-65.333 0 -140 10 -224 30c-0.666992 20.667 -3 46 -7 76
c88 -33.333 169.667 -50 245 -50c30.667 0 58.667 3.66699 84 11s47.166 17.166 65.499 29.499s33 25.666 44 39.999s21.167 34.5 30.5 60.5c12.667 34.667 21.667 77.667 27 129s12 163.666 20 336.999c2.66699 57.333 7.33398 184.666 14.001 381.999
c7.33301 220 11 341 11 363v86c17.333 -0.666992 30.333 -1 39 -1c9.33301 0 22.333 0.333008 39 1z" />
    <glyph glyph-name="k" unicode="k" horiz-adv-x="853" 
d="M130 0c8.66699 136.667 16 288.332 22 454.999l16 509c5.33301 172.667 8 306.334 8 401.001c17.333 -0.666992 31 -1 41 -1s23.667 0.333008 41 1l-12 -200l-33 -947l-4 -218c-18 0.666992 -31.333 1 -40 1s-21.667 -0.333008 -39 -1zM232 560.998l272.001 261l85 84
l39.5 42l57.5 62c16.667 -0.666992 34 -1 52 -1s35 0.333008 51 1l-353 -335c-32 -29.333 -71.333 -67.333 -118 -114l362 -391l162 -170c-16.667 0.666992 -33.334 1 -50.001 1c-18 0 -35 -0.333008 -51 -1l-211 237z" />
    <glyph glyph-name="l" unicode="l" horiz-adv-x="383" 
d="M127 0c30.667 556 48.667 1011 54 1365c17.333 -0.666992 31 -1 41 -1s23.667 0.333008 41 1l-25 -487l-29 -878c-17.333 0.666992 -31 1 -41 1s-23.667 -0.333008 -41 -1z" />
    <glyph glyph-name="m" unicode="m" horiz-adv-x="1691" 
d="M120 0l10.9961 136c2 27.333 3.66699 54.666 5 81.999l26 667c0.666992 48.667 1 90.334 1 125.001c13.333 -0.666992 26.333 -1 39 -1s25.334 0.333008 38.001 1l-10 -210c21.333 40.667 41 72.667 59 96s42.167 45.666 72.5 66.999s65 38 104 50s79.5 18 121.5 18
c36 0 70.333 -4.66699 103 -14s60.5 -21 83.5 -35s42.167 -29.667 57.5 -47s27.166 -35.333 35.499 -54s16.5 -44.334 24.5 -77.001c13.333 26 26 48.5 38 67.5s28.167 38.5 48.5 58.5s44.5 37.5 72.5 52.5s59.167 26.833 93.5 35.5s69.5 13 105.5 13
c55.333 0 107.666 -9.5 156.999 -28.5s87.5 -49.5 114.5 -91.5s40.5 -92.333 40.5 -151c0 -32.667 -2.33301 -82.167 -7 -148.5s-9.83398 -160.666 -15.501 -282.999s-8.83398 -231.833 -9.50098 -328.5c-17.333 0.666992 -30.666 1 -39.999 1s-22.666 -0.333008 -39.999 -1
c6 82 12 180 18 294l15 275c4 68.667 6 125.334 6 170.001c0 23.333 -1 43.5 -3 60.5s-6.5 33.667 -13.5 50s-17.167 31.833 -30.5 46.5s-29.5 27.5 -48.5 38.5s-41.833 19.667 -68.5 26s-55 9.5 -85 9.5c-43.333 0 -83.333 -6.66699 -120 -20s-69.667 -32.166 -99 -56.499
s-53.5 -53.333 -72.5 -87s-34.5 -79.834 -46.5 -138.501c-10.667 -50 -18 -139.333 -22 -268l-11 -400c-17.333 0.666992 -30.666 1 -39.999 1s-22.666 -0.333008 -39.999 -1c6.66699 91.333 11.667 180.666 15 267.999l12 252c4 80 6 146.333 6 199
c0 49.333 -4.66699 87.166 -14 113.499s-24.5 49.833 -45.5 70.5s-47.333 36.834 -79 48.501s-66.5 17.5 -104.5 17.5c-41.333 0 -80.833 -6.83301 -118.5 -20.5s-71.167 -33 -100.5 -58s-54.166 -55.667 -74.499 -92s-36.833 -84.5 -49.5 -144.5
c-10.667 -52 -19 -144.667 -25 -278c-6.66699 -147.333 -10 -272.666 -10 -375.999c-17.333 0.666992 -30.666 1 -39.999 1s-22.666 -0.333008 -39.999 -1z" />
    <glyph glyph-name="n" unicode="n" horiz-adv-x="1167" 
d="M120 0l33.9971 611.002l9 287c1.33301 51.333 2 88.666 2 111.999c17.333 -0.666992 30.333 -1 39 -1c8 0 20.667 0.333008 38 1l-13 -228c14.667 31.333 26.834 55.166 36.501 71.499s22.834 33.833 39.501 52.5s36.5 36.167 59.5 52.5s50.667 30 83 41s65.5 19 99.5 24
s67.667 7.5 101 7.5c56 0 110.333 -6.33301 163 -19s96.334 -34.5 131.001 -65.5s58.5 -66.667 71.5 -107s19.5 -83.5 19.5 -129.5c0 -20.667 -1 -51.334 -3 -92.001l-21 -455l-4 -163c-13.333 0.666992 -26.333 1 -39 1s-25.334 -0.333008 -38.001 -1
c6.66699 83.333 12 163 16 239l14 256c5.33301 94.667 8 163 8 205c0 44 -6.33301 83.333 -19 118s-34.5 63.5 -65.5 86.5s-67.833 39.667 -110.5 50s-86.667 15.5 -132 15.5c-63.333 0 -119.333 -8.66699 -168 -26c-46 -16.667 -86.333 -41.167 -121 -73.5
s-63 -73.166 -85 -122.499c-16.667 -36 -29.334 -86.333 -38.001 -151c-8 -56 -14.5 -147.5 -19.5 -274.5s-7.5 -234.5 -7.5 -322.5c-17.333 0.666992 -30.666 1 -39.999 1s-22.666 -0.333008 -39.999 -1z" />
    <glyph glyph-name="o" unicode="o" horiz-adv-x="1152" 
d="M589 1031c62 0 121.999 -8.66797 179.999 -26.001s109.167 -46.833 153.5 -88.5s78.166 -96.167 101.499 -163.5s35 -138.666 35 -213.999c0 -81.333 -12.333 -159.333 -37 -234s-59.667 -137.167 -105 -187.5s-98.5 -85.833 -159.5 -106.5s-125.833 -31 -194.5 -31
c-48 0 -95.167 5.5 -141.5 16.5s-89.666 29.5 -129.999 55.5s-75.666 59.667 -105.999 101s-53.333 90.333 -69 147s-23.5 115.667 -23.5 177c0 107.333 20 205.5 60 294.5s99.833 154.5 179.5 196.5s165.167 63 256.5 63zM586.999 974.999
c-79.333 0 -153.001 -19.3301 -221.001 -57.9971s-118 -97.667 -150 -177s-48 -166.333 -48 -261c0 -66.667 9.16699 -129.334 27.5 -188.001s47.833 -108.167 88.5 -148.5s84.5 -68.333 131.5 -84s96.5 -23.5 148.5 -23.5c59.333 0 115 9.66699 167 29
s97.833 51.666 137.5 96.999s68.834 101 87.501 167s28 136 28 210c0 68.667 -9.16699 133.167 -27.5 193.5s-46.833 108.666 -85.5 144.999s-82.667 61.833 -132 76.5s-100 22 -152 22z" />
    <glyph glyph-name="p" unicode="p" horiz-adv-x="1145" 
d="M106 -444l11.999 201.999l32 906l7 304c86.667 23.333 162.5 39.666 227.5 48.999s128.167 14 189.5 14c97.333 0 181.5 -16.5 252.5 -49.5s126.167 -89.5 165.5 -169.5s59 -171 59 -273c0 -108 -20.833 -207 -62.5 -297s-98 -156.167 -169 -198.5
s-150.167 -63.5 -237.5 -63.5c-39.333 0 -78 4.33301 -116 13s-72.833 21.834 -104.5 39.501s-58.667 39.334 -81 65.001s-48.166 65.834 -77.499 120.501l-16 -530v-34c0 -22.667 0.333008 -55.334 1 -98.001c-17.333 0.666992 -31 1 -41 1s-23.667 -0.333008 -41 -1z
M233.999 905.999c-5.33301 -56.667 -10.167 -137.668 -14.5 -243.001s-6.5 -175 -6.5 -209c0 -58 6 -111.833 18 -161.5s36 -95 72 -136s78.5 -71.833 127.5 -92.5s99.833 -31 152.5 -31c75.333 0 143 20.333 203 61s106.5 100.834 139.5 180.501s49.5 166.5 49.5 260.5
s-17 175.333 -51 244s-80.167 118.5 -138.5 149.5s-124.5 46.5 -198.5 46.5c-111.333 0 -229 -23 -353 -69z" />
    <glyph glyph-name="q" unicode="q" horiz-adv-x="1136" 
d="M888 -444l12.001 234l5 101l1 40l10 316c-24.667 -50 -47.334 -88.333 -68.001 -115s-48.167 -51.834 -82.5 -75.501s-73.166 -42.334 -116.499 -56.001s-88.333 -20.5 -135 -20.5c-59.333 0 -116.5 11.333 -171.5 34s-101.333 54.334 -139 95.001
s-65.5 89.5 -83.5 146.5s-27 116.167 -27 177.5c0 89.333 16.5 175 49.5 257s80.5 149.833 142.5 203.5s130.333 90 205 109s156.667 28.5 246 28.5c19.333 0 38.666 -0.5 57.999 -1.5s38.166 -2.5 56.499 -4.5s43.833 -5.66699 76.5 -11l89 -14l-10 -129
c-2 -29.333 -3.66699 -58.666 -5 -87.999l-20 -632l-12 -595c-17.333 0.666992 -30.666 1 -39.999 1c-10 0 -23.667 -0.333008 -41 -1zM932.001 945c-54.667 13.333 -97.833 21.6699 -129.5 25.0029s-60.5 5 -86.5 5c-110 0 -207.333 -21.833 -292 -65.5
s-148.5 -108.834 -191.5 -195.501s-64.5 -182.334 -64.5 -287.001c0 -71.333 12.667 -136.5 38 -195.5s65.833 -106.5 121.5 -142.5s118.5 -54 188.5 -54c38 0 74.333 5.16699 109 15.5s66.834 25.166 96.501 44.499s57 44 82 74s47.167 65.5 66.5 106.5
s32.666 83.167 39.999 126.5s12.833 126.333 16.5 249s5.5 220.667 5.5 294z" />
    <glyph glyph-name="r" unicode="r" horiz-adv-x="644" 
d="M120 0c8 140.667 15.667 306.002 23 496.002s11 331.333 11 424l-1 90c13.333 -0.666992 25.666 -1 36.999 -1c12 0 24.333 0.333008 37 1l-9 -189c22.667 45.333 43.667 79.666 63 102.999s41.833 42.833 67.5 58.5s55.667 27.667 90 36s70.166 12.5 107.499 12.5
c27.333 0 55 -3.33301 83 -10c0 -22.667 1.33301 -45.334 4 -68.001c-44.667 11.333 -83.334 17 -116.001 17c-32 0 -60.833 -4.33301 -86.5 -13s-49.667 -21.334 -72 -38.001s-44.166 -39.5 -65.499 -68.5s-37.333 -59.833 -48 -92.5c-13.333 -38 -22.333 -84.333 -27 -139
c-7.33301 -85.333 -12 -182.666 -14 -291.999c-2.66699 -147.333 -4 -256.333 -4 -327c-17.333 0.666992 -30.666 1 -39.999 1s-22.666 -0.333008 -39.999 -1z" />
    <glyph glyph-name="s" unicode="s" horiz-adv-x="736" 
d="M60 19c-1.33301 32 -4 60.333 -8 85c52.667 -23.333 102.334 -39.666 149.001 -48.999s89.334 -14 128.001 -14c51.333 0 95.166 7.33301 131.499 22s63.833 36.334 82.5 65.001s28 58.667 28 90c0 14 -1.5 27.5 -4.5 40.5s-7.83301 26 -14.5 39s-14.167 25 -22.5 36
s-20 23.5 -35 37.5l-52.5 47l-94 79c-42.667 35.333 -77.834 65.833 -105.501 91.5s-50.667 51.667 -69 78s-31.333 50.5 -39 72.5s-11.5 44.333 -11.5 67c0 38.667 12.167 76.167 36.5 112.5s59.333 64.166 105 83.499s103.5 29 173.5 29
c58.667 0 124.667 -7.66699 198 -23c0.666992 -29.333 2.66699 -57.666 6 -84.999c-42.667 18 -80.834 30.167 -114.501 36.5s-67.834 9.5 -102.501 9.5c-43.333 0 -83.333 -6.5 -120 -19.5s-64.167 -32 -82.5 -57s-27.5 -52.167 -27.5 -81.5c0 -16 2 -31 6 -45
s10.333 -28.167 19 -42.5s19.834 -29 33.501 -44s31.334 -32.333 53.001 -52s53 -46.667 94 -81l91.5 -78c20 -17.667 37.167 -33.834 51.5 -48.501s28 -30.834 41 -48.501s23.5 -34.834 31.5 -51.501s14 -33.5 18 -50.5s6 -34.167 6 -51.5c0 -42 -12.333 -81.667 -37 -119
s-60.5 -66.666 -107.5 -87.999s-103.5 -32 -169.5 -32c-24.667 0 -55.5 2 -92.5 6s-66.667 8.16699 -89 12.5s-50.5 11.5 -84.5 21.5z" />
    <glyph glyph-name="t" unicode="t" horiz-adv-x="564" 
d="M533 63c-5.33301 -20 -9.33105 -40.999 -11.998 -62.999c-54 -13.333 -103.667 -20 -149 -20c-38 0 -71.833 4.16699 -101.5 12.5s-53.834 23.333 -72.501 45s-31 45.667 -37 72s-9 54.5 -9 84.5c0 5.33301 0.166992 13.666 0.5 24.999s1.5 36.333 3.5 75l33 662h-123
c2.66699 18 4.33398 36 5.00098 54h122c3.33301 42 6 104.667 8 188c25.333 3.33301 47.333 7.66602 66 12.999c-4.66699 -108 -7 -175 -7 -201h300c-2.66699 -18 -4.33398 -36 -5.00098 -54h-298l-33 -686l-1 -41c0 -56 6.5 -96.667 19.5 -122s31.333 -43.666 55 -54.999
s48.167 -17 73.5 -17c18 0 37.167 1.5 57.5 4.5s55.166 10.833 104.499 23.5z" />
    <glyph glyph-name="u" unicode="u" horiz-adv-x="1165" 
d="M1002 0c-13.333 0.666992 -25.668 1.00195 -37.001 1.00195s-23.666 -0.333008 -36.999 -1l8 217c-15.333 -34 -27.833 -58.5 -37.5 -73.5s-22.167 -30.833 -37.5 -47.5s-34.5 -32.5 -57.5 -47.5s-50.167 -27.833 -81.5 -38.5s-63.5 -18.334 -96.5 -23.001
s-66.167 -7 -99.5 -7c-57.333 0 -110.833 6.33301 -160.5 19s-93.667 34.667 -132 66s-64.5 67.833 -78.5 109.5s-21 88.834 -21 141.501c0 40.667 4.5 141.167 13.5 301.5s13.5 291.166 13.5 392.499c17.333 -0.666992 30.333 -1 39 -1s21.667 0.333008 39 1
c-5.33301 -57.333 -13.166 -176.333 -23.499 -357s-15.5 -293.667 -15.5 -339c0 -50.667 6.66699 -93.667 20 -129s36.5 -64.5 69.5 -87.5s70.333 -39.167 112 -48.5s84.5 -14 128.5 -14c46 0 90.167 5.83301 132.5 17.5s77.5 26.167 105.5 43.5s52.667 38.666 74 63.999
c24.667 29.333 45.667 63.333 63 102c15.333 34 26.666 76.167 33.999 126.5s13.666 141.5 18.999 273.5c4.66699 126.667 7.33398 242.667 8.00098 348c18 -0.666992 31.333 -1 40 -1s21.667 0.333008 39 1l-37 -700l-4 -151c-1.33301 -62 -2 -115 -2 -159z" />
    <glyph glyph-name="v" unicode="v" horiz-adv-x="921" 
d="M391 0c-37.333 108.667 -81 229.667 -131 363l-242 647c17.333 -0.666992 32.333 -1 45 -1c13.333 0 28.333 0.333008 45 1l26 -85c5.33301 -16 11 -32 17 -48l293 -820l377 868l33 85c17.333 -0.666992 32.333 -1 45 -1c13.333 0 28.333 0.333008 45 1l-403 -882
l-54 -128c-16.667 0.666992 -32.667 1 -48 1s-31.333 -0.333008 -48 -1z" />
    <glyph glyph-name="w" unicode="w" horiz-adv-x="1644" 
d="M384 0l-46.001 139l-320 871c17.333 -0.666992 31 -1 41 -1s23.667 0.333008 41 1l40 -123l156 -440l109 -293l41 -102l96 244l266 714c16.667 -0.666992 32 -1 46 -1c14.667 0 30.334 0.333008 47.001 1l266 -958c168 364.667 307.667 684 419 958
c18 -0.666992 31.667 -1 41 -1s22.666 0.333008 39.999 1l-389 -859l-64 -151c-23.333 0.666992 -41.666 1 -54.999 1c-14 0 -32.667 -0.333008 -56 -1l-47 187l-177 646l-33 105l-33 -80l-290 -782c-4 -10 -12.333 -35.333 -25 -76c-23.333 0.666992 -42.333 1 -57 1
c-15.333 0 -34.333 -0.333008 -57 -1z" />
    <glyph glyph-name="x" unicode="x" horiz-adv-x="851" 
d="M-30 0l203.001 273l202 277l-291 460c17.333 -0.666992 31.666 -1 42.999 -1c12.667 0 27.334 0.333008 44.001 1c60.667 -107.333 144 -240.333 250 -399c127.333 168.667 222.666 301.667 285.999 399c17.333 -0.666992 32.333 -1 45 -1c13.333 0 28.333 0.333008 45 1
l-342 -458l358 -552c-17.333 0.666992 -33 1 -47 1c-14.667 0 -30.334 -0.333008 -47.001 -1c-24 44 -43.667 78.667 -59 104l-115 185l-133 204c-119.333 -158 -236 -322.333 -350 -493c-17.333 0.666992 -32.666 1 -45.999 1c-14 0 -29.333 -0.333008 -46 -1z" />
    <glyph glyph-name="y" unicode="y" horiz-adv-x="912" 
d="M-79 -465c0 22 -2 48 -6 78c20.667 -9.33301 37.667 -16.166 51 -20.499s29.5 -8 48.5 -11s36.5 -4.5 52.5 -4.5c38 0 73.667 9.66699 107 29s67 58.666 101 117.999s73.667 141 119 245l-220 613l-158 428c19.333 -0.666992 35.333 -1 48 -1s28.334 0.333008 47.001 1
l18 -71c7.33301 -27.333 15.666 -55 24.999 -83c12 -38.667 29.667 -90.334 53 -155.001l227 -649l316 704c28.667 64.667 48.667 111.334 60 140.001s25 66.667 41 114c19.333 -0.666992 34.333 -1 45 -1c11.333 0 26.666 0.333008 45.999 1l-183 -397l-195 -421l-187 -412
c-29.333 -63.333 -54.666 -110 -75.999 -140c-17.333 -23.333 -35.333 -43.333 -54 -60c-14 -12 -29.667 -22.333 -47 -31c-20.667 -10.667 -43 -18.667 -67 -24c-26 -6.66699 -52.667 -10 -80 -10c-42 0 -86 6.66699 -132 20z" />
    <glyph glyph-name="z" unicode="z" horiz-adv-x="838" 
d="M38 0c2 30 3.00098 59 3.00098 87l123 156l476 624l61 83c-76.667 2 -147.334 3 -212.001 3c-130 0 -255.667 -3.33301 -377 -10c2 24 3 46.333 3 67c112 -0.666992 224.667 -1 338 -1l319 1c-2 -20 -3 -45.333 -3 -76v-11l-659 -862c62 -2.66699 129.667 -4 203 -4
c173.333 0 312.333 4 417 12c-2.66699 -26.667 -4 -49.667 -4 -69c-108 0.666992 -215.333 1 -322 1h-293z" />
    <glyph glyph-name="braceleft" unicode="{" horiz-adv-x="784" 
d="M340 459c15.333 -8 27.5039 -15.1641 36.5039 -21.4971s17.833 -15.333 26.5 -27s16.167 -24.5 22.5 -38.5s11 -31.167 14 -51.5s4.5 -44.5 4.5 -72.5c0 -56 -3.16699 -129.333 -9.5 -220s-9.5 -154.667 -9.5 -192c0 -41.333 1.5 -71.666 4.5 -90.999
s7.66699 -36.666 14 -51.999s14.666 -28 24.999 -38s23 -18.333 38 -25s30.833 -11.334 47.5 -14.001s35.667 -4.33398 57 -5.00098c-2.66699 -20 -4 -38.333 -4 -55c-42 0 -76.333 3.66699 -103 11c-36 9.33301 -64 23 -84 41s-35.667 42.5 -47 73.5s-17 79.833 -17 146.5
c0 37.333 3.33301 110.5 10 219.5s10 181.5 10 217.5c0 23.333 -2.16699 44.333 -6.5 63s-10 33.5 -17 44.5s-16.333 21.167 -28 30.5s-22.167 16.166 -31.5 20.499s-20.666 8.16602 -33.999 11.499c2.66699 15.333 4.33398 31.666 5.00098 48.999
c20.667 6.66699 39 16 55 28c18.667 12 32.667 25 42 39s16.666 32 21.999 54c4 18.667 7 47.334 9 86.001c0.666992 14.667 1.66699 62 3 142l3 185c1.33301 67.333 3.33301 111.333 6 132c3.33301 28.667 9 54.334 17 77.001c6 17.333 14 33 24 47
c9.33301 13.333 20 25.333 32 36c13.333 11.333 28 20.666 44 27.999c18.667 9.33301 39.334 16 62.001 20c20.667 4.66699 50.667 7 90 7c-2.66699 -18 -4.33398 -36 -5.00098 -54c-35.333 -2 -63.5 -6.5 -84.5 -13.5s-37.5 -15 -49.5 -24s-22 -19.833 -30 -32.5
c-10.667 -18 -18.834 -38.333 -24.501 -61s-9.5 -59.334 -11.5 -110.001s-3 -109 -3 -175c0 -18 -0.5 -53 -1.5 -105s-2.83301 -95 -5.5 -129s-6.83398 -61.333 -12.501 -82s-12.834 -38 -21.501 -52s-18.834 -26 -30.501 -36s-29.5 -20.667 -53.5 -32z" />
    <glyph glyph-name="bar" unicode="|" horiz-adv-x="1032" 
d="M482 1365h68v-1706h-68v1706z" />
    <glyph glyph-name="braceright" unicode="}" horiz-adv-x="784" 
d="M415 459c-19.333 9.33301 -34.502 18.1689 -45.502 26.502s-21.5 20.833 -31.5 37.5s-17 37.834 -21 63.501s-6 53.167 -6 82.5c0 12.667 0.5 31.167 1.5 55.5s2.16699 50.833 3.5 79.5l7 124c3.33301 54 5.33301 95 6 123s1 51 1 69c0 37.333 -2.83301 66.5 -8.5 87.5
s-16 39.167 -31 54.5s-33.5 26.666 -55.5 33.999s-50.667 12 -86 14c0 17.333 -1.66699 35.666 -5 54.999c30 0 54.333 -1 73 -3s38.667 -7.16699 60 -15.5s39.833 -19 55.5 -32s28.334 -28.167 38.001 -45.5s17.167 -38.5 22.5 -63.5s8 -53.167 8 -84.5
c0 -18 -1.33301 -52.667 -4 -104l-11 -199c-4.66699 -80.667 -7 -133.334 -7 -158.001c0 -28 2.83301 -53.667 8.5 -77s18.667 -43.833 39 -61.5s43.166 -30.167 68.499 -37.5c-2.66699 -18.667 -4 -35.334 -4 -50.001c-17.333 -4 -32.666 -10.333 -45.999 -19
c-16.667 -10 -29.667 -20.333 -39 -31s-16.666 -22.667 -21.999 -36c-7.33301 -17.333 -12.666 -39 -15.999 -65c-2.66699 -20 -4.66699 -65.333 -6 -136l-2 -184c-1.33301 -63.333 -3 -111.666 -5 -144.999c-4.66699 -52 -11.334 -91.5 -20.001 -118.5s-21 -50 -37 -69
s-34.667 -34 -56 -45s-47.333 -18.833 -78 -23.5c-16 -2.66699 -42.667 -4.66699 -80 -6c2.66699 18 4.33398 36.333 5.00098 55c34.667 0.666992 64.167 5.33398 88.5 14.001s44 21 59 37s25.833 33.167 32.5 51.5s12 51.666 16 99.999s6 119.5 6 213.5
c0 45.333 0.833008 94.833 2.5 148.5s4.33398 92.667 8.00098 117s8.66699 45 15 62s14.166 32 23.499 45s19.166 23.667 29.499 32s25.5 17.5 45.5 27.5z" />
    <glyph glyph-name="asciitilde" unicode="~" horiz-adv-x="1374" 
d="M247 560l-48.001 31.002c44.667 81.333 88.167 135.333 130.5 162s85.833 40 130.5 40c30 0 63 -6.5 99 -19.5s85 -35.833 147 -68.5s106.167 -53.167 132.5 -61.5s51.833 -12.5 76.5 -12.5c40.667 0 77.167 12.167 109.5 36.5s66.166 67.166 101.499 128.499l49 -29
c-23.333 -44.667 -49.166 -82.5 -77.499 -113.5s-59 -53.333 -92 -67s-64.833 -20.5 -95.5 -20.5c-22.667 0 -47 3.83301 -73 11.5s-46.667 14.667 -62 21s-64.666 31.166 -147.999 74.499c-42.667 22 -76.5 36.833 -101.5 44.5s-47.833 11.5 -68.5 11.5
c-39.333 0 -75.833 -13.333 -109.5 -40s-67.167 -69.667 -100.5 -129z" />
    <glyph glyph-name="nbspace" unicode="&#xa0;" horiz-adv-x="512" 
 />
    <glyph glyph-name="exclamdown" unicode="&#xa1;" horiz-adv-x="489" 
d="M200 1010c23.333 -0.666992 41.665 -1 54.998 -1c14 0 32.667 0.333008 56 1c-2 -27.333 -3.16699 -49 -3.5 -65s-1.16602 -30.667 -2.49902 -44c-23.333 0.666992 -41.666 1 -54.999 1c-14 0 -32.667 -0.333008 -56 -1c1.33301 20 2.33301 39.167 3 57.5
s1.66699 35.5 3 51.5zM219.999 802c11.333 -1.33301 21.999 -2 31.999 -2c11.333 0 22 0.666992 32 2l-28 -1036c-0.666992 -50.667 -1 -91 -1 -121c-17.333 0.666992 -32.666 1 -45.999 1s-28.333 -0.333008 -45 -1l10 144z" />
    <glyph glyph-name="cent" unicode="&#xa2;" 
d="M865 255c-7.33301 -27.333 -12.334 -51.6709 -15.001 -73.0039c-60 -15.333 -103 -24.833 -129 -28.5s-62 -6.16699 -108 -7.5c-2.66699 -46 -4 -94.667 -4 -146c-14 0.666992 -25.333 1 -34 1c-9.33301 0 -20.666 -0.333008 -33.999 -1
c6 74.667 9.33301 125.334 10 152.001c-45.333 10 -81.666 20.167 -108.999 30.5s-53.833 24.5 -79.5 42.5s-49.5 40.167 -71.5 66.5s-41.833 58 -59.5 95s-31.5 78.333 -41.5 124s-15 94.167 -15 145.5c0 56.667 5.83301 110.834 17.5 162.501s27.334 99.5 47.001 143.5
s43.667 83.333 72 118s57.166 62 86.499 82s57.833 34.833 85.5 44.5s64.834 17.834 111.501 24.501c2 30.667 3 75.334 3 134.001c13.333 -0.666992 25.666 -1 36.999 -1s23.666 0.333008 36.999 1c-4 -38 -7 -81 -9 -129c45.333 -1.33301 83.666 -5.16602 114.999 -11.499
s69.333 -16.5 114 -30.5c0 -30.667 1.33301 -56.667 4 -78c-83.333 38 -164 57 -242 57c-63.333 0 -120.666 -13.333 -171.999 -40s-95.333 -65.167 -132 -115.5s-62.834 -107.5 -78.501 -171.5s-23.5 -127.333 -23.5 -190c0 -90 14.167 -166.5 42.5 -229.5
s70.833 -115.333 127.5 -157s126.334 -62.5 209.001 -62.5c28.667 0 58.5 2.66699 89.5 8s80.5 18.666 148.5 39.999z" />
    <glyph glyph-name="sterling" unicode="&#xa3;" 
d="M1053 82c-7.33301 -27.333 -12.6689 -53.9961 -16.002 -79.9961c-40 -14.667 -87 -22 -141 -22c-33.333 0 -68.833 4.16699 -106.5 12.5s-85.5 24 -143.5 47s-96.833 37.833 -116.5 44.5s-40.334 12.167 -62.001 16.5s-43.834 6.5 -66.501 6.5
c-33.333 0 -63.666 -4.33301 -90.999 -13s-50.833 -19.334 -70.5 -32.001s-44.167 -33.334 -73.5 -62.001c2.66699 38 4 73.333 4 106c30.667 26.667 54.334 48.5 71.001 65.5s33.5 37.333 50.5 61s32 49.834 45 78.501s22.833 58.667 29.5 90s10 63.666 10 96.999
c0 50.667 -9.66699 103.667 -29 159l-181 -4c5.33301 20.667 9 39.667 11 57l152 -4c-8 20 -24.333 57.667 -49 113s-41.167 94.333 -49.5 117s-14.666 46.5 -18.999 71.5s-6.5 48.833 -6.5 71.5c0 58 17.167 111 51.5 159s84.166 84.667 149.499 110s141.333 38 228 38
c34.667 0 68.834 -2.16699 102.501 -6.5s78.167 -12.833 133.5 -25.5c2.66699 -24.667 6.33398 -48.667 11.001 -72c-54.667 16.667 -105.167 28.167 -151.5 34.5s-86.166 9.5 -119.499 9.5c-60.667 0 -117.334 -10.333 -170.001 -31s-93.334 -51.334 -122.001 -92.001
s-43 -82 -43 -124c0 -13.333 1.33301 -28.5 4 -45.5s6.66699 -35.167 12 -54.5s15 -45.666 29 -78.999l44 -105c15.333 -37.333 27 -67 35 -89c115.333 0 258.666 1.33301 429.999 4c-5.33301 -20 -9 -39 -11 -57c-130.667 2.66699 -264.667 4 -402 4
c16.667 -52 25 -103.333 25 -154c0 -36 -3.66699 -70.833 -11 -104.5s-17.5 -64.834 -30.5 -93.501s-26.667 -54 -41 -76s-35.833 -50.333 -64.5 -85c34.667 9.33301 61.167 15.166 79.5 17.499s35.5 3.5 51.5 3.5c32 0 63.167 -4 93.5 -12s67.5 -21.5 111.5 -40.5
s78.333 -32.667 103 -41s50.834 -15.166 78.501 -20.499s54.5 -8 80.5 -8c20.667 0 42.834 2.16699 66.501 6.5s55.167 15.166 94.5 32.499z" />
    <glyph glyph-name="currency" unicode="&#xa4;" 
d="M217 1010l-63.9932 64.002c-10.667 11.333 -36.334 37 -77.001 77c18 14 33.333 27.667 46 41l132 -143c37.333 34.667 84.5 61.5 141.5 80.5s114.5 28.5 172.5 28.5c56 0 111.667 -9.16699 167 -27.5s100.666 -45.833 135.999 -82.5l144 145
c13.333 -16.667 26.333 -31.334 39 -44.001l-151 -140c26.667 -37.333 47.167 -82.5 61.5 -135.5s21.5 -106.5 21.5 -160.5c0 -58.667 -7.16699 -115.667 -21.5 -171s-35.5 -106 -63.5 -152l135 -134c-19.333 -16.667 -34.333 -30.334 -45 -41.001l-121 131
c-20.667 -25.333 -40.334 -44.833 -59.001 -58.5s-41.834 -26.834 -69.501 -39.501s-59.334 -22.667 -95.001 -30s-71.834 -11 -108.501 -11c-30 0 -60.167 2.66699 -90.5 8s-60 13.5 -89 24.5s-54.333 23.833 -76 38.5s-43.167 33.667 -64.5 57l-121 -122
c-12.667 16.667 -25.667 31.667 -39 45l128 119c-10.667 16 -19.667 31.833 -27 47.5s-14.833 36 -22.5 61s-13.667 52 -18 81s-6.5 59.167 -6.5 90.5c0 67.333 9.66699 133.333 29 198s44.666 116.334 75.999 155.001zM559.007 1104
c-71.333 0 -137.832 -17.3301 -199.499 -51.9971s-107 -87.5 -136 -158.5s-43.5 -149.167 -43.5 -234.5c0 -60 8.33301 -116.333 25 -169s43.334 -97 80.001 -133s76.167 -60.833 118.5 -74.5s87.166 -20.5 134.499 -20.5c55.333 0 107.333 9.33301 156 28s90 48 124 88
s59.167 89.167 75.5 147.5s24.5 120.5 24.5 186.5c0 61.333 -8.33301 119.166 -25 173.499s-42.334 97.666 -77.001 129.999s-74.5 55.166 -119.5 68.499s-90.833 20 -137.5 20z" />
    <glyph glyph-name="yen" unicode="&#xa5;" 
d="M156 571c5.33301 20.667 9.00098 39.667 11.001 57c130.667 -2.66699 241.667 -4 333 -4l-111 197c-46.667 0 -128.334 -1.33301 -245.001 -4c5.33301 20 9 39 11 57c100 -2 168.333 -3 205 -3l-287 494c17.333 -0.666992 32.333 -1 45 -1c13.333 0 28.333 0.333008 45 1
l43 -81c8.66699 -16.667 36.334 -65 83.001 -145l258 -451l239 358l147 229l55 90c17.333 -0.666992 32.666 -1 45.999 -1s28.666 0.333008 45.999 1l-333 -494l133 1l91 2c-5.33301 -20.667 -9 -39.667 -11 -57c-117.333 2.66699 -199.666 4 -246.999 4l-132 -197l192 1
l168 3c-4.66699 -20 -8 -39 -10 -57c-133.333 2.66699 -252 4 -356 4l-13 -251c-5.33301 -92.667 -8.66602 -200.667 -9.99902 -324c-17.333 0.666992 -32.333 1 -45 1s-27.334 -0.333008 -44.001 -1l22 299c1.33301 16 6.33301 108 15 276l-178 -1z" />
    <glyph glyph-name="brokenbar" unicode="&#xa6;" horiz-adv-x="1032" 
d="M482 1365h68v-662h-68v662zM482 314h68v-655h-68v655z" />
    <glyph glyph-name="section" unicode="&#xa7;" horiz-adv-x="1040" 
d="M807 1344c0.666992 -26 2.66992 -50.3252 6.00293 -72.9922c-88 36.667 -167 55 -237 55c-56.667 0 -104.334 -11.167 -143.001 -33.5s-68.5 -53.5 -89.5 -93.5s-31.5 -81.667 -31.5 -125c0 -24.667 3.33301 -48 10 -70s16.5 -42.5 29.5 -61.5s27 -35.167 42 -48.5
s37.5 -28.5 67.5 -45.5s62.667 -33.833 98 -50.5c76.667 -36 136.667 -67.667 180 -95s76.166 -53.833 98.499 -79.5s40.5 -55.5 54.5 -89.5s21 -71.333 21 -112c0 -30 -4.16699 -59.833 -12.5 -89.5s-20.833 -58.334 -37.5 -86.001s-35.334 -51.834 -56.001 -72.501
s-40.334 -37.5 -59.001 -50.5s-42.334 -27.833 -71.001 -44.5c22.667 -20 40.334 -37.333 53.001 -52s23.834 -32 33.501 -52s17.334 -42.333 23.001 -67s8.5 -50 8.5 -76c0 -95.333 -32.833 -173.833 -98.5 -235.5s-150.167 -92.5 -253.5 -92.5
c-29.333 0 -60.166 2.66699 -92.499 8s-76.166 15.666 -131.499 30.999c-0.666992 26 -2.66699 53.333 -6 82c54.667 -20 99 -34.167 133 -42.5s67.333 -12.5 100 -12.5c53.333 0 101.666 11.5 144.999 34.5s76.333 57 99 102s34 90.5 34 136.5
c0 38.667 -9.5 75.667 -28.5 111s-46.5 64.666 -82.5 87.999s-74.667 44.333 -116 63c-84 37.333 -140.667 64.333 -170 81s-57 36.167 -83 58.5s-47.833 45.833 -65.5 70.5s-30.5 50.834 -38.5 78.501s-12 57.5 -12 89.5c0 31.333 4 62.166 12 92.499
s20.167 59.5 36.5 87.5s35.333 53 57 75s41.667 39.5 60 52.5s43.166 27.833 74.499 44.5c-25.333 21.333 -44.333 39.166 -57 53.499s-24.5 31.666 -35.5 51.999s-19 41.666 -24 63.999s-7.5 45.166 -7.5 68.499c0 58 15 112.167 45 162.5s71.167 88 123.5 113
s112.5 37.5 180.5 37.5c71.333 0 142.666 -14 213.999 -42zM627.003 113.008c33.333 18 58.6611 33 75.9941 45s35.166 26.667 53.499 44s34.833 38.166 49.5 62.499s25.667 49.666 33 75.999s11 52.166 11 77.499c0 19.333 -2 37.833 -6 55.5s-9.66699 34.667 -17 51
s-17.166 32.5 -29.499 48.5s-27.666 32 -45.999 48s-38.5 30.333 -60.5 43c-15.333 9.33301 -55.166 29.666 -119.499 60.999l-155.5 78c-30 -16 -53.833 -30 -71.5 -42s-37.167 -28.667 -58.5 -50s-39.666 -44.666 -54.999 -69.999s-26.333 -49.666 -33 -72.999
s-10 -47.666 -10 -72.999c0 -19.333 2 -38.166 6 -56.499s9.83301 -35.333 17.5 -51s17.834 -31.5 30.501 -47.5s28.834 -32.333 48.501 -49s41.834 -32 66.501 -46c19.333 -11.333 59.333 -31 120 -59c49.333 -22.667 99.333 -47 150 -73z" />
    <glyph glyph-name="dieresis" unicode="&#xa8;" horiz-adv-x="1024" 
d="M613 1227l3 99c16.667 -0.666992 33.667 -1 51 -1s34.333 0.333008 51 1l-3 -99c-16.667 0.666992 -33.667 1 -51 1c-18 0 -35 -0.333008 -51 -1zM361 1227l3 99c16.667 -0.666992 33.667 -1 51 -1s34.333 0.333008 51 1l-3 -99c-16.667 0.666992 -33.667 1 -51 1
c-18 0 -35 -0.333008 -51 -1z" />
    <glyph glyph-name="copyright" unicode="&#xa9;" horiz-adv-x="1593" 
d="M831 1386c95.333 0 185.499 -14.333 270.499 -43s159.167 -75.334 222.5 -140.001s108.5 -138.834 135.5 -222.501s40.5 -172.5 40.5 -266.5c0 -103.333 -15.333 -202.666 -46 -297.999s-77 -175.333 -139 -240s-139.5 -113.667 -232.5 -147s-190.5 -50 -292.5 -50
c-98 0 -192 15.5 -282 46.5s-165.333 76.667 -226 137s-105.167 133 -133.5 218s-42.5 174.167 -42.5 267.5c0 104.667 17.333 206.167 52 304.5s84.834 179.833 150.501 244.5s144.167 112.334 235.5 143.001s187 46 287 46zM827.999 1334c-94 0 -182.667 -14.5 -266 -43.5
s-155.333 -75.667 -216 -140s-105.5 -140.333 -134.5 -228s-43.5 -179.167 -43.5 -274.5c0 -90 15 -176.333 45 -259s74.167 -151 132.5 -205s126.333 -93 204 -117s159.834 -36 246.501 -36c91.333 0 177.833 13.333 259.5 40s152 70.667 211 132
s102.333 135.166 130 221.499s41.5 177.5 41.5 273.5c0 91.333 -12.667 178.333 -38 261s-66.333 152.834 -123 210.501s-123.834 99.5 -201.501 125.5s-160.167 39 -247.5 39zM1060 383c-4.66699 -18.667 -8.66211 -41.335 -11.9951 -68.002
c-72.667 -17.333 -142.667 -26 -210 -26c-54 0 -106.333 8.33301 -157 25s-94.834 42.667 -132.501 78s-65.334 77.333 -83.001 126s-26.5 100 -26.5 154c0 77.333 16.667 149.333 50 216s83.166 116.834 149.499 150.501s143.166 50.5 230.499 50.5
c63.333 0 127 -7.33301 191 -22c0 -20 2.33301 -43 7 -69c-47.333 15.333 -86.5 25.333 -117.5 30s-60.833 7 -89.5 7c-70 0 -132.333 -14 -187 -42s-97 -70.167 -127 -126.5s-45 -119.166 -45 -188.499c0 -62 12.167 -118.667 36.5 -170s63.166 -91.833 116.499 -121.5
s114.333 -44.5 183 -44.5c64 0 138.333 13.667 223 41z" />
    <glyph glyph-name="ordfeminine" unicode="&#xaa;" horiz-adv-x="659" 
d="M125 1070c5.33301 23.333 8.66406 46.333 9.99707 69c45.333 11.333 83.666 19.166 114.999 23.499s63 6.5 95 6.5c54 0 99 -5.83301 135 -17.5s61.667 -28.834 77 -51.501s23 -51 23 -85c0 -22 -0.666992 -47.833 -2 -77.5s-3.16602 -61.167 -5.49902 -94.5
s-4.5 -75.5 -6.5 -126.5s-3 -87.833 -3 -110.5v-60l-35 1l-36 -1c4.66699 50 8.33398 93.167 11.001 129.5s4.66699 79.5 6 129.5l5 115c-12.667 -9.33301 -22.667 -16.166 -30 -20.499s-18.5 -9.33301 -33.5 -15s-33.833 -11.5 -56.5 -17.5l-75 -20
c-25.333 -6.66699 -51 -14.5 -77 -23.5s-47.667 -18.667 -65 -29s-30.666 -20.666 -39.999 -30.999s-16.166 -21.166 -20.499 -32.499s-6.5 -23.333 -6.5 -36c0 -24 7.5 -44.833 22.5 -62.5s34 -29.834 57 -36.501s50.5 -10 82.5 -10c22 0 44.833 1.66699 68.5 5
s57.167 11.666 100.5 24.999c-7.33301 -25.333 -12.333 -47.333 -15 -66c-52 -10.667 -101 -16 -147 -16c-54 0 -96.833 5.33301 -128.5 16s-57.167 29.167 -76.5 55.5s-29 55.5 -29 87.5c0 21.333 4.16699 41.5 12.5 60.5s20.166 35.833 35.499 50.5s35.333 28 60 40
s57.334 24.333 98.001 37l126 32c57.333 14.667 95.333 31.667 114 51s28 39.333 28 60c0 26.667 -13.167 48.834 -39.5 66.501s-67.833 26.5 -124.5 26.5c-36 0 -71.333 -2.83301 -106 -8.5s-76 -18.5 -124 -38.5z" />
    <glyph glyph-name="guillemotleft" unicode="&#xab;" horiz-adv-x="775" 
d="M388 883l-114 -244l-52 -116l42 -117c16 -45.333 31 -85.833 45 -121.5l44 -115.5c-11.333 0.666992 -22 1 -32 1s-20.333 -0.333008 -31 -1l-29 63c-7.33301 16.667 -20 43 -38 79l-103 212c56 90.667 123.667 210.667 203 360c11.333 -1.33301 22.333 -2 33 -2
c11.333 0 22 0.666992 32 2zM641 883l-115.001 -244l-51 -116l41 -117l45.5 -121.5l43.5 -115.5c-10.667 0.666992 -21 1 -31 1c-10.667 0 -21 -0.333008 -31 -1l-171 354c56.667 90.667 124.667 210.667 204 360c10.667 -1.33301 21.334 -2 32.001 -2
c12 0 23 0.666992 33 2z" />
    <glyph glyph-name="logicalnot" unicode="&#xac;" horiz-adv-x="1032" 
d="M891 0v483h-819v63h887v-546h-68z" />
    <glyph glyph-name="sfthyphen" unicode="&#xad;" horiz-adv-x="494" 
d="M-3 490c3.33301 27.333 5 51.001 5 71.001c72.667 -3.33301 152.667 -5 240 -5c84.667 0 165 1.66699 241 5c-3.33301 -26.667 -5 -50.334 -5 -71.001c-72.667 4 -153.667 6 -243 6c-82.667 0 -162 -2 -238 -6z" />
    <glyph glyph-name="registered" unicode="&#xae;" horiz-adv-x="1593" 
d="M831 1386c95.333 0 185.499 -14.333 270.499 -43s159.167 -75.334 222.5 -140.001s108.5 -138.834 135.5 -222.501s40.5 -172.5 40.5 -266.5c0 -103.333 -15.333 -202.666 -46 -297.999s-77 -175.333 -139 -240s-139.5 -113.667 -232.5 -147s-190.5 -50 -292.5 -50
c-98 0 -192 15.5 -282 46.5s-165.333 76.667 -226 137s-105.167 133 -133.5 218s-42.5 174.167 -42.5 267.5c0 104.667 17.333 206.167 52 304.5s84.834 179.833 150.501 244.5s144.167 112.334 235.5 143.001s187 46 287 46zM827.999 1334c-94 0 -182.667 -14.5 -266 -43.5
s-155.333 -75.667 -216 -140s-105.5 -140.333 -134.5 -228s-43.5 -179.167 -43.5 -274.5c0 -90 15 -176.333 45 -259s74.167 -151 132.5 -205s126.333 -93 204 -117s159.834 -36 246.501 -36c91.333 0 177.833 13.333 259.5 40s152 70.667 211 132
s102.333 135.166 130 221.499s41.5 177.5 41.5 273.5c0 91.333 -12.667 178.333 -38 261s-66.333 152.834 -123 210.501s-123.834 99.5 -201.501 125.5s-160.167 39 -247.5 39zM573.999 300c6.66699 76.667 13.168 199.167 19.501 367.5s9.5 304.833 9.5 409.5l115 -1l125 1
c34.667 0 65.5 -2.33301 92.5 -7s50.333 -16 70 -34s34.167 -38.667 43.5 -62s14 -48.666 14 -75.999c0 -28.667 -5.16699 -56.167 -15.5 -82.5s-25.5 -50.166 -45.5 -71.499s-42.667 -38 -68 -50c-16.667 -8 -34.334 -13.333 -53.001 -16l-84 -9l274 -370
c-24.667 1.33301 -41.334 2 -50.001 2s-20 -0.333008 -34 -1l-32 48c-10.667 16 -28.334 41 -53.001 75l-224 309c46.667 -8 83.334 -12 110.001 -12c39.333 0 75.666 6.66699 108.999 20s59 33.666 77 60.999s27 58.666 27 93.999c0 17.333 -2.33301 33.333 -7 48
s-12.667 28.167 -24 40.5s-23.666 21 -36.999 26s-28.833 8.5 -46.5 10.5s-49.167 3 -94.5 3l-124 -1c-5.33301 -114.667 -10.166 -247.167 -14.499 -397.5s-6.5 -258.5 -6.5 -324.5l-36 1z" />
    <glyph glyph-name="overscore" unicode="&#xaf;" horiz-adv-x="1032" 
d="M4 1564h1024v-67h-1024v67z" />
    <glyph glyph-name="degree" unicode="&#xb0;" horiz-adv-x="532" 
d="M467 1208c0 -31.333 -8 -60.833 -24 -88.5s-37.667 -49.334 -65 -65.001s-57 -23.5 -89 -23.5c-31.333 0 -60.666 7.83301 -87.999 23.5s-49 37.334 -65 65.001s-24 57.167 -24 88.5c0 32 8 61.667 24 89s37.667 49 65 65s56.666 24 87.999 24c32 0 61.667 -8 89 -24
s49 -37.667 65 -65s24 -57 24 -89zM411 1208c0 33.333 -11.833 61.833 -35.5 85.5s-52.5 35.5 -86.5 35.5c-33.333 0 -61.833 -11.833 -85.5 -35.5s-35.5 -52.167 -35.5 -85.5s11.833 -61.833 35.5 -85.5s52.167 -35.5 85.5 -35.5c34 0 62.833 11.833 86.5 35.5
s35.5 52.167 35.5 85.5z" />
    <glyph glyph-name="plusminus" unicode="&#xb1;" 
d="M122 711c2.66699 15.333 4.66699 37.334 6 66.001c62 -2 143.667 -3.33301 245 -4l152 -1l5 226c2 73.333 3 125 3 155c12.667 -1.33301 24.334 -2 35.001 -2c12.667 0 24.667 0.666992 36 2c-2 -26.667 -4.66699 -79.334 -8 -158.001l-10 -223h96l311 5
c-3.33301 -23.333 -5 -45.333 -5 -66c-66.667 2 -151.334 3.66699 -254.001 5l-150 1l-8 -381c-12.667 0.666992 -24.667 1 -36 1c-12 0 -24 -0.333008 -36 -1c2 28 4.66699 75.667 8 143l11 238l-115 -1l-99 -1zM104 199.001c2.66699 15.333 4.66602 37.333 5.99902 66
c116.667 -3.33301 260.667 -5 432 -5c166 0 310.333 1.66699 433 5c-2.66699 -20.667 -4.33398 -42.667 -5.00098 -66c-121.333 4 -265.666 6 -432.999 6c-165.333 0 -309.666 -2 -432.999 -6z" />
    <glyph glyph-name="twosuperior" unicode="&#xb2;" horiz-adv-x="707" 
d="M101 546c1.33301 15.333 2.00098 28.666 2.00098 39.999v18l194 197.5c57.333 60.333 106 114.666 146 162.999s69 87 87 116s29.667 51.667 35 68s8 32.166 8 47.499c0 40 -17.833 71.5 -53.5 94.5s-82.834 34.5 -141.501 34.5c-60 0 -139.333 -12 -238 -36
c4.66699 20.667 8.33398 42.334 11.001 65.001c75.333 15.333 150.666 23 225.999 23c50 0 94.5 -6.5 133.5 -19.5s69.667 -33 92 -60s33.5 -59.167 33.5 -96.5c0 -19.333 -2.16699 -37.666 -6.5 -54.999s-13.666 -39.166 -27.999 -65.499s-37.5 -59.5 -69.5 -99.5
c-50 -62 -104.333 -125 -163 -189s-121.667 -128.333 -189 -193c12.667 -0.666992 49.334 -1 110.001 -1c86 0 149.167 0.333008 189.5 1s83.166 3 128.499 7c-2.66699 -19.333 -4.33398 -39.333 -5.00098 -60c-63.333 0.666992 -145 1 -245 1z" />
    <glyph glyph-name="threesuperior" unicode="&#xb3;" horiz-adv-x="706" 
d="M86 566c-0.666992 21.333 -3.33496 44.999 -8.00195 70.999c50 -20 92.667 -33.333 128 -40s69 -10 101 -10c74.667 0 135.334 18.5 182.001 55.5s70 83.5 70 139.5c0 29.333 -7.83301 56.5 -23.5 81.5s-39.667 44.667 -72 59s-79.833 21.5 -142.5 21.5
c-22.667 0 -51.334 -1.33301 -86.001 -4c1.33301 18 2 32 2 42v18c22.667 -4 43.667 -6 63 -6c43.333 0 84.333 6.66699 123 20s68.5 35 89.5 65s31.5 62.333 31.5 97c0 28.667 -7.66699 55 -23 79s-38.166 41.667 -68.499 53s-67.833 17 -112.5 17
c-59.333 0 -124.666 -10 -195.999 -30c4.66699 22 7.66699 43 9 63c75.333 12.667 137 19 185 19c56 0 105 -7.33301 147 -22s73.167 -37.667 93.5 -69s30.5 -66.666 30.5 -105.999c0 -28.667 -5.83301 -57.667 -17.5 -87s-27.5 -53.333 -47.5 -72s-48.333 -34 -85 -46
c50 -6.66699 89.833 -27.5 119.5 -62.5s44.5 -78.5 44.5 -130.5c0 -46.667 -13 -89.667 -39 -129s-64.167 -69 -114.5 -89s-107.833 -30 -172.5 -30c-29.333 0 -60 2.16699 -92 6.5s-71.667 12.833 -119 25.5z" />
    <glyph glyph-name="acute" unicode="&#xb4;" horiz-adv-x="1024" 
d="M478 1137c10 33.333 20.667 67 32 101l57 178c16.667 -0.666992 36 -1 58 -1s41.333 0.333008 58 1l-81 -134.5c-38 -64.333 -65.667 -112.5 -83 -144.5c-5.33301 1.33301 -12.333 2 -21 2c-8 0 -14.667 -0.666992 -20 -2z" />
    <glyph glyph-name="mu" unicode="&#xb5;" 
d="M168 1010c18 -0.666992 31.3311 -1.00195 39.998 -1.00195s21.667 0.333008 39 1c-4.66699 -58.667 -11.167 -178.334 -19.5 -359.001s-12.5 -293 -12.5 -337c0 -67.333 9.5 -120.166 28.5 -158.499s50 -68 93 -89s91.833 -31.5 146.5 -31.5c52 0 101 9.33301 147 28
c40 16 73.667 38 101 66c30.667 32 56.334 73.667 77.001 125c16 39.333 27.667 88.333 35 147c4.66699 40.667 9 113.334 13 218.001c4.66699 128.667 7.66699 259 9 391c17.333 -0.666992 30.333 -1 39 -1s21.667 0.333008 39 1l-37 -700l-4 -151
c-1.33301 -62 -2 -115 -2 -159c-13.333 0.666992 -25.333 1 -36 1c-12 0 -24.333 -0.333008 -37 -1l8 217c-15.333 -38 -29.833 -68.333 -43.5 -91s-31.5 -43.667 -53.5 -63s-46 -34.666 -72 -45.999s-54.5 -20.333 -85.5 -27s-64.833 -10 -101.5 -10
c-66 0 -123.5 11.667 -172.5 35s-86.167 59.333 -111.5 108l-1 -89l-4 -285l-1 -95l1 -98c-17.333 0.666992 -31 1 -41 1s-23.667 -0.333008 -41 -1c16.667 260.667 30.834 528.5 42.501 803.5s17.5 491.833 17.5 650.5z" />
    <glyph glyph-name="paragraph" unicode="&#xb6;" 
d="M854 1300l-24.999 -587.997l-39 -1185c-15.333 0.666992 -26.666 1 -33.999 1s-18.333 -0.333008 -33 -1l63 1774h-139l-37 -973l-26 -801c-15.333 0.666992 -26.666 1 -33.999 1s-18.333 -0.333008 -33 -1l41 1130c-40 1.33301 -68 3 -84 5
c-31.333 4.66699 -62.333 12.667 -93 24c-38.667 14 -72.334 32 -101.001 54s-53.334 48.167 -74.001 78.5s-36.334 63.666 -47.001 99.999s-16 74.166 -16 113.499c0 52 10 101.667 30 149s48 85.833 84 115.5s74 48.5 114 56.5s91.333 12 154 12l228 -1
c84 0 159.333 0.333008 226 1c-3.33301 -24.667 -5 -47.334 -5 -68.001c-24 2 -64 3 -120 3z" />
    <glyph glyph-name="middot" unicode="&#xb7;" horiz-adv-x="132" 
d="M11 638l6 116.001c27.333 -0.666992 47 -1 59 -1s31.667 0.333008 59 1c-1.33301 -18.667 -2.33301 -37.834 -3 -57.501s-1.66699 -39.167 -3 -58.5c-28 1.33301 -47.667 2 -59 2s-31 -0.666992 -59 -2z" />
    <glyph glyph-name="cedilla" unicode="&#xb8;" horiz-adv-x="1024" 
d="M651 -102l-122.001 -240c-22.667 0.666992 -44.667 1 -66 1c-22 0 -44.333 -0.333008 -67 -1l208 240c10 -0.666992 18 -1 24 -1c6.66699 0 14.334 0.333008 23.001 1z" />
    <glyph glyph-name="onesuperior" unicode="&#xb9;" horiz-adv-x="706" 
d="M338 546l9.99902 179.999l20 564c-1.33301 -0.666992 -25.333 -15.667 -72 -45c3.33301 27.333 5 50.333 5 69c28.667 16 57.667 33.333 87 52c8 -0.666992 15.333 -1 22 -1c8.66699 0 18.334 0.333008 29.001 1c-7.33301 -131.333 -15.333 -306.666 -24 -525.999
c-3.33301 -84 -5 -151 -5 -201c0 -24.667 0.333008 -55.667 1 -93l-36 1z" />
    <glyph glyph-name="ordmasculine" unicode="&#xba;" horiz-adv-x="740" 
d="M390 1169c60.667 0 113.835 -11.5 159.502 -34.5s79.834 -58.167 102.501 -105.5s34 -100 34 -158c0 -64.667 -13.167 -124.667 -39.5 -180s-62.833 -95.333 -109.5 -120s-101 -37 -163 -37c-60.667 0 -113.834 12.667 -159.501 38s-79.834 61 -102.501 107
s-34 98 -34 156c0 66 12.667 125.667 38 179s63.166 92.5 113.499 117.5s103.833 37.5 160.5 37.5zM388.001 1117c-46 0 -88.833 -10.665 -128.5 -31.998s-69 -54.333 -88 -99s-28.5 -94.334 -28.5 -149.001c0 -48.667 8.5 -92 25.5 -130s43.5 -67.667 79.5 -89
s78.667 -32 128 -32c50 0 94 10.833 132 32.5s66.5 54.667 85.5 99s28.5 95.166 28.5 152.499c0 48.667 -8.16699 92.5 -24.5 131.5s-42.833 68 -79.5 87s-80 28.5 -130 28.5z" />
    <glyph glyph-name="guillemotright" unicode="&#xbb;" horiz-adv-x="776" 
d="M412 883c10.667 -1.33301 21.332 -2 31.999 -2c12 0 23 0.666992 33 2c70 -163.333 125 -283.333 165 -360l-145 -246l-62 -108c-11.333 0.666992 -21.666 1 -30.999 1c-10.667 0 -21.334 -0.333008 -32.001 -1l74 153c10.667 21.333 24.334 50.333 41.001 87l53 114z
M158.998 883c11.333 -1.33301 22.333 -2 33 -2c11.333 0 22 0.666992 32 2c70 -163.333 125.333 -283.333 166 -360l-145 -246l-63 -108c-10.667 0.666992 -21 1 -31 1c-10.667 0 -21 -0.333008 -31 -1l168 354l-40 117l-41 111z" />
    <glyph glyph-name="onequarter" unicode="&#xbc;" horiz-adv-x="1599" 
d="M338 546l9.99902 179.999l20 564c-1.33301 -0.666992 -25.333 -15.667 -72 -45c3.33301 27.333 5 50.333 5 69c28.667 16 57.667 33.333 87 52c8 -0.666992 15.333 -1 22 -1c8.66699 0 18.334 0.333008 29.001 1c-7.33301 -131.333 -15.333 -306.666 -24 -525.999
c-3.33301 -84 -5 -151 -5 -201c0 -24.667 0.333008 -55.667 1 -93l-36 1zM351.999 -0.000976562l549 880l208 336l88 149c14 -0.666992 26 -1 36 -1c10.667 0 22.334 0.333008 35.001 1l-277 -441l-486 -786l-82 -138c-13.333 0.666992 -25.333 1 -36 1
s-22.334 -0.333008 -35.001 -1zM1298 -1.00098c5.33301 58.667 9.33496 122.332 12.002 190.999l4 117l-171 -1l-181 -2c2 21.333 3 37.333 3 48v12l150 194l136 178l61 83c17.333 -0.666992 31.333 -1 42 -1c13.333 0 29 0.666992 47 2c-6 -98 -13 -251.667 -21 -461
c52 0 85.333 0.333008 100 1s29 2 43 4c-2 -17.333 -3 -31.666 -3 -42.999l1 -17c-62 1.33301 -110 2 -144 2c-0.666992 -11.333 -1.83398 -50.5 -3.50098 -117.5s-2.5 -109.167 -2.5 -126.5c0 -13.333 0.666992 -34.333 2 -63c-18.667 1.33301 -31.334 2 -38.001 2
s-19 -0.666992 -37 -2zM1316 358.997l11 311c1.33301 28 2 45.333 2 52v26l-297 -389h284z" />
    <glyph glyph-name="onehalf" unicode="&#xbd;" horiz-adv-x="1599" 
d="M338 546l9.99902 179.999l20 564c-1.33301 -0.666992 -25.333 -15.667 -72 -45c3.33301 27.333 5 50.333 5 69c28.667 16 57.667 33.333 87 52c8 -0.666992 15.333 -1 22 -1c8.66699 0 18.334 0.333008 29.001 1c-7.33301 -131.333 -15.333 -306.666 -24 -525.999
c-3.33301 -84 -5 -151 -5 -201c0 -24.667 0.333008 -55.667 1 -93l-36 1zM351.999 -0.000976562l549 880l208 336l88 149c14 -0.666992 26 -1 36 -1c10.667 0 22.334 0.333008 35.001 1l-277 -441l-486 -786l-82 -138c-13.333 0.666992 -25.333 1 -36 1
s-22.334 -0.333008 -35.001 -1zM973.999 -0.000976562c2 15.333 3.00098 28.3301 3.00098 38.9971l-1 19l194 197.5c57.333 60.333 106 114.666 146 162.999s69.167 86.833 87.5 115.5s30.166 51.334 35.499 68.001s8 32.667 8 48c0 40 -18 71.5 -54 94.5
s-83.333 34.5 -142 34.5c-60 0 -139 -12 -237 -36c4.66699 20.667 8.33398 42.334 11.001 65.001c75.333 15.333 150.333 23 225 23c50.667 0 95.5 -6.5 134.5 -19.5s69.5 -33 91.5 -60s33 -59.167 33 -96.5c0 -19.333 -2.16699 -37.666 -6.5 -54.999
s-13.5 -39.166 -27.5 -65.499s-37.333 -59.833 -70 -100.5c-49.333 -62 -103.5 -124.833 -162.5 -188.5s-122.167 -128.167 -189.5 -193.5c13.333 -0.666992 50.333 -1 111 -1c86 0 149 0.5 189 1.5s82.667 3.5 128 7.5c-2.66699 -19.333 -4.33398 -39.333 -5.00098 -60
c-62.667 0.666992 -144 1 -244 1z" />
    <glyph glyph-name="threequarters" unicode="&#xbe;" horiz-adv-x="1599" 
d="M86 566c-0.666992 21.333 -3.33496 44.999 -8.00195 70.999c50 -20 92.667 -33.333 128 -40s69 -10 101 -10c74.667 0 135.334 18.5 182.001 55.5s70 83.5 70 139.5c0 29.333 -7.83301 56.5 -23.5 81.5s-39.667 44.667 -72 59s-79.833 21.5 -142.5 21.5
c-22.667 0 -51.334 -1.33301 -86.001 -4c1.33301 18 2 32 2 42v18c22.667 -4 43.667 -6 63 -6c43.333 0 84.333 6.66699 123 20s68.5 35 89.5 65s31.5 62.333 31.5 97c0 28.667 -7.66699 55 -23 79s-38.166 41.667 -68.499 53s-67.833 17 -112.5 17
c-59.333 0 -124.666 -10 -195.999 -30c4.66699 22 7.66699 43 9 63c75.333 12.667 137 19 185 19c56 0 105 -7.33301 147 -22s73.167 -37.667 93.5 -69s30.5 -66.666 30.5 -105.999c0 -28.667 -5.83301 -57.667 -17.5 -87s-27.5 -53.333 -47.5 -72s-48.333 -34 -85 -46
c50 -6.66699 89.833 -27.5 119.5 -62.5s44.5 -78.5 44.5 -130.5c0 -46.667 -13 -89.667 -39 -129s-64.167 -69 -114.5 -89s-107.833 -30 -172.5 -30c-29.333 0 -60 2.16699 -92 6.5s-71.667 12.833 -119 25.5zM350.999 -0.000976562l549 880l208 336l89 149
c13.333 -0.666992 25 -1 35 -1c10.667 0 22.667 0.333008 36 1l-278 -441l-485 -786l-82 -138c-13.333 0.666992 -25.333 1 -36 1s-22.667 -0.333008 -36 -1zM1298 -1.00098c4.66699 58.667 8.33398 122.331 11.001 190.998l5 117l-172 -1l-181 -2c2 21.333 3 37.333 3 48
v12c30 36.667 80 101.334 150 194.001l136 178l61 83c18 -0.666992 32 -1 42 -1c14 0 30 0.666992 48 2c-6.66699 -98 -14 -251.667 -22 -461c52 0 85.333 0.333008 100 1s29 2 43 4c-1.33301 -17.333 -2 -31.666 -2 -42.999v-17c-62 1.33301 -110 2 -144 2
c-0.666992 -11.333 -1.83398 -50.5 -3.50098 -117.5s-2.5 -109.167 -2.5 -126.5c0 -13.333 0.666992 -34.333 2 -63c-18.667 1.33301 -31 2 -37 2c-6.66699 0 -19 -0.666992 -37 -2zM1316 358.996l10.999 311c0.666992 28 1.33398 45.333 2.00098 52v26l-297 -389h284z" />
    <glyph glyph-name="questiondown" unicode="&#xbf;" horiz-adv-x="911" 
d="M560 1010c-1.33301 -27.333 -2.33105 -49 -2.99805 -65s-1.33398 -30.667 -2.00098 -44c-24 0.666992 -42.667 1 -56 1c-14 0 -32.667 -0.333008 -56 -1c1.33301 20 2.33301 39.167 3 57.5s1.66699 35.5 3 51.5c23.333 -0.666992 42 -1 56 -1
c13.333 0 31.666 0.333008 54.999 1zM532.002 801l-5.99512 -129.997c-1.33301 -44.667 -3.66602 -83.334 -6.99902 -116.001s-7 -56.334 -11 -71.001s-9.33301 -28.5 -16 -41.5s-21.667 -34.5 -45 -64.5s-54.166 -66.667 -92.499 -110l-106.5 -123.5
c-32.667 -39 -57 -73.167 -73 -102.5s-26.5 -53.833 -31.5 -73.5s-7.5 -39.167 -7.5 -58.5c0 -46.667 13.5 -88.667 40.5 -126s66.833 -64.166 119.5 -80.499s111 -24.5 175 -24.5c44 0 89 3.16699 135 9.5s112 19.5 198 39.5
c-6.66699 -28.667 -11.334 -53.334 -14.001 -74.001c-56.667 -10 -113.834 -17.333 -171.501 -22s-106.5 -7 -146.5 -7c-79.333 0 -151.333 10 -216 30s-112.667 53.5 -144 100.5s-47 96.5 -47 148.5c0 23.333 2.66699 47.666 8 72.999s17.666 55.833 36.999 91.5
s46.166 74.5 80.499 116.5s71.5 84 111.5 126c42 44 74 80 96 108c10.667 14 19.667 28.5 27 43.5s13.166 32 17.499 51s8.16602 49.5 11.499 91.5l11 196c11.333 -0.666992 22.666 -1 33.999 -1c12 0 23 0.333008 33 1z" />
    <glyph glyph-name="Agrave" unicode="&#xc0;" horiz-adv-x="1318" 
d="M-33 0l334.999 657l295 582l61 126c16.667 -0.666992 34.667 -1 54 -1c20 0 38 0.333008 54 1l194 -550l295 -815c-17.333 0.666992 -32.333 1 -45 1c-13.333 0 -28.333 -0.333008 -45 -1c-18.667 64 -53.667 169.833 -105 317.5s-91.666 259.167 -120.999 334.5h-565
l-315 -652c-16.667 0.666992 -32 1 -46 1s-29.333 -0.333008 -46 -1zM404.999 717h512l-213 587zM740.999 1493c-5.33301 1.33301 -12 2 -20 2c-8.66699 0 -15.667 -0.666992 -21 -2l-57 100l-107 179c16.667 -0.666992 36 -1 58 -1s41.333 0.333008 58 1z" />
    <glyph glyph-name="Aacute" unicode="&#xc1;" horiz-adv-x="1318" 
d="M-33 0l334.999 657l295 582l61 126c16.667 -0.666992 34.667 -1 54 -1c20 0 38 0.333008 54 1l194 -550l295 -815c-17.333 0.666992 -32.333 1 -45 1c-13.333 0 -28.333 -0.333008 -45 -1c-18.667 64 -53.667 169.833 -105 317.5s-91.666 259.167 -120.999 334.5h-565
l-315 -652c-16.667 0.666992 -32 1 -46 1s-29.333 -0.333008 -46 -1zM404.999 717h512l-213 587zM685.999 1493c10 33.333 20.667 67 32 101l57 178c16.667 -0.666992 36 -1 58 -1s41.333 0.333008 58 1l-81 -134.5c-38 -64.333 -65.667 -112.5 -83 -144.5
c-5.33301 1.33301 -12.333 2 -21 2c-8 0 -14.667 -0.666992 -20 -2z" />
    <glyph glyph-name="Acircumflex" unicode="&#xc2;" horiz-adv-x="1318" 
d="M-33 0l334.999 657l295 582l61 126c16.667 -0.666992 34.667 -1 54 -1c20 0 38 0.333008 54 1l194 -550l295 -815c-17.333 0.666992 -32.333 1 -45 1c-13.333 0 -28.333 -0.333008 -45 -1c-18.667 64 -53.667 169.833 -105 317.5s-91.666 259.167 -120.999 334.5h-565
l-315 -652c-16.667 0.666992 -32 1 -46 1s-29.333 -0.333008 -46 -1zM404.999 717h512l-213 587zM524.999 1514c61.333 105.333 105.999 184.333 133.999 237c22 -0.666992 43.667 -1 65 -1s43 0.333008 65 1c34.667 -68.667 76.667 -147.667 126 -237
c-11.333 0.666992 -21 1 -29 1c-7.33301 0 -16.666 -0.333008 -27.999 -1l-134 187l-148 -187c-9.33301 0.666992 -18 1 -26 1s-16.333 -0.333008 -25 -1z" />
    <glyph glyph-name="Atilde" unicode="&#xc3;" horiz-adv-x="1318" 
d="M-33 0l334.999 657l295 582l61 126c16.667 -0.666992 34.667 -1 54 -1c20 0 38 0.333008 54 1l194 -550l295 -815c-17.333 0.666992 -32.333 1 -45 1c-13.333 0 -28.333 -0.333008 -45 -1c-18.667 64 -53.667 169.833 -105 317.5s-91.666 259.167 -120.999 334.5h-565
l-315 -652c-16.667 0.666992 -32 1 -46 1s-29.333 -0.333008 -46 -1zM404.999 717h512l-213 587zM495.999 1541c0 26 0.667969 48.832 2.00098 68.499s4.16602 37.5 8.49902 53.5s10.5 28.667 18.5 38s18 17 30 23s24 9 36 9c18.667 0 39 -5.66699 61 -17
s59.333 -37.333 112 -78c14 -11.333 26.167 -19.833 36.5 -25.5s20.5 -8.5 30.5 -8.5c12 0 22.333 3.33301 31 10s15.167 17.5 19.5 32.5s6.5 40.167 6.5 75.5c11.333 -0.666992 21 -1 29 -1s17.333 0.333008 28 1c-0.666992 -52 -5.16699 -90.5 -13.5 -115.5
s-19.5 -43.5 -33.5 -55.5s-31.333 -18 -52 -18c-14 0 -28.5 3.33301 -43.5 10s-38.833 21.667 -71.5 45c-47.333 34.667 -78 56 -92 64s-26.333 12 -37 12c-7.33301 0 -14.333 -1.5 -21 -4.5s-12.334 -8.66699 -17.001 -17s-8 -19.166 -10 -32.499s-3 -36.333 -3 -69
c-11.333 0.666992 -20.666 1 -27.999 1s-16.333 -0.333008 -27 -1z" />
    <glyph glyph-name="Adieresis" unicode="&#xc4;" horiz-adv-x="1318" 
d="M-33 0l334.999 657l295 582l61 126c16.667 -0.666992 34.667 -1 54 -1c20 0 38 0.333008 54 1l194 -550l295 -815c-17.333 0.666992 -32.333 1 -45 1c-13.333 0 -28.333 -0.333008 -45 -1c-18.667 64 -53.667 169.833 -105 317.5s-91.666 259.167 -120.999 334.5h-565
l-315 -652c-16.667 0.666992 -32 1 -46 1s-29.333 -0.333008 -46 -1zM404.999 717h512l-213 587zM793.999 1583l3 99c16.667 -0.666992 33.667 -1 51 -1s34.333 0.333008 51 1l-3 -99c-16.667 0.666992 -33.667 1 -51 1c-18 0 -35 -0.333008 -51 -1zM541.999 1583l3 99
c16.667 -0.666992 33.667 -1 51 -1s34.333 0.333008 51 1l-3 -99c-16.667 0.666992 -33.667 1 -51 1c-18 0 -35 -0.333008 -51 -1z" />
    <glyph glyph-name="Aring" unicode="&#xc5;" horiz-adv-x="1318" 
d="M891 1633c0 -31.333 -8 -60.833 -24 -88.5s-37.667 -49.5 -65 -65.5s-57 -24 -89 -24c-31.333 0 -60.833 8 -88.5 24s-49.334 37.833 -65.001 65.5s-23.5 57.167 -23.5 88.5s7.83301 60.833 23.5 88.5s37.334 49.334 65.001 65.001s57.167 23.5 88.5 23.5
c32 0 61.667 -7.83301 89 -23.5s49 -37.334 65 -65.001s24 -57.167 24 -88.5zM829 1633c0 31.333 -11.333 58.333 -34 81s-50 34 -82 34c-31.333 0 -58.333 -11.333 -81 -34s-34 -49.667 -34 -81c0 -32 11.333 -59.333 34 -82s49.667 -34 81 -34c32 0 59.333 11.333 82 34
s34 50 34 82zM-33 0l334.999 657l295 582l61 126c16.667 -0.666992 34.667 -1 54 -1c20 0 38 0.333008 54 1l194 -550l295 -815c-17.333 0.666992 -32.333 1 -45 1c-13.333 0 -28.333 -0.333008 -45 -1c-18.667 64 -53.667 169.833 -105 317.5
s-91.666 259.167 -120.999 334.5h-565l-315 -652c-16.667 0.666992 -32 1 -46 1s-29.333 -0.333008 -46 -1zM404.999 717h512l-213 587z" />
    <glyph glyph-name="AE" unicode="&#xc6;" horiz-adv-x="1578" 
d="M-126 0l393.002 763.001l233 458l26.5 56l39.5 88c113.333 -0.666992 274 -1 482 -1l286 1h152c-2.66699 -26.667 -4 -50.334 -4 -71.001c-60.667 2.66699 -120 4.33398 -178 5.00098c-189.333 2.66699 -393.666 4 -612.999 4l124 -579c96 -2 207 -3 333 -3
c105.333 0 190.666 1 255.999 3c-2.66699 -19.333 -4.33398 -42.333 -5.00098 -69l-93 4l-42 1h-72l-151 1l-134 1h-80l129 -599c102 -0.666992 181.333 -1 238 -1c58 0 132.667 3 224 9c-2.66699 -26.667 -4 -50.334 -4 -71.001c-95.333 0.666992 -177.333 1 -246 1
l-275 -1l-120 570c-2 10 -9 40.667 -21 92h-460l-225 -441l-105 -221c-17.333 0.666992 -32 1 -44 1c-12.667 0 -27.334 -0.333008 -44.001 -1zM322.002 724.001h418l-37 181c-14 70.667 -22 109.667 -24 117l-64 287z" />
    <glyph glyph-name="Ccedilla" unicode="&#xc7;" horiz-adv-x="1250" 
d="M1155 106c-5.33301 -23.333 -9.66797 -50.666 -13.001 -81.999c-68 -16.667 -131.833 -28.334 -191.5 -35.001s-113.167 -10 -160.5 -10c-97.333 0 -189.666 15.667 -276.999 47s-162.333 77.833 -225 139.5s-108.667 134.834 -138 219.501s-44 173.667 -44 267
c0 104 17.167 204.667 51.5 302s84.5 178.166 150.5 242.499s145.167 112 237.5 143s190.833 46.5 295.5 46.5c35.333 0 73.5 -1.66699 114.5 -5s74.667 -7 101 -11s61.5 -10.667 105.5 -20c1.33301 -27.333 4.33301 -56 9 -86c-73.333 24 -136.5 40 -189.5 48
s-104.167 12 -153.5 12c-86 0 -168.667 -13.333 -248 -40s-149.333 -69.5 -210 -128.5s-107.167 -132 -139.5 -219s-48.5 -176.833 -48.5 -269.5c0 -89.333 13.333 -174.5 40 -255.5s67.334 -148.833 122.001 -203.5s119.667 -96.167 195 -124.5
s157.666 -42.5 246.999 -42.5c110 0 233 21.667 369 65zM819.998 -105c-78 -151.333 -124.001 -243.333 -138.001 -276c-22.667 0.666992 -46.667 1 -72 1s-49 -0.333008 -71 -1c21.333 29.333 48.333 63.833 81 103.5l136 172.5c10.667 -0.666992 21.334 -1 32.001 -1
c11.333 0 22 0.333008 32 1z" />
    <glyph glyph-name="Egrave" unicode="&#xc8;" horiz-adv-x="1073" 
d="M149 0c12.667 180.667 24.166 413.835 34.499 699.502s15.5 507.5 15.5 665.5c148 -0.666992 287 -1 417 -1l365 1c-2.66699 -26.667 -4 -50.334 -4 -71.001l-80 6c-20.667 2 -56.667 3.16699 -108 3.5s-101.666 0.5 -150.999 0.5c-158 0 -278 -0.333008 -360 -1
l-20 -573c100.667 -2 193 -3 277 -3c100 0 223.333 1 370 3c-2.66699 -20 -4.33398 -42 -5.00098 -66l-377 3c-44 0 -133.333 -1 -268 -3l-21 -601l287 -1c112.667 0 190.834 0.5 234.501 1.5s103.167 3.5 178.5 7.5c-3.33301 -26.667 -5 -50.334 -5 -71.001
c-160 0.666992 -277 1 -351 1zM605.999 1493c-5.33301 1.33301 -12 2 -20 2c-8.66699 0 -15.667 -0.666992 -21 -2l-57 100l-107 179c16.667 -0.666992 36 -1 58 -1s41.333 0.333008 58 1z" />
    <glyph glyph-name="Eacute" unicode="&#xc9;" horiz-adv-x="1073" 
d="M149 0c12.667 180.667 24.166 413.835 34.499 699.502s15.5 507.5 15.5 665.5c148 -0.666992 287 -1 417 -1l365 1c-2.66699 -26.667 -4 -50.334 -4 -71.001l-80 6c-20.667 2 -56.667 3.16699 -108 3.5s-101.666 0.5 -150.999 0.5c-158 0 -278 -0.333008 -360 -1
l-20 -573c100.667 -2 193 -3 277 -3c100 0 223.333 1 370 3c-2.66699 -20 -4.33398 -42 -5.00098 -66l-377 3c-44 0 -133.333 -1 -268 -3l-21 -601l287 -1c112.667 0 190.834 0.5 234.501 1.5s103.167 3.5 178.5 7.5c-3.33301 -26.667 -5 -50.334 -5 -71.001
c-160 0.666992 -277 1 -351 1zM550.999 1493c10 33.333 20.667 67 32 101l57 178c16.667 -0.666992 36 -1 58 -1s41.333 0.333008 58 1l-81 -134.5c-38 -64.333 -65.667 -112.5 -83 -144.5c-5.33301 1.33301 -12.333 2 -21 2c-8 0 -14.667 -0.666992 -20 -2z" />
    <glyph glyph-name="Ecircumflex" unicode="&#xca;" horiz-adv-x="1073" 
d="M149 0c12.667 180.667 24.166 413.835 34.499 699.502s15.5 507.5 15.5 665.5c148 -0.666992 287 -1 417 -1l365 1c-2.66699 -26.667 -4 -50.334 -4 -71.001l-80 6c-20.667 2 -56.667 3.16699 -108 3.5s-101.666 0.5 -150.999 0.5c-158 0 -278 -0.333008 -360 -1
l-20 -573c100.667 -2 193 -3 277 -3c100 0 223.333 1 370 3c-2.66699 -20 -4.33398 -42 -5.00098 -66l-377 3c-44 0 -133.333 -1 -268 -3l-21 -601l287 -1c112.667 0 190.834 0.5 234.501 1.5s103.167 3.5 178.5 7.5c-3.33301 -26.667 -5 -50.334 -5 -71.001
c-160 0.666992 -277 1 -351 1zM390.999 1514c61.333 105.333 105.999 184.333 133.999 237c22 -0.666992 43.667 -1 65 -1s43 0.333008 65 1c34.667 -68.667 76.667 -147.667 126 -237c-11.333 0.666992 -21 1 -29 1c-7.33301 0 -16.666 -0.333008 -27.999 -1l-134 187
l-148 -187c-9.33301 0.666992 -18 1 -26 1s-16.333 -0.333008 -25 -1z" />
    <glyph glyph-name="Edieresis" unicode="&#xcb;" horiz-adv-x="1073" 
d="M149 0c12.667 180.667 24.166 413.835 34.499 699.502s15.5 507.5 15.5 665.5c148 -0.666992 287 -1 417 -1l365 1c-2.66699 -26.667 -4 -50.334 -4 -71.001l-80 6c-20.667 2 -56.667 3.16699 -108 3.5s-101.666 0.5 -150.999 0.5c-158 0 -278 -0.333008 -360 -1
l-20 -573c100.667 -2 193 -3 277 -3c100 0 223.333 1 370 3c-2.66699 -20 -4.33398 -42 -5.00098 -66l-377 3c-44 0 -133.333 -1 -268 -3l-21 -601l287 -1c112.667 0 190.834 0.5 234.501 1.5s103.167 3.5 178.5 7.5c-3.33301 -26.667 -5 -50.334 -5 -71.001
c-160 0.666992 -277 1 -351 1zM658.999 1583l3 99c16.667 -0.666992 33.667 -1 51 -1s34.333 0.333008 51 1l-3 -99c-16.667 0.666992 -33.667 1 -51 1c-18 0 -35 -0.333008 -51 -1zM406.999 1583l3 99c16.667 -0.666992 33.667 -1 51 -1s34.333 0.333008 51 1l-3 -99
c-16.667 0.666992 -33.667 1 -51 1c-18 0 -35 -0.333008 -51 -1z" />
    <glyph glyph-name="Igrave" unicode="&#xcc;" horiz-adv-x="426" 
d="M126 0l22 401l20 601l4 208c0.666992 55.333 1 107 1 155c17.333 -0.666992 32.333 -1 45 -1c13.333 0 28.333 0.333008 45 1l-18 -362l-24 -745l-5 -258c-16.667 0.666992 -31.667 1 -45 1s-28.333 -0.333008 -45 -1zM263 1494c-5.33301 1.33301 -12 2 -20 2
c-8.66699 0 -15.667 -0.666992 -21 -2l-57 100l-107 179c16.667 -0.666992 36 -1 58 -1s41.333 0.333008 58 1z" />
    <glyph glyph-name="Iacute" unicode="&#xcd;" horiz-adv-x="426" 
d="M149 0l22 401l20 601l4 208c0.666992 55.333 1 107 1 155c17.333 -0.666992 32.333 -1 45 -1c13.333 0 28.333 0.333008 45 1l-18 -362l-24 -745l-5 -258c-16.667 0.666992 -31.667 1 -45 1s-28.333 -0.333008 -45 -1zM224 1494c10 33.333 20.667 67 32 101l57 178
c16.667 -0.666992 36 -1 58 -1s41.333 0.333008 58 1l-81 -134.5c-38 -64.333 -65.667 -112.5 -83 -144.5c-5.33301 1.33301 -12.333 2 -21 2c-8 0 -14.667 -0.666992 -20 -2z" />
    <glyph glyph-name="Icircumflex" unicode="&#xce;" horiz-adv-x="426" 
d="M162 0l22 401l20 601l4 208c0.666992 55.333 1 107 1 155c17.333 -0.666992 32.333 -1 45 -1c13.333 0 28.333 0.333008 45 1l-18 -362l-24 -745l-5 -258c-16.667 0.666992 -31.667 1 -45 1s-28.333 -0.333008 -45 -1zM73 1514
c61.333 105.333 105.999 184.333 133.999 237c22 -0.666992 43.667 -1 65 -1s43 0.333008 65 1c34.667 -68.667 76.667 -147.667 126 -237c-11.333 0.666992 -21 1 -29 1c-7.33301 0 -16.666 -0.333008 -27.999 -1l-134 187l-148 -187c-9.33301 0.666992 -18 1 -26 1
s-16.333 -0.333008 -25 -1z" />
    <glyph glyph-name="Idieresis" unicode="&#xcf;" horiz-adv-x="426" 
d="M174 0l22 401l20 601l4 208c0.666992 55.333 1 107 1 155c17.333 -0.666992 32.333 -1 45 -1c13.333 0 28.333 0.333008 45 1l-18 -362l-24 -745l-5 -258c-16.667 0.666992 -31.667 1 -45 1s-28.333 -0.333008 -45 -1zM354 1583l3 99c16.667 -0.666992 33.667 -1 51 -1
s34.333 0.333008 51 1l-3 -99c-16.667 0.666992 -33.667 1 -51 1c-18 0 -35 -0.333008 -51 -1zM102 1583l3 99c16.667 -0.666992 33.667 -1 51 -1s34.333 0.333008 51 1l-3 -99c-16.667 0.666992 -33.667 1 -51 1c-18 0 -35 -0.333008 -51 -1z" />
    <glyph glyph-name="Eth" unicode="&#xd0;" horiz-adv-x="1478" 
d="M43 665c2.66699 21.333 4.33203 42.666 4.99902 63.999c61.333 -2 108 -3 140 -3l16 463c1.33301 48.667 2 107.334 2 176.001l221 -1l274 1c128.667 0 231.834 -10 309.501 -30s146.667 -61.167 207 -123.5s103.333 -133 129 -212s38.5 -164.167 38.5 -255.5
c0 -108.667 -19.5 -213.5 -58.5 -314.5s-96.667 -185.833 -173 -254.5s-162.666 -115 -258.999 -139s-201.5 -36 -315.5 -36l-212 1l-218 -1c16.667 242 29 464.667 37 668c-28.667 0 -76.334 -1 -143.001 -3zM262.998 725l115.999 -0.00292969c90.667 0 188 1.33301 292 4
c-3.33301 -21.333 -5 -42.666 -5 -63.999c-95.333 3.33301 -199 5 -311 5l-95 -1l-25 -606c134.667 -2 229.667 -3 285 -3c66.667 0 135 3.33301 205 10s132.667 18.834 188 36.501s109.833 49.5 163.5 95.5s97.5 97.167 131.5 153.5s59.5 119 76.5 188
s25.5 138.833 25.5 209.5c0 68 -8 133.333 -24 196c-12 45.333 -29.333 87.666 -52 126.999c-26 44.667 -56.167 82.5 -90.5 113.5s-70.166 54.333 -107.499 70s-84.333 26.834 -141 33.501c-50 6.66699 -109 10.334 -177 11.001h-238l-193 -1z" />
    <glyph glyph-name="Ntilde" unicode="&#xd1;" horiz-adv-x="1486" 
d="M149 0l22.999 393.999l28 810l3 161c16 -0.666992 36 -1 60 -1c24.667 0 45 0.333008 61 1l83 -131c22 -33.333 68 -99.666 138 -198.999l513 -740l159 -224l43 1139l3 155c17.333 -0.666992 31 -1 41 -1c10.667 0 24.667 0.333008 42 1l-19 -314l-32 -854l-4 -197
c-23.333 0.666992 -43.666 1 -60.999 1s-37.333 -0.333008 -60 -1l-183 272l-634 912l-74 101c-2 -34 -3.66699 -69 -5 -105l-36 -936l-5 -244c-17.333 0.666992 -31.333 1 -42 1s-24.667 -0.333008 -42 -1zM566.999 1541c0 26 0.667969 48.832 2.00098 68.499
s4.16602 37.5 8.49902 53.5s10.5 28.667 18.5 38s18 17 30 23s24 9 36 9c18.667 0 39 -5.66699 61 -17s59.333 -37.333 112 -78c14 -11.333 26.167 -19.833 36.5 -25.5s20.5 -8.5 30.5 -8.5c12 0 22.333 3.33301 31 10s15.167 17.5 19.5 32.5s6.5 40.167 6.5 75.5
c11.333 -0.666992 21 -1 29 -1s17.333 0.333008 28 1c-0.666992 -52 -5.16699 -90.5 -13.5 -115.5s-19.5 -43.5 -33.5 -55.5s-31.333 -18 -52 -18c-14 0 -28.5 3.33301 -43.5 10s-38.833 21.667 -71.5 45c-47.333 34.667 -78 56 -92 64s-26.333 12 -37 12
c-7.33301 0 -14.333 -1.5 -21 -4.5s-12.334 -8.66699 -17.001 -17s-8 -19.166 -10 -32.499s-3 -36.333 -3 -69c-11.333 0.666992 -20.666 1 -27.999 1s-16.333 -0.333008 -27 -1z" />
    <glyph glyph-name="Ograve" unicode="&#xd2;" horiz-adv-x="1593" 
d="M831 1386c95.333 0 185.499 -14.333 270.499 -43s159.167 -75.334 222.5 -140.001s108.5 -138.834 135.5 -222.501s40.5 -172.5 40.5 -266.5c0 -103.333 -15.333 -202.666 -46 -297.999s-77 -175.333 -139 -240s-139.5 -113.667 -232.5 -147s-190.5 -50 -292.5 -50
c-98 0 -192 15.5 -282 46.5s-165.333 76.667 -226 137s-105.167 133 -133.5 218s-42.5 174.167 -42.5 267.5c0 104.667 17.333 206.167 52 304.5s84.834 179.833 150.501 244.5s144.167 112.334 235.5 143.001s187 46 287 46zM827.999 1324
c-92 0 -178.667 -14.1689 -260 -42.502s-152 -74.333 -212 -138s-104 -138.667 -132 -225s-42 -176.5 -42 -270.5c0 -88.667 14.667 -173.667 44 -255s72.333 -148.666 129 -201.999s123.167 -91.666 199.5 -114.999s156.833 -35 241.5 -35c89.333 0 173.833 13 253.5 39
s148.667 69.333 207 130s101 133.5 128 218.5s40.5 174.833 40.5 269.5c0 90 -12.5 175.667 -37.5 257s-65.167 150.5 -120.5 207.5s-121 98.167 -197 123.5s-156.667 38 -242 38zM857.999 1493c-5.33301 1.33301 -12 2 -20 2c-8.66699 0 -15.667 -0.666992 -21 -2l-57 100
l-107 179c16.667 -0.666992 36 -1 58 -1s41.333 0.333008 58 1z" />
    <glyph glyph-name="Oacute" unicode="&#xd3;" horiz-adv-x="1593" 
d="M831 1386c95.333 0 185.499 -14.333 270.499 -43s159.167 -75.334 222.5 -140.001s108.5 -138.834 135.5 -222.501s40.5 -172.5 40.5 -266.5c0 -103.333 -15.333 -202.666 -46 -297.999s-77 -175.333 -139 -240s-139.5 -113.667 -232.5 -147s-190.5 -50 -292.5 -50
c-98 0 -192 15.5 -282 46.5s-165.333 76.667 -226 137s-105.167 133 -133.5 218s-42.5 174.167 -42.5 267.5c0 104.667 17.333 206.167 52 304.5s84.834 179.833 150.501 244.5s144.167 112.334 235.5 143.001s187 46 287 46zM827.999 1324
c-92 0 -178.667 -14.1689 -260 -42.502s-152 -74.333 -212 -138s-104 -138.667 -132 -225s-42 -176.5 -42 -270.5c0 -88.667 14.667 -173.667 44 -255s72.333 -148.666 129 -201.999s123.167 -91.666 199.5 -114.999s156.833 -35 241.5 -35c89.333 0 173.833 13 253.5 39
s148.667 69.333 207 130s101 133.5 128 218.5s40.5 174.833 40.5 269.5c0 90 -12.5 175.667 -37.5 257s-65.167 150.5 -120.5 207.5s-121 98.167 -197 123.5s-156.667 38 -242 38zM802.999 1493c10 33.333 20.667 67 32 101l57 178c16.667 -0.666992 36 -1 58 -1
s41.333 0.333008 58 1l-81 -134.5c-38 -64.333 -65.667 -112.5 -83 -144.5c-5.33301 1.33301 -12.333 2 -21 2c-8 0 -14.667 -0.666992 -20 -2z" />
    <glyph glyph-name="Ocircumflex" unicode="&#xd4;" horiz-adv-x="1593" 
d="M831 1386c95.333 0 185.499 -14.333 270.499 -43s159.167 -75.334 222.5 -140.001s108.5 -138.834 135.5 -222.501s40.5 -172.5 40.5 -266.5c0 -103.333 -15.333 -202.666 -46 -297.999s-77 -175.333 -139 -240s-139.5 -113.667 -232.5 -147s-190.5 -50 -292.5 -50
c-98 0 -192 15.5 -282 46.5s-165.333 76.667 -226 137s-105.167 133 -133.5 218s-42.5 174.167 -42.5 267.5c0 104.667 17.333 206.167 52 304.5s84.834 179.833 150.501 244.5s144.167 112.334 235.5 143.001s187 46 287 46zM827.999 1324
c-92 0 -178.667 -14.1689 -260 -42.502s-152 -74.333 -212 -138s-104 -138.667 -132 -225s-42 -176.5 -42 -270.5c0 -88.667 14.667 -173.667 44 -255s72.333 -148.666 129 -201.999s123.167 -91.666 199.5 -114.999s156.833 -35 241.5 -35c89.333 0 173.833 13 253.5 39
s148.667 69.333 207 130s101 133.5 128 218.5s40.5 174.833 40.5 269.5c0 90 -12.5 175.667 -37.5 257s-65.167 150.5 -120.5 207.5s-121 98.167 -197 123.5s-156.667 38 -242 38zM641.999 1514c61.333 105.333 105.999 184.333 133.999 237c22 -0.666992 43.667 -1 65 -1
s43 0.333008 65 1c34.667 -68.667 76.667 -147.667 126 -237c-11.333 0.666992 -21 1 -29 1c-7.33301 0 -16.666 -0.333008 -27.999 -1l-134 187l-148 -187c-9.33301 0.666992 -18 1 -26 1s-16.333 -0.333008 -25 -1z" />
    <glyph glyph-name="Otilde" unicode="&#xd5;" horiz-adv-x="1593" 
d="M831 1386c95.333 0 185.499 -14.333 270.499 -43s159.167 -75.334 222.5 -140.001s108.5 -138.834 135.5 -222.501s40.5 -172.5 40.5 -266.5c0 -103.333 -15.333 -202.666 -46 -297.999s-77 -175.333 -139 -240s-139.5 -113.667 -232.5 -147s-190.5 -50 -292.5 -50
c-98 0 -192 15.5 -282 46.5s-165.333 76.667 -226 137s-105.167 133 -133.5 218s-42.5 174.167 -42.5 267.5c0 104.667 17.333 206.167 52 304.5s84.834 179.833 150.501 244.5s144.167 112.334 235.5 143.001s187 46 287 46zM827.999 1324
c-92 0 -178.667 -14.1689 -260 -42.502s-152 -74.333 -212 -138s-104 -138.667 -132 -225s-42 -176.5 -42 -270.5c0 -88.667 14.667 -173.667 44 -255s72.333 -148.666 129 -201.999s123.167 -91.666 199.5 -114.999s156.833 -35 241.5 -35c89.333 0 173.833 13 253.5 39
s148.667 69.333 207 130s101 133.5 128 218.5s40.5 174.833 40.5 269.5c0 90 -12.5 175.667 -37.5 257s-65.167 150.5 -120.5 207.5s-121 98.167 -197 123.5s-156.667 38 -242 38zM612.999 1541c0 26 0.667969 48.832 2.00098 68.499s4.16602 37.5 8.49902 53.5
s10.5 28.667 18.5 38s18 17 30 23s24 9 36 9c18.667 0 39 -5.66699 61 -17s59.333 -37.333 112 -78c14 -11.333 26.167 -19.833 36.5 -25.5s20.5 -8.5 30.5 -8.5c12 0 22.333 3.33301 31 10s15.167 17.5 19.5 32.5s6.5 40.167 6.5 75.5c11.333 -0.666992 21 -1 29 -1
s17.333 0.333008 28 1c-0.666992 -52 -5.16699 -90.5 -13.5 -115.5s-19.5 -43.5 -33.5 -55.5s-31.333 -18 -52 -18c-14 0 -28.5 3.33301 -43.5 10s-38.833 21.667 -71.5 45c-47.333 34.667 -78 56 -92 64s-26.333 12 -37 12c-7.33301 0 -14.333 -1.5 -21 -4.5
s-12.334 -8.66699 -17.001 -17s-8 -19.166 -10 -32.499s-3 -36.333 -3 -69c-11.333 0.666992 -20.666 1 -27.999 1s-16.333 -0.333008 -27 -1z" />
    <glyph glyph-name="Odieresis" unicode="&#xd6;" horiz-adv-x="1593" 
d="M831 1386c95.333 0 185.499 -14.333 270.499 -43s159.167 -75.334 222.5 -140.001s108.5 -138.834 135.5 -222.501s40.5 -172.5 40.5 -266.5c0 -103.333 -15.333 -202.666 -46 -297.999s-77 -175.333 -139 -240s-139.5 -113.667 -232.5 -147s-190.5 -50 -292.5 -50
c-98 0 -192 15.5 -282 46.5s-165.333 76.667 -226 137s-105.167 133 -133.5 218s-42.5 174.167 -42.5 267.5c0 104.667 17.333 206.167 52 304.5s84.834 179.833 150.501 244.5s144.167 112.334 235.5 143.001s187 46 287 46zM827.999 1324
c-92 0 -178.667 -14.1689 -260 -42.502s-152 -74.333 -212 -138s-104 -138.667 -132 -225s-42 -176.5 -42 -270.5c0 -88.667 14.667 -173.667 44 -255s72.333 -148.666 129 -201.999s123.167 -91.666 199.5 -114.999s156.833 -35 241.5 -35c89.333 0 173.833 13 253.5 39
s148.667 69.333 207 130s101 133.5 128 218.5s40.5 174.833 40.5 269.5c0 90 -12.5 175.667 -37.5 257s-65.167 150.5 -120.5 207.5s-121 98.167 -197 123.5s-156.667 38 -242 38zM910.999 1583l3 99c16.667 -0.666992 33.667 -1 51 -1s34.333 0.333008 51 1l-3 -99
c-16.667 0.666992 -33.667 1 -51 1c-18 0 -35 -0.333008 -51 -1zM658.999 1583l3 99c16.667 -0.666992 33.667 -1 51 -1s34.333 0.333008 51 1l-3 -99c-16.667 0.666992 -33.667 1 -51 1c-18 0 -35 -0.333008 -51 -1z" />
    <glyph glyph-name="multiply" unicode="&#xd7;" 
d="M261 373c-14.667 18 -29 34 -43 48l299 282l-281 284c20.667 16.667 37.334 31.667 50.001 45c47.333 -53.333 137.666 -150 270.999 -290l152 149l143 143c14 -18.667 28.333 -35 43 -49l-300 -282l163 -166l119 -118c-22 -17.333 -38.667 -32 -50 -44l-272 289z" />
    <glyph glyph-name="Oslash" unicode="&#xd8;" horiz-adv-x="1593" 
d="M1190 1304l105.998 154.003c13.333 -0.666992 25 -1 35 -1c10.667 0 22.334 0.333008 35.001 1l-127 -184c57.333 -38.667 106.166 -86.834 146.499 -144.501s69.5 -122.334 87.5 -194.001s27 -145.5 27 -221.5c0 -104 -15.5 -203.833 -46.5 -299.5
s-78.167 -176 -141.5 -241s-141.5 -113.5 -234.5 -145.5s-190.833 -48 -293.5 -48c-65.333 0 -130.833 7.66699 -196.5 23s-124.834 37.333 -177.501 66l-111 -162c-13.333 1.33301 -25.666 2 -36.999 2s-23.666 -0.666992 -36.999 -2l133 193
c-87.333 60 -151.166 137.833 -191.499 233.5s-60.5 200.5 -60.5 314.5c0 105.333 17.5 207.166 52.5 305.499s85.5 180 151.5 245s144.833 112.5 236.5 142.5s187.834 45 288.501 45c64.667 0 127.667 -7 189 -21s116.666 -34.333 165.999 -61zM396.998 156.003
l755.001 1094c-43.333 24.667 -94.333 43.167 -153 55.5s-117.334 18.5 -176.001 18.5c-90.667 0 -176.5 -14.5 -257.5 -43.5s-151.167 -75 -210.5 -138s-103 -137.667 -131 -224s-42 -176.5 -42 -270.5c0 -98 17.667 -191 53 -279s89.333 -159 162 -213zM1202 1219
l-755 -1096c32 -18 63.5 -32.333 94.5 -43s69.167 -19.834 114.5 -27.501s93 -11.5 143 -11.5c89.333 0 174 13.5 254 40.5s148.833 71.167 206.5 132.5s99.667 134.333 126 219s39.5 175 39.5 271c0 106.667 -17.833 205.167 -53.5 295.5s-92.167 163.5 -169.5 219.5z" />
    <glyph glyph-name="Ugrave" unicode="&#xd9;" horiz-adv-x="1441" 
d="M194 1365c16.667 -0.666992 31.6689 -0.999023 45.002 -0.999023c14 0 29.333 0.333008 46 1l-46 -820l-2 -74v-17c0 -80 10.333 -145.5 31 -196.5s53.834 -93.333 99.501 -127s95.667 -57 150 -70s113.5 -19.5 177.5 -19.5c61.333 0 120.333 6.33301 177 19
c42.667 9.33301 82 23.666 118 42.999c28.667 15.333 54.667 34.666 78 57.999s43.166 49.833 59.499 79.5s28.166 60.834 35.499 93.501c13.333 64 22 142.333 26 235l20 411c6.66699 154.667 10 283 10 385c17.333 -0.666992 32 -1 44 -1s26.667 0.333008 44 1l-26 -455
l-17 -401c-5.33301 -88 -15.333 -161 -30 -219c-9.33301 -34.667 -23 -67.667 -41 -99c-17.333 -28.667 -38 -54 -62 -76c-27.333 -25.333 -60.333 -47.666 -99 -66.999c-42 -21.333 -87.333 -37.333 -136 -48c-64 -13.333 -130 -20 -198 -20
c-74.667 0 -142.334 7.33301 -203.001 22c-53.333 12.667 -102.333 32.667 -147 60s-81 58.666 -109 93.999c-23.333 28.667 -42 66 -56 112s-21 101.667 -21 167c0 58.667 2 127.667 6 207l23 534c2 62 3 125 3 189zM789.002 1493c-5.33301 1.33301 -12 2 -20 2
c-8.66699 0 -15.667 -0.666992 -21 -2l-57 100l-107 179c16.667 -0.666992 36 -1 58 -1s41.333 0.333008 58 1z" />
    <glyph glyph-name="Uacute" unicode="&#xda;" horiz-adv-x="1441" 
d="M194 1365c16.667 -0.666992 31.6689 -0.999023 45.002 -0.999023c14 0 29.333 0.333008 46 1l-46 -820l-2 -74v-17c0 -80 10.333 -145.5 31 -196.5s53.834 -93.333 99.501 -127s95.667 -57 150 -70s113.5 -19.5 177.5 -19.5c61.333 0 120.333 6.33301 177 19
c42.667 9.33301 82 23.666 118 42.999c28.667 15.333 54.667 34.666 78 57.999s43.166 49.833 59.499 79.5s28.166 60.834 35.499 93.501c13.333 64 22 142.333 26 235l20 411c6.66699 154.667 10 283 10 385c17.333 -0.666992 32 -1 44 -1s26.667 0.333008 44 1l-26 -455
l-17 -401c-5.33301 -88 -15.333 -161 -30 -219c-9.33301 -34.667 -23 -67.667 -41 -99c-17.333 -28.667 -38 -54 -62 -76c-27.333 -25.333 -60.333 -47.666 -99 -66.999c-42 -21.333 -87.333 -37.333 -136 -48c-64 -13.333 -130 -20 -198 -20
c-74.667 0 -142.334 7.33301 -203.001 22c-53.333 12.667 -102.333 32.667 -147 60s-81 58.666 -109 93.999c-23.333 28.667 -42 66 -56 112s-21 101.667 -21 167c0 58.667 2 127.667 6 207l23 534c2 62 3 125 3 189zM734.002 1493c10 33.333 20.667 67 32 101l57 178
c16.667 -0.666992 36 -1 58 -1s41.333 0.333008 58 1l-81 -134.5c-38 -64.333 -65.667 -112.5 -83 -144.5c-5.33301 1.33301 -12.333 2 -21 2c-8 0 -14.667 -0.666992 -20 -2z" />
    <glyph glyph-name="Ucircumflex" unicode="&#xdb;" horiz-adv-x="1441" 
d="M194 1365c16.667 -0.666992 31.6689 -0.999023 45.002 -0.999023c14 0 29.333 0.333008 46 1l-46 -820l-2 -74v-17c0 -80 10.333 -145.5 31 -196.5s53.834 -93.333 99.501 -127s95.667 -57 150 -70s113.5 -19.5 177.5 -19.5c61.333 0 120.333 6.33301 177 19
c42.667 9.33301 82 23.666 118 42.999c28.667 15.333 54.667 34.666 78 57.999s43.166 49.833 59.499 79.5s28.166 60.834 35.499 93.501c13.333 64 22 142.333 26 235l20 411c6.66699 154.667 10 283 10 385c17.333 -0.666992 32 -1 44 -1s26.667 0.333008 44 1l-26 -455
l-17 -401c-5.33301 -88 -15.333 -161 -30 -219c-9.33301 -34.667 -23 -67.667 -41 -99c-17.333 -28.667 -38 -54 -62 -76c-27.333 -25.333 -60.333 -47.666 -99 -66.999c-42 -21.333 -87.333 -37.333 -136 -48c-64 -13.333 -130 -20 -198 -20
c-74.667 0 -142.334 7.33301 -203.001 22c-53.333 12.667 -102.333 32.667 -147 60s-81 58.666 -109 93.999c-23.333 28.667 -42 66 -56 112s-21 101.667 -21 167c0 58.667 2 127.667 6 207l23 534c2 62 3 125 3 189zM574.002 1514
c61.333 105.333 105.999 184.333 133.999 237c22 -0.666992 43.667 -1 65 -1s43 0.333008 65 1c34.667 -68.667 76.667 -147.667 126 -237c-11.333 0.666992 -21 1 -29 1c-7.33301 0 -16.666 -0.333008 -27.999 -1l-134 187l-148 -187c-9.33301 0.666992 -18 1 -26 1
s-16.333 -0.333008 -25 -1z" />
    <glyph glyph-name="Udieresis" unicode="&#xdc;" horiz-adv-x="1441" 
d="M194 1365c16.667 -0.666992 31.6689 -0.999023 45.002 -0.999023c14 0 29.333 0.333008 46 1l-46 -820l-2 -74v-17c0 -80 10.333 -145.5 31 -196.5s53.834 -93.333 99.501 -127s95.667 -57 150 -70s113.5 -19.5 177.5 -19.5c61.333 0 120.333 6.33301 177 19
c42.667 9.33301 82 23.666 118 42.999c28.667 15.333 54.667 34.666 78 57.999s43.166 49.833 59.499 79.5s28.166 60.834 35.499 93.501c13.333 64 22 142.333 26 235l20 411c6.66699 154.667 10 283 10 385c17.333 -0.666992 32 -1 44 -1s26.667 0.333008 44 1l-26 -455
l-17 -401c-5.33301 -88 -15.333 -161 -30 -219c-9.33301 -34.667 -23 -67.667 -41 -99c-17.333 -28.667 -38 -54 -62 -76c-27.333 -25.333 -60.333 -47.666 -99 -66.999c-42 -21.333 -87.333 -37.333 -136 -48c-64 -13.333 -130 -20 -198 -20
c-74.667 0 -142.334 7.33301 -203.001 22c-53.333 12.667 -102.333 32.667 -147 60s-81 58.666 -109 93.999c-23.333 28.667 -42 66 -56 112s-21 101.667 -21 167c0 58.667 2 127.667 6 207l23 534c2 62 3 125 3 189zM842.002 1583l3 99c16.667 -0.666992 33.667 -1 51 -1
s34.333 0.333008 51 1l-3 -99c-16.667 0.666992 -33.667 1 -51 1c-18 0 -35 -0.333008 -51 -1zM590.002 1583l3 99c16.667 -0.666992 33.667 -1 51 -1s34.333 0.333008 51 1l-3 -99c-16.667 0.666992 -33.667 1 -51 1c-18 0 -35 -0.333008 -51 -1z" />
    <glyph glyph-name="Yacute" unicode="&#xdd;" horiz-adv-x="987" 
d="M408 0l30.002 433l10 186l-134 238l-296 508c17.333 -0.666992 32.333 -1 45 -1c13.333 0 28.333 0.333008 45 1l43 -81c8.66699 -16.667 36.334 -65 83.001 -145l258 -451l239 358l147 229l55 90c17.333 -0.666992 32.666 -1 45.999 -1s28.666 0.333008 45.999 1
l-504 -750c-0.666992 -32.667 -2 -63.667 -4 -93l-13 -257c-2 -38 -3.66699 -80 -5 -126l-2 -139c-17.333 0.666992 -32.333 1 -45 1s-27.334 -0.333008 -44.001 -1zM501.002 1493c10 33.333 20.667 67 32 101l57 178c16.667 -0.666992 36 -1 58 -1s41.333 0.333008 58 1
l-81 -134.5c-38 -64.333 -65.667 -112.5 -83 -144.5c-5.33301 1.33301 -12.333 2 -21 2c-8 0 -14.667 -0.666992 -20 -2z" />
    <glyph glyph-name="Thorn" unicode="&#xde;" horiz-adv-x="1028" 
d="M149 0l20 322.999l22 526l10 383v133c17.333 -0.666992 31.333 -1 42 -1c12 0 26.333 0.333008 43 1c-2 -30 -5 -93.667 -9 -191c74.667 -0.666992 141.334 -1 200.001 -1l169 1c53.333 0 99.5 -4.5 138.5 -13.5s74 -27.667 105 -56s54.833 -62.666 71.5 -102.999
s25 -83.166 25 -128.499c0 -82 -21.167 -154.833 -63.5 -218.5s-99.333 -111.167 -171 -142.5s-152.834 -47 -243.501 -47c-51.333 0 -108 6 -170 18c-5.33301 19.333 -12 39.666 -20 60.999c60 -12 119.333 -18 178 -18c56.667 0 111 6.66699 163 20
s96.5 35.166 133.5 65.499s65.833 68.333 86.5 114s31 93.834 31 144.501c0 30.667 -4.83301 60 -14.5 88s-21.667 51.167 -36 69.5s-31.666 33.5 -51.999 45.5s-41.5 20.5 -63.5 25.5s-53.667 8.5 -95 10.5c-18.667 0.666992 -57 1 -115 1h-260l-26 -838l-5 -272
c-17.333 0.666992 -33 1 -47 1c-14.667 0 -30.334 -0.333008 -47.001 -1z" />
    <glyph glyph-name="germandbls" unicode="&#xdf;" horiz-adv-x="1082" 
d="M120 0l10 107l44 949c2.66699 41.333 8.16699 78.833 16.5 112.5s21.166 62.667 38.499 87s40.666 46.333 69.999 66s61.333 34.5 96 44.5c45.333 13.333 93.333 20 144 20c62 0 117.667 -9 167 -27s86 -44 110 -78s36 -78.333 36 -133
c0 -33.333 -3.16699 -66.666 -9.5 -99.999s-17.5 -56.333 -33.5 -69s-46.667 -25.667 -92 -39c-29.333 -8 -49.833 -15.5 -61.5 -22.5s-20.5 -16.833 -26.5 -29.5s-9 -29 -9 -49c0 -14.667 1.66699 -29 5 -43s7.83301 -26 13.5 -36s13.334 -20 23.001 -30
s18.5 -17.833 26.5 -23.5l73 -49.5l59 -40c23.333 -16 46.333 -35 69 -57s42 -44.5 58 -67.5s28 -45 36 -66s13.333 -41.667 16 -62s4 -40.833 4 -61.5c0 -66.667 -13 -124.667 -39 -174s-64.333 -86.666 -115 -111.999s-110.334 -38 -179.001 -38
c-68 0 -139.333 10.667 -214 32c-1.33301 24.667 -4.66602 51.667 -9.99902 81c52.667 -20.667 96.834 -35.334 132.501 -44.001s69.5 -13 101.5 -13c48.667 0 92.167 11.333 130.5 34s67.5 53.334 87.5 92.001s30 82.667 30 132c0 22.667 -2.16699 44.5 -6.5 65.5
s-10.666 41 -18.999 60s-18 36 -29 51s-24.833 30.5 -41.5 46.5s-30.334 28 -41.001 36s-38 27 -82 57l-58 40c-18 12.667 -33.667 25.5 -47 38.5s-23.5 25.333 -30.5 37s-12.333 25.5 -16 41.5s-5.5 35.667 -5.5 59c0 24.667 2.66699 47.5 8 68.5s11.666 36.5 18.999 46.5
s17.333 18.833 30 26.5s33 15.667 61 24s47.167 15.166 57.5 20.499s18.333 11.166 24 17.499s10.334 14.833 14.001 25.5s6.5 23.667 8.5 39s3 32.333 3 51c0 32 -4.83301 59.667 -14.5 83s-26 43.333 -49 60s-48.833 28 -77.5 34s-57 9 -85 9
c-54 0 -100.667 -7.33301 -140 -22c-29.333 -11.333 -56 -28.333 -80 -51c-25.333 -24 -44.333 -50.667 -57 -80c-15.333 -34.667 -25 -85 -29 -151c-4 -59.333 -12.333 -232.333 -25 -519c-8.66699 -187.333 -14.667 -356.333 -18 -507c-17.333 0.666992 -31 1 -41 1
s-23.667 -0.333008 -41 -1z" />
    <glyph glyph-name="agrave" unicode="&#xe0;" horiz-adv-x="1021" 
d="M182 904c4.66699 22.667 8.33398 48.666 11.001 77.999c68 18.667 127 31.5 177 38.5s100.667 10.5 152 10.5c59.333 0 114.5 -5.16699 165.5 -15.5s92.667 -27.666 125 -51.999s53.666 -52.166 63.999 -83.499s15.5 -63.333 15.5 -96
c0 -33.333 -1.16699 -75.5 -3.5 -126.5s-5.5 -105.833 -9.5 -164.5s-7.66699 -131.834 -11 -219.501s-5 -150.834 -5 -189.501v-84c-17.333 0.666992 -31.333 1 -42 1c-11.333 0 -25.333 -0.333008 -42 -1c9.33301 102 15.833 184.667 19.5 248s6.66699 131.5 9 204.5
s5.5 141.167 9.5 204.5c-20.667 -17.333 -36.5 -30.166 -47.5 -38.499s-23 -15.833 -36 -22.5s-28.667 -13.5 -47 -20.5s-35.166 -13 -50.499 -18s-52.5 -15.5 -111.5 -31.5s-101.167 -28 -126.5 -36c-57.333 -18.667 -101.666 -36.334 -132.999 -53.001
c-34 -18 -62.333 -38 -85 -60c-20 -19.333 -34.667 -39.666 -44 -60.999c-10.667 -25.333 -16 -52.333 -16 -81c0 -43.333 13 -81 39 -113s58.833 -54.5 98.5 -67.5s87.5 -19.5 143.5 -19.5c28 0 55 1.5 81 4.5s50.5 7 73.5 12s56.167 14.5 99.5 28.5
c-6 -25.333 -11 -50.666 -15 -75.999c-54 -10.667 -97.833 -17.5 -131.5 -20.5s-65.5 -4.5 -95.5 -4.5c-56 0 -107.667 4.33301 -155 13s-87 25.667 -119 51s-55.667 54.666 -71 87.999s-23 68.333 -23 105c0 28 4.66699 55.167 14 81.5s23.666 51.5 42.999 75.5
c16 20 37.333 38.667 64 56c31.333 21.333 66 39.333 104 54c44 17.333 91.333 33.333 142 48c14 4 69 18.333 165 43c43.333 11.333 84.333 25.5 123 42.5s68.667 40.667 90 71s32 61.166 32 92.499c0 22.667 -5 44.5 -15 65.5s-27.833 40.833 -53.5 59.5
s-57.5 31.667 -95.5 39s-78 11 -120 11c-48.667 0 -94.334 -3.16699 -137.001 -9.5s-78.667 -13.666 -108 -21.999s-66.333 -21.5 -111 -39.5zM579 1137c-5.33301 1.33301 -12 2 -20 2c-8.66699 0 -15.667 -0.666992 -21 -2l-57 100l-107 179c16.667 -0.666992 36 -1 58 -1
s41.333 0.333008 58 1z" />
    <glyph glyph-name="aacute" unicode="&#xe1;" horiz-adv-x="1021" 
d="M182 904c4.66699 22.667 8.33398 48.666 11.001 77.999c68 18.667 127 31.5 177 38.5s100.667 10.5 152 10.5c59.333 0 114.5 -5.16699 165.5 -15.5s92.667 -27.666 125 -51.999s53.666 -52.166 63.999 -83.499s15.5 -63.333 15.5 -96
c0 -33.333 -1.16699 -75.5 -3.5 -126.5s-5.5 -105.833 -9.5 -164.5s-7.66699 -131.834 -11 -219.501s-5 -150.834 -5 -189.501v-84c-17.333 0.666992 -31.333 1 -42 1c-11.333 0 -25.333 -0.333008 -42 -1c9.33301 102 15.833 184.667 19.5 248s6.66699 131.5 9 204.5
s5.5 141.167 9.5 204.5c-20.667 -17.333 -36.5 -30.166 -47.5 -38.499s-23 -15.833 -36 -22.5s-28.667 -13.5 -47 -20.5s-35.166 -13 -50.499 -18s-52.5 -15.5 -111.5 -31.5s-101.167 -28 -126.5 -36c-57.333 -18.667 -101.666 -36.334 -132.999 -53.001
c-34 -18 -62.333 -38 -85 -60c-20 -19.333 -34.667 -39.666 -44 -60.999c-10.667 -25.333 -16 -52.333 -16 -81c0 -43.333 13 -81 39 -113s58.833 -54.5 98.5 -67.5s87.5 -19.5 143.5 -19.5c28 0 55 1.5 81 4.5s50.5 7 73.5 12s56.167 14.5 99.5 28.5
c-6 -25.333 -11 -50.666 -15 -75.999c-54 -10.667 -97.833 -17.5 -131.5 -20.5s-65.5 -4.5 -95.5 -4.5c-56 0 -107.667 4.33301 -155 13s-87 25.667 -119 51s-55.667 54.666 -71 87.999s-23 68.333 -23 105c0 28 4.66699 55.167 14 81.5s23.666 51.5 42.999 75.5
c16 20 37.333 38.667 64 56c31.333 21.333 66 39.333 104 54c44 17.333 91.333 33.333 142 48c14 4 69 18.333 165 43c43.333 11.333 84.333 25.5 123 42.5s68.667 40.667 90 71s32 61.166 32 92.499c0 22.667 -5 44.5 -15 65.5s-27.833 40.833 -53.5 59.5
s-57.5 31.667 -95.5 39s-78 11 -120 11c-48.667 0 -94.334 -3.16699 -137.001 -9.5s-78.667 -13.666 -108 -21.999s-66.333 -21.5 -111 -39.5zM476 1137c10 33.333 20.667 67 32 101l57 178c16.667 -0.666992 36 -1 58 -1s41.333 0.333008 58 1l-81 -134.5
c-38 -64.333 -65.667 -112.5 -83 -144.5c-5.33301 1.33301 -12.333 2 -21 2c-8 0 -14.667 -0.666992 -20 -2z" />
    <glyph glyph-name="acircumflex" unicode="&#xe2;" horiz-adv-x="1021" 
d="M182 904c4.66699 22.667 8.33398 48.666 11.001 77.999c68 18.667 127 31.5 177 38.5s100.667 10.5 152 10.5c59.333 0 114.5 -5.16699 165.5 -15.5s92.667 -27.666 125 -51.999s53.666 -52.166 63.999 -83.499s15.5 -63.333 15.5 -96
c0 -33.333 -1.16699 -75.5 -3.5 -126.5s-5.5 -105.833 -9.5 -164.5s-7.66699 -131.834 -11 -219.501s-5 -150.834 -5 -189.501v-84c-17.333 0.666992 -31.333 1 -42 1c-11.333 0 -25.333 -0.333008 -42 -1c9.33301 102 15.833 184.667 19.5 248s6.66699 131.5 9 204.5
s5.5 141.167 9.5 204.5c-20.667 -17.333 -36.5 -30.166 -47.5 -38.499s-23 -15.833 -36 -22.5s-28.667 -13.5 -47 -20.5s-35.166 -13 -50.499 -18s-52.5 -15.5 -111.5 -31.5s-101.167 -28 -126.5 -36c-57.333 -18.667 -101.666 -36.334 -132.999 -53.001
c-34 -18 -62.333 -38 -85 -60c-20 -19.333 -34.667 -39.666 -44 -60.999c-10.667 -25.333 -16 -52.333 -16 -81c0 -43.333 13 -81 39 -113s58.833 -54.5 98.5 -67.5s87.5 -19.5 143.5 -19.5c28 0 55 1.5 81 4.5s50.5 7 73.5 12s56.167 14.5 99.5 28.5
c-6 -25.333 -11 -50.666 -15 -75.999c-54 -10.667 -97.833 -17.5 -131.5 -20.5s-65.5 -4.5 -95.5 -4.5c-56 0 -107.667 4.33301 -155 13s-87 25.667 -119 51s-55.667 54.666 -71 87.999s-23 68.333 -23 105c0 28 4.66699 55.167 14 81.5s23.666 51.5 42.999 75.5
c16 20 37.333 38.667 64 56c31.333 21.333 66 39.333 104 54c44 17.333 91.333 33.333 142 48c14 4 69 18.333 165 43c43.333 11.333 84.333 25.5 123 42.5s68.667 40.667 90 71s32 61.166 32 92.499c0 22.667 -5 44.5 -15 65.5s-27.833 40.833 -53.5 59.5
s-57.5 31.667 -95.5 39s-78 11 -120 11c-48.667 0 -94.334 -3.16699 -137.001 -9.5s-78.667 -13.666 -108 -21.999s-66.333 -21.5 -111 -39.5zM350 1158c61.333 105.333 105.999 184.333 133.999 237c22 -0.666992 43.667 -1 65 -1s43 0.333008 65 1
c34.667 -68.667 76.667 -147.667 126 -237c-11.333 0.666992 -21 1 -29 1c-7.33301 0 -16.666 -0.333008 -27.999 -1l-134 187l-148 -187c-9.33301 0.666992 -18 1 -26 1s-16.333 -0.333008 -25 -1z" />
    <glyph glyph-name="atilde" unicode="&#xe3;" horiz-adv-x="1021" 
d="M182 904c4.66699 22.667 8.33398 48.666 11.001 77.999c68 18.667 127 31.5 177 38.5s100.667 10.5 152 10.5c59.333 0 114.5 -5.16699 165.5 -15.5s92.667 -27.666 125 -51.999s53.666 -52.166 63.999 -83.499s15.5 -63.333 15.5 -96
c0 -33.333 -1.16699 -75.5 -3.5 -126.5s-5.5 -105.833 -9.5 -164.5s-7.66699 -131.834 -11 -219.501s-5 -150.834 -5 -189.501v-84c-17.333 0.666992 -31.333 1 -42 1c-11.333 0 -25.333 -0.333008 -42 -1c9.33301 102 15.833 184.667 19.5 248s6.66699 131.5 9 204.5
s5.5 141.167 9.5 204.5c-20.667 -17.333 -36.5 -30.166 -47.5 -38.499s-23 -15.833 -36 -22.5s-28.667 -13.5 -47 -20.5s-35.166 -13 -50.499 -18s-52.5 -15.5 -111.5 -31.5s-101.167 -28 -126.5 -36c-57.333 -18.667 -101.666 -36.334 -132.999 -53.001
c-34 -18 -62.333 -38 -85 -60c-20 -19.333 -34.667 -39.666 -44 -60.999c-10.667 -25.333 -16 -52.333 -16 -81c0 -43.333 13 -81 39 -113s58.833 -54.5 98.5 -67.5s87.5 -19.5 143.5 -19.5c28 0 55 1.5 81 4.5s50.5 7 73.5 12s56.167 14.5 99.5 28.5
c-6 -25.333 -11 -50.666 -15 -75.999c-54 -10.667 -97.833 -17.5 -131.5 -20.5s-65.5 -4.5 -95.5 -4.5c-56 0 -107.667 4.33301 -155 13s-87 25.667 -119 51s-55.667 54.666 -71 87.999s-23 68.333 -23 105c0 28 4.66699 55.167 14 81.5s23.666 51.5 42.999 75.5
c16 20 37.333 38.667 64 56c31.333 21.333 66 39.333 104 54c44 17.333 91.333 33.333 142 48c14 4 69 18.333 165 43c43.333 11.333 84.333 25.5 123 42.5s68.667 40.667 90 71s32 61.166 32 92.499c0 22.667 -5 44.5 -15 65.5s-27.833 40.833 -53.5 59.5
s-57.5 31.667 -95.5 39s-78 11 -120 11c-48.667 0 -94.334 -3.16699 -137.001 -9.5s-78.667 -13.666 -108 -21.999s-66.333 -21.5 -111 -39.5zM313 1177c0 26 0.667969 48.832 2.00098 68.499s4.16602 37.5 8.49902 53.5s10.5 28.667 18.5 38s18 17 30 23s24 9 36 9
c18.667 0 39 -5.66699 61 -17s59.333 -37.333 112 -78c14 -11.333 26.167 -19.833 36.5 -25.5s20.5 -8.5 30.5 -8.5c12 0 22.333 3.33301 31 10s15.167 17.5 19.5 32.5s6.5 40.167 6.5 75.5c11.333 -0.666992 21 -1 29 -1s17.333 0.333008 28 1
c-0.666992 -52 -5.16699 -90.5 -13.5 -115.5s-19.5 -43.5 -33.5 -55.5s-31.333 -18 -52 -18c-14 0 -28.5 3.33301 -43.5 10s-38.833 21.667 -71.5 45c-47.333 34.667 -78 56 -92 64s-26.333 12 -37 12c-7.33301 0 -14.333 -1.5 -21 -4.5s-12.334 -8.66699 -17.001 -17
s-8 -19.166 -10 -32.499s-3 -36.333 -3 -69c-11.333 0.666992 -20.666 1 -27.999 1s-16.333 -0.333008 -27 -1z" />
    <glyph glyph-name="adieresis" unicode="&#xe4;" horiz-adv-x="1021" 
d="M182 904c4.66699 22.667 8.33398 48.666 11.001 77.999c68 18.667 127 31.5 177 38.5s100.667 10.5 152 10.5c59.333 0 114.5 -5.16699 165.5 -15.5s92.667 -27.666 125 -51.999s53.666 -52.166 63.999 -83.499s15.5 -63.333 15.5 -96
c0 -33.333 -1.16699 -75.5 -3.5 -126.5s-5.5 -105.833 -9.5 -164.5s-7.66699 -131.834 -11 -219.501s-5 -150.834 -5 -189.501v-84c-17.333 0.666992 -31.333 1 -42 1c-11.333 0 -25.333 -0.333008 -42 -1c9.33301 102 15.833 184.667 19.5 248s6.66699 131.5 9 204.5
s5.5 141.167 9.5 204.5c-20.667 -17.333 -36.5 -30.166 -47.5 -38.499s-23 -15.833 -36 -22.5s-28.667 -13.5 -47 -20.5s-35.166 -13 -50.499 -18s-52.5 -15.5 -111.5 -31.5s-101.167 -28 -126.5 -36c-57.333 -18.667 -101.666 -36.334 -132.999 -53.001
c-34 -18 -62.333 -38 -85 -60c-20 -19.333 -34.667 -39.666 -44 -60.999c-10.667 -25.333 -16 -52.333 -16 -81c0 -43.333 13 -81 39 -113s58.833 -54.5 98.5 -67.5s87.5 -19.5 143.5 -19.5c28 0 55 1.5 81 4.5s50.5 7 73.5 12s56.167 14.5 99.5 28.5
c-6 -25.333 -11 -50.666 -15 -75.999c-54 -10.667 -97.833 -17.5 -131.5 -20.5s-65.5 -4.5 -95.5 -4.5c-56 0 -107.667 4.33301 -155 13s-87 25.667 -119 51s-55.667 54.666 -71 87.999s-23 68.333 -23 105c0 28 4.66699 55.167 14 81.5s23.666 51.5 42.999 75.5
c16 20 37.333 38.667 64 56c31.333 21.333 66 39.333 104 54c44 17.333 91.333 33.333 142 48c14 4 69 18.333 165 43c43.333 11.333 84.333 25.5 123 42.5s68.667 40.667 90 71s32 61.166 32 92.499c0 22.667 -5 44.5 -15 65.5s-27.833 40.833 -53.5 59.5
s-57.5 31.667 -95.5 39s-78 11 -120 11c-48.667 0 -94.334 -3.16699 -137.001 -9.5s-78.667 -13.666 -108 -21.999s-66.333 -21.5 -111 -39.5zM614 1227l3 99c16.667 -0.666992 33.667 -1 51 -1s34.333 0.333008 51 1l-3 -99c-16.667 0.666992 -33.667 1 -51 1
c-18 0 -35 -0.333008 -51 -1zM362 1227l3 99c16.667 -0.666992 33.667 -1 51 -1s34.333 0.333008 51 1l-3 -99c-16.667 0.666992 -33.667 1 -51 1c-18 0 -35 -0.333008 -51 -1z" />
    <glyph glyph-name="aring" unicode="&#xe5;" horiz-adv-x="1021" 
d="M182 904c4.66699 22.667 8.33398 48.666 11.001 77.999c68 18.667 127 31.5 177 38.5s100.667 10.5 152 10.5c59.333 0 114.5 -5.16699 165.5 -15.5s92.667 -27.666 125 -51.999s53.666 -52.166 63.999 -83.499s15.5 -63.333 15.5 -96
c0 -33.333 -1.16699 -75.5 -3.5 -126.5s-5.5 -105.833 -9.5 -164.5s-7.66699 -131.834 -11 -219.501s-5 -150.834 -5 -189.501v-84c-17.333 0.666992 -31.333 1 -42 1c-11.333 0 -25.333 -0.333008 -42 -1c9.33301 102 15.833 184.667 19.5 248s6.66699 131.5 9 204.5
s5.5 141.167 9.5 204.5c-20.667 -17.333 -36.5 -30.166 -47.5 -38.499s-23 -15.833 -36 -22.5s-28.667 -13.5 -47 -20.5s-35.166 -13 -50.499 -18s-52.5 -15.5 -111.5 -31.5s-101.167 -28 -126.5 -36c-57.333 -18.667 -101.666 -36.334 -132.999 -53.001
c-34 -18 -62.333 -38 -85 -60c-20 -19.333 -34.667 -39.666 -44 -60.999c-10.667 -25.333 -16 -52.333 -16 -81c0 -43.333 13 -81 39 -113s58.833 -54.5 98.5 -67.5s87.5 -19.5 143.5 -19.5c28 0 55 1.5 81 4.5s50.5 7 73.5 12s56.167 14.5 99.5 28.5
c-6 -25.333 -11 -50.666 -15 -75.999c-54 -10.667 -97.833 -17.5 -131.5 -20.5s-65.5 -4.5 -95.5 -4.5c-56 0 -107.667 4.33301 -155 13s-87 25.667 -119 51s-55.667 54.666 -71 87.999s-23 68.333 -23 105c0 28 4.66699 55.167 14 81.5s23.666 51.5 42.999 75.5
c16 20 37.333 38.667 64 56c31.333 21.333 66 39.333 104 54c44 17.333 91.333 33.333 142 48c14 4 69 18.333 165 43c43.333 11.333 84.333 25.5 123 42.5s68.667 40.667 90 71s32 61.166 32 92.499c0 22.667 -5 44.5 -15 65.5s-27.833 40.833 -53.5 59.5
s-57.5 31.667 -95.5 39s-78 11 -120 11c-48.667 0 -94.334 -3.16699 -137.001 -9.5s-78.667 -13.666 -108 -21.999s-66.333 -21.5 -111 -39.5zM716 1311c0 -32 -8 -61.667 -24 -89s-37.667 -49 -65 -65s-57 -24 -89 -24c-31.333 0 -60.666 8 -87.999 24s-49 37.667 -65 65
s-24 57 -24 89c0 31.333 8 60.833 24 88.5s37.667 49.334 65 65.001s56.666 23.5 87.999 23.5c32 0 61.667 -7.83301 89 -23.5s49 -37.334 65 -65.001s24 -57.167 24 -88.5zM657 1310c0 32 -11.667 59.333 -35 82s-51.333 34 -84 34c-32 0 -59.667 -11.333 -83 -34
s-35 -50 -35 -82s11.667 -59.5 35 -82.5s51 -34.5 83 -34.5c32.667 0 60.667 11.5 84 34.5s35 50.5 35 82.5z" />
    <glyph glyph-name="ae" unicode="&#xe6;" horiz-adv-x="1662" 
d="M169 906c4.66699 27.333 7.66602 52.3281 8.99902 74.9951c38 12.667 69.333 21.834 94 27.501s57.667 10.834 99 15.501s82 7 122 7c38.667 0 76.167 -2.5 112.5 -7.5s66.833 -11.833 91.5 -20.5s45.667 -18.5 63 -29.5s31.666 -23.167 42.999 -36.5
s20.666 -28.666 27.999 -45.999s14 -43 20 -77c27.333 42 51.166 74 71.499 96s46.333 42.833 78 62.5s65.667 34.334 102 44.001s73.833 14.5 112.5 14.5c70 0 134.333 -15.167 193 -45.5s104.834 -73.833 138.501 -130.5s50.5 -129 50.5 -217
c0 -18.667 -1.66699 -38.667 -5 -60h-739c-4 -48.667 -6 -86.334 -6 -113.001c0 -80 15.333 -153.667 46 -221s75.667 -119 135 -155s129.333 -54 210 -54c34.667 0 71.334 3.5 110.001 10.5s88 20.167 148 39.5c-6 -28 -10.333 -54.333 -13 -79
c-82.667 -18 -161.667 -27 -237 -27c-104.667 0 -192.167 20.167 -262.5 60.5s-123 99 -158 176s-52.5 161.833 -52.5 254.5c0 28 1.66699 58.167 5 90.5s11.666 75.166 24.999 128.499c-20 -29.333 -38.667 -51.333 -56 -66s-42.5 -28.667 -75.5 -42
s-74.667 -27.333 -125 -42s-100.833 -31 -151.5 -49s-90.334 -33.667 -119.001 -47s-52 -26.166 -70 -38.499s-34.333 -27.5 -49 -45.5s-25.667 -37 -33 -57s-11 -40.667 -11 -62c0 -41.333 12.167 -78.333 36.5 -111s59.833 -56.5 106.5 -71.5s96 -22.5 148 -22.5
c36 0 79.833 5 131.5 15s102.834 25 153.501 45c-6.66699 -24 -12 -49.333 -16 -76c-111.333 -26.667 -200.666 -40 -267.999 -40c-64 0 -125.833 10 -185.5 30s-104.834 50.667 -135.501 92s-46 87.666 -46 138.999c0 28.667 5 56.834 15 84.501s26.833 54.834 50.5 81.501
s51.334 48.834 83.001 66.501s60.834 31.334 87.501 41.001s76.834 25.5 150.501 47.5s127.5 39 161.5 51c48.667 17.333 83.667 32.5 105 45.5s39 27.667 53 44s24 32.5 30 48.5s9 33.667 9 53c0 33.333 -10.167 63.666 -30.5 90.999s-51 47.666 -92 60.999
s-92.167 20 -153.5 20c-42 0 -83 -3 -123 -9s-74.667 -13.167 -104 -21.5s-66.333 -21.166 -111 -38.499zM860.999 639.995l664 -0.00292969c0 39.333 -1.66699 70.833 -5 94.5s-11 48.667 -23 75s-28 50.333 -48 72s-42 39.334 -66 53.001s-50.167 23.834 -78.5 30.501
s-57.5 10 -87.5 10c-36 0 -70.167 -4.66699 -102.5 -14s-62.333 -22.833 -90 -40.5s-52.167 -39.167 -73.5 -64.5s-38.5 -52.666 -51.5 -81.999s-25.833 -74 -38.5 -134z" />
    <glyph glyph-name="ccedilla" unicode="&#xe7;" horiz-adv-x="937" 
d="M822 80c-6.66699 -27.333 -11.3369 -52.665 -14.0039 -75.998c-84.667 -16.667 -163.667 -25 -237 -25c-69.333 0 -134.166 9.66699 -194.499 29s-112.166 50.5 -155.499 93.5s-75.5 97 -96.5 162s-31.5 133.167 -31.5 204.5c0 97.333 16.5 190 49.5 278
s85.667 157.5 158 208.5s170.166 76.5 293.499 76.5c90 0 175.667 -12.333 257 -37c0.666992 -22 3 -45.333 7 -70c-69.333 21.333 -123.666 35.166 -162.999 41.499s-75.333 9.5 -108 9.5c-70 0 -132 -13.5 -186 -40.5s-98.833 -65.167 -134.5 -114.5
s-61 -104.5 -76 -165.5s-22.5 -122.167 -22.5 -183.5c0 -66 8.33301 -127.667 25 -185s43.334 -104 80.001 -140s81.667 -63.5 135 -82.5s109.333 -28.5 168 -28.5c32.667 0 67.334 3.16699 104.001 9.5s84 18.166 142 35.499zM607.997 -101.999l-122.001 -240
c-22.667 0.666992 -44.667 1 -66 1c-22 0 -44.333 -0.333008 -67 -1l208 240c10 -0.666992 18 -1 24 -1c6.66699 0 14.334 0.333008 23.001 1z" />
    <glyph glyph-name="egrave" unicode="&#xe8;" horiz-adv-x="1032" 
d="M882 97c-5.33301 -24.667 -9.33691 -49.668 -12.0039 -75.001c-55.333 -16 -105 -27.167 -149 -33.5s-89 -9.5 -135 -9.5c-80 0 -150.833 10.833 -212.5 32.5s-114.5 57.667 -158.5 108s-75.333 106.833 -94 169.5s-28 129.334 -28 200.001c0 92.667 16 179.5 48 260.5
s84.667 148.167 158 201.5s164.333 80 273 80c74.667 0 142.334 -13.833 203.001 -41.5s107.834 -72.834 141.501 -135.501s50.5 -137 50.5 -223c0 -16 -0.666992 -31.333 -2 -46l-791 -1c-3.33301 -43.333 -5 -76 -5 -98c0 -63.333 9.33301 -124.666 28 -183.999
s46.834 -109 84.501 -149s82.834 -69.667 135.501 -89s108.334 -29 167.001 -29c89.333 0 188.666 20.667 297.999 62zM182.996 638.999l711.003 -1c-0.666992 46 -3.33398 81.333 -8.00098 106s-13.334 50 -26.001 76s-27.834 48.5 -45.501 67.5s-38.334 35 -62.001 48
s-50.167 22.833 -79.5 29.5s-60 10 -92 10c-35.333 0 -70 -4 -104 -12s-65 -19 -93 -33s-54.167 -31.833 -78.5 -53.5s-44.333 -45.167 -60 -70.5s-27.667 -49.5 -36 -72.5s-17.166 -54.5 -26.499 -94.5zM611.999 1137c-5.33301 1.33301 -12 2 -20 2
c-8.66699 0 -15.667 -0.666992 -21 -2l-57 100l-107 179c16.667 -0.666992 36 -1 58 -1s41.333 0.333008 58 1z" />
    <glyph glyph-name="eacute" unicode="&#xe9;" horiz-adv-x="1032" 
d="M882 97c-5.33301 -24.667 -9.33691 -49.668 -12.0039 -75.001c-55.333 -16 -105 -27.167 -149 -33.5s-89 -9.5 -135 -9.5c-80 0 -150.833 10.833 -212.5 32.5s-114.5 57.667 -158.5 108s-75.333 106.833 -94 169.5s-28 129.334 -28 200.001c0 92.667 16 179.5 48 260.5
s84.667 148.167 158 201.5s164.333 80 273 80c74.667 0 142.334 -13.833 203.001 -41.5s107.834 -72.834 141.501 -135.501s50.5 -137 50.5 -223c0 -16 -0.666992 -31.333 -2 -46l-791 -1c-3.33301 -43.333 -5 -76 -5 -98c0 -63.333 9.33301 -124.666 28 -183.999
s46.834 -109 84.501 -149s82.834 -69.667 135.501 -89s108.334 -29 167.001 -29c89.333 0 188.666 20.667 297.999 62zM182.996 638.999l711.003 -1c-0.666992 46 -3.33398 81.333 -8.00098 106s-13.334 50 -26.001 76s-27.834 48.5 -45.501 67.5s-38.334 35 -62.001 48
s-50.167 22.833 -79.5 29.5s-60 10 -92 10c-35.333 0 -70 -4 -104 -12s-65 -19 -93 -33s-54.167 -31.833 -78.5 -53.5s-44.333 -45.167 -60 -70.5s-27.667 -49.5 -36 -72.5s-17.166 -54.5 -26.499 -94.5zM509.999 1137c10 33.333 20.667 67 32 101l57 178
c16.667 -0.666992 36 -1 58 -1s41.333 0.333008 58 1l-81 -134.5c-38 -64.333 -65.667 -112.5 -83 -144.5c-5.33301 1.33301 -12.333 2 -21 2c-8 0 -14.667 -0.666992 -20 -2z" />
    <glyph glyph-name="ecircumflex" unicode="&#xea;" horiz-adv-x="1032" 
d="M882 97c-5.33301 -24.667 -9.33691 -49.668 -12.0039 -75.001c-55.333 -16 -105 -27.167 -149 -33.5s-89 -9.5 -135 -9.5c-80 0 -150.833 10.833 -212.5 32.5s-114.5 57.667 -158.5 108s-75.333 106.833 -94 169.5s-28 129.334 -28 200.001c0 92.667 16 179.5 48 260.5
s84.667 148.167 158 201.5s164.333 80 273 80c74.667 0 142.334 -13.833 203.001 -41.5s107.834 -72.834 141.501 -135.501s50.5 -137 50.5 -223c0 -16 -0.666992 -31.333 -2 -46l-791 -1c-3.33301 -43.333 -5 -76 -5 -98c0 -63.333 9.33301 -124.666 28 -183.999
s46.834 -109 84.501 -149s82.834 -69.667 135.501 -89s108.334 -29 167.001 -29c89.333 0 188.666 20.667 297.999 62zM182.996 638.999l711.003 -1c-0.666992 46 -3.33398 81.333 -8.00098 106s-13.334 50 -26.001 76s-27.834 48.5 -45.501 67.5s-38.334 35 -62.001 48
s-50.167 22.833 -79.5 29.5s-60 10 -92 10c-35.333 0 -70 -4 -104 -12s-65 -19 -93 -33s-54.167 -31.833 -78.5 -53.5s-44.333 -45.167 -60 -70.5s-27.667 -49.5 -36 -72.5s-17.166 -54.5 -26.499 -94.5zM382.999 1158c61.333 105.333 105.999 184.333 133.999 237
c22 -0.666992 43.667 -1 65 -1s43 0.333008 65 1c34.667 -68.667 76.667 -147.667 126 -237c-11.333 0.666992 -21 1 -29 1c-7.33301 0 -16.666 -0.333008 -27.999 -1l-134 187l-148 -187c-9.33301 0.666992 -18 1 -26 1s-16.333 -0.333008 -25 -1z" />
    <glyph glyph-name="edieresis" unicode="&#xeb;" horiz-adv-x="1032" 
d="M882 97c-5.33301 -24.667 -9.33691 -49.668 -12.0039 -75.001c-55.333 -16 -105 -27.167 -149 -33.5s-89 -9.5 -135 -9.5c-80 0 -150.833 10.833 -212.5 32.5s-114.5 57.667 -158.5 108s-75.333 106.833 -94 169.5s-28 129.334 -28 200.001c0 92.667 16 179.5 48 260.5
s84.667 148.167 158 201.5s164.333 80 273 80c74.667 0 142.334 -13.833 203.001 -41.5s107.834 -72.834 141.501 -135.501s50.5 -137 50.5 -223c0 -16 -0.666992 -31.333 -2 -46l-791 -1c-3.33301 -43.333 -5 -76 -5 -98c0 -63.333 9.33301 -124.666 28 -183.999
s46.834 -109 84.501 -149s82.834 -69.667 135.501 -89s108.334 -29 167.001 -29c89.333 0 188.666 20.667 297.999 62zM182.996 638.999l711.003 -1c-0.666992 46 -3.33398 81.333 -8.00098 106s-13.334 50 -26.001 76s-27.834 48.5 -45.501 67.5s-38.334 35 -62.001 48
s-50.167 22.833 -79.5 29.5s-60 10 -92 10c-35.333 0 -70 -4 -104 -12s-65 -19 -93 -33s-54.167 -31.833 -78.5 -53.5s-44.333 -45.167 -60 -70.5s-27.667 -49.5 -36 -72.5s-17.166 -54.5 -26.499 -94.5zM644.999 1227l3 99c16.667 -0.666992 33.667 -1 51 -1
s34.333 0.333008 51 1l-3 -99c-16.667 0.666992 -33.667 1 -51 1c-18 0 -35 -0.333008 -51 -1zM392.999 1227l3 99c16.667 -0.666992 33.667 -1 51 -1s34.333 0.333008 51 1l-3 -99c-16.667 0.666992 -33.667 1 -51 1c-18 0 -35 -0.333008 -51 -1z" />
    <glyph glyph-name="igrave" unicode="&#xec;" horiz-adv-x="383" 
d="M138 0c7.33301 100 15.832 274.334 25.499 523.001s14.5 411 14.5 487c17.333 -0.666992 30.666 -1 39.999 -1c10 0 23.667 0.333008 41 1c-9.33301 -126.667 -18.5 -299.334 -27.5 -518.001s-13.5 -382.667 -13.5 -492c-17.333 0.666992 -30.666 1 -39.999 1
s-22.666 -0.333008 -39.999 -1zM267.999 1137c-5.33301 1.33301 -12 2 -20 2c-8.66699 0 -15.667 -0.666992 -21 -2l-57 100l-107 179c16.667 -0.666992 36 -1 58 -1s41.333 0.333008 58 1z" />
    <glyph glyph-name="iacute" unicode="&#xed;" horiz-adv-x="382" 
d="M134 0c7.33301 100 15.832 274.334 25.499 523.001s14.5 411 14.5 487c17.333 -0.666992 30.666 -1 39.999 -1c10 0 23.667 0.333008 41 1c-9.33301 -126.667 -18.5 -299.334 -27.5 -518.001s-13.5 -382.667 -13.5 -492c-17.333 0.666992 -30.666 1 -39.999 1
s-22.666 -0.333008 -39.999 -1zM156.999 1137c10 33.333 20.667 67 32 101l57 178c16.667 -0.666992 36 -1 58 -1s41.333 0.333008 58 1l-81 -134.5c-38 -64.333 -65.667 -112.5 -83 -144.5c-5.33301 1.33301 -12.333 2 -21 2c-8 0 -14.667 -0.666992 -20 -2z" />
    <glyph glyph-name="icircumflex" unicode="&#xee;" horiz-adv-x="383" 
d="M158 0c7.33301 100 15.832 274.334 25.499 523.001s14.5 411 14.5 487c17.333 -0.666992 30.666 -1 39.999 -1c10 0 23.667 0.333008 41 1c-9.33301 -126.667 -18.5 -299.334 -27.5 -518.001s-13.5 -382.667 -13.5 -492c-17.333 0.666992 -30.666 1 -39.999 1
s-22.666 -0.333008 -39.999 -1zM46.999 1158c61.333 105.333 105.999 184.333 133.999 237c22 -0.666992 43.667 -1 65 -1s43 0.333008 65 1c34.667 -68.667 76.667 -147.667 126 -237c-11.333 0.666992 -21 1 -29 1c-7.33301 0 -16.666 -0.333008 -27.999 -1l-134 187
l-148 -187c-9.33301 0.666992 -18 1 -26 1s-16.333 -0.333008 -25 -1z" />
    <glyph glyph-name="idieresis" unicode="&#xef;" horiz-adv-x="383" 
d="M169 0c7.33301 100 15.832 274.334 25.499 523.001s14.5 411 14.5 487c17.333 -0.666992 30.666 -1 39.999 -1c10 0 23.667 0.333008 41 1c-9.33301 -126.667 -18.5 -299.334 -27.5 -518.001s-13.5 -382.667 -13.5 -492c-17.333 0.666992 -30.666 1 -39.999 1
s-22.666 -0.333008 -39.999 -1zM322.999 1227l3 99c16.667 -0.666992 33.667 -1 51 -1s34.333 0.333008 51 1l-3 -99c-16.667 0.666992 -33.667 1 -51 1c-18 0 -35 -0.333008 -51 -1zM70.999 1227l3 99c16.667 -0.666992 33.667 -1 51 -1s34.333 0.333008 51 1l-3 -99
c-16.667 0.666992 -33.667 1 -51 1c-18 0 -35 -0.333008 -51 -1z" />
    <glyph glyph-name="eth" unicode="&#xf0;" horiz-adv-x="1152" 
d="M405 1401c17.333 12.667 36.0029 29.3281 56.0029 49.9951l117 -137l125 104c10.667 -15.333 23 -30.333 37 -45l-126 -99l155 -169c71.333 -76.667 123.166 -135.667 155.499 -177s58.333 -81.666 78 -120.999s34 -82 43 -128s13.5 -93 13.5 -141
c0 -81.333 -12.5 -159.166 -37.5 -233.499s-59.833 -136.666 -104.5 -186.999s-97.5 -85.833 -158.5 -106.5s-125.833 -31 -194.5 -31c-46 0 -91.667 5.16699 -137 15.5s-88.333 27.833 -129 52.5s-76.667 57.334 -108 98.001s-55.333 89.834 -72 147.501
s-25 116.5 -25 176.5c0 108.667 19.667 208.5 59 299.5s99.666 157.333 180.999 199s168.666 62.5 261.999 62.5c29.333 0 59.833 -2.16699 91.5 -6.5s59.5 -12.166 83.5 -23.499l-209 231l-125 -105c-10 15.333 -22.333 30.666 -37 45.999c30 22 72 54.667 126 98z
M587.003 974.994c-79.333 0 -153.001 -19.3301 -221.001 -57.9971s-118 -97.667 -150 -177s-48 -166.333 -48 -261c0 -66.667 9.16699 -129.334 27.5 -188.001s47.833 -108.167 88.5 -148.5s84.5 -68.333 131.5 -84s96.5 -23.5 148.5 -23.5c59.333 0 115 9.66699 167 29
s97.833 51.666 137.5 96.999s68.834 101 87.501 167s28 136 28 210c0 68.667 -9.16699 133.167 -27.5 193.5s-46.833 108.666 -85.5 144.999s-82.667 61.833 -132 76.5s-100 22 -152 22z" />
    <glyph glyph-name="ntilde" unicode="&#xf1;" horiz-adv-x="1167" 
d="M120 0l33.9971 611.002l9 287c1.33301 51.333 2 88.666 2 111.999c17.333 -0.666992 30.333 -1 39 -1c8 0 20.667 0.333008 38 1l-13 -228c14.667 31.333 26.834 55.166 36.501 71.499s22.834 33.833 39.501 52.5s36.5 36.167 59.5 52.5s50.667 30 83 41s65.5 19 99.5 24
s67.667 7.5 101 7.5c56 0 110.333 -6.33301 163 -19s96.334 -34.5 131.001 -65.5s58.5 -66.667 71.5 -107s19.5 -83.5 19.5 -129.5c0 -20.667 -1 -51.334 -3 -92.001l-21 -455l-4 -163c-13.333 0.666992 -26.333 1 -39 1s-25.334 -0.333008 -38.001 -1
c6.66699 83.333 12 163 16 239l14 256c5.33301 94.667 8 163 8 205c0 44 -6.33301 83.333 -19 118s-34.5 63.5 -65.5 86.5s-67.833 39.667 -110.5 50s-86.667 15.5 -132 15.5c-63.333 0 -119.333 -8.66699 -168 -26c-46 -16.667 -86.333 -41.167 -121 -73.5
s-63 -73.166 -85 -122.499c-16.667 -36 -29.334 -86.333 -38.001 -151c-8 -56 -14.5 -147.5 -19.5 -274.5s-7.5 -234.5 -7.5 -322.5c-17.333 0.666992 -30.666 1 -39.999 1s-22.666 -0.333008 -39.999 -1zM385.997 1177c0 26 0.667969 48.832 2.00098 68.499
s4.16602 37.5 8.49902 53.5s10.5 28.667 18.5 38s18 17 30 23s24 9 36 9c18.667 0 39 -5.66699 61 -17s59.333 -37.333 112 -78c14 -11.333 26.167 -19.833 36.5 -25.5s20.5 -8.5 30.5 -8.5c12 0 22.333 3.33301 31 10s15.167 17.5 19.5 32.5s6.5 40.167 6.5 75.5
c11.333 -0.666992 21 -1 29 -1s17.333 0.333008 28 1c-0.666992 -52 -5.16699 -90.5 -13.5 -115.5s-19.5 -43.5 -33.5 -55.5s-31.333 -18 -52 -18c-14 0 -28.5 3.33301 -43.5 10s-38.833 21.667 -71.5 45c-47.333 34.667 -78 56 -92 64s-26.333 12 -37 12
c-7.33301 0 -14.333 -1.5 -21 -4.5s-12.334 -8.66699 -17.001 -17s-8 -19.166 -10 -32.499s-3 -36.333 -3 -69c-11.333 0.666992 -20.666 1 -27.999 1s-16.333 -0.333008 -27 -1z" />
    <glyph glyph-name="ograve" unicode="&#xf2;" horiz-adv-x="1152" 
d="M589 1031c62 0 121.999 -8.66797 179.999 -26.001s109.167 -46.833 153.5 -88.5s78.166 -96.167 101.499 -163.5s35 -138.666 35 -213.999c0 -81.333 -12.333 -159.333 -37 -234s-59.667 -137.167 -105 -187.5s-98.5 -85.833 -159.5 -106.5s-125.833 -31 -194.5 -31
c-48 0 -95.167 5.5 -141.5 16.5s-89.666 29.5 -129.999 55.5s-75.666 59.667 -105.999 101s-53.333 90.333 -69 147s-23.5 115.667 -23.5 177c0 107.333 20 205.5 60 294.5s99.833 154.5 179.5 196.5s165.167 63 256.5 63zM586.999 974.999
c-79.333 0 -153.001 -19.3301 -221.001 -57.9971s-118 -97.667 -150 -177s-48 -166.333 -48 -261c0 -66.667 9.16699 -129.334 27.5 -188.001s47.833 -108.167 88.5 -148.5s84.5 -68.333 131.5 -84s96.5 -23.5 148.5 -23.5c59.333 0 115 9.66699 167 29
s97.833 51.666 137.5 96.999s68.834 101 87.501 167s28 136 28 210c0 68.667 -9.16699 133.167 -27.5 193.5s-46.833 108.666 -85.5 144.999s-82.667 61.833 -132 76.5s-100 22 -152 22zM643.998 1137c-5.33301 1.33301 -12 2 -20 2c-8.66699 0 -15.667 -0.666992 -21 -2
l-57 100l-107 179c16.667 -0.666992 36 -1 58 -1s41.333 0.333008 58 1z" />
    <glyph glyph-name="oacute" unicode="&#xf3;" horiz-adv-x="1152" 
d="M589 1031c62 0 121.999 -8.66797 179.999 -26.001s109.167 -46.833 153.5 -88.5s78.166 -96.167 101.499 -163.5s35 -138.666 35 -213.999c0 -81.333 -12.333 -159.333 -37 -234s-59.667 -137.167 -105 -187.5s-98.5 -85.833 -159.5 -106.5s-125.833 -31 -194.5 -31
c-48 0 -95.167 5.5 -141.5 16.5s-89.666 29.5 -129.999 55.5s-75.666 59.667 -105.999 101s-53.333 90.333 -69 147s-23.5 115.667 -23.5 177c0 107.333 20 205.5 60 294.5s99.833 154.5 179.5 196.5s165.167 63 256.5 63zM586.999 974.999
c-79.333 0 -153.001 -19.3301 -221.001 -57.9971s-118 -97.667 -150 -177s-48 -166.333 -48 -261c0 -66.667 9.16699 -129.334 27.5 -188.001s47.833 -108.167 88.5 -148.5s84.5 -68.333 131.5 -84s96.5 -23.5 148.5 -23.5c59.333 0 115 9.66699 167 29
s97.833 51.666 137.5 96.999s68.834 101 87.501 167s28 136 28 210c0 68.667 -9.16699 133.167 -27.5 193.5s-46.833 108.666 -85.5 144.999s-82.667 61.833 -132 76.5s-100 22 -152 22zM541.998 1137c10 33.333 20.667 67 32 101l57 178c16.667 -0.666992 36 -1 58 -1
s41.333 0.333008 58 1l-81 -134.5c-38 -64.333 -65.667 -112.5 -83 -144.5c-5.33301 1.33301 -12.333 2 -21 2c-8 0 -14.667 -0.666992 -20 -2z" />
    <glyph glyph-name="ocircumflex" unicode="&#xf4;" horiz-adv-x="1152" 
d="M589 1031c62 0 121.999 -8.66797 179.999 -26.001s109.167 -46.833 153.5 -88.5s78.166 -96.167 101.499 -163.5s35 -138.666 35 -213.999c0 -81.333 -12.333 -159.333 -37 -234s-59.667 -137.167 -105 -187.5s-98.5 -85.833 -159.5 -106.5s-125.833 -31 -194.5 -31
c-48 0 -95.167 5.5 -141.5 16.5s-89.666 29.5 -129.999 55.5s-75.666 59.667 -105.999 101s-53.333 90.333 -69 147s-23.5 115.667 -23.5 177c0 107.333 20 205.5 60 294.5s99.833 154.5 179.5 196.5s165.167 63 256.5 63zM586.999 974.999
c-79.333 0 -153.001 -19.3301 -221.001 -57.9971s-118 -97.667 -150 -177s-48 -166.333 -48 -261c0 -66.667 9.16699 -129.334 27.5 -188.001s47.833 -108.167 88.5 -148.5s84.5 -68.333 131.5 -84s96.5 -23.5 148.5 -23.5c59.333 0 115 9.66699 167 29
s97.833 51.666 137.5 96.999s68.834 101 87.501 167s28 136 28 210c0 68.667 -9.16699 133.167 -27.5 193.5s-46.833 108.666 -85.5 144.999s-82.667 61.833 -132 76.5s-100 22 -152 22zM414.998 1158c61.333 105.333 105.999 184.333 133.999 237
c22 -0.666992 43.667 -1 65 -1s43 0.333008 65 1c34.667 -68.667 76.667 -147.667 126 -237c-11.333 0.666992 -21 1 -29 1c-7.33301 0 -16.666 -0.333008 -27.999 -1l-134 187l-148 -187c-9.33301 0.666992 -18 1 -26 1s-16.333 -0.333008 -25 -1z" />
    <glyph glyph-name="otilde" unicode="&#xf5;" horiz-adv-x="1152" 
d="M589 1031c62 0 121.999 -8.66797 179.999 -26.001s109.167 -46.833 153.5 -88.5s78.166 -96.167 101.499 -163.5s35 -138.666 35 -213.999c0 -81.333 -12.333 -159.333 -37 -234s-59.667 -137.167 -105 -187.5s-98.5 -85.833 -159.5 -106.5s-125.833 -31 -194.5 -31
c-48 0 -95.167 5.5 -141.5 16.5s-89.666 29.5 -129.999 55.5s-75.666 59.667 -105.999 101s-53.333 90.333 -69 147s-23.5 115.667 -23.5 177c0 107.333 20 205.5 60 294.5s99.833 154.5 179.5 196.5s165.167 63 256.5 63zM586.999 974.999
c-79.333 0 -153.001 -19.3301 -221.001 -57.9971s-118 -97.667 -150 -177s-48 -166.333 -48 -261c0 -66.667 9.16699 -129.334 27.5 -188.001s47.833 -108.167 88.5 -148.5s84.5 -68.333 131.5 -84s96.5 -23.5 148.5 -23.5c59.333 0 115 9.66699 167 29
s97.833 51.666 137.5 96.999s68.834 101 87.501 167s28 136 28 210c0 68.667 -9.16699 133.167 -27.5 193.5s-46.833 108.666 -85.5 144.999s-82.667 61.833 -132 76.5s-100 22 -152 22zM378.998 1177c0 26 0.667969 48.832 2.00098 68.499s4.16602 37.5 8.49902 53.5
s10.5 28.667 18.5 38s18 17 30 23s24 9 36 9c18.667 0 39 -5.66699 61 -17s59.333 -37.333 112 -78c14 -11.333 26.167 -19.833 36.5 -25.5s20.5 -8.5 30.5 -8.5c12 0 22.333 3.33301 31 10s15.167 17.5 19.5 32.5s6.5 40.167 6.5 75.5c11.333 -0.666992 21 -1 29 -1
s17.333 0.333008 28 1c-0.666992 -52 -5.16699 -90.5 -13.5 -115.5s-19.5 -43.5 -33.5 -55.5s-31.333 -18 -52 -18c-14 0 -28.5 3.33301 -43.5 10s-38.833 21.667 -71.5 45c-47.333 34.667 -78 56 -92 64s-26.333 12 -37 12c-7.33301 0 -14.333 -1.5 -21 -4.5
s-12.334 -8.66699 -17.001 -17s-8 -19.166 -10 -32.499s-3 -36.333 -3 -69c-11.333 0.666992 -20.666 1 -27.999 1s-16.333 -0.333008 -27 -1z" />
    <glyph glyph-name="odieresis" unicode="&#xf6;" horiz-adv-x="1152" 
d="M589 1031c62 0 121.999 -8.66797 179.999 -26.001s109.167 -46.833 153.5 -88.5s78.166 -96.167 101.499 -163.5s35 -138.666 35 -213.999c0 -81.333 -12.333 -159.333 -37 -234s-59.667 -137.167 -105 -187.5s-98.5 -85.833 -159.5 -106.5s-125.833 -31 -194.5 -31
c-48 0 -95.167 5.5 -141.5 16.5s-89.666 29.5 -129.999 55.5s-75.666 59.667 -105.999 101s-53.333 90.333 -69 147s-23.5 115.667 -23.5 177c0 107.333 20 205.5 60 294.5s99.833 154.5 179.5 196.5s165.167 63 256.5 63zM586.999 974.999
c-79.333 0 -153.001 -19.3301 -221.001 -57.9971s-118 -97.667 -150 -177s-48 -166.333 -48 -261c0 -66.667 9.16699 -129.334 27.5 -188.001s47.833 -108.167 88.5 -148.5s84.5 -68.333 131.5 -84s96.5 -23.5 148.5 -23.5c59.333 0 115 9.66699 167 29
s97.833 51.666 137.5 96.999s68.834 101 87.501 167s28 136 28 210c0 68.667 -9.16699 133.167 -27.5 193.5s-46.833 108.666 -85.5 144.999s-82.667 61.833 -132 76.5s-100 22 -152 22zM676.998 1227l3 99c16.667 -0.666992 33.667 -1 51 -1s34.333 0.333008 51 1l-3 -99
c-16.667 0.666992 -33.667 1 -51 1c-18 0 -35 -0.333008 -51 -1zM424.998 1227l3 99c16.667 -0.666992 33.667 -1 51 -1s34.333 0.333008 51 1l-3 -99c-16.667 0.666992 -33.667 1 -51 1c-18 0 -35 -0.333008 -51 -1z" />
    <glyph glyph-name="divide" unicode="&#xf7;" 
d="M519 956l5 94c15.333 -1.33301 31 -2 47 -2s31.667 0.666992 47 2l-5 -94c-15.333 1.33301 -31 2 -47 2c-15.333 0 -31 -0.666992 -47 -2zM125 736c120.667 -3.33301 264.999 -5 432.999 -5c164.667 0 309 1.66699 433 5c-3.33301 -23.333 -5 -45.333 -5 -66
c-120.667 4 -265 6 -433 6c-165.333 0 -309.666 -2 -432.999 -6c3.33301 26 5 48 5 66zM494.999 357l4 93c16 -0.666992 31.667 -1 47 -1c16 0 32 0.333008 48 1l-5 -93c-16 0.666992 -31.667 1 -47 1c-16 0 -31.667 -0.333008 -47 -1z" />
    <glyph glyph-name="oslash" unicode="&#xf8;" horiz-adv-x="1152" 
d="M838 976l83.998 137.001c14 -1.33301 25.667 -2 35 -2c10 0 21.667 0.666992 35 2l-103 -167c56.667 -41.333 99.167 -99 127.5 -173s42.5 -152.333 42.5 -235c0 -76.667 -11 -150.334 -33 -221.001s-54.5 -132.5 -97.5 -185.5s-95.5 -91.5 -157.5 -115.5
s-129 -36 -201 -36c-89.333 0 -169.666 17 -240.999 51l-88 -143c-13.333 0.666992 -26 1 -38 1s-24.333 -0.333008 -37 -1l108 176c-63.333 46 -109.333 105.5 -138 178.5s-43 149.5 -43 229.5c0 63.333 6.83301 125.333 20.5 186s33.834 112.5 60.501 155.5
s60.834 81.833 102.501 116.5s90.167 60.167 145.5 76.5s113.666 24.5 174.999 24.5c88.667 0 169 -18.333 241 -55zM805.998 925.001c-27.333 16 -59.834 28.333 -97.501 37s-75.167 13 -112.5 13c-61.333 0 -118.666 -9.83301 -171.999 -29.5s-100.333 -52.5 -141 -98.5
s-70 -101.333 -88 -166s-27 -132 -27 -202c0 -160 47 -280 141 -360zM854.997 890.001l-494.001 -806.002c38.667 -20.667 74.834 -34 108.501 -40s65.834 -9 96.501 -9c81.333 0 152.833 17.333 214.5 52s111 91 148 169s55.5 171.667 55.5 281
c0 50 -4.33301 97.833 -13 143.5s-23.334 85.834 -44.001 120.501s-44.667 64.334 -72 89.001z" />
    <glyph glyph-name="ugrave" unicode="&#xf9;" horiz-adv-x="1169" 
d="M1006 0c-13.333 0.666992 -25.668 1.00195 -37.001 1.00195s-23.666 -0.333008 -36.999 -1l8 217c-15.333 -34 -27.833 -58.5 -37.5 -73.5s-22.167 -30.833 -37.5 -47.5s-34.5 -32.5 -57.5 -47.5s-50.167 -27.833 -81.5 -38.5s-63.5 -18.334 -96.5 -23.001
s-66.167 -7 -99.5 -7c-57.333 0 -110.833 6.33301 -160.5 19s-93.667 34.667 -132 66s-64.5 67.833 -78.5 109.5s-21 88.834 -21 141.501c0 40.667 4.5 141.167 13.5 301.5s13.5 291.166 13.5 392.499c17.333 -0.666992 30.333 -1 39 -1s21.667 0.333008 39 1
c-5.33301 -57.333 -13.166 -176.333 -23.499 -357s-15.5 -293.667 -15.5 -339c0 -50.667 6.66699 -93.667 20 -129s36.5 -64.5 69.5 -87.5s70.333 -39.167 112 -48.5s84.5 -14 128.5 -14c46 0 90.167 5.83301 132.5 17.5s77.5 26.167 105.5 43.5s52.667 38.666 74 63.999
c24.667 29.333 45.667 63.333 63 102c15.333 34 26.666 76.167 33.999 126.5s13.666 141.5 18.999 273.5c4.66699 126.667 7.33398 242.667 8.00098 348c18 -0.666992 31.333 -1 40 -1s21.667 0.333008 39 1l-37 -700l-4 -151c-1.33301 -62 -2 -115 -2 -159zM652.998 1137
c-5.33301 1.33301 -12 2 -20 2c-8.66699 0 -15.667 -0.666992 -21 -2l-57 100l-107 179c16.667 -0.666992 36 -1 58 -1s41.333 0.333008 58 1z" />
    <glyph glyph-name="uacute" unicode="&#xfa;" horiz-adv-x="1169" 
d="M1006 0c-13.333 0.666992 -25.668 1.00195 -37.001 1.00195s-23.666 -0.333008 -36.999 -1l8 217c-15.333 -34 -27.833 -58.5 -37.5 -73.5s-22.167 -30.833 -37.5 -47.5s-34.5 -32.5 -57.5 -47.5s-50.167 -27.833 -81.5 -38.5s-63.5 -18.334 -96.5 -23.001
s-66.167 -7 -99.5 -7c-57.333 0 -110.833 6.33301 -160.5 19s-93.667 34.667 -132 66s-64.5 67.833 -78.5 109.5s-21 88.834 -21 141.501c0 40.667 4.5 141.167 13.5 301.5s13.5 291.166 13.5 392.499c17.333 -0.666992 30.333 -1 39 -1s21.667 0.333008 39 1
c-5.33301 -57.333 -13.166 -176.333 -23.499 -357s-15.5 -293.667 -15.5 -339c0 -50.667 6.66699 -93.667 20 -129s36.5 -64.5 69.5 -87.5s70.333 -39.167 112 -48.5s84.5 -14 128.5 -14c46 0 90.167 5.83301 132.5 17.5s77.5 26.167 105.5 43.5s52.667 38.666 74 63.999
c24.667 29.333 45.667 63.333 63 102c15.333 34 26.666 76.167 33.999 126.5s13.666 141.5 18.999 273.5c4.66699 126.667 7.33398 242.667 8.00098 348c18 -0.666992 31.333 -1 40 -1s21.667 0.333008 39 1l-37 -700l-4 -151c-1.33301 -62 -2 -115 -2 -159zM549.998 1137
c10 33.333 20.667 67 32 101l57 178c16.667 -0.666992 36 -1 58 -1s41.333 0.333008 58 1l-81 -134.5c-38 -64.333 -65.667 -112.5 -83 -144.5c-5.33301 1.33301 -12.333 2 -21 2c-8 0 -14.667 -0.666992 -20 -2z" />
    <glyph glyph-name="ucircumflex" unicode="&#xfb;" horiz-adv-x="1169" 
d="M1006 0c-13.333 0.666992 -25.668 1.00195 -37.001 1.00195s-23.666 -0.333008 -36.999 -1l8 217c-15.333 -34 -27.833 -58.5 -37.5 -73.5s-22.167 -30.833 -37.5 -47.5s-34.5 -32.5 -57.5 -47.5s-50.167 -27.833 -81.5 -38.5s-63.5 -18.334 -96.5 -23.001
s-66.167 -7 -99.5 -7c-57.333 0 -110.833 6.33301 -160.5 19s-93.667 34.667 -132 66s-64.5 67.833 -78.5 109.5s-21 88.834 -21 141.501c0 40.667 4.5 141.167 13.5 301.5s13.5 291.166 13.5 392.499c17.333 -0.666992 30.333 -1 39 -1s21.667 0.333008 39 1
c-5.33301 -57.333 -13.166 -176.333 -23.499 -357s-15.5 -293.667 -15.5 -339c0 -50.667 6.66699 -93.667 20 -129s36.5 -64.5 69.5 -87.5s70.333 -39.167 112 -48.5s84.5 -14 128.5 -14c46 0 90.167 5.83301 132.5 17.5s77.5 26.167 105.5 43.5s52.667 38.666 74 63.999
c24.667 29.333 45.667 63.333 63 102c15.333 34 26.666 76.167 33.999 126.5s13.666 141.5 18.999 273.5c4.66699 126.667 7.33398 242.667 8.00098 348c18 -0.666992 31.333 -1 40 -1s21.667 0.333008 39 1l-37 -700l-4 -151c-1.33301 -62 -2 -115 -2 -159zM423.998 1158
c61.333 105.333 105.999 184.333 133.999 237c22 -0.666992 43.667 -1 65 -1s43 0.333008 65 1c34.667 -68.667 76.667 -147.667 126 -237c-11.333 0.666992 -21 1 -29 1c-7.33301 0 -16.666 -0.333008 -27.999 -1l-134 187l-148 -187c-9.33301 0.666992 -18 1 -26 1
s-16.333 -0.333008 -25 -1z" />
    <glyph glyph-name="udieresis" unicode="&#xfc;" horiz-adv-x="1169" 
d="M1006 0c-13.333 0.666992 -25.668 1.00195 -37.001 1.00195s-23.666 -0.333008 -36.999 -1l8 217c-15.333 -34 -27.833 -58.5 -37.5 -73.5s-22.167 -30.833 -37.5 -47.5s-34.5 -32.5 -57.5 -47.5s-50.167 -27.833 -81.5 -38.5s-63.5 -18.334 -96.5 -23.001
s-66.167 -7 -99.5 -7c-57.333 0 -110.833 6.33301 -160.5 19s-93.667 34.667 -132 66s-64.5 67.833 -78.5 109.5s-21 88.834 -21 141.501c0 40.667 4.5 141.167 13.5 301.5s13.5 291.166 13.5 392.499c17.333 -0.666992 30.333 -1 39 -1s21.667 0.333008 39 1
c-5.33301 -57.333 -13.166 -176.333 -23.499 -357s-15.5 -293.667 -15.5 -339c0 -50.667 6.66699 -93.667 20 -129s36.5 -64.5 69.5 -87.5s70.333 -39.167 112 -48.5s84.5 -14 128.5 -14c46 0 90.167 5.83301 132.5 17.5s77.5 26.167 105.5 43.5s52.667 38.666 74 63.999
c24.667 29.333 45.667 63.333 63 102c15.333 34 26.666 76.167 33.999 126.5s13.666 141.5 18.999 273.5c4.66699 126.667 7.33398 242.667 8.00098 348c18 -0.666992 31.333 -1 40 -1s21.667 0.333008 39 1l-37 -700l-4 -151c-1.33301 -62 -2 -115 -2 -159zM686.998 1227
l3 99c16.667 -0.666992 33.667 -1 51 -1s34.333 0.333008 51 1l-3 -99c-16.667 0.666992 -33.667 1 -51 1c-18 0 -35 -0.333008 -51 -1zM434.998 1227l3 99c16.667 -0.666992 33.667 -1 51 -1s34.333 0.333008 51 1l-3 -99c-16.667 0.666992 -33.667 1 -51 1
c-18 0 -35 -0.333008 -51 -1z" />
    <glyph glyph-name="yacute" unicode="&#xfd;" horiz-adv-x="912" 
d="M-79 -465c0 22 -2 48 -6 78c20.667 -9.33301 37.667 -16.166 51 -20.499s29.5 -8 48.5 -11s36.5 -4.5 52.5 -4.5c38 0 73.667 9.66699 107 29s67 58.666 101 117.999s73.667 141 119 245l-220 613l-158 428c19.333 -0.666992 35.333 -1 48 -1s28.334 0.333008 47.001 1
l18 -71c7.33301 -27.333 15.666 -55 24.999 -83c12 -38.667 29.667 -90.334 53 -155.001l227 -649l316 704c28.667 64.667 48.667 111.334 60 140.001s25 66.667 41 114c19.333 -0.666992 34.333 -1 45 -1c11.333 0 26.666 0.333008 45.999 1l-183 -397l-195 -421l-187 -412
c-29.333 -63.333 -54.666 -110 -75.999 -140c-17.333 -23.333 -35.333 -43.333 -54 -60c-14 -12 -29.667 -22.333 -47 -31c-20.667 -10.667 -43 -18.667 -67 -24c-26 -6.66699 -52.667 -10 -80 -10c-42 0 -86 6.66699 -132 20zM421 1137c10 33.333 20.667 67 32 101l57 178
c16.667 -0.666992 36 -1 58 -1s41.333 0.333008 58 1l-81 -134.5c-38 -64.333 -65.667 -112.5 -83 -144.5c-5.33301 1.33301 -12.333 2 -21 2c-8 0 -14.667 -0.666992 -20 -2z" />
    <glyph glyph-name="thorn" unicode="&#xfe;" horiz-adv-x="1158" 
d="M120 -444l18.999 364l36 1041l2 214c1.33301 104 2 167.333 2 190c17.333 -0.666992 31 -1 41 -1s23.667 0.333008 41 1l-8 -134c-1.33301 -29.333 -2.33301 -58 -3 -86l-6 -181c27.333 11.333 50.5 20.166 69.5 26.499s43.833 12.666 74.5 18.999
s64.167 11.5 100.5 15.5s72.5 6 108.5 6c70 0 134.5 -9.66699 193.5 -29s108.833 -50.5 149.5 -93.5s71.667 -96.833 93 -161.5s32 -134 32 -208c0 -108 -20.833 -207 -62.5 -297s-98 -156.167 -169 -198.5s-150.167 -63.5 -237.5 -63.5c-39.333 0 -78 4.33301 -116 13
s-72.833 21.834 -104.5 39.501s-58.667 39.334 -81 65.001s-48.166 65.834 -77.499 120.501l-16 -530v-34c0 -22.667 0.333008 -55.334 1 -98.001c-17.333 0.666992 -31 1 -41 1s-23.667 -0.333008 -41 -1zM244.999 904c-3.33301 -37.333 -5.33398 -63.667 -6.00098 -79
l-10 -284c-1.33301 -40.667 -2 -68.667 -2 -84c0 -58.667 6 -112.834 18 -162.501s36 -94.834 72 -135.501s78.5 -71.5 127.5 -92.5s99.833 -31.5 152.5 -31.5c76 0 143.833 20.5 203.5 61.5s106 100.833 139 179.5s49.5 165 49.5 259c0 88.667 -15.333 166.834 -46 234.501
s-75.167 118.834 -133.5 153.501s-127.166 52 -206.499 52c-29.333 0 -60.166 -1.66699 -92.499 -5s-65.333 -8.5 -99 -15.5s-61.334 -14 -83.001 -21s-49.5 -16.833 -83.5 -29.5z" />
    <glyph glyph-name="ydieresis" unicode="&#xff;" horiz-adv-x="912" 
d="M-79 -465c0 22 -2 48 -6 78c20.667 -9.33301 37.667 -16.166 51 -20.499s29.5 -8 48.5 -11s36.5 -4.5 52.5 -4.5c38 0 73.667 9.66699 107 29s67 58.666 101 117.999s73.667 141 119 245l-220 613l-158 428c19.333 -0.666992 35.333 -1 48 -1s28.334 0.333008 47.001 1
l18 -71c7.33301 -27.333 15.666 -55 24.999 -83c12 -38.667 29.667 -90.334 53 -155.001l227 -649l316 704c28.667 64.667 48.667 111.334 60 140.001s25 66.667 41 114c19.333 -0.666992 34.333 -1 45 -1c11.333 0 26.666 0.333008 45.999 1l-183 -397l-195 -421l-187 -412
c-29.333 -63.333 -54.666 -110 -75.999 -140c-17.333 -23.333 -35.333 -43.333 -54 -60c-14 -12 -29.667 -22.333 -47 -31c-20.667 -10.667 -43 -18.667 -67 -24c-26 -6.66699 -52.667 -10 -80 -10c-42 0 -86 6.66699 -132 20zM556 1227l3 99
c16.667 -0.666992 33.667 -1 51 -1s34.333 0.333008 51 1l-3 -99c-16.667 0.666992 -33.667 1 -51 1c-18 0 -35 -0.333008 -51 -1zM304 1227l3 99c16.667 -0.666992 33.667 -1 51 -1s34.333 0.333008 51 1l-3 -99c-16.667 0.666992 -33.667 1 -51 1
c-18 0 -35 -0.333008 -51 -1z" />
    <glyph glyph-name="dotlessi" unicode="&#x131;" horiz-adv-x="382" 
d="M134 0c7.33301 100 15.832 274.334 25.499 523.001s14.5 411 14.5 487c17.333 -0.666992 30.666 -1 39.999 -1c10 0 23.667 0.333008 41 1c-9.33301 -126.667 -18.5 -299.334 -27.5 -518.001s-13.5 -382.667 -13.5 -492c-17.333 0.666992 -30.666 1 -39.999 1
s-22.666 -0.333008 -39.999 -1z" />
    <glyph glyph-name="Lslash" unicode="&#x141;" horiz-adv-x="923" 
d="M617 983c-0.666992 -16.667 -1 -31.665 -1 -44.998s0.333008 -28.333 1 -45c-91.333 -66 -212 -158 -362 -276l-21 -554l206 -1c146.667 0 247.667 0.666992 303 2s109.333 3.66602 162 6.99902c-3.33301 -26.667 -5 -50.334 -5 -71.001
c-140.667 0.666992 -259.334 1 -356.001 1l-396 -1c9.33301 128 15.333 219 18 273l13 297l-161 -131c0.666992 16.667 1 31.667 1 45s-0.333008 28.333 -1 45l164 122l10 279c1.33301 36 2.33301 80.667 3 134l5 301c17.333 -0.666992 32.333 -1 45 -1
s27.334 0.333008 44.001 1l-31 -669z" />
    <glyph glyph-name="lslash" unicode="&#x142;" horiz-adv-x="418" 
d="M29 521c1.33301 18 2 33 2 45c0 18 -0.333008 33 -1 45l150 112c8.66699 206 15 420 19 642c17.333 -0.666992 31 -1 41 -1s23.667 0.333008 41 1l-24 -457l-5 -139l158 129c-0.666992 -19.333 -1 -34.333 -1 -45c0 -14.667 0.333008 -29.667 1 -45l-161 -120l-22 -688
c-17.333 0.666992 -31 1 -41 1s-23.667 -0.333008 -41 -1l24 461l7 180z" />
    <glyph glyph-name="OE" unicode="&#x152;" horiz-adv-x="2077" 
d="M1928 71c-3.33301 -26.667 -5.00098 -50.332 -5.00098 -70.999c-148 0.666992 -355.333 1 -622 1c-68.667 0 -115.5 -0.166992 -140.5 -0.5s-62.167 -1.5 -111.5 -3.5l-230 -9c-27.333 -1.33301 -47.666 -2 -60.999 -2c-90.667 0 -177.834 14.333 -261.501 43
s-155.667 73 -216 133s-104.5 133.333 -132.5 220s-42 177.667 -42 273c0 72 8.16699 142.333 24.5 211s38.833 131 67.5 187c28 53.333 60.833 99.833 98.5 139.5s80.834 73.5 129.501 101.5c46.667 26 98.667 46 156 60c71.333 16.667 141.333 25 210 25
c28.667 0 97.334 -2.5 206.001 -7.5s250.667 -7.5 426 -7.5l560 1c-3.33301 -26.667 -5 -50.334 -5 -71.001c-106.667 4.66699 -217.334 7 -332.001 7l-331 -1c-5.33301 0 -30 1 -74 3l-24 -579c154.667 -1.33301 248.667 -2 282 -2c201.333 0 335 3.33301 401 10
c-3.33301 -26 -5 -50.667 -5 -74c-99.333 3.33301 -185.333 5 -258 5c-32 0 -104 -0.833008 -216 -2.5s-181.333 -2.5 -208 -2.5l-24 -595l103 -2c242 0 391.333 0.666992 448 2s119 4 187 8zM1114 63.002l52.001 1238c-156 8.66699 -251.5 13.667 -286.5 15
s-62.833 2 -83.5 2c-77.333 0 -152.333 -10.667 -225 -32s-138.834 -60.333 -198.501 -117s-106.334 -131.5 -140.001 -224.5s-50.5 -189.167 -50.5 -288.5c0 -72.667 9.16699 -143.5 27.5 -212.5s46.333 -129.667 84 -182s80.167 -94.166 127.5 -125.499
s100.833 -53.833 160.5 -67.5s122.5 -20.5 188.5 -20.5c34.667 0 72.334 1 113.001 3z" />
    <glyph glyph-name="oe" unicode="&#x153;" horiz-adv-x="1907" 
d="M1740 93c-4.66699 -23.333 -8.33203 -48.0029 -10.999 -74.0029c-51.333 -13.333 -102.166 -23.333 -152.499 -30s-93.166 -10 -128.499 -10c-34 0 -67.667 3.5 -101 10.5s-64.833 16.833 -94.5 29.5s-57 27.834 -82 45.501s-46.833 37.167 -65.5 58.5
s-34.667 44.666 -48 69.999s-28 62 -44 110c-15.333 -46 -30.333 -83.833 -45 -113.5s-35.334 -58.167 -62.001 -85.5s-57.334 -49.833 -92.001 -67.5s-73 -31.667 -115 -42s-86.333 -15.5 -133 -15.5c-66 0 -129.333 10.5 -190 31.5s-112.834 53.667 -156.501 98
s-75.667 99.333 -96 165s-30.5 134.5 -30.5 206.5c0 79.333 12.167 155.5 36.5 228.5s59.333 133.5 105 181.5s99.834 83.5 162.501 106.5s127.667 34.5 195 34.5c44 0 86.5 -4.66699 127.5 -14s78.167 -22.5 111.5 -39.5s62 -36.667 86 -59s43.833 -47.166 59.5 -74.499
s32.167 -67.666 49.5 -120.999c19.333 50 37.333 88.667 54 116s37.5 53.333 62.5 78s54.167 45.5 87.5 62.5s68.833 29.833 106.5 38.5s76.5 13 116.5 13c67.333 0 130.666 -12.667 189.999 -38s107.333 -68.166 144 -128.499s55 -138.833 55 -235.5
c0 -12.667 -0.666992 -27 -2 -43l-779 -2c-4 -46 -6 -83.667 -6 -113c0 -78.667 16.833 -153 50.5 -223s80 -123 139 -159s130.167 -54 213.5 -54c36.667 0 75 3.83301 115 11.5s95.667 23.167 167 46.5zM1069 636.997l701.999 2c-0.666992 86 -14.834 152.667 -42.501 200
s-65.5 81.833 -113.5 103.5s-100.333 32.5 -157 32.5c-38 0 -75.167 -4.83301 -111.5 -14.5s-69.166 -23.167 -98.499 -40.5s-55.166 -38.333 -77.499 -63s-40.833 -52 -55.5 -82s-30 -76 -46 -138zM597.001 974.997c-61.333 0 -120.167 -11.1699 -176.5 -33.5029
s-103.833 -55.666 -142.5 -99.999s-66.667 -98.166 -84 -161.499s-26 -131 -26 -203c0 -62 7.33301 -119.667 22 -173s40.834 -101 78.501 -143s81.667 -73.5 132 -94.5s106.166 -31.5 167.499 -31.5c64 0 123.833 12.167 179.5 36.5s100.667 59.833 135 106.5
s60.166 103.334 77.499 170.001s26 132 26 196c0 88.667 -16.667 167.667 -50 237s-79.666 119 -138.999 149s-126 45 -200 45z" />
    <glyph glyph-name="Scaron" unicode="&#x160;" horiz-adv-x="905" 
d="M76 42c0 26 -1.99609 56.001 -5.99609 90.001c126 -60.667 241 -91 345 -91c59.333 0 113 9.66699 161 29s85.167 48.166 111.5 86.499s39.5 82.166 39.5 131.499c0 24.667 -3.5 48 -10.5 70s-18.5 44.667 -34.5 68s-43.833 53.166 -83.5 89.499
s-105.5 92.833 -197.5 169.5l-79 66c-27.333 24 -53.666 49 -78.999 75s-46.333 50.167 -63 72.5s-29.167 42.333 -37.5 60s-14.833 37.167 -19.5 58.5s-7 43.333 -7 66c0 54 14.667 104.333 44 151s73 83.667 131 111s131.667 41 221 41c62 0 141 -9 237 -27
c0.666992 -25.333 3.66699 -53.333 9 -84c-61.333 19.333 -112.333 32.333 -153 39s-79.334 10 -116.001 10c-66 0 -120.333 -10.833 -163 -32.5s-75.667 -50.667 -99 -87s-35 -74.5 -35 -114.5c0 -21.333 3 -42.166 9 -62.499s15.833 -41 29.5 -62s31.834 -44 54.501 -69
s52.167 -53.5 88.5 -85.5l145 -123l126 -106.5c23.667 -21 46.167 -43.5 67.5 -67.5s38.666 -47.833 51.999 -71.5s23.166 -48.167 29.499 -73.5s9.5 -52 9.5 -80c0 -62.667 -15.833 -117.667 -47.5 -165s-78.334 -83.166 -140.001 -107.499s-130.834 -36.5 -207.501 -36.5
c-49.333 0 -97.333 3.83301 -144 11.5s-109.334 24.5 -188.001 50.5zM720.004 1751c-61.333 -105.333 -105.999 -184.333 -133.999 -237c-22 0.666992 -43.667 1 -65 1s-43 -0.333008 -65 -1c-34 69.333 -76 148.333 -126 237c11.333 -0.666992 21 -1 29 -1
c7.33301 0 16.666 0.333008 27.999 1l134 -187l148 187c9.33301 -0.666992 18 -1 26 -1s16.333 0.333008 25 1z" />
    <glyph glyph-name="scaron" unicode="&#x161;" horiz-adv-x="736" 
d="M60 19c-1.33301 32 -4 60.333 -8 85c52.667 -23.333 102.334 -39.666 149.001 -48.999s89.334 -14 128.001 -14c51.333 0 95.166 7.33301 131.499 22s63.833 36.334 82.5 65.001s28 58.667 28 90c0 14 -1.5 27.5 -4.5 40.5s-7.83301 26 -14.5 39s-14.167 25 -22.5 36
s-20 23.5 -35 37.5l-52.5 47l-94 79c-42.667 35.333 -77.834 65.833 -105.501 91.5s-50.667 51.667 -69 78s-31.333 50.5 -39 72.5s-11.5 44.333 -11.5 67c0 38.667 12.167 76.167 36.5 112.5s59.333 64.166 105 83.499s103.5 29 173.5 29
c58.667 0 124.667 -7.66699 198 -23c0.666992 -29.333 2.66699 -57.666 6 -84.999c-42.667 18 -80.834 30.167 -114.501 36.5s-67.834 9.5 -102.501 9.5c-43.333 0 -83.333 -6.5 -120 -19.5s-64.167 -32 -82.5 -57s-27.5 -52.167 -27.5 -81.5c0 -16 2 -31 6 -45
s10.333 -28.167 19 -42.5s19.834 -29 33.501 -44s31.334 -32.333 53.001 -52s53 -46.667 94 -81l91.5 -78c20 -17.667 37.167 -33.834 51.5 -48.501s28 -30.834 41 -48.501s23.5 -34.834 31.5 -51.501s14 -33.5 18 -50.5s6 -34.167 6 -51.5c0 -42 -12.333 -81.667 -37 -119
s-60.5 -66.666 -107.5 -87.999s-103.5 -32 -169.5 -32c-24.667 0 -55.5 2 -92.5 6s-66.667 8.16699 -89 12.5s-50.5 11.5 -84.5 21.5zM624 1395c-61.333 -105.333 -105.999 -184.333 -133.999 -237c-22 0.666992 -43.667 1 -65 1s-43 -0.333008 -65 -1
c-34 69.333 -76 148.333 -126 237c11.333 -0.666992 21 -1 29 -1c7.33301 0 16.666 0.333008 27.999 1l134 -187l148 187c9.33301 -0.666992 18 -1 26 -1s16.333 0.333008 25 1z" />
    <glyph glyph-name="Ydieresis" unicode="&#x178;" horiz-adv-x="987" 
d="M408 0l30.002 433l10 186l-134 238l-296 508c17.333 -0.666992 32.333 -1 45 -1c13.333 0 28.333 0.333008 45 1l43 -81c8.66699 -16.667 36.334 -65 83.001 -145l258 -451l239 358l147 229l55 90c17.333 -0.666992 32.666 -1 45.999 -1s28.666 0.333008 45.999 1
l-504 -750c-0.666992 -32.667 -2 -63.667 -4 -93l-13 -257c-2 -38 -3.66699 -80 -5 -126l-2 -139c-17.333 0.666992 -32.333 1 -45 1s-27.334 -0.333008 -44.001 -1zM608.002 1583l3 99c16.667 -0.666992 33.667 -1 51 -1s34.333 0.333008 51 1l-3 -99
c-16.667 0.666992 -33.667 1 -51 1c-18 0 -35 -0.333008 -51 -1zM356.002 1583l3 99c16.667 -0.666992 33.667 -1 51 -1s34.333 0.333008 51 1l-3 -99c-16.667 0.666992 -33.667 1 -51 1c-18 0 -35 -0.333008 -51 -1z" />
    <glyph glyph-name="Zcaron" unicode="&#x17d;" horiz-adv-x="1095" 
d="M54 0c2.66699 33.333 3.99902 63.999 3.99902 91.999l898 1211l-63 2l-329 -1c-97.333 0 -175 -0.833008 -233 -2.5s-122 -4.5 -192 -8.5c2 20 3 40.333 3 61v11c114 -0.666992 269.667 -1 467 -1l275 1h146c-2.66699 -29.333 -4 -59.666 -4 -90.999l-823 -1112l-72 -101
c128.667 -0.666992 278.334 -1 449.001 -1c95.333 0 167.833 0.5 217.5 1.5s107.5 3.83301 173.5 8.5c-2 -20 -3 -39.667 -3 -59v-11c-118 0.666992 -261.667 1 -431 1c-233.333 0 -394.333 -0.333008 -483 -1zM783.999 1751
c-61.333 -105.333 -105.999 -184.333 -133.999 -237c-22 0.666992 -43.667 1 -65 1s-43 -0.333008 -65 -1c-34 69.333 -76 148.333 -126 237c11.333 -0.666992 21 -1 29 -1c7.33301 0 16.666 0.333008 27.999 1l134 -187l148 187c9.33301 -0.666992 18 -1 26 -1
s16.333 0.333008 25 1z" />
    <glyph glyph-name="zcaron" unicode="&#x17e;" horiz-adv-x="838" 
d="M38 0c2 30 3.00098 59 3.00098 87l123 156l476 624l61 83c-76.667 2 -147.334 3 -212.001 3c-130 0 -255.667 -3.33301 -377 -10c2 24 3 46.333 3 67c112 -0.666992 224.667 -1 338 -1l319 1c-2 -20 -3 -45.333 -3 -76v-11l-659 -862c62 -2.66699 129.667 -4 203 -4
c173.333 0 312.333 4 417 12c-2.66699 -26.667 -4 -49.667 -4 -69c-108 0.666992 -215.333 1 -322 1h-293zM634.001 1395c-61.333 -105.333 -105.999 -184.333 -133.999 -237c-22 0.666992 -43.667 1 -65 1s-43 -0.333008 -65 -1c-34 69.333 -76 148.333 -126 237
c11.333 -0.666992 21 -1 29 -1c7.33301 0 16.666 0.333008 27.999 1l134 -187l148 187c9.33301 -0.666992 18 -1 26 -1s16.333 0.333008 25 1z" />
    <glyph glyph-name="florin" unicode="&#x192;" 
d="M627 1106c88.667 0 179.995 1.33789 273.995 4.00488c-4 -16.667 -7.33301 -35 -10 -55c-102 2.66699 -192.667 4 -272 4l-173 -973c-8 -40.667 -16.5 -79.834 -25.5 -117.501s-19.5 -69.334 -31.5 -95.001s-25.667 -47 -41 -64s-32.833 -31.333 -52.5 -43
s-44.334 -21.167 -74.001 -28.5s-61.5 -11 -95.5 -11c-13.333 0 -26.333 0.5 -39 1.5s-23.667 2.16699 -33 3.5s-19 3.33301 -29 6l-35 9c4.66699 18.667 8.33398 38 11.001 58c47.333 -13.333 90.333 -20 129 -20c42.667 0 78.834 7.16699 108.501 21.5
s53.167 35.166 70.5 62.499c19.333 29.333 34.333 67.5 45 114.5s25.334 121.833 44.001 224.5l150 850c-42 -0.666992 -86.667 -1.66699 -134 -3c4.66699 16.667 8.66699 35 12 55c64 -2.66699 107.333 -4 130 -4c8 47.333 15.667 89.666 23 126.999
s16.333 70.166 27 98.499s24.334 53 41.001 74s35.834 38.333 57.501 52s48 24.5 79 32.5s64.167 12 99.5 12c14.667 0 32.167 -1 52.5 -3s51.833 -8 94.5 -18c-4.66699 -20.667 -8.33398 -41.334 -11.001 -62.001c-55.333 14.667 -105.333 22 -150 22
c-28.667 0 -54.167 -3.5 -76.5 -10.5s-41.666 -17 -57.999 -30s-29.5 -27.833 -39.5 -44.5c-14.667 -24.667 -26 -52.667 -34 -84c-5.33301 -19.333 -16.666 -74.666 -33.999 -165.999z" />
    <glyph glyph-name="circumflex" unicode="&#x2c6;" horiz-adv-x="1024" 
d="M351 1158c61.333 105.333 105.999 184.333 133.999 237c22 -0.666992 43.667 -1 65 -1s43 0.333008 65 1c34.667 -68.667 76.667 -147.667 126 -237c-11.333 0.666992 -21 1 -29 1c-7.33301 0 -16.666 -0.333008 -27.999 -1l-134 187l-148 -187
c-9.33301 0.666992 -18 1 -26 1s-16.333 -0.333008 -25 -1z" />
    <glyph glyph-name="caron" unicode="&#x2c7;" horiz-adv-x="1024" 
d="M727 1395c-61.333 -105.333 -105.999 -184.333 -133.999 -237c-22 0.666992 -43.667 1 -65 1s-43 -0.333008 -65 -1c-34 69.333 -76 148.333 -126 237c11.333 -0.666992 21 -1 29 -1c7.33301 0 16.666 0.333008 27.999 1l134 -187l148 187c9.33301 -0.666992 18 -1 26 -1
s16.333 0.333008 25 1z" />
    <glyph glyph-name="macron" unicode="&#x2c9;" horiz-adv-x="1024" 
d="M314 1234c2.66699 20.667 4.33301 42.667 5 66c62 -2 138 -3 228 -3c89.333 0 165.333 1 228 3c-3.33301 -27.333 -5 -49.333 -5 -66c-54.667 1.33301 -130.667 2 -228 2c-96.667 0 -172.667 -0.666992 -228 -2z" />
    <glyph glyph-name="breve" unicode="&#x2d8;" horiz-adv-x="1024" 
d="M346 1371c10.667 -0.666992 20 -1 28 -1c7.33301 0 16.333 0.333008 27 1c4.66699 -41.333 20.334 -71.833 47.001 -91.5s60.667 -29.5 102 -29.5s75.333 10 102 30s42 50.333 46 91c10.667 -0.666992 20 -1 28 -1s17 0.333008 27 1c-4 -63.333 -24 -110.5 -60 -141.5
s-83.667 -46.5 -143 -46.5c-60.667 0 -108.834 15.833 -144.501 47.5s-55.5 78.5 -59.5 140.5z" />
    <glyph glyph-name="dotaccent" unicode="&#x2d9;" horiz-adv-x="1024" 
d="M484 1225l3 104c17.333 -1.33301 35 -2 53 -2c18.667 0 36.667 0.666992 54 2l-3 -104c-17.333 0.666992 -35 1 -53 1c-18.667 0 -36.667 -0.333008 -54 -1z" />
    <glyph glyph-name="ring" unicode="&#x2da;" horiz-adv-x="1024" 
d="M717 1311c0 -32 -8 -61.667 -24 -89s-37.667 -49 -65 -65s-57 -24 -89 -24c-31.333 0 -60.666 8 -87.999 24s-49 37.667 -65 65s-24 57 -24 89c0 31.333 8 60.833 24 88.5s37.667 49.334 65 65.001s56.666 23.5 87.999 23.5c32 0 61.667 -7.83301 89 -23.5
s49 -37.334 65 -65.001s24 -57.167 24 -88.5zM658 1310c0 32 -11.667 59.333 -35 82s-51.333 34 -84 34c-32 0 -59.667 -11.333 -83 -34s-35 -50 -35 -82s11.667 -59.5 35 -82.5s51 -34.5 83 -34.5c32.667 0 60.667 11.5 84 34.5s35 50.5 35 82.5z" />
    <glyph glyph-name="ogonek" unicode="&#x2db;" horiz-adv-x="1024" 
d="M709 10l73.001 -0.000976562c-27.333 -21.333 -46.166 -38.5 -56.499 -51.5s-17.833 -25.833 -22.5 -38.5s-7 -24.667 -7 -36c0 -18.667 7 -35.667 21 -51s35.333 -23 64 -23c34 0 64.333 4.66699 91 14c-4.66699 -17.333 -7.5 -28.166 -8.5 -32.499
s-2.83301 -15.5 -5.5 -33.5c-34 -7.33301 -63.667 -11 -89 -11c-48.667 0 -84.834 13 -108.501 39s-35.5 56 -35.5 90c0 24 6.16699 47 18.5 69s34.166 43.667 65.499 65z" />
    <glyph glyph-name="tilde" unicode="&#x2dc;" horiz-adv-x="1024" 
d="M315 1177c0 26 0.667969 48.832 2.00098 68.499s4.16602 37.5 8.49902 53.5s10.5 28.667 18.5 38s18 17 30 23s24 9 36 9c18.667 0 39 -5.66699 61 -17s59.333 -37.333 112 -78c14 -11.333 26.167 -19.833 36.5 -25.5s20.5 -8.5 30.5 -8.5c12 0 22.333 3.33301 31 10
s15.167 17.5 19.5 32.5s6.5 40.167 6.5 75.5c11.333 -0.666992 21 -1 29 -1s17.333 0.333008 28 1c-0.666992 -52 -5.16699 -90.5 -13.5 -115.5s-19.5 -43.5 -33.5 -55.5s-31.333 -18 -52 -18c-14 0 -28.5 3.33301 -43.5 10s-38.833 21.667 -71.5 45
c-47.333 34.667 -78 56 -92 64s-26.333 12 -37 12c-7.33301 0 -14.333 -1.5 -21 -4.5s-12.334 -8.66699 -17.001 -17s-8 -19.166 -10 -32.499s-3 -36.333 -3 -69c-11.333 0.666992 -20.666 1 -27.999 1s-16.333 -0.333008 -27 -1z" />
    <glyph glyph-name="hungarumlaut" unicode="&#x2dd;" horiz-adv-x="1024" 
d="M400 1144l32.999 103.999c8.66699 24.667 25.667 78.334 51 161.001c17.333 -0.666992 37 -1 59 -1c22.667 0 42 0.333008 58 1l-75.5 -125.5c-36.333 -61 -63.166 -107.5 -80.499 -139.5c-6 1.33301 -13.333 2 -22 2c-9.33301 0 -17 -0.666992 -23 -2zM599.999 1144
c9.33301 32 19.666 64.833 30.999 98.5s29 89.167 53 166.5c16.667 -0.666992 36.334 -1 59.001 -1c22 0 41.333 0.333008 58 1l-76.5 -127.5l-79.5 -137.5c-6 1.33301 -13.667 2 -23 2c-8.66699 0 -16 -0.666992 -22 -2z" />
    <glyph glyph-name="pi" unicode="&#x3c0;" horiz-adv-x="1075" 
d="M196 0v917h-149v62h981v-62h-147v-917h-68v917h-549v-917h-68z" />
    <glyph glyph-name="endash" unicode="&#x2013;" 
d="M96 490c3.33301 27.333 4.99902 51.001 4.99902 71.001c134.667 -3.33301 282.334 -5 443.001 -5c155.333 0 303 1.66699 443 5c-2.66699 -26.667 -4 -50.334 -4 -71.001c-135.333 4 -283 6 -443 6c-156 0 -304 -2 -444 -6z" />
    <glyph glyph-name="emdash" unicode="&#x2014;" horiz-adv-x="1398" 
d="M-3 490c3.33301 27.333 5 51.001 5 71.001c204 -3.33301 437 -5 699 -5c223.333 0 456.333 1.66699 699 5c-2.66699 -26.667 -4 -50.334 -4 -71.001c-213.333 4 -446.333 6 -699 6c-248 0 -481.333 -2 -700 -6z" />
    <glyph glyph-name="quoteleft" unicode="&#x2018;" horiz-adv-x="399" 
d="M106 1053c17.333 30.667 36.6709 63 58.0039 97s37 60 47 78l80 137c11.333 -0.666992 20.666 -1 27.999 -1s16.333 0.333008 27 1c-44.667 -124 -79.334 -228 -104.001 -312c-22.667 1.33301 -45.334 2 -68.001 2s-45.334 -0.666992 -68.001 -2z" />
    <glyph glyph-name="quoteright" unicode="&#x2019;" horiz-adv-x="399" 
d="M346 1365l-58.002 -96c-21.333 -34 -37 -60 -47 -78l-79 -138c-11.333 1.33301 -20.666 2 -27.999 2c-8 0 -17.333 -0.666992 -28 -2c45.333 124.667 80 228.667 104 312c22.667 -0.666992 45.334 -1 68.001 -1c23.333 0 46 0.333008 68 1z" />
    <glyph glyph-name="quotesinglbase" unicode="&#x201a;" horiz-adv-x="399" 
d="M271 108l-58.002 -96c-21.333 -34 -37 -60 -47 -78l-79 -138c-11.333 1.33301 -20.666 2 -27.999 2c-8 0 -17.333 -0.666992 -28 -2c45.333 124.667 80 228.667 104 312c22.667 -0.666992 45.334 -1 68.001 -1c23.333 0 46 0.333008 68 1z" />
    <glyph glyph-name="quotedblleft" unicode="&#x201c;" horiz-adv-x="658" 
d="M365 1053c17.333 30.667 36.6689 63 58.002 97s37 60 47 78l80 137c11.333 -0.666992 20.333 -1 27 -1c8 0 17.333 0.333008 28 1c-45.333 -124 -80 -228 -104 -312c-22.667 1.33301 -45.334 2 -68.001 2s-45.334 -0.666992 -68.001 -2zM106.003 1053
c17.333 30.667 36.6709 63 58.0039 97s37 60 47 78l80 137c11.333 -0.666992 20.666 -1 27.999 -1s16.333 0.333008 27 1c-44.667 -124 -79.334 -228 -104.001 -312c-22.667 1.33301 -45.334 2 -68.001 2s-45.334 -0.666992 -68.001 -2z" />
    <glyph glyph-name="quotedblright" unicode="&#x201d;" horiz-adv-x="657" 
d="M605 1365l-58.0039 -96c-21.333 -34 -37 -60 -47 -78l-80 -138c-11.333 1.33301 -20.666 2 -27.999 2s-16.333 -0.666992 -27 -2c44.667 124.667 79.334 228.667 104.001 312c22.667 -0.666992 45.334 -1 68.001 -1s45.334 0.333008 68.001 1zM345.996 1365l-58.002 -96
c-21.333 -34 -37 -60 -47 -78l-79 -138c-11.333 1.33301 -20.666 2 -27.999 2c-8 0 -17.333 -0.666992 -28 -2c45.333 124.667 80 228.667 104 312c22.667 -0.666992 45.334 -1 68.001 -1c23.333 0 46 0.333008 68 1z" />
    <glyph glyph-name="quotedblbase" unicode="&#x201e;" horiz-adv-x="658" 
d="M530 108l-58.002 -96c-21.333 -34 -37 -60 -47 -78l-80 -138c-11.333 1.33301 -20.333 2 -27 2c-8 0 -17.333 -0.666992 -28 -2c45.333 124.667 80 228.667 104 312c22.667 -0.666992 45.334 -1 68.001 -1s45.334 0.333008 68.001 1zM270.998 108l-58.002 -96
c-21.333 -34 -37 -60 -47 -78l-79 -138c-11.333 1.33301 -20.666 2 -27.999 2c-8 0 -17.333 -0.666992 -28 -2c45.333 124.667 80 228.667 104 312c22.667 -0.666992 45.334 -1 68.001 -1c23.333 0 46 0.333008 68 1z" />
    <glyph glyph-name="dagger" unicode="&#x2020;" horiz-adv-x="1043" 
d="M574 884l202.001 1.00098c37.333 0 106.333 1.33301 207 4c-2.66699 -20.667 -4 -44.667 -4 -72c-127.333 3.33301 -263.333 5 -408 5l-24 -631l-20 -635c-17.333 1.33301 -30.333 2 -39 2s-21.667 -0.666992 -39 -2l45 1266l-205 -1
c-33.333 0 -102.333 -1.33301 -207 -4c2.66699 20 4 44 4 72c127.333 -3.33301 264.333 -5 411 -5l11 333c1.33301 29.333 2.66602 78.666 3.99902 147.999c18 -0.666992 31.333 -1 40 -1c10 0 23.667 0.333008 41 1z" />
    <glyph glyph-name="daggerdbl" unicode="&#x2021;" horiz-adv-x="1043" 
d="M574 884l202.003 1.00098c38 0 107 1.33301 207 4c-2.66699 -20.667 -4 -44.667 -4 -72c-127.333 3.33301 -263.333 5 -408 5l-26 -702l208 1c34 0 103.333 1.33301 208 4c-2.66699 -20 -4 -44 -4 -72l-237 5l-177 1l-16 -503c-17.333 1.33301 -30.333 2 -39 2
s-21.667 -0.666992 -39 -2l19 502l-202 -1c-37.333 0 -106 -1.33301 -206 -4c2.66699 20.667 4 44.667 4 72c127.333 -3.33301 262.666 -5 405.999 -5l25 702l-206 -1c-33.333 0 -102.333 -1.33301 -207 -4c2.66699 20 4 44 4 72c127.333 -3.33301 264.333 -5 411 -5l11 333
c1.33301 29.333 2.66602 78.666 3.99902 147.999c18 -0.666992 31.667 -1 41 -1s22.666 0.333008 39.999 1z" />
    <glyph glyph-name="bullet" unicode="&#x2022;" horiz-adv-x="1374" 
d="M968 696c0 -50.667 -12.499 -98.3359 -37.499 -143.003s-59.5 -79.667 -103.5 -105s-90.667 -38 -140 -38c-50 0 -96.833 12.833 -140.5 38.5s-78.167 60.834 -103.5 105.501s-38 92 -38 142c0 50.667 12.5 98.167 37.5 142.5s59.5 79.333 103.5 105
s91.667 38.5 143 38.5c48.667 0 94.667 -12.667 138 -38s77.666 -60.166 102.999 -104.499s38 -92.166 38 -143.499z" />
    <glyph glyph-name="ellipsis" unicode="&#x2026;" horiz-adv-x="1180" 
d="M120 0c2 27.333 3.16602 49 3.49902 65s0.833008 30.667 1.5 44c24 -0.666992 42.667 -1 56 -1c14 0 32.667 0.333008 56 1c-1.33301 -20 -2.33301 -39.167 -3 -57.5s-1.66699 -35.5 -3 -51.5c-23.333 0.666992 -41.666 1 -54.999 1c-14 0 -32.667 -0.333008 -56 -1z
M509.999 0c2 27.333 3.16699 49 3.5 65s1.16602 30.667 2.49902 44c23.333 -0.666992 42 -1 56 -1s32.333 0.333008 55 1c-1.33301 -20 -2.33301 -39.167 -3 -57.5s-1.66699 -35.5 -3 -51.5c-23.333 0.666992 -41.666 1 -54.999 1c-14 0 -32.667 -0.333008 -56 -1z
M900.999 0c1.33301 27.333 2.33105 49 2.99805 65s1.33398 30.667 2.00098 44c24 -0.666992 42.667 -1 56 -1c14 0 32.667 0.333008 56 1c-1.33301 -20 -2.33301 -39.167 -3 -57.5s-1.66699 -35.5 -3 -51.5c-23.333 0.666992 -41.666 1 -54.999 1
c-14 0 -32.667 -0.333008 -56 -1z" />
    <glyph glyph-name="perthousand" unicode="&#x2030;" horiz-adv-x="2237" 
d="M368 1379c55.333 0 102.333 -15.5 141 -46.5s67.334 -76.167 86.001 -135.5s28 -129.333 28 -210c0 -93.333 -11.833 -180.5 -35.5 -261.5s-56.834 -138.833 -99.501 -173.5s-94.667 -52 -156 -52c-58 0 -106.5 15.333 -145.5 46s-67.833 75.167 -86.5 133.5
s-28 123.166 -28 194.499c0 62.667 5.16699 124.834 15.5 186.501s27.5 117.667 51.5 168s55.5 88 94.5 113s83.833 37.5 134.5 37.5zM366 1326c-44 0 -84.1719 -16.332 -120.505 -48.999s-64.166 -83.5 -83.499 -152.5s-29 -152.5 -29 -250.5
c0 -74.667 8.5 -135.334 25.5 -182.001s41 -81.5 72 -104.5s65.5 -34.5 103.5 -34.5c36.667 0 69.834 10.333 99.501 31s54.334 53.667 74.001 99s33.334 95.333 41.001 150s11.5 108.667 11.5 162c0 76.667 -7.83301 138.167 -23.5 184.5s-38.167 82.333 -67.5 108
s-63.666 38.5 -102.999 38.5zM312.995 0.000976562l562.999 890l295 475c12.667 -0.666992 25.334 -1 38.001 -1c14 0 27 0.333008 39 1l-537 -849l-320 -516c-12.667 0.666992 -25.667 1 -39 1c-14.667 0 -27.667 -0.333008 -39 -1zM1228.99 866.001
c55.333 0 102.333 -15.667 141 -47s67.334 -76.5 86.001 -135.5s28 -128.833 28 -209.5c0 -93.333 -11.833 -180.5 -35.5 -261.5s-56.834 -139 -99.501 -174s-94.667 -52.5 -156 -52.5c-58 0 -106.5 15.5 -145.5 46.5s-67.833 75.667 -86.5 134s-28 122.833 -28 193.5
c0 63.333 5.16699 125.833 15.5 187.5s27.5 117.667 51.5 168s55.5 88 94.5 113s83.833 37.5 134.5 37.5zM1226.99 812.001c-44 0 -84.1719 -16.167 -120.505 -48.5s-64.166 -83 -83.499 -152s-29 -152.833 -29 -251.5c0 -74.667 8.5 -135.167 25.5 -181.5s41 -81 72 -104
s65.5 -34.5 103.5 -34.5c36.667 0 69.834 10.333 99.501 31s54.334 53.5 74.001 98.5s33.334 95 41.001 150s11.5 109.167 11.5 162.5c0 76 -7.83301 137.333 -23.5 184s-38.167 82.667 -67.5 108s-63.666 38 -102.999 38zM1919.99 866.001
c55.333 0 102.334 -15.667 141.001 -47s67.334 -76.5 86 -135.5c18.667 -59 28 -128.833 28 -209.5c0 -93.333 -11.833 -180.5 -35.5 -261.5s-56.834 -139 -99.501 -174s-94.667 -52.5 -156 -52.5c-58 0 -106.5 15.5 -145.5 46.5s-67.833 75.667 -86.5 134
s-28 122.833 -28 193.5c0 63.333 5 125.833 15 187.5s27 117.667 51 168s55.667 88 95 113s84.333 37.5 135 37.5zM1917.99 812.001c-44.667 0 -85.1689 -16.167 -121.502 -48.5s-64 -83 -83 -152s-28.5 -152.833 -28.5 -251.5c0 -74.667 8.5 -135.167 25.5 -181.5
s41 -81 72 -104s65.5 -34.5 103.5 -34.5c36.667 0 69.834 10.333 99.501 31s54.334 53.5 74.001 98.5s33.334 95 41 150c7.66699 55 11.5 109.167 11.5 162.5c0 76 -8 137.333 -24 184s-38.5 82.667 -67.5 108s-63.167 38 -102.5 38z" />
    <glyph glyph-name="quilsinglleft" unicode="&#x2039;" horiz-adv-x="522" 
d="M388 883l-114 -244l-52 -116l42 -117c16 -45.333 31 -85.833 45 -121.5l44 -115.5c-11.333 0.666992 -22 1 -32 1s-20.333 -0.333008 -31 -1l-29 63c-7.33301 16.667 -20 43 -38 79l-103 212c56 90.667 123.667 210.667 203 360c11.333 -1.33301 22.333 -2 33 -2
c11.333 0 22 0.666992 32 2z" />
    <glyph glyph-name="quilsinglright" unicode="&#x203a;" horiz-adv-x="524" 
d="M159 883c11.333 -1.33301 22.333 -2 33 -2c11.333 0 22 0.666992 32 2c70 -163.333 125.333 -283.333 166 -360l-145 -246l-63 -108c-10.667 0.666992 -21 1 -31 1c-10.667 0 -21 -0.333008 -31 -1l168 354l-40 117l-41 111z" />
    <glyph glyph-name="Euro" unicode="&#x20ac;" horiz-adv-x="1114" 
d="M1077 1270c-116 40.667 -215.004 61 -297.004 61c-332.667 0 -519 -179.333 -559 -538h746l-11 -62h-739c-1.33301 -14 -2 -36.333 -2 -67v-29h731l-10 -62h-719c24.667 -358.667 197.334 -538 518.001 -538c90.667 0 199.334 21.667 326.001 65l-12 -75
c-121.333 -30 -221.666 -45 -300.999 -45c-187.333 0 -332.666 50 -435.999 150s-161 247.667 -173 443h-98l10 62h86v14c0 38.667 0.666992 66 2 82h-98l10 62h92c42.667 395.333 257.667 593 645 593c86.667 0 179.667 -12 279 -36z" />
    <glyph glyph-name="trademark" unicode="&#x2122;" horiz-adv-x="1533" 
d="M632 587l10.002 86.998c1.33301 12.667 4.33301 46.667 9 102l45 588c17.333 -0.666992 32.666 -1 45.999 -1c12.667 0 27 0.333008 43 1l256 -700l292 631l29 69c16 -0.666992 30.667 -1 44 -1c14 0 29.333 0.333008 46 1l-5 -324
c-1.33301 -75.333 -2 -131.666 -2 -168.999c0 -115.333 1.33301 -210 4 -284l-37 1c-7.33301 0 -19.333 -0.333008 -36 -1c1.33301 19.333 3.5 120.5 6.5 303.5s4.5 310.5 4.5 382.5c-4.66699 -8.66699 -31.334 -66.667 -80.001 -174l-232 -512
c-16.667 0.666992 -29 1 -37 1s-20 -0.333008 -36 -1l-80 218l-175 466c-2.66699 -23.333 -5.33398 -57.666 -8.00098 -102.999l-33 -466c-1.33301 -28 -2.66602 -66.333 -3.99902 -115l-35 1zM245.002 586.998c8.66699 118 18.667 358.998 30 722.998h-18
c-75.333 0 -151.333 -1.66699 -228 -5c2 18.667 3 38.334 3 59.001c106 -0.666992 204 -1 294 -1c112.667 0 199 0.333008 259 1c-2.66699 -22 -4 -37.333 -4 -46c0 -3.33301 0.333008 -7.66602 1 -12.999c-50 3.33301 -123.667 5 -221 5h-23c-4 -80 -9.66699 -229 -17 -447
c-4 -100 -6 -159 -6 -177l1 -99l-36 1z" />
    <glyph glyph-name="Omega" unicode="&#x2126;" horiz-adv-x="1374" 
d="M62 0v63.0039h427c-44.667 24.667 -79.334 46 -104.001 64c-43.333 32 -86.333 71.167 -129 117.5s-78.667 95.666 -108 147.999s-51 107.166 -65 164.499s-21 117.333 -21 180c0 124 27.5 235.833 82.5 335.5s130.167 178.834 225.5 237.501s201 88 317 88
c114.667 0 219.667 -29 315 -87s170.833 -137 226.5 -237s83.5 -212.667 83.5 -338c0 -54 -5.5 -106.167 -16.5 -156.5s-26.5 -97.333 -46.5 -141s-45 -85.834 -75 -126.501s-66.333 -81 -109 -121c-31.333 -29.333 -62 -54.333 -92 -75c-20.667 -14 -50 -31.667 -88 -53
h427v-63h-522v59c40 22.667 75.333 44.167 106 64.5s64 46.166 100 77.499s70 68 102 110s58.833 86 80.5 132s37.667 93.167 48 141.5s15.5 98.166 15.5 149.499c0 108 -23.167 206.833 -69.5 296.5s-111.5 163 -195.5 220s-180.667 85.5 -290 85.5
c-100 0 -192.5 -25.5 -277.5 -76.5s-152.667 -123.167 -203 -216.5s-75.5 -196.666 -75.5 -309.999c0 -50.667 5.5 -100.334 16.5 -149.001s27.333 -96.167 49 -142.5s48 -89.833 79 -130.5s64.833 -77 101.5 -109s70.334 -58 101.001 -78s66 -41.667 106 -65v-59h-522z" />
    <glyph glyph-name="partialdiff" unicode="&#x2202;" horiz-adv-x="1032" 
d="M211 1316l10 63.998c50 -7.33301 92.667 -16 128 -26c56.667 -15.333 110.667 -36.666 162 -63.999s99.5 -61.5 144.5 -102.5s86 -88.667 123 -143s68.667 -115.333 95 -183s45.166 -135.5 56.499 -203.5s17 -130.667 17 -188c0 -76 -8.66699 -141.167 -26 -195.5
s-45.666 -104.666 -84.999 -150.999s-87 -82.833 -143 -109.5s-113.667 -40 -173 -40c-76.667 0 -148.667 20.833 -216 62.5s-120.333 97.834 -159 168.501s-58 148.334 -58 233.001c0 80.667 20 157.667 60 231s93.5 129.166 160.5 167.499s137.5 57.5 211.5 57.5
c33.333 0 66.333 -3.83301 99 -11.5s63.5 -18.834 92.5 -33.501s54.5 -33.167 76.5 -55.5s44.667 -52.5 68 -90.5c-21.333 68 -40 121.5 -56 160.5s-37.333 79.167 -64 120.5s-55.667 78.5 -87 111.5s-66.5 63.333 -105.5 91s-77.333 50.167 -115 67.5s-75.5 31 -113.5 41
c-24.667 6.66699 -59 13.667 -103 21zM878 445.998c0 71.333 -13.332 136.5 -39.999 195.5s-67.834 106.333 -123.501 142s-119.167 53.5 -190.5 53.5c-50.667 0 -106 -14.833 -166 -44.5s-108.5 -78.5 -145.5 -146.5s-55.5 -139.333 -55.5 -214
c0 -71.333 16.5 -138.166 49.5 -200.499s77.667 -111.333 134 -147s116.5 -53.5 180.5 -53.5c45.333 0 90 9.66699 134 29s83.667 48.166 119 86.499s61.5 83.833 78.5 136.5s25.5 107 25.5 163z" />
    <glyph glyph-name="increment" unicode="&#x2206;" horiz-adv-x="1374" 
d="M76 0l575 1365h71l575 -1365h-1221zM175 64h1023l-512 1218z" />
    <glyph glyph-name="product" unicode="&#x220f;" horiz-adv-x="1391" 
d="M75 1536h1242v-64h-157v-1920h157v-64h-398v64h173v1920h-792v-1920h170v-64h-395v64h156v1920h-156v64z" />
    <glyph glyph-name="summation" unicode="&#x2211;" horiz-adv-x="1374" 
d="M1198 1536v-436h-65l-3 370h-983l521 -913l-521 -1005h1002l2 367h66v-431h-1145v75l516 994l-516 910v69h1126z" />
    <glyph glyph-name="minus" unicode="&#x2212;" 
d="M125 736c121.333 -3.33301 265.666 -5 432.999 -5c164.667 0 309 1.66699 433 5c-3.33301 -23.333 -5 -45.333 -5 -66c-120.667 4 -265 6 -433 6c-165.333 0 -309.666 -2 -432.999 -6c3.33301 26 5 48 5 66z" />
    <glyph glyph-name="fraction" unicode="&#x2215;" horiz-adv-x="202" 
d="M-347 0l549 880l208 336l89 149c13.333 -0.666992 25 -1 35 -1c10.667 0 22.667 0.333008 36 1l-278 -441l-485 -786l-82 -138c-13.333 0.666992 -25.333 1 -36 1c-11.333 0 -23.333 -0.333008 -36 -1z" />
    <glyph glyph-name="periodcentered" unicode="&#x2219;" horiz-adv-x="132" 
d="M11 638l6 116.001c27.333 -0.666992 47 -1 59 -1s31.667 0.333008 59 1c-1.33301 -18.667 -2.33301 -37.834 -3 -57.501s-1.66699 -39.167 -3 -58.5c-28 1.33301 -47.667 2 -59 2s-31 -0.666992 -59 -2z" />
    <glyph glyph-name="radical" unicode="&#x221a;" horiz-adv-x="1374" 
d="M1369 1694v-63h-427l-513 -1631h-67l-204 652h-154v64h209l183 -593l119 394l371 1177h483z" />
    <glyph glyph-name="infinity" unicode="&#x221e;" horiz-adv-x="1374" 
d="M687 648c-54 -84.667 -108.502 -147.666 -163.502 -188.999s-118.833 -62 -191.5 -62c-56 0 -106.333 13.167 -151 39.5s-78.667 63.333 -102 111s-35 99.167 -35 154.5c0 56 11.667 106 35 150s58.333 79.5 105 106.5s97 40.5 151 40.5c28.667 0 55.5 -3.5 80.5 -10.5
s50 -17.667 75 -32s49.333 -32.666 73 -54.999s44.667 -45.333 63 -69s38.166 -51.834 59.499 -84.501c42 65.333 81.667 115.5 119 150.5s74.333 60.5 111 76.5s76.667 24 120 24c58.667 0 110.334 -13 155.001 -39s78.834 -62.667 102.501 -110s35.5 -98.333 35.5 -153
c0 -57.333 -11.667 -108.833 -35 -154.5s-58.166 -81.5 -104.499 -107.5s-96.833 -39 -151.5 -39c-40.667 0 -79 7.16699 -115 21.5s-73.833 39.666 -113.5 75.999s-80.5 87.833 -122.5 154.5zM650.998 697.001c-47.333 76.667 -95.6689 135.999 -145.002 177.999
s-105.666 63 -168.999 63c-42 0 -80.667 -10.167 -116 -30.5s-62.166 -49.5 -80.499 -87.5s-27.5 -79 -27.5 -123s8.83301 -84 26.5 -120s44.834 -65 81.501 -87s76 -33 118 -33c25.333 0 50.833 4 76.5 12s51.667 21.833 78 41.5s50.166 41.834 71.499 66.501
s50 64.667 86 120zM722.995 698c48.667 -79.333 97.502 -139.333 146.502 -180s104.5 -61 166.5 -61c42 0 80.667 10.167 116 30.5s62.166 49.5 80.499 87.5s27.5 79 27.5 123s-8.66699 84 -26 120s-44.5 65 -81.5 87s-76.5 33 -118.5 33
c-24.667 0 -49.667 -3.83301 -75 -11.5s-50.833 -21 -76.5 -40s-49.834 -41.333 -72.501 -67s-51.667 -66.167 -87 -121.5z" />
    </font>
</defs>
</svg>
